<mxfile host="app.diagrams.net" modified="2024-06-08T19:24:17.826Z" agent="Mozilla/5.0 (Windows NT 10.0; Win64; x64) AppleWebKit/537.36 (KHTML, like Gecko) Chrome/125.0.0.0 Safari/537.36" etag="gv46HvJlYnYHFZUKin2k" version="24.4.14" type="github">
  <diagram name="Page-1" id="xs4dKiWghcONoSkTjYH9">
    <mxGraphModel dx="1050" dy="522" grid="1" gridSize="10" guides="1" tooltips="1" connect="1" arrows="1" fold="1" page="1" pageScale="1" pageWidth="850" pageHeight="1100" math="0" shadow="0">
      <root>
        <mxCell id="0" />
        <mxCell id="1" parent="0" />
        <mxCell id="jrvFbXfNLcxa4pNPMtaE-1" value="" style="rounded=1;whiteSpace=wrap;html=1;dashed=1;fillColor=#dae8fc;strokeColor=#000000;" vertex="1" parent="1">
          <mxGeometry x="470" y="194" width="180" height="246" as="geometry" />
        </mxCell>
        <mxCell id="f6CLLwjRCBaYlmEwOCbh-4" value="" style="rounded=0;whiteSpace=wrap;html=1;strokeWidth=2;fillColor=#FFF2FC;" parent="1" vertex="1">
          <mxGeometry x="80" y="80" width="370" height="120" as="geometry" />
        </mxCell>
        <mxCell id="f6CLLwjRCBaYlmEwOCbh-5" value="" style="triangle;whiteSpace=wrap;html=1;rotation=90;strokeWidth=2;fillColor=#F0FFED;" parent="1" vertex="1">
          <mxGeometry x="110" y="80" width="30" height="50" as="geometry" />
        </mxCell>
        <mxCell id="f6CLLwjRCBaYlmEwOCbh-6" value="" style="rounded=0;whiteSpace=wrap;html=1;strokeWidth=2;fillColor=#F0FFED;" parent="1" vertex="1">
          <mxGeometry x="160" y="110" width="120" height="60" as="geometry" />
        </mxCell>
        <mxCell id="f6CLLwjRCBaYlmEwOCbh-7" value="" style="rounded=0;whiteSpace=wrap;html=1;strokeWidth=2;fillColor=#F0FFED;" parent="1" vertex="1">
          <mxGeometry x="320" y="110" width="110" height="60" as="geometry" />
        </mxCell>
        <mxCell id="f6CLLwjRCBaYlmEwOCbh-9" value="" style="endArrow=classic;html=1;rounded=0;exitX=1;exitY=0.5;exitDx=0;exitDy=0;entryX=0;entryY=0.5;entryDx=0;entryDy=0;strokeWidth=2;" parent="1" source="f6CLLwjRCBaYlmEwOCbh-5" target="f6CLLwjRCBaYlmEwOCbh-6" edge="1">
          <mxGeometry width="50" height="50" relative="1" as="geometry">
            <mxPoint x="400" y="280" as="sourcePoint" />
            <mxPoint x="450" y="230" as="targetPoint" />
            <Array as="points">
              <mxPoint x="125" y="140" />
            </Array>
          </mxGeometry>
        </mxCell>
        <mxCell id="f6CLLwjRCBaYlmEwOCbh-10" value="" style="endArrow=classic;html=1;rounded=0;entryX=0;entryY=0.5;entryDx=0;entryDy=0;exitX=1;exitY=0.5;exitDx=0;exitDy=0;strokeWidth=2;" parent="1" source="f6CLLwjRCBaYlmEwOCbh-6" target="f6CLLwjRCBaYlmEwOCbh-7" edge="1">
          <mxGeometry width="50" height="50" relative="1" as="geometry">
            <mxPoint x="190" y="200" as="sourcePoint" />
            <mxPoint x="240" y="150" as="targetPoint" />
          </mxGeometry>
        </mxCell>
        <mxCell id="f6CLLwjRCBaYlmEwOCbh-11" value="" style="rounded=1;whiteSpace=wrap;html=1;strokeWidth=2;fillColor=#F7FFC2;" parent="1" vertex="1">
          <mxGeometry x="480" y="220" width="160" height="80" as="geometry" />
        </mxCell>
        <mxCell id="f6CLLwjRCBaYlmEwOCbh-12" value="" style="rounded=1;whiteSpace=wrap;html=1;strokeWidth=2;fillColor=#F7FFC2;" parent="1" vertex="1">
          <mxGeometry x="480" y="340" width="160" height="80" as="geometry" />
        </mxCell>
        <mxCell id="f6CLLwjRCBaYlmEwOCbh-13" value="" style="shape=image;verticalLabelPosition=bottom;labelBackgroundColor=default;verticalAlign=top;aspect=fixed;imageAspect=0;image=data:image/png,iVBORw0KGgoAAAANSUhEUgAAB4YAAAQQCAYAAAAOMjZfAAAABHNCSVQICAgIfAhkiAAAIABJREFUeF7s3Qm4ndO9P/CVSBBDehVxU1XhIiGGqLEhNOYxAyU1K4qomVLq36B6U62mVRGpJGZCQ4W45inmalWpKWhFq4aWqyWmIPn7ve3ed5/5PSc7yd7n/aznOU9k7/W+72991hFOvnut1WXuZy1pBAgQIECAAAECBAgQIECAAAECBAgQIECAAAECBAgQINBpBbp22pEZGAECBAgQIECAAAECBAgQIECAAAECBAgQIECAAAECBAhkAt041L7Ab3/727TPPvu0WOjOO++cxowZU/sDUSEBAgQIECBAgAABAgQIECBAgAABAgQIECBAgAABAgtFQDC8UNjb99A+ffqkH/3oR00uuv/++9O0adPS4MGD23dDvQkQIECAAAECBAgQKKzAnXfemV5++eXy+A8++OC6toixxJiirbjiimmHHXbo8Hg6eq+OXtfhQgt4IeMCTrohEyBAgAABAgQIECBQdYEuzhiuuukCueFrr72WhgwZkoYOHZpOO+20BfJMDyFAgAABAgQIECBAoL4FPvnkk9S7d+/05ptvlgdy2223pe22265uBzZ16tQ0fPjwrP5tttkm3XHHHR0eS1v3uueee9Jxxx2Xfv/73zd4RlvXdbggF5YF2jJuaW4QEiBAgAABAgQIECBAgMD/CThjuE6/GyIMXnrppdO3v/3tOh2BsgkQIECAAAECBAgQWNACU6ZMaRAKx/PHjh27oMuou+f9/e9/T8OGDUtbbbVVeu655+qu/s5csLnpzLNrbAQIECBAgAABAgQIVFvAVtLVFl0A95s+fXp64IEH0nnnnZcWW2yxBfBEjyBAgAABAgQIECBAoDMITJw4sckwbr755vTXv/4124a5Htv666+fSuOa1zG0dK8nnngi3XDDDS3yVLOGepyDhVlzW3OzMGvzbAIECBAgQIAAAQIECNSagGC41mYkRz0/+9nP0lprrVXX273lGKYuBAgQIECAAAECBAhUUSDOaL377ruzOy6yyCKpX79+6emnn06ffvppuuiii9L/+3//r82nzZ49O/36179Oyy+/fFpjjTVS165tb0L1/PPPp7gufobJ07/NIhp1WHnllVNb5yTH8x977LEUW2lHiLvUUks1+5g892ruwrzXzZkzJz311FPpo48+Suutt15adNFF2zXcWbNmpccff7zVMbTnhrHaNo4pWnvttZvMzYsvvpjeeOONtNFGG+WqM69xe+qrdt96qLHaY3Y/AgQIECBAgAABAgQIVAq0/VM8rw4LxA/98ZcsedrHH3+con9bLf4S4Jlnnkn7779/W129T4AAAQIECBAgQIAAgbJAhL+ltsMOO6RDDjmk/PvmVhJX0sX5rgMGDMh2LNpiiy3SmmuumRZffPG03377ZeFhcy0+0BoBct++fdM666yTlltuuTR+/Ph00003pZ49e2ZfRx99dPnSyZMnl1/fZ599mtwyXitdF31LrfJ+Q4YMaXDdr371qyz0jLoHDhyY1R5H8qy00krpnHPOafKM5u71jW98I1XeN0LdUh0R1EZrrYZ4P36Gi62owywC4Y033jgtscQSafDgwenBBx9sUkfUXWkU4fqWW26Z1V4aQ1z7pz/9Kfd3+KWXXlq+Z/xzfBCgV69eWT0rrLBCipA42g9+8INs3lZfffW0+eabZ3aDBg1qts7o317jjs5zcwPNMzcdqTE3qo4ECBAgQIAAAQIECBCoMwHB8HycsJEjRzb4y5bmHnXBBRekTTfdNPvLivjae++907PPPttiVbF9WY8ePRr8xcR8HIJbEyBAgAABAgQIECDQSQQqg+EIdCNojZXD0f785z+nW2+9tdmRRlA4fPjwFFv2Vrb4cOsVV1yRvvzlL5dDxdL7J554YjruuOManGf89ttvp/gZady4cendd9/Nvj744IPyLWM1b3OvlzpE39L70bfUWrouAsjdd989WxXduL3yyivp29/+doo6K1tz9/rwww8b1Bn9S3W0VUO8H6F6GMXPcmFWavEh4nvvvTcLX8OksW3pGb/5zW+ynxnvu+++Bn3i2giHKy1a+1atHFvM21lnnVXuHkFwfEUAftpppzU5hzqOMoo6b7zxxgaPqJZx5U1bmufmxpZnbjpSYyf5V94wCBAgQIAAAQIECBAg0ERAMDyfvilGjx6d/ZDfWjv11FNTfIo+th0bNWpUik87xyfJv/71r6cXXnih2UvvuOOOtNVWW5X/Amc+le+2BAgQIECAAAECBAh0IoHbb789RRgabckll8wC0wgCd9ppp/IoG4eT8UaEkhEUltqBBx6YBZwRMn/hC1/IXn711Vezn2dK7eGHH04/+clPyr/fZptt0vXXX5+uuuqqbOXwLbfcskBkSzV17949e/Z7772X/vnPf6af/vSn5efHz2NxvnJrLcLXHXfcsdwlwvRYbR1f3bq1fjpTrOiND//GKuNo/fv3T/Hh4EsuuSRbwVxq3/rWt1pckfvII49kHw6Oa2677bZ0zDHHlK+LQD9WK7e33Xnnndn3wR577JEFvvEhgbFjx6Zp06Zlt1pmmWXSL37xi+x5lfMfO1e988475cdVy7i99Zf655mbhV1jR8fmOgIECBAgQIAAAQIECMwPAWcMV1k1thKLwDd+gG6txZbQ1113XfbJ79jGq9TiL03ih/LY1uvqq69ucIs4E+zNN9/MPhWuESBAgAABAgQIECBAIK9AbOFcaiNGjCgHmhFulsLAm2++OQtJV1xxxXLfCE5Lbd99900XX3xx+ferrbZatq3xqquummI1cKlFwFhqsWVyfLi11GIL6zjb+G9/+1ve0jvcr/LDtlFjbN0c7dhjj81qjvOOo/7Ysrm1duihh2b9S4F2hMETJkzIVVdsV11aFR2heIS8pToOOOCALJgv3Td+jpw+fXqz9w3DOKM52nbbbZci2C2thK60z1XUvzvFFtBxr2hxrFHMS6lFeB3fJ6XnRaB+3nnnZcF6rDY+4ogjsveqZdyeuiv75pmbhV1jR8fmOgIECBAgQIAAAQIECMwPASuGq6gaW69tv/32WSgc50e11qZMmZK9fdRRRzXotv7662crgiM4fvHFFxu8V9piunfv3lWs2q0IECBAgAABAgQIEOjMAnF2bOUWwLHqt9R22WWX7OzfaLG1ceV20/Fa5ereWGVc2eLc2VgJ+8c//jFVnvkb2w6XWgR3lS1WosYzF0SLM3KjxfbN8YHcVVZZJUUYe/nll6cNNtggq6OtUHhe64wPA5faySefXA6FS6+dccYZ5fdjq+jZs2c3eWTMTykULr1ZGeI2/rkxT83/+Z//WQ6Fo/9bb73VIOSNlcSVLX5GLbW77767/M+1YNzWeOuhxrbG4H0CBAgQIECAAAECBAhUS0AwXCE5Y8aMNl1jK7DSNmCNO8cWXrHFV3y6+uyzz271XvFJ8fikeZw11bjFX7BE+/3vf9/grfh0drT11luvzTp1IECAAAECBAgQIECAQAjEDkUR+pbaNddck4488sjs6+ijj24Qjl544YUN0CpXoy611FJNQBdddNEmr73xxhvl15r7UGvlFsrzc4ZitXPpDOV4zsyZM9Nll12WYjvkL37xi9lOTI899th8KyHO9K1cGR0rrBu3CKgr24MPPthmn+gQ22OXWunnxPYMZKONNmrQvbFDrGpefPHFy1977rlnuf9f/vKX8j8vbOM8Y66HGvOMQx8CBAgQIECAAAECBAhUQ0AwXKEYn46PULel9sQTT2TnOcXZVM21kSNHpji7q/LT1M31i226Xn/99dSrV69s+7LGLc76itY4GI6tvCK8rvxLgGp8E7gHAQIECBAgQIAAAQKdV6DxKuDzzz8/VX7Fh19LLc4hjp2QWvo5Jo9Scz/jVF737rvvtnmb+JmpcYugtT0ttmn+3e9+lwXBzf0Mde+996b4UO6TTz7Zntt2uG9bLi3duK1zjDtSUONAvznvyvtG7Ysttlj2VTqrOt6fV+NqzHNb45/XGtu6v/cJECBAgAABAgQIECBQTwKC4YrZilW+sQ1ac+FwhMKnnXZatrXa5z//+WbnuH///s0GvY07x4rj+MR+c58Yj76lH9JbWplcT99gaiVAgAABAgQIECBAYOEJxArU0pE0eauoPCP4c5/7XPmyWbNmNbnFD37wgzR16tT03HPPld/70pe+VP7n5laz5lml21wI3JGVseuuu262YvrDDz/Mzjo+/fTTG3yQN87/jbNz50eLQLfSrzKALz0vjhCqbJttttn8KKXJPRsH5ZU/m8Yq6/fffz8za+4rzqGubPNiXK15bgttXmps697eJ0CAAAECBAgQIECAQD0JCIYbzdY555zTJByOUPh73/teFgqXVvPOyyTPnTs3u7ylT4yXXq/c7m1enudaAgQIECBAgAABAgSKKXDJJZeUBx7bFv/P//xPs1/f/va3y/1ixXAp/Ntuu+3Kr0+cOLEBYgS88eHZ4cOHpwjeSufjlo7Gic6Nr4n7Xn/99c1ORuXK2MbhcWxp/fDDD+eexAhhjz322LTbbrulIUOGZD97bbPNNmnUqFHprrvuSpXjjRC0rVa5JXVbq2sr7zV06NDyb8eMGZMaB6Hx82epbbHFFuUPCbdVT7XfX2ONNbIdraLFz6GVZ1LHa+PHj8/OZ45tmUtz01Hjas5z1Nba3HS0xmr7uh8BAgQIECBAgAABAgRqRUAw3MxMVIbDf/jDH7JQOP5CoxqhcDyuS5curc5/6S8aOrrVWK18c6mDAAECBAgQIECAAIGFJxCB5+WXX14u4MADD8y2/m3u65RTTilvtxzBYGn76aOOOqp8/S233JLirNlYITxp0qQ0bNiw8ntx7E1p56PDDz+8/Prdd9+d9ttvv2x76smTJ2fn+rZ0NE+fPn3K18XROyeeeGJ6+eWXs2u33Xbb9PHHH+fGjLAwVj5HCD1t2rR00kknpXfeeSe7/plnnsmOACq1xuf8NveQyhW1UcfPf/7zFEFv6Z4tFXbCCSeU33r00UdTrAieMmVKZhh+V199dfn9s846K/f45kfHI444onzbww47LMVZ1PE9FL/GXMT5zMcdd1x6/vnns34dNa7mPEcdrc1NR2ucH77uSYAAAQIECBAgQIAAgVoQEAy3MAsRDscZv0ceeWRVQ+F4XJzLFC3+kqO5VvoLj8UXX7wWvkfUQIAAAQIECBAgQIBAHQpcccUVqXQ8TQRke+21V4ujWGaZZVKEu6V24YUXZv8Yq38rw80INWOF8CGHHFI+a/YLX/hCqlz5GkHryJEjy/eKOnbccce09957pxdeeCEtt9xyzdbxla98JcXxPKX2k5/8JEWIGNfGOcDx3Lxt5ZVXzsLbUvvxj3+cbescH9KNZ8SuUNHWX3/9VBmItnT/FVdcMS255JLlt4855pjMJcLe1lqspI7znEst+ke4HmO54YYbyq9Hn8qV1nnHWc1+J598ctp4442zW/7tb39LX//617Mxx6+lMD9WQJe+jzpqXM15jlpbm5uO1lhNV/ciQIAAAQIECBAgQIBALQkIhluYjTjrKT6lvtFGG6Vrr722qnMWK4HjL0Man81UekjpU+drrbVWVZ/rZgQIECBAgAABAgQIFEcgVvWWWqwSXnbZZVsd/EEHHVR+/5VXXslW6kaL0Dd2UPriF7/Y4PoImyPgfOSRR9IKK6zQ4L1x48Zl20xXnmUbPwNdcMEFDVYaNy4oViXHlsqVLYLc2P45toJuT4vAN1YLr7POOk0u69GjR4rV0Pfee2/K84Hc+Bkuai99yLd0wzzbSkcdDz30UIOzjUvXR4geZx/nCafbM/aO9A2HcI5VweFT2ZZeeulsJ61f/epXDV7vqHE157mtuelojR0xdA0BAgQIECBAgAABAgRqXaDLZ+fd/uvAW60sEKFw5ZnCsW3Wf/3XfzX41Hserr59+6aBAwemiy++uEn3448/vny2V+XWV9ExzruKM51iW7H4BLtGgAABAgQIECBAgACBWhCIbYTj3NZYSRorPyvPi22uvjhTN8LXCBqjf4R43/zmN8tnD8fK4wkTJjS59C9/+Ut69tln06qrrtpgq+COGsyaNSsLZyPIjRXOa6+9dlZLe1uMJ7bHjms7cibwhx9+mB544IGsjgiF2wrr21tftfpHfbFK+9VXX80+EJDHqyPG1ZznPHPTkRqrZeo+BAgQIECAAAECBAgQqAWBmg2G4wfRyKzjU+httdh6Ofp15Af7xvf+3e9+l84444wm20dHWBvbUMXW0nlba8HwPffck+Lsrd122y2NHj26fMvXXnst2yqtV69eDc69yvtM/QgQIECAAAECBAgQIFDLAnmC4VquX20ECBAgQIAAAQIECBAgQKBeBdr/EekFNNI4kyo+Pd5S++CDD1KcEzVgwIDs08vxFSFrfPq6o+23v/1t+v73v9/smcLxrPg0c+U5VR19Tlw3ePDg7Pym2IorQucIiq+77rrsvKkY23e/+915ub1rCRAgQIAAAQIECBAgQIAAAQIECBAgQIAAAQIECBAgUBaoyWA4VtDGdmOttVhtG+dc9evXL5155pnZ6tvY5urggw/OQtaOtNi++cILL0zLL798s5efffbZ6b333ssC4mq0888/P+26667ZttFR/6mnnpptKXbuueemLbfcshqPcA8CBAgQIECAAAECBAgQIECAAAECBAgQIECAAAECBAikmtpKOs77iXD0tttuy6ampfN5p0+fng499NC0+eabp0mTJpWn8cUXX0xDhgzJgt3oUy8txh3nN8X5UrH9tEaAAAECBAgQIECAAIHOKjB58uT04IMPZsPbbLPN0l577dVZh2pcBAgQIECAAAECBAgQIECgpgS61Uo1t956a7aN85tvvpmGDRuWpk6d2mJpjzzySPbeHnvs0aDPaqutljbaaKMU78d2zD169KiV4bVax1JLLZWF4BoBAgQIECBAgAABAgQ6u0AEwcLgzj7LxkeAAAECBAgQIECAAAECtShQM1tJ33TTTVmQe8EFF6TYsrm11rt37+zt1157rUm3t956Ky2yyCKpW7eaybxrcd7VRIAAAQIECBAgQIAAAQIECBAgQIAAAQIECBAgQIBAgQRqJhgeOXJkuv3229NWW23VJv+OO+6YevbsmSZMmJBmzJhR7j927Nj0wgsvpJ122il17969zfvoQIAAAQIECBAgQIAAAQIECBAgQIAAAQIECBAgQIAAgSII1Myy2v79++f2jjOE41yq0047LTtTOELijz/+OPs65JBD0rHHHpv7XjoSIECAAAECBAgQIECAAAECBAgQIECAAAECBAgQIECgswvUTDDcHuhPP/00XXXVVenJJ59MK620UopQefbs2em+++5LsSX1FltskTbZZJNct+zbt2+ufjoRIECAAAECBAgQIECAAAECBAgQIECAAAECBAgQIECgngSOOuqodOSRR/6r5Lk12tZYY425Bx54YLPV/fd///fceP+UU06Z+1lIXO4zc+bMuZtvvvnctddee+5LL72Ua2Rxn87cBg8e3JmHN3ffffft1OOLwZ188smdeoyd/d/Bzj4+36P1/69nZ/8zJmaos/+3orP/OXPeeefV/79obYzA/6/V/xR39j9LO/ufM519/vz/mj9j6kGgs/8509n/W+//1+rh37LWa+zsPzPF6Dv7nzOdfXz+f63+/5zp7N+jnX18Rfj7tc78/2vx/Vn5/2s1c8Zw3mR9zpw56YorrkhLL710OuOMM1LXrv83hJVXXjnbRjpWD0cfjQABAgQIECBAgAABAgQIECBAgAABAgQIECBAgAABAgRSqrtgeNasWemTTz5JG2ywQerevXuTOdxyyy2z115//XXzS4AAAQIECBAgQIAAAQIECBAgQIAAAQIECBAgQIAAAQKfCdRdMNyjR49s4j7bKrrZCfzrX/+avb7ooouaYAIECBAgQIAAAQIECBAgQIAAAQIECBAgQIAAAQIECBD4TKDuguFYJRyrhV9++eV0++23N5nESZMmZa8NGjTIBBMgQIAAAQIECBAgQIAAAQIECBAgQIAAAQIECBAgQIDAZwLd6lEhzhYeMWJEOuGEE9JBBx2UBgwYkD7++ON0zTXXpAceeCBtuummafjw4fU4NDUTIECAAAECBAgQIECAAAECBAgQIECAAAECBAgQIECg6gJ1GQyvvvrqafLkyWnUqFFp/PjxZZRu3bqlAw88MB1//PFVh3JDAgQIECBAgAABAgQIECBAgAABAgQIECBAgAABAgQI1KtAzQbDM2bMaNW0b9++6eqrr07/+Mc/0jPPPJPi7OH11lsvde1ad7tj1+v3jroJECBAgAABAgQIECBAgAABAgQIECBAgAABAgQIEKgTgS5zP2t1Uut8KTMC5rZC6PnyYDclQKAQAv6MKcQ0GySBhSrgz5mFyu/hBAoh4M+ZQkyzQRJYqAL+nFmo/B5OoBAC/pwpxDQbJIGFJuDPmIVG78E5BBp/f1pemwNNFwIECBAgQIAAAQIECBAgQIAAAQIECBAgQIAAAQIECNSzgGC4nmdP7QQIECBAgAABAgQIECBAgAABAgQIECBAgAABAgQIEMghIBjOgaQLAQIECBAgQIAAAQIECBAgQIAAAQIECBAgQIAAAQIE6llAMFzPs6d2AgQIECBAgAABAgQIECBAgAABAgQIECBAgAABAgQI5BAQDOdA0oUAAQIECBAgQIAAAQIECBAgQIAAAQIECBAgQIAAAQL1LCAYrufZUzsBAgQIECBAgAABAgQIECBAgAABAgQIECBAgAABAgRyCHTL0UcXAgQIECBAgAABAgQIECBAgAABAgQIECBAgACBGhTo27dvDVZVrJLMQbHme2GMdsaMGVV5rGC4KoxuQoAAAQIECBAgQIAAAQIECBAgQIAAAQIECBBYOALVCo0WTvWeSoBAawLV/OCBraR9rxEgQIAAAQIECBAgQIAAAQIECBAgQIAAAQIECBAgQKCTCwiGO/kEGx4BAgtXwCf1Fq6/pxMogoA/Z4owy8ZIYOEK+HNm4fp7OoEiCPhzpgizbIwEFq6AP2cWrr+nEyBAgEDtCAiGa2cuVEKAAAECBAgQIECAAAECBAgQIECAAAECBAgQIECAAIH5IiAYni+sbkqAAAECBAgQIECAAAECBAgQIECAAAECBAgQIECAAIHaEehWO6WohAABAgQIECBAgAABAgQIECBAgAABAgQIECBAoBoCXbp0qcZt6vIec+fOrcu6FU1gfgsIhue3sPsTIECAAAECBAgQIECAAAECBAgQIECAAAECBBaGwPF3LYynLtxnjtl64T7f0wnUsICtpGt4cpRGgAABAgQIECBAgAABAgQIECBAgAABAgQIECBAgACBaggIhquh6B4ECBAgQIAAAQIECBAgQIAAAQIECBAgQIAAAQI1LTB58uT0zW9+M916660t1nn55ZdnfWbNmtXhsbz11lsdvrZWLhw3blw6+uijF0g5999/f2b+4osvzvPzFmTdbRX785//PB1//PFtdVug7wuGFyi3hxEgQIAAAQIECBAgQIAAAQIECBAgQIAAAQIECCwMgQcffDBNnDgxHXDAAenvf/97syXcd999WZ+PPvqo3SU+99xzae21106PP/54u6+ttQvuvPPOdMkllyyQsp5//vnM/LXXXpvn5y3Iutsq9vbbb0/xQYNaaoLhWpoNtRAgQIAAAQIECBAgQIAAAQIECBAgQIAAAQIECMxXgb/97W/pW9/6VtWf8Zvf/CY9/fTTVb/vwrjhySefnK666qqF8eh5ema91j1Pg27Hxd3a0VdXAgQIECBAgAABAgQIECBAgAABAgQIECBAgAABAnUt0KdPnzRlypTsa4899mjXWObMmZPiq1u36kVss2fPTosuumiuOj755JNWnx21de067+tCN9lkkxbrae0ZbdVXuum81tmSWVt1x/Pz+ER9efu2Z/4qUTt6Xa5vlBY6zft3xrw83bUECBAgQIAAAQIECBAgQIAAAQIECBAgQIAAAQIEFqDAT37yk7TccsulI444osUtpRuXE9tQb7nlllmA271797TCCiukUaNGpQj3osUZuaVVyLvttltaZZVVWh3RlVdemQYMGJCFvIsttlj26+DBg9OTTz7Z5LrHHnssbb311lmfeHbv3r3T6NGjG/S76aabsm2sF1lkkazG2C576tSpafnll09xhm+p7bXXXqlfv35NnhFbHlf2jesrxxDXxWvjx49Piy++eFpiiSXSNddck93nqaeeSttuu225vpJNhMSN24033pjWWmutcp2HHXZY+uCDD3LNfmz//Y1vfCN7fpjFOMMlnl9qjeuO18Om8pkxP3HedIw3tp6OFuOLr/j9uuuuW64v5qS5s4/bM3+Vg8szhlwYHexUvY8zdLAAlxEgQIAAAQIECBAgQIAAAQIECBAgQIAAAQIECBBYUAIRCI4bNy7tueeeWaAbAWprLc6K3WmnndLKK6+cXReh8i233JLOPPPM9MADD6S77ror7b333tlK4osuuigdeuihaZ111mnxlnGPCJF33HHHdMopp2Rh76OPPprGjBmTdt555/Tyyy+XV7XG9tSDBg3KwuBf/OIXaZlllslWOp966qnp/fffT9///vdThK1Dhw5Nm2++ebrhhhuyOs4666wUdb/55psNzkt+991301tvvdWktgi4K/s27he//9Of/pQFqkOGDMnOA+7bt2+K0DrC02WXXTaz6dWrV2YSNk888UQD21Kd66+/frZNddR59tlnZ+PJ0yLQjXOczznnnPSlL30pvfrqq1k4v8UWW6Q///nPaamllkqN6465HT58eFpvvfXKW2P/+Mc/TgcffHAWSJeC/bju2WefTdOmTcvmL+bl4YcfTuedd14293EOcqm1Z/4ajyvPGPJYdLSPYLijcq4jQIAAAQIECBAgQIAAAQIECBAgQIAAAQIECBCoS4FhIRocAAAgAElEQVTYQnr33XdP1113XRZ2xmrRllqsao0w+ZFHHsl+jRYBX4ST3/ve99Kll16araZ95ZVXsmB4hx12SNtss02L94swtH///unmm28u94n7ffjhh+ncc8/NwtaNNtooe+/YY4/NVsjGs2MlbunZEYrGfSIYPfHEE7Na7rjjjqxvtHh+a+F0RyYtgtOJEydmoWqpfeUrX8lWClfWN2zYsMzpO9/5Trr11lszj2hRZ2zjHcFxrDiOtuuuu2Z1vv32262WFCF4XBdnCB955JHlvp/73OfS2LFjs1C3ZFZ5o2OOOSatvvrq6aGHHio/M4LiDTfcsMl50BF8R2Bd+l6IXz/66KN04YUXZnOywQYbZLduz/xV1tLRMXRkrlq6xlbS1dR0LwIECBAgQIAAAQIECBAgQIAAAQIECBAgQIAAgboQuOCCC7LVv7F694033mi25lixO3PmzCz4LYXCpY4nnHBCtuVwrDJtT3vppZeyoLJxK93/n//8Z/ZWBMXRL1YDl0Lh0jWTJk3KVs/GNscvvPBCGjFiRDkUjj6xevaggw5qT1lt9o2xhkOpxbbIEQg3V19pW+3SdtNRa9S57777lgPauE/Pnj1z1RnbRsf20bHldQT5YRMtwtvY5ru5UDjmLlYSR5BdCqLjmgjPYxvxxi3GF46VbeDAgdlvK78/8s5f4/t3ZAxtTko7O1gx3E4w3QkQIECAAAECBAgQIECAAAECBAgQIECAAAECBOpfoHJL6VgV3NyW0hEKRyutFq0cdYSNEWw+88wz7cLo2rVrFjbHauXYojhWGkeIGatTK1uskG3p2auttlr2XmzPHC22Sm7cYlVyNVuMN1YHl1rUHC2C2jjHt7lW2ra6tBVznPXbuDX3WuM+8dwJEyZkZwzHtt0R4m622WbZiuP99tuvSXAe15fmLlYMN26xwrpxi/HF3FS2xr+P9/LOXzXGUM35i3sJhqst6n4ECBAgQIAAAQIECBAgQIAAAQIECBAgQIAAAQJ1IVC5pXSsRm2pRRDZUouzctvT4lzg2IJ6ySWXTNttt122lXJsjxxbGcfZwaVWum9pe+j2PCP6NhdqtvceefqHYWwp3VyLraOjlcbSXE2t2VbeMwLg2CI7AvU4Pzm2qb7vvvvS6aefnu65555mVw3nqb+9ffLOX3P3XdhjEAy3d7b1J0CAAAECBAgQIECAAAECBAgQIECAAAECBAgQ6DQCsaX0/fffn+I82s0337zBuHr16pX9fsaMGU3G+8knn6R33nknffWrX81tEVs/RygcWxRHmBnbC5faGWec0eA+pVXAv/71r9Ohhx7a4L1YrRvBaKneP/zhD01qKK3WbfzGxx9/3KTv008/nXsMpY6rrrpq9o9xzm9zWzPHds+lUHullVbK+pZWDlc+7PXXX8/17NmzZ2dheoTo8RX+cf5vbFsd5/5ee+21De5Tqi/GFmc4V7bYYrojrT3z19z92zuGjtTY2jXOGK62qPsRIECAAAECBAgQIECAAAECBAgQIECAAAECBAjUjUBsKT127Nj09ttvNzkveNCgQSnC4UsvvTRFqFfZJk6cmD799NMs5K1sra0gjrN2ow0ZMqRBKByvXX/99dl7pefEucJrrrlmtjq2dKZu6TlRbwTJ/fr1S7FVcpzl27jPRRdd1GQOIoieNWtW9lXZ7r777nbPVzw7VgTHCt6wq2yxtXSPHj3SSSedlL0cW3HH9s1XXnllE8ewbavFltlxxvBll11W7hrbSx9++OGpe/fu5RXJlfeJZ/bt2zeFQ2V977//fho3blxbj2z2/fbMX+MbdGQMHSqylYsEw9UWdT8CBAgQIECAAAECBAgQIECAAAECBAgQIECAAIG6EojtkOOrcYutj3/0ox9lK4a33XbbdPPNN6cnn3wyjRkzJh177LFZcBurV6OVVv9GYNzSttQRVkbAGcHuww8/nIWk8Wvcu7SatjJY/uEPf5idQbzjjjtmAfFjjz2WRo0alQWksYq4d+/e2b3iPN3tt98+3XnnnSlWGO+zzz7poYceajKeLbbYIguz99xzz2wsEeDusMMO6bXXXuvQfJ177rkpVvxuueWW2XnHUd+kSZPS/vvvnwXqJ5xwQvm+JccYS6yWjnF/7WtfS0888USbz95ll11SrACOrbZjlXCsmI6xxjhjBfSIESOavUfJJs4jHj9+fHZtBPlh2pHW3vmrfEZHx9CROlu6RjBcTU33IkCAAAECBAgQIECAAAECBAgQIECAAAECBAgQqEuB888/PwszG7cDDjggXXXVVdkZwDvvvHOKLZ5jJWyEkdOnTy9vlxyBZwSHU6ZMyYLRxiuM474R5F599dXZ6t4IKCMkjlC1f//+2b2iRbBbarGy+Je//GWKLYwj+N1www3T6NGjs8A1Qs9ocU7xtGnTsj4RMG+66abp2Wefzc7ebdyOPvroNHLkyCxkjrHsuuuuqWfPnulnP/tZh+Ys6rvhhhvSu+++m4YOHZrVd8ghh2QrdSP8jVXPpRZeV1xxRXrqqafSVlttlY0/TCP8bqtFQH/HHXdk5zEfdthhaeONN87GGuFwhNMtBcNxJnGsho5V4TH2E088Mdv6O0LqjrT2zl/lMzo6ho7U2dI1XeZ+1qp5w3q7V3xjNrcvfL2NQ70ECBAgQIAAAQIECBAgQIAAAQIECBAgQIBA8QRayjm6dOmS0vF3FQ9kzNZpfkZfEWT+9a9/TZtsskmTraBL2BEIRwgYWx231GJVcASk8eu6666b9W+rxbNjZW88u6V7x2rmJZZYIq222mrZyt0IaSNQjYC0spVWKq+99tpp2WWXbevRud6P2mKr5QEDBqRlllmm1bFHnRFIl84BzvWAf3eK2h988MG04oorpjXWWKPVS2ML6eZqiVD9qKOOSo8//nhWb3tbR+avsX/eMcxLltn4WsGwYLi93+v6EyBAgAABAgQIECBAgAABAgQIECBAgAABAjUi0GowXCM1Lugy5mcwvKDHMi/Pay0Ynpf71tO1sb33TjvtlKZOndqg7C9/+cvZCut//OMfuUL5hTnmagbDLX9UYWGO0LMJECBAgAABAgQIECBAgAABAgQIECBAgAABAgQ6LCAc7TCdCzuRQGwDHmc+77XXXtlZyu+991669NJLs5XCsXV4npXanYgjCYY702waCwECBAgQIECAAAECBAgQIECAAAECBAgQIECAAIHPBFZaaaXsHOHllluusB4TJkxIffr0SZMnT07XX399FgTHVtxxLnKcj1y0ZitpW0kX7XveeAkQIECAAAECBAgQIECAAAECBAgQIECAQKcRmJdtZjsNgoEQ6MQC8/LveONr2z7JuhNDGhoBAgQIECBAgAABAgQIECBAgAABAgQIECBAgAABAgSKICAYLsIsGyMBAgQIECBAgAABAgQIECBAgAABAgQIECBAgAABAoUWEAwXevoNngABAgQIECBAgAABAgQIECBAgAABAgQIECBAgACBIggIhoswy8ZIgAABAgQIECBAgAABAgQIECBAgAABAgQIECBAgEChBboVevQGT4AAAQIECBAgQIAAAQIECBAgQIAAAQIECBDohAJdunTphKPKN6S5c+fm66gXgYIJCIYLNuGGS4AAAQIECBAgQIAAAQIECBAgQIAAAQIECBRE4LcFGWflMDcs4JgNmUBOAVtJ54TSjQABAgQIECBAgAABAgQIECBAgAABAgQIECBAoPMIHH/88emb3/xmeu6552puUOPGjUtHH330Aqnr/vvvzxxefPHFeX7egqy7rWJ//vOfp5hj7f8EBMO+GwgQIECAAAECBAgQIECAAAECBAgQIECAAAECBAol8Nhjj6Wf/vSn6dJLL03jx4+vubHfeeed6ZJLLlkgdT3//PNp4sSJ6bXXXpvn5y3Iutsq9vbbb0+XX355W90K9b5guFDTbbAECBAgQIAAAQIECBAgQIAAAQIECBAgQIAAAQIXX3xx6tGjR9p9992zAHb27Nk1hXLyySenq666qqZqylNMvdadZ2ydoY9guDPMojEQIECAAAECBAgQIECAAAECBAgQIECAAAECBAjkEvjkk0/SZZddloYOHZpGjBiR/vnPf+ZenRvXttbmzJmTq4a2Om2yySZpl112abZba89oq77SDeelztZC9Lbqzvvc6Je3b0dC/Y5c09ac1cP7guF6mCU1EiBAgAABAgQIECBAgAABAgQIECBAgAABAgQIVEXgyiuvTO+++24aMmRI9rXccsu1up10bDu99dZbp27duqXu3bun3r17p9GjRzeo5aabbkprr712WmSRRdKiiy6aDjjggDR16tS0/PLLpzjDN9pee+2V+vXr12QMsd1xZb/oENevssoq5b5xbbwW214vvvjiaYkllkjXXHNN9v5TTz2Vtt1223J9K6ywQho1alRqLiS+8cYb01prrVWu87DDDksffPBBm65///vf0ze+8Y3s2Ysttlg2xjCJZ1e2xnXHe2FT+czddtstTZ48ORtzbD1dsokxxu/XXXfdcn2DBw9u9uzjmMMBAwZkY4564tfo++STT7Y4lrxjaBOjjjt0q+PalU6AAAECBAgQIECAAAECBAgQIECAAAECBAgQIECgXQKxWnjppZdOe+yxR+ratWvaZ5990rnnnpsiAN5ggw0a3Os3v/lNGjRoUBYG/+IXv0jLLLNMmjJlSjr11FPT+++/n77//e+nCFtj9fHmm2+ebrjhhmyl61lnnZXijNs333wzffTRR9k9I4x+6623mtQaq1cr+zXXN67905/+lAWqEWbHecB9+/bNao5AdNlll03jxo1LvXr1Sg888EA688wz0xNPPJGF06VWqnP99dfPtqmOOs8+++xsPG21CHOfe+65dM4556QvfelL6dVXX83C5y222CL9+c9/TksttVSzY4znDx8+PK233nrlrbF//OMfp4MPPjgLpEsrd2N8zz77bJo2bVo69NBD0ymnnJIefvjhdN5556WddtopxTnIpRbj/Na3vpV23HHHrF+E9Y8++mgaM2ZM2nnnndPLL7+czWvjlncMbVnU8/uC4XqePbUTIECAAAECBAgQIECAAAECBAgQIECAAAECBAjkFohw9e67786CxVhlGu3AAw/MguELL7wwC38r27HHHputkn3kkUdSrMSNFgFjBKMRqkY4euKJJ2Zh6R133JH1jbbNNtukddZZJ3ddeTpGcDpx4sQsVC21r3zlK9k4KusbNmxYthr3O9/5Trr11lvTDjvskHWPOvv06ZMFx7HiONquu+6a1fn222+3WEIE4HFNnB985JFHlvt97nOfS2PHjs0C3Y022qjZ64855pi0+uqrp4ceeqj8zAiKN9xww/T00083uCbmJgLrWDkcLX6NUD3mpTK0D/f+/funm2++uXx9zMmHH35YDvgb1zMvY8gzN/XSx1bS9TJT6iRAgAABAgQIECBAgAABAgQIECBAgAABAgQIEJgngYsvvji7fr/99ivfJ7YkjnA03nvnnXfKr0fQGIFmrAYuhcKlNydNmpStoH3xxRfTCy+8kJ1VXAqFo0+soD3ooIPmqdbGF8c21bFVc6nF1sgRCDdXXwTf0UrbTUetUee+++5bDmjj/Z49e7ZZZ2wbHds1x5bXsWI5XKJFcPvggw+2GArHautYTRxBdimIjuvC6YgjjmhiE+MLx8o2cODA7LdvvPFG+eWXXnopm5fGLcLwaHFmdOPW0TFUdQJr4GZWDNfAJCiBAAECBAgQIECAAAECBAgQIECAAAECBAgQIEBg/gtccskl2fm1sfI2vkotzuP9+OOP00UXXZRilXC0WCUbrfH20vHaaqutlr0X2zNHi62SG7dY1VrNFuFqaZVz3DeC12gR1sY5vs210tbVpa2Y46zfxq251yr7xDMnTJiQnTG89957Z36bbbZZtto4AvbGoXnp2pkzZ2b/GCuGG7dYYd24xfgabwHd3JbQ8Vrc+7rrrsu2mH7llVcyi9KW3c05dHQM1Zy/WriXYLgWZkENBAgQIECAAAECBAgQIECAAAECBAgQIECAAAEC81UgzvyNEDHOF648e7fyoePHjy8Hw3EGb7TKlcDtKbC5ULM91+ftG2clx5bSzbXYOjpaaSzN1RRBb1stAuDYHjvC2HCMLarvu+++dPrpp6d77rmnxVXDbd23I+/Huc7f+9730pJLLpm22267bLV3bHEdW1HH2c8ttVoaQ0fGXY1rBMPVUHQPAgQIECBAgAABAgQIECBAgAABAgQIECBAgACBmhYorRD+/e9/n1ZdddUmtcbZvDfccEOaPn162nLLLcurgH/961+nQw89tEH/WKEa4ejmm2+evf6HP/yhyf1Kq3Ur34hVyY1b47N28yKWxhBn/Ta3NXNs+VwKtVdaaaXstqWVw5XPeP3119t85OzZs7MgNgLY+IoV1nH2b2xZHWf+XnvttU3uUaovxhdnAFe22GK6Iy227o5QOLaYjkA6togutTPOOKPVW3ZkDB2psZavccZwLc+O2ggQIECAAAECBAgQIECAAAECBAgQIECAAAECBOZZIELaX/3qV1mg2FwoHA84/PDDs+fEquFosUXymmuuma2QLZ2rWypk7NixKYLIfv36ZVslx1m+jfvEttSVLULMWbNmZV+V7e677+7Q+OLZsSI4VvG+/fbbDe4RW0v36NEjnXTSSdnrsR12bN985ZVXpghIK9ull17a6vNju+w4Y/iyyy4r94utmcOre/fu5dXIjW8Sz+zbt2+2PXdlfe+//34aN25ch8YcZyVHGzJkSINQOF67/vrrs/cajy9e6+gYOlRkDV8kGK7hyVEaAQIECBAgQIAAAQIECBAgQIAAAQIECBAgQIDAvAtcfvnl6dNPP83OxG2p7bDDDumLX/ximjJlSnrjjTeybj/84Q+z7ad33HHHLCB+7LHH0qhRo7KQNFYR9+7dO0VIHGfebr/99unOO+9MscJ4n332SQ899FCDR22xxRZZDXvuuWe6+eabs3OB45mvvfZahwd47rnnpljxGyucI/yM+iZNmpT233//1KtXr3TCCSeU7/2jH/0ozZgxIxtLrLZ9+OGH09e+9rX0xBNPtPr8XXbZJQvTY5vmWCUcq6VjnDHGWAE9YsSIFq8v2cSZxBG4x/URzodpR1qEzRFSx32j/giB49dtt922vBq6tG125f3nZQwdqbNWrxEM1+rMqIsAAQIECBAgQIAAAQIECBAgQIAAAQIECBAgQKAqArFqNVa3thZixoMOPPDALLyNADNarEz95S9/mWIL4wh+N9xwwzR69OgscI1wMlqccztt2rSsTwSUm266aXr22Wez83cr29FHH51GjhyZBcw777xz2nXXXVPPnj3Tz372sw6PMeqL7a/ffffdNHTo0Ky+Qw45JFupG+FvrHoutRj7FVdckZ566qm01VZbZQFtnMsb4XdrLc4lvuOOO7KzfA877LC08cYbZ+OMcDiC6dZM41ziWBG9/PLLpxj/iSeemL761a+mCKk70iKIv/rqq7PV2VF/hMQRivfv3z/bAjxaBPON27yMoSN11uo1XeZ+1mq1uAVRV/yLEZ+O0AgQIECAAAECBAgQIECAAAECBAgQIECAAAEC9SbQUs7RpUuXlH5bb6OpQr0bpjS/oq8IUWN17yabbJJiK+Xm2pNPPpmWWGKJtNpqq2UrdyOkjVA1AtJSK61yXXvttdOyyy5bhUH/6xZRW2y1PGDAgLTMMsu0eN9YURt1Rijd0rbaLV0ctT/44INpxRVXTGussUabtccW0s3VEqH6UUcdlR5//PGs3va2GEME3PHruuuumyL4zdvaO4a8951f/eYly2x8bfPftfOrcvclQIAAAQIECBAgQIAAAQIECBAgQIAAAQIECBAgUIcCEaK2FaRGSNlWi7OGY5VrtVuspo2vtlqEqB0JY+O+UfvgwYPbekT5/VixvNNOO6WpU6c2uCZWcC+99NJZqNuRFmPo6LXtHUNH6qvVawTDtToz6iJAgAABAgQIECBAgAABAgQIECBAgAABAgQIzIvAZ6tnNQILU+CAAw5IEydOTHvttVd2nvJ7772XLr300myl8Pnnn9+ulb4Lcxyd5dmC4c4yk8ZBgAABAgQIECBAgAABAgQIECBAgAABAgQIEPi3wPzaThlwfoGVVlopO0t4ueWWy39RJ+s5YcKE1KdPnzR58uR0/fXXZ0FwbMUd5yLH+cjaghVwxrAzhhfsd5ynESBAgAABAgQIECBAgAABAgQIECBAgAABAlUTmJfzR6tWhBsRIDDfBObl3/HG1+Y/iXm+DceNCRAgQIAAAQIECBAgQIAAAQIECBAgQIAAAQIECBAgQGB+CgiG56euexMgQIAAAQIECBAgQIAAAQIECBAgQIAAAQIECBAgQKAGBATDNTAJSiBAgAABAgQIECBAgAABAgQIECBAgAABAgQIECBAgMD8FOg2P2/u3gQIECBAgAABAgQIECBAgAABAgQIECBAgAABAvNXIM4R1QgQINCWgGC4LSHvEyBAgAABAgQIECBAgAABAgQIECBAgAABAgRqVGDGjBk1WpmyCBCoNQFbSdfajKiHAAECBAgQIECAAAECBAgQIECAAAECBAgQIECAAAECVRYQDFcZ1O0IECBAgAABAgQIECBAgAABAgQIECBAgAABAgQIECBQawKC4VqbEfUQIECAAAECBAgQIECAAAECBAgQIECAAAECBAgQIECgygKC4SqDuh0BAgQIECBAgAABAgQIECBAgAABAgQIECBAgAABAgRqTUAwXGszoh4CBAgQIECAAAECBAgQIECAAAECBAgQIECAAAECBAhUWUAwXGVQtyNAgAABAgQIECBAgAABAgQIECBAgAABAgQIECBAgECtCQiGa21G1EOAAAECBAgQIECAAAECBAgQIECAAAECBAgQIECAAIEqCwiGqwzqdgQIECBAgAABAgQIECBAgAABAgQIECBAgAABAgQIEKg1AcFwrc2IeggQIECAAAECBAgQIECAAAECBAgQIECAAAECBAgQIFBlAcFwlUHdjgABAgQIECBAgAABAgQIECBAgAABAgQIECBAgAABArUmIBiutRlRDwECBAgQIECAAAECBAgQIECAAAECBAgQIECAAAECBKosIBiuMqjbESBAgAABAgQIECBAgAABAgQIECBAgAABAgQIECBAoNYEBMO1NiPqIUCAAAECBAgQIECAAAECBAgQIECAAAECBAgQIECAQJUFBMNVBnU7AgQIECBAgAABAgQIECBAgAABAgQIECBAgAABAgQI1JqAYLjWZkQ9BAgQIECAAAECBAgQIECAAAECBAgQIECAAAECBAgQqLKAYLjKoG5HgAABAgQIECBAgAABAgQIECBAgAABAgQIECBAgACBWhMQDNfajKiHAAECBAgQIECAAAECBAgQIECAAAECBAgQIECAAAECVRYQDFcZ1O0IECBAgAABAgQIECBAgAABAgQIECBAgAABAgQIECBQawKC4VqbEfUQIECAAAECBAgQIECAAAECBAgQIECAAAECBAgQIECgygLdqnw/tyNAgAABAgQIECBAgAABAgQIECBQdwKrrLJK3dX81a9+NV188cV1V7eCCRAgQIAAAQIEFo6AYHjhuHsqAQIECBAgQIAAAQIECBAgQIBADQnMXGdmSqNqqKA8pYzN00kfAgQIECBAgAABAv8SsJW07wQCBAgQIECAAAECBAgQIECAAAECBAgQIECAAAECBAh0cgHBcCefYMMjQIAAAQIECBAgQIAAAQIECBAgQIAAAQIECBAgQIBAzQbDc+bMSZ9++mmuGWpP31w31IkAAQIECBAgQIAAAQIECBAgQIAAAQIECBAgQIAAAQKdSKBmg+GRI0emQw45pFXq22+/PQ0dOjStueaaaa211koDBw5M48aN60TTYygECBAgQIAAAQIECBAgQIAAAQIECBAgQIAAAQIECBCYd4GaDIZHjx6d7r333lZHd9lll6Wjjjoqvfvuu+nYY49N3/3ud9PnP//5dO6556bTTjtt3mXcgQABAgQIECBAgAABAgQIECBAgAABAgQIECBAgAABAp1EoFstjWPWrFnp1FNPTbfddlurZc2cOTP98Ic/TKusskr65S9/mXr27Jn1HzFiRNp9993TlClTstXGffr0qaXhqYUAAQIECBAgQIAAAQIECBAgQIAAAQIECBAgQIAAAQILRaBmVgzfeuutafvtt89C4WHDhrWKMXny5Oz84TPPPLMcCscFiy22WDr88MPT1ltvnf73f/93oYB6KAECBAgQIECAAAECBAgQIECAAAECBAgQIECAAAECBGpNoGZWDN90002pR48e6YILLkhbbbVVmjp1aotW06dPT8sss0zaeOONm/TZZZddUnxpBAgQIECAAAECBAgQIECAAAECBAgQIECAAAECBAgQIPAvgZoJhkeOHJnWXHPN1LVr64uY58yZk1566aW07bbbZgOIQDnOI/7www9T796907777ptWXnll80uAAAECBAgQIECAAAECBAgQIECAAAECBAgQIECAAAEC/xaomWC4f//+uSaltEX04osvng477LAsFF5yySVTBMYffPBBdubw2LFj06BBg3LdLzr17ds3d9/WOrZ1NnJVHuImBAgQIECAAAECBAgQIECAAAECBD4TmDVrVpo5cyYLAgQIECBAgACBTigQR/BWu9VMMJx3YH/84x+zrrfcckv6/Oc/n66++uq0/vrrZ6/FOcUnnHBCOuaYY7Kzipdffvlct50xY0aufjoRIECAAAECBAgQIECAAAECBAgQqBWBpZZaKvXp06dWylEHAQIECBAgQIBAFQWqkV82Xhzb+r7NVSy+WrdaZJFFslt98skn6eyzzy6HwvHaDjvskK0ifu+999K1115brUe6DwECBAgQIECAAAECBAgQIECAAApGgjMAACAASURBVAECBAgQIECAAAECBOpaoO6C4X79+mXgiy66aBo4cGAT/A033DB77YUXXqjriVE8AQIECBAgQIAAAQIECBAgQIAAAQIECBAgQIAAAQIEqiVQd8HwEksskWLVcGnlcGOIbt3+tTv2p59+Wi0j9yFAgAABAgQIECBAgAABAgQIECBAgAABAgQIECBAgEBdC9RdMNy1a9f05S9/OX3wwQfp1VdfbYL/j3/8I3vtC1/4Ql1PjOIJECBAgAABAgQIECBAgAABAgQIECBAgAABAgQIECBQLYG6C4Zj4MOHD8/G/9Of/rSBw5w5c9JFF12UvTZkyJBqGbkPAQIECBAgQIAAAQIECBAgQIAAAQIECBAgQIAAAQIE6lrgX/su11nbfffd00033ZRuvPHG9N5776XddtstRSh8ySWXpMcffzztscceac0116yzUSmXAAECBAgQIECAAAECBAgQIECAAAECBAgQIECAAAEC80egLoPhoBg/fnwaM2ZMuuKKK9Jdd92V6Sy66KLp8MMPT8cdd9z80XJXAgQIECBAgAABAgQIECBAgAABAgQIECBAgAABAgQI1KFAzQbDM2bMaJVzscUWS6eccko66aSTslXCcfbweuutlxZZZJE6nAYlEyBAgAABAgQIECBAgAABAgQIECBAgAABAgQIECBAYP4J1GwwnHfIEQRvuOGGebvrR4AAAQIECBAgQIAAAQIECBAgQIAAAQIECBAgQIAAgcIJdC3ciA2YAAECBAgQIECAAAECBAgQIECAAAECBAgQIECAAAECBRMQDBdswg2XAAECBAgQIECAAAECBAgQIECAAAECBAgQIECAAIHiCQiGizfnRkyAAAECBAgQIECAAAECBAgQIECAAAECBAgQIECAQMEEBMMFm3DDJUCAAAECBAgQIECAAAECBAgQIECAAAECBAgQIECgeAKC4eLNuRETIECAAAECBAgQIECAAAECBAgQIECAAAECBAgQIFAwAcFwwSbccAkQIECAAAECBAgQIECAAAECBAgQIECAAAECBAgQKJ6AYLh4c27EBAgQIECAAAECBAgQIECAAAECBAgQIECAAAECBAgUTEAwXLAJN1wCBAgQIECAAAECBAgQIECAAAECBAgQIECAAAECBIonIBgu3pwbMQECBAgQIECAAAECBAgQIECAAAECBAgQIECAAAECBRMQDBdswg2XAAECBAgQIECAAAECBAgQIECAAAECBAgQIECAAIHiCQiGizfnRkyAAAECBAgQIECAAAECBAgQIECAAAECBAgQIECAQMEEBMMFm3DDJUCAAAECBAgQIECAAAECBAgQIECAAAECBAgQIECgeAKC4eLNuRETIECAAAECBAgQIECAAAECBAgQIECAAAECBAgQIFAwAcFwwSbccAkQIECAAAECBAgQIECAAAECBAgQIECAAAECBAgQKJ6AYLh4c27EBAgQIECAAAECBAgQIECAAAECBAgQIECAAAECBAgUTEAwXLAJN1wCBAgQIECAAAECBAgQIECAAAECBAgQIECAAAECBIonIBgu3pwbMQECBAgQIECAAAECBAgQIECAAAECBAgQIECAAAECBRMQDBdswg2XAAECBAgQIECAAAECBAgQIECAAAECBAgQIECAAIHiCQiGizfnRkyAAAECBAgQIECAAAECBAgQIECAAAECBAgQIECAQMEEBMMFm3DDJUCAAAECBAgQIECAAAECBAgQIECAAAECBAgQIECgeAKC4eLNuRETIECAAAECBAgQIECAAAECBAgQIECAAAECBAgQIFAwAcFwwSbccAkQIECAAAECBAgQIECAAAECBAgQIECAAAECBAgQKJ6AYLh4c27EBAgQIECAAAECBAgQIECAAAECBAgQIECAAAECBAgUTEAwXLAJN1wCBAgQIECAAAECBAgQIECAAAECBAgQIECAAAECBIonIBgu3pwbMQECBAgQIECAAAECBAgQIECAAAECBAgQIECAAAECBRMQDBdswg2XAAECBAgQIECAAAECBAgQIECAAAECBAgQIECAAIHiCQiGizfnRkyAAAECBAgQIECAAAECBAgQIECAAAECBAgQIECAQMEEBMMFm3DDJUCAAAECBAgQIECAAAECBAgQIECAAAECBAgQIECgeAKC4eLNuRETIECAAAECBAgQIECAAAECBAgQIECAAAECBAgQIFAwAcFwwSbccAkQIECAAAECBAgQIECAAAECBAgQIECAAAECBAgQKJ6AYLh4c27EBAgQIECAAAECBAgQIECAAAECBAgQIECAAAECBAgUTEAwXLAJN1wCBAgQIECAAAECBAgQIECAAAECBAgQIECAAAECBIonIBgu3pwbMQECBAgQIECAAAECBAgQIECAAAECBAgQIECAAAECBRMQDBdswg2XAAECBAgQIECAAAECBAgQIECAAAECBAgQIECAAIHiCQiGizfnRkyAAAECBAgQIECAAAECBAgQIECAAAECBAgQIECAQMEEBMMFm3DDJUCAAAECBAgQIECAAAECBAgQIECAAAECBAgQIECgeAKC4eLNuRETIECAAAECBAgQIECAAAECBAgQIECAAAECBAgQIFAwAcFwwSbccAkQIECAAAECBAgQIECAAAECBAgQIECAAAECBAgQKJ6AYLh4c27EBAgQIECAAAECBAgQIECAAAECBAgQIECAAAECBAgUTEAwXLAJN1wCBAgQIECAAAECBAgQIECAAAECBAgQIECAAAECBIonIBgu3pwbMQECBAgQIECAAAECBAgQIECAAAECBAgQIECAAAECBRMQDBdswg2XAAECBAgQIECAAAECBAgQIECAAAECBAgQIECAAIHiCQiGizfnRkyAAAECBAgQIECAAAECBAgQIECAAAECBAgQIECAQMEEBMMFm3DDJUCAAAECBAgQIECAAAECBAgQIECAAAECBAgQIECgeAKC4eLNuRETIECAAAECBAgQIECAAAECBAgQIECAAAECBAgQIFAwAcFwwSbccAkQIECAAAECBAgQIECAAAECBAgQIECAAAECBAgQKJ6AYLh4c27EBAgQIECAAAECBAgQIECAAAECBAgQIECAAAECBAgUTEAwXLAJN1wCBAgQIECAAAECBAgQIECAAAECBAgQIECAAAECBIonIBgu3pwbMQECBAgQIECAAAECBAgQIECAAAECBAgQIECAAAECBRMQDBdswg2XAAECBAgQIECAAAECBAgQIECAAAECBAgQIECAAIHiCQiGizfnRkyAAAECBAgQIECAAAECBAgQIECAAAECBAgQIECAQMEEBMMFm3DDJUCAAAECBAgQIECAAAECBAgQIECAAAECBAgQIECgeAKC4eLNuRETIECAAAECBAgQIECAAAECBAgQIECAAAECBAgQIFAwAcFwwSbccAkQIECAAAECBAgQIECAAAECBAgQIECAAAECBAgQKJ6AYLh4c27EBAgQIECAAAECBAgQIECAAAECBAgQIECAAAECBAgUTEAwXLAJN1wCBAgQIECAAAECBAgQIECAAAECBAgQIECAAAECBIonIBgu3pwbMQECBAgQIECAAAECBAgQIECAAAECBAgQIECAAAECBRMQDBdswg2XAAECBAgQIECAAAECBAgQIECAAAECBAgQIECAAIHiCQiGizfnRkyAAAECBAgQIECAAAECBAgQIECAAAECBAgQIECAQMEEBMMFm3DDJUCAAAECBAgQIECAAAECBAgQIECAAAECBAgQIECgeAKC4eLNuRETIECAAAECBAgQIECAAAECBAgQIECAAAECBAgQIFAwAcFwwSbccAkQIECAAAECBAgQIECAAAECBAgQIECAAAECBAgQKJ6AYLh4c27EBAgQIECAAAECBAgQIECAAAECBAgQIECAAAECBAgUTEAwXLAJN1wCBAgQIECAAAECBAgQIECAAAECBAgQIECAAAECBIonIBgu3pwbMQECBAgQIECAAAECBAgQIECAAAECBAgQIECAAAECBRMQDBdswg2XAAECBAgQIECAAAECBAgQIECAAAECBAgQIECAAIHiCQiGizfnRkyAAAECBAgQIECAAAECBAgQIECAAAECBAgQIECAQMEEBMMFm3DDJUCAAAECBAgQIECAAAECBAgQIECAAAECBAgQIECgeAKC4eLNuRETIECAAAECBAgQIECAAAECBAgQIECAAAECBAgQIFAwAcFwwSbccAkQIECAAAECBAgQIECAAAECBAgQIECAAAECBAgQKJ6AYLh4c27EBAgQIECAAAECBAgQIECAAAECBAgQIECAAAECBAgUTEAwXLAJN1wCBAgQIECAAAECBAgQIECAAAECBAgQIECAAAECBIonIBgu3pwbMQECBAgQIECAAAECBAgQIECAAAECBAgQIECAAAECBRMQDBdswg2XAAECBAgQIECAAAECBAgQIECAAAECBAgQIECAAIHiCQiGizfnRkyAAAECBAgQIECAAAECBAgQIECAAAECBAgQIECAQMEEBMMFm3DDJUCAAAECBAgQIECAAAECBAgQIECAAAECBAgQIECgeAKC4eLNuRETIECAAAECBAgQIECAAAECBAgQIECAAAECBAgQIFAwAcFwwSbccAkQIECAAAECBAgQIECAAAECBAgQIECAAAECBAgQKJ6AYLh4c27EBAgQIECAAAECBAgQIECAAAECBAgQIECAAAECBAgUTEAwXLAJN1wCBAgQIECAAAECBAgQIECAAAECBAgQIECAAAECBIonIBgu3pwbMQECBAgQIECAAAECBAgQIECAAAECBAgQIECAAAECBRMQDBdswg2XAAECBAgQIECAAAECBAgQIECAAAECBAgQIECAAIHiCQiGizfnRkyAAAECBAgQIECAAAECBAgQIECAAAECBAgQIECAQMEEBMMFm3DDJUCAAAECBAgQIECAAAECBAgQIECAAAECBAgQIECgeAKC4eLNuRETIECAAAECBAgQIECAAAECBAgQIECAAAECBAgQIFAwAcFwwSbccAkQIECAAAECBAgQIECAAAECBAgQIECAAAECBAgQKJ6AYLh4c27EBAgQIECAAAECBAgQIECAAAECBAgQIECAAAECBAgUTKBmg+E5c+akTz/9tGDTYbgECBAgQIAAAQIECBAgQIAAAQIECBAgQIAAAQIECBCovkDNBsMjR45MhxxySO4R/+53v0t9+/ZNJ598cu5rdCRAgAABAgQIECBAgAABAgQIECBAgAABAgQIECBAgEARBGoyGB49enS69957c/vPmjUrnXDCCbn760iAAAECBAgQIECAAAECBAgQIECAAAECBAgQIECAAIEiCXSrpcFGwHvqqaem2267rV1lnX766enVV19t1zU6EyBAgAABAgQIECBAgAABAgQIECBAgAABAgQIECBAoCgCNbNi+NZbb03bb799FgoPGzYst//NN9+cpk2bloYMGZL7Gh0JECBAgAABAgQIECBAgAABAgQIECBAgAABAgQIECBQJIGaCYZvuumm1KNHj3TBBReks88+O9ccvPHGG2nUqFFZoDx8+PBc1+hEgAABAgQIECBAgAABAgQIECBAgAABAgQIECBAgACBognUzFbSI0eOTGuuuWbq2jV/Vn3iiSem7t27pzPPPDM988wzRZs74yVAgAABAgQIECBAgAABAgQIECBAgAABAgQIECBAgEAugZoJhvv375+r4FKnSZMmpUcffTRNnDgx/cd//Ee7rm3cuW/fvvN0feni9p6NXJWHugkBAgQIECBAgAABAgQIECBAgEAhBWbNmpVmzpxZyLEbNAECBAgQIECgswvEjsnVbjUTDLdnYC+88EIaM2ZM2muvvdKgQYPac2mzfWfMmDHP93ADAgQIECBAgAABAgQIECBAgAABAgtSYKmllkp9+vRZkI/0LAIECBAgQIAAgQUkUI38svHi2Pz7Ni+gQbb1mI8//jgdc8wxacUVV0ynnHJKW929T4AAAQIECBAgQIAAAQIECBAgQIAAAQIECBAgQIAAgcIL1N2K4XPPPTf98Y9/TEcddVR65JFHyhNYOmP49ddfT9OnT0+9evXKzizWCBAgQIAAAQIECBAgQIAAAQIECBAgQIAAAQIECBAgUHSBuguGS+emnHfeec3OXYTF8bXzzjtn201rBAgQIECAAAECBAgQIECAAAECBAgQIECAAAECBAgQKLpA3QXD+++/f9p2222bzFucOzxhwoS0wQYbpBEjRmRbTWsECBAgQIAAAQIECBAgQIAAAQIECBAgQIAAAQIECBAgkFLdBcMbb7xxs/P20EMPZcHwSiutlIYOHWpuCRAgQIAAAQIECBAgQIAAAQIECBAgQIAAAQIECBAgQODfAl1JECBAgAABAgQIECBAgAABAgQIECBAgAABAgQIECBAgEDnFhAMd+75NToCBAgQIECAAAECBAgQIECAAAECBAgQIECAAAECBAjU7lbSM2bMaNf0DBw4MLX3mnY9QGcCBAgQIECAAAECBAgQIECAAAECBAgQIECAAAECBAjUqYAVw3U6ccomQIAAAQIECBAgQIAAAQIECBAgQIAAAQIECBAgQIBAXgHBcF4p/QgQIECAAAECBAgQIECAAAECBAgQIECAAAECBAgQIFCnAoLhOp04ZRMgQIAAAQIECBAgQIAAAQIECBAgQIAAAQIECBAgQCCvgGA4r5R+BAgQIECAAAECBAgQIECAAAECBAgQIECAAAECBAgQqFMBwXCdTpyyCRAgQIAAAQIECBAgQIAAAQIECBAgQIAAAQIECBAgkFdAMJxXSj8CBAgQIECAAAECBAgQIECAAAECBAgQIECAAAECBAjUqYBguE4nTtkECBAgQIAAAQIECBAgQIAAAQIECBAgQIAAAQIECBDIKyAYziulHwECBAgQIECAAAECBAgQIECAAAECBAgQIECAAAECBOpUQDBcpxOnbAIECBAgQIAAAQIECBAgQIAAAQIECBAgQIAAAQIECOQVEAznldKPAAECBAgQIECAAAECBAgQIECAAAECBAgQIECAAAECdSogGK7TiVM2AQIECBAgQIAAAQIECBAgQIAAAQIECBAgQIAAAQIE8goIhvNK6UeAAAECBAgQIECAAAECBAgQIECAAAECBAgQIECAAIE6FRAM1+nEKZsAAQIECBAgQIAAAQIECBAgQIAAAQIECBAgQIAAAQJ5BQTDeaX0I0CAAAECBAgQIECAAAECBAgQIECAAAECBAgQIECAQJ0KCIbrdOKUTYAAAQIECBAgQIAAAQIECBAgQIAAAQIECBAgQIAAgbwCguG8UvoRIECAAAECBAgQIECAAAECBAgQIECAAAECBAgQIECgTgUEw3U6ccomQIAAAQIECBAgQIAAAQIECBAgQIAAAQIECBAgQIBAXgHBcF4p/QgQIECAAAECBAgQIECAAAECBAgQIECAAAECBAgQIFCnAoLhOp04ZRMgQIAAAQIECBAgQIAAAQIECBAgQIAAAQIECBAgQCCvgGA4r5R+BAgQIECAAAECBAgQIECAAAECBAgQIECAAAECBAgQqFMBwXCdTpyyCRAgQIAAAQIECBAgQIAAAQIECBAgQIAAAQIECBAgkFdAMJxXSj8CBAgQIECAAAECBAgQIECAAAECBAgQIECAAAECBAjUqYBguE4nTtkECBAgQIAAAQIECBAgQIAAAQIECBAgQIAAAQIECBDIKyAYziulHwECBAgQIECAAAECBAgQIECAAAECBAgQIECAAAECBOpUQDBcpxOnbAIECBAgQIAAAQIECBAgQIAAAQIECBAgQIAAAQIECOQVEAznldKPAAECBAgQIECAAAECBAgQIECAAAECBAgQIECAAAECdSogGK7TiVM2AQIECBAgQIAAAQIECBAgQIAAAQIECBAgQIAAAQIE8goIhvNK6UeAAAECBAgQIECAAAECBAgQIECAAAECBAgQIECAAIE6FRAM1+nEKZsAAQIECBAgQIAAAQIECBAgQIAAAQIECBAgQIAAAQJ5BQTDeaX0I0CAAAECBAgQIECAAAECBAgQIECAAAECBAgQIECAQJ0KCIbrdOKUTYAAAQIECBAgQIAAAQIECBAgQIAAAQIECBAgQIAAgbwCguG8UvoRIECAAAECBAgQIECAAAECBAgQIECAAAECBAgQIECgTgUEw3U6ccomQIAAAQIECBAgQIAAAQIECBAgQIAAAQIECBAgQIBAXgHBcF4p/QgQIECAAAECBAgQIECAAAECBAgQIECAAAECBAgQIFCnAoLhOp04ZRMgQIAAAQIECBAgQIAAAQIECBAgQIAAAQIECBAgQCCvgGA4r5R+BAgQIECAAAECBAgQIECAAAECBAgQIECAAAECBAgQqFMBwXCdTpyyCRAgQIAAAQIECBAgQIAAAQIECBAgQIAAAQIECBAgkFdAMJxXSj8CBAgQIECAAAECBAgQIECAAAECBAgQIECAAAECBAjUqYBguE4nTtkECBAgQIAAAQIECBAgQIAAAQIECBAgQIAAAQIECBDIKyAYziulHwECBAgQIECAAAECBAgQIECAAAECBAgQIECAAAECBOpUQDBcpxOnbAIECBAgQIAAAQIECBAgQIAAAQIECBAgQIAAAQIECOQVEAznldKPAAECBAgQIECAAAECBAgQIECAAAECBAgQIECAAAECdSogGK7TiVM2AQIECBAgQIAAAQIECBAgQIAAAQIECBAgQIAAAQIE8goIhvNK6UeAAAECBAgQIECAAAECBAgQIECAAAECBAgQIECAAIE6FRAM1+nEKZsAAQIECBAgQIAAAQIECBAgQIAAAQIECBAgQIAAAQJ5BQTDeaX0I0CAAAECBAgQIECAAAECBAgQIECAAAECBAgQIECAQJ0KCIbrdOKUTYAAAQIECBAgQIAAAQIECBAgQIAAAQIECBAgQIAAgbwCguG8UvoRIECAAAECBAgQIECAAAECBAgQIECAAAECBAgQIECgTgUEw3U6ccomQIAAAQIECBAgQIAAAQIECBAgQIAAAQIECBAgQIBAXgHBcF4p/QgQIECAAAECBAgQIECAAAECBAgQIECAAAECBAgQIFCnAoLhOp04ZRMgQIAAAQIECBAgQIAAAQIECBAgQIAAAQIECBAgQCCvgGA4r5R+BAgQIECAAAECBAgQIECAAAECBAgQIECAAAECBAgQqFMBwXCdTpyyCRAgQIAAAQIECBAgQIAAAQIECBAgQIAAAQIECBAgkFdAMJxXSj8CBAgQIECAAAECBAgQIECAAAECBAgQIECAAAECBAjUqYBguE4nTtkECBAgQIAAAQIECBAgQIAAAQIECBAgQIAAAQIECPx/9u4FSKvyvh/4z93lvjCAYLwMA9EgokZBQewqKoglWrWKEks1Tiw6gtUYS6xT0ESZJmqkqBRBo7JeqGAjTqvYKDGA0aSkxUthwkixBicjKqLgclkuLv5zjn92WGDfiyzLe9jPmdnJ7nuey+/5PLsz0a/POQQKFRAMFyqlHQECBAgQIECAAAECBAgQIECAAAECBAgQIECAAAECBDIqIBjO6MYpmwABAgQIECBAgAABAgQIECBAgAABAgQIECBAgAABAoUKCIYLldKOAAECBAgQIECAAAECBAgQIECAAAECBAgQIECAAAECGRUQDGd045RNgAABAgQIECBAgAABAgQIECBAgAABAgQIECBAgACBQgUEw4VKaUeAAAECBAgQIECAAAECBAgQIECAAAECBAgQIECAAIGMCgiGM7pxyiZAgAABAgQIECBAgAABAgQIECBAgAABAgQIECBAgEChAoLhQqW0I0CAAAECBAgQIECAAAECBAgQIECAAAECBAgQIECAQEYFBMMZ3ThlEyBAgAABAgQIECBAgAABAgQIECBAgAABAgQIECBAoFABwXChUtoRIECAAAECBAgQIECAAAECBAgQIECAAAECBAgQIEAgowKC4YxunLIJECBAgAABAgQIECBAgAABAgQIECBAgAABAgQIECBQqIBguFAp7QgQIECAAAECBAgQIECAAAECBAgQIECAAAECBAgQIJBRAcFwRjdO2QQIECBAgAABAgQIECBAgAABAgQIECBAgAABAgQIEChUQDBcqJR2BAgQIECAAAECBAgQIECAAAECBAgQIECAAAECBAgQyKiAYDijG6dsAgQIECBAgAABAgQIECBAgAABAgQIECBAgAABAgQIFCogGC5USjsCBAgQIECAAAECBAgQIECAAAECBAgQIECAAAECBAhkVEAwnNGNUzYBAgQIECBAgAABAgQIECBAgAABAgQIECBAgAABAgQKFRAMFyqlHQECBAgQIECAAAECBAgQIECAAAECBAgQIECAAAECBDIqIBjO6MYpmwABAgQIECBAgAABAgQIECBAgAABAgQIECBAgAABAoUKCIYLldKOAAECBAgQIECAAAECBAgQIECAAAECBAgQIECAAAECGRUQDGd045RNgAABAgQIECBAgAABAgQIECBAgAABAgQIECBAgACBQgUEw4VKaUeAAAECBAgQIECAAAECBAgQIECAAAECBAgQIECAAIGMCgiGM7pxyiZAgAABAgQIECBAgAABAgQIECBAgAABAgQIECBAgEChAoLhQqW0I0CAAAECBAgQIECAAAECBAgQIECAAAECBAgQIECAQEYFBMMZ3ThlEyBAgAABAgQIECBAgAABAgQIECBAgAABAgQIECBAoFABwXChUtoRIECAAAECBAgQIECAAAECBAgQIECAAAECBAgQIEAgowKC4YxunLIJECBAgAABAgQIECBAgAABAgQIECBAgAABAgQIECBQqIBguFAp7QgQIECAAAECBAgQIECAAAECBAgQIECAAAECBAgQIJBRAcFwRjdOWwUY5wAAIABJREFU2QQIECBAgAABAgQIECBAgAABAgQIECBAgAABAgQIEChUQDBcqJR2BAgQIECAAAECBAgQIECAAAECBAgQIECAAAECBAgQyKiAYDijG6dsAgQIECBAgAABAgQIECBAgAABAgQIECBAgAABAgQIFCogGC5USjsCBAgQIECAAAECBAgQIECAAAECBAgQIECAAAECBAhkVEAwnNGNUzYBAgQIECBAgAABAgQIECBAgAABAgQIECBAgAABAgQKFRAMFyqlHQECBAgQIECAAAECBAgQIECAAAECBAgQIECAAAECBDIqULLB8Pbt26Ourq4g1qRdoW0LGlAjAgQIECBAgAABAgQIECBAgAABAgQIECBAgAABAgQIHEACFaW6lrFjx8bWrVujurp6jyWuWbMm7rvvvnj++edj8+bNaZsePXrE5ZdfHldddVWpLktdBAgQIECAAAECBAgQIECAAAECBAgQIECAAAECBAgQaHaBkgyG77zzzli4cGFUVVXtEeTTTz+Niy++OFavXh1nnXVW+vXJJ5/E3Llz46677ooVK1bET37yk2bHNCEBAgQIECBAgAABAgQIECBAgAABAgQIECBAgAABAgRKUaCkguENGzbE+PHj46WXXsppNW3atDQUvvHGG+O6666rb/s3f/M3cdlll8WcOXPS/z3xxBNL0VxNBAgQIECAAAECBAgQIECAAAECBAgQIECAAAECBAgQaFaBknnH8IsvvhjDhw9PQ+GLLrooJ0LSpnXr1jFmzJgG7dq3bx/f/e53089effXVZoU0GQECBAgQIECAAAECBAgQIECAAAECBAgQIECAAAECBEpVoGRODCePgW7Xrl1Mnz49hg4dGv/2b//WqNkdd9yRvle4rGz3XLui4sslbdu2rVTN1UWAAAECBAgQIECAAAECBAgQIECAAAECBAgQIECAAIFmFSiZYHjs2LHRt2/fPYa9u4okwXFj145AecCAAc0KaTICBAgQIECAAAECBAgQIECAAAECBAgQIECAAAECBAiUqkDJBMPHHXfcXhsl7xb+7W9/G8ccc0wMHjy44PH69OlTcNtcDfO9G7lJJjEIAQIECBAgQIAAAQIECBAgQIAAgT8JbNiwIVauXMmCAAECBAgQIEDgABRIXsHb1FfJBMN7u7D58+fHD3/4w+jUqVNMnTq1qOGWL19eVHuNCRAgQIAAAQIECBAgQIAAAQIECOxvgcrKyujVq9f+LsP8BAgQIECAAAEC+0CgKfLLXQ/H7v6S3n1Q+L4e8plnnonkUdQdO3aMGTNmRI8ePfb1lMYnQIAAAQIECBAgQIAAAQIECBAgQIAAAQIECBAgQIBAZgQyf2L4xz/+cTzxxBNx6KGHRnV1dRx55JGZwVcoAQIECBAgQIAAAQIECBAgQIAAAQIECBAgQIAAAQIEmkMgs8FwXV1dXH/99ZE8QvqEE06Ihx56KLp27docZuYgQIAAAQIECBAgQIAAAQIECBAgQIAAAQIECBAgQIBApgQy+yjp6667Lg2Fhw4dGjNnzhQKZ+rXTrEECBAgQIAAAQIECBAgQIAAAQIECBAgQIAAAQIECDSnQCZPDE+fPj0WLlwYZ511ViTfuwgQIECAAAECBAgQIECAAAECBAgQIECAAAECBAgQIECgcYHMBcPr1q2LadOmpStKvr/22mv3uLrTTjstrrzySntPgAABAgQIECBAgAABAgQIECBAgAABAgQIECBAgACBFi+QuWB48eLFsXXr1nTj3nrrrUY3sHv37i1+cwEQIECAAAECBAgQIECAAAECBAgQIECAAAECBAgQIEAgESjZYHj58uV73KFhw4ZFY/dsKQECBAgQIECAAAECBAgQIECAAAECBAgQIECAAAECBAjsLlAGhQABAgQIECBAgAABAgQIECBAgAABAgQIECBAgAABAgQObAHB8IG9v1ZHgAABAgQIECBAgAABAgQIECBAgAABAgQIECBAgACBEAz7JSBAgAABAgQIECBAgAABAgQIECBAgAABAgQIECBAgMABLiAYPsA32PIIECBAgAABAgQIECBAgAABAgQIECBAgAABAgQIECAgGPY7QIAAAQIECBAgQIAAAQIECBAgQIAAAQIECBAgQIAAgQNcQDB8gG+w5REgQIAAAQIECBAgQIAAAQIECBAgQIAAAQIECBAgQEAw7HeAAAECBAgQIECAAAECBAgQIECAAAECBAgQIECAAAECB7hAxQG+PssjQIAAAQIECBAgQIDAAS9w1VVXxWOfPJatda6K+GLxF9mqWbUECBAgQIAAAQIECBAgQCDDAoLhDG+e0gkQIECAAAECBAgQIFAv8KOMWfwsY/UqlwABAgQIECBAgAABAgQIZFzAo6QzvoHKJ0CAAAECBAgQIECAAAECBAgQIECAAAECBAgQIECAQD4BwXA+IfcJECBAgAABAgQIECBAgAABAgQIECBAgAABAgQIECCQcQHBcMY3UPkECBAgQIAAAQIECBAgQIAAAQIECBAgQIAAAQIECBDIJyAYzifkPgECBAgQIECAAAECBAgQIECAAAECBAgQIECAAAECBDIuIBjO+AYqnwABAgQIECBAgAABAgQIECBAgAABAgQIECBAgAABAvkEBMP5hNwnQIAAAQIECBAgQIAAAQIECBAgQIAAAQIECBAgQIBAxgUEwxnfQOUTIECAAAECBAgQIECAAAECBAgQIECAAAECBAgQIEAgn4BgOJ+Q+wQIECBAgAABAgQIECBAgAABAgQIECBAgAABAgQIEMi4gGA44xuofAIECBAgQIAAAQIECBAgQIAAAQIECBAgQIAAAQIECOQTEAznE3KfAAECBAgQIECAAAECBAgQIECAAAECBAgQIECAAAECGRcQDGd8A5VPgAABAgQIECBAgAABAgQIECBAgAABAgQIECBAgACBfAKC4XxC7hMgQIAAAQIECBAgQIAAAQIECBAgQIAAAQIECBAgQCDjAoLhjG+g8gkQIECAAAECBAgQIECAAAECBAgQIECAAAECBAgQIJBPQDCcT8h9AgQIECBAgAABAgQIECBAgAABAgQIECBAgAABAgQIZFxAMJzxDVQ+AQIECBAgQIAAAQIECBAgQIAAAQIECBAgQIAAAQIE8gkIhvMJuU+AAAECBAgQIECAAAECBAgQIECAAAECBAgQIECAAIGMCwiGM76ByidAgAABAgQIECBAgAABAgQIECBAgAABAgQIECBAgEA+AcFwPiH3CRAgQIAAAQIECBAgQIAAAQIECBAgQIAAAQIECBAgkHEBwXDGN1D5BAgQIECAAAECBAgQIECAAAECBAgQIECAAAECBAgQyCcgGM4n5D4BAgQIECBAgAABAgQIECBAgAABAgQIECBAgAABAgQyLiAYzvgGKp8AAQIECBAgQIAAAQIECBAgQIAAAQIECBAgQIAAAQL5BATD+YTcJ0CAAAECBAgQIECAAAECBAgQIECAAAECBAgQIECAQMYFBMMZ30DlEyBAgAABAgQIECBAgAABAgQIECBAgAABAgQIECBAIJ+AYDifkPsECBAgQIAAAQIECBAgQIAAAQIECBAgQIAAAQIECBDIuIBgOOMbqHwCBAgQIECAAAECBAgQIECAAAECBAgQIECAAAECBAjkExAM5xNynwABAgQIECBAgAABAgQIECBAgAABAgQIECBAgAABAhkXEAxnfAOVT4AAAQIECBAgQIAAAQIECBAgQIAAAQIECBAgQIAAgXwCguF8Qu4TIECAAAECBAgQIECAAAECBAgQIECAAAECBAgQIEAg4wKC4YxvoPIJECBAgAABAgQIECBAgAABAgQIECBAgAABAgQIECCQT0AwnE/IfQIECBAgQIAAAQIECBAgQIAAAQIECBAgQIAAAQIECGRcQDCc8Q1UPgECBAgQIECAAAECBAgQIECAAAECBAgQIECAAAECBPIJCIbzCblPgAABAgQIECBAgAABAgQIECBAgAABAgQIECBAgACBjAsIhjO+gconQIAAAQIECBAgQIAAAQIECBAgQIAAAQIECBAgQIBAPgHBcD4h9wkQIECAAAECBAgQIECAAAECBAgQIECAAAECBAgQIJBxAcFwxjdQ+QQIECBAgAABAgQIECBAgAABAgQIECBAgAABAgQIEMgnIBjOJ+Q+AQIECBAgQIAAAQIECBAgQIAAAQIECBAgQIAAAQIEMi4gGM74BiqfAAECBAgQIECAAAECBAgQIECAAAECBAgQIECAAAEC+QQEw/mE3CdAgAABAgQIECBAgAABAgQIECBAgAABAgQIECBAgEDGBQTDGd9A5RMgQIAAAQIECBAgQIAAAQIECBAgQIAAAQIECBAgQCCfgGA4n5D7BAgQIECAAAECBAgQIECAAAECBAgQIECAAAECBAgQyLiAYDjjG6h8AgQIECBAgAABAgQIECBAgAABAgQIECBAgAABAgQI5BMQDOcTcp8AAQIECBAgQIAAAQIECBAgQIAAAQIECBAgQIAAAQIZFxAMZ3wDlU+AAAECBAgQIECAAAECBAgQIECAAAECBAgQIECAAIF8AoLhfELuEyBAgAABAgQIECBAgAABAgQIECBAgAABAgQIECBAIOMCguGMb6DyCRAgQIAAAQIECBAgQIAAAQIECBAgQIAAAQIECBAgkE9AMJxPyH0CBAgQIECAAAECBAgQIECAAAECBAgQIECAAAECBAhkXEAwnPENVD4BAgQIECBAgAABAgQIECBAgAABAgQIECBAgAABAgTyCQiG8wm5T4AAAQIECBAgQIAAAQIECBAgQIAAAQIECBAgQIAAgYwLCIYzvoHKJ0CAAAECBAgQIECAAAECBAgQIECAAAECBAgQIECAQD6BgoPhLVu27DbWunXr8o3vPgECBAgQIECAAAECBAgQIECAAAECBAgQIECAAAECBAjsZ4G8wfC7774bZ555ZlxyySUNSv3oo49i0KBBMXjw4Pjggw/28zJMT4AAAQIECBAgQIAAAQIECBAgQIAAAQIECBAgQIAAAQKNCeQMht95550499xz48MPP4z169c3GKOmpiY6dOgQq1evjrPOOis+/vhjygQIECBAgAABAgQIECBAgAABAgQIECBAgAABAgQIECBQggI5g+HRo0enJU+YMCFeeeWVBuX37t073njjjZg0aVL6+be//e0SXJ6SCBAgQIAAAQIECBAgQIAAAQIECBAgQIAAAQIECBAgQKDRYDh5p3ByUvioo46KK6+8slGpCy64IE4++eRYtWpVbNq0iSgBAgQIECBAgAABAgQIECBAgAABAgQIECBAgAABAgQIlJhAo8HwjkdHT5w4MW/JyYni5Prss8/yttWAAAECBAgQIECAAAECBAgQIECAAAECBAgQIECAAAECBJpXoNFguKKiIq1k+vTpeSt6+eWX0zZt2rTJ21YDAgQIECBAgAABAgQIECBAgAABAgQIECBAgAABAgQIEGhegUaD4c6dO0eHDh3itddei23btuWsasaMGZEEyV27dm3e6s1GgAABAgQIECBAgAABAgQIECBAgAABAgQIECBAgAABAnkFGg2Gk57XXHNNOsDxxx8fCxYsiA0bNtQPWFtbG4sXL46BAwfG5s2b4+qrr847mQYECBAgQIAAAQIECBAgQIAAAQIECBAgQIAAAQIECBAg0PwCXz4vupFr7NixsWTJkpg/f36MGTOm0XZVVVVx0003NX/1ZiRAgAABAgQIECBAgAABAgQIECBAgAABAgQIECBAgACBvAI5TwwnvZN3DD/55JNxxBFHpI+L3nGVl5ennz3xxBNRXV2ddyINCBAgQIAAAQIECBAgQIAAAQIECBAgQIAAAQIECBAgQGD/COQ8MbyjpFNOOSU9NZxcO9433KpVq/1TsVkJECBAgAABAgQIECBAgAABAgQIECBAgAABAgQIECBAoCiBgoLhnUcUCBflqzEBAgQIECBAgAABAgQIECBAgAABAgQIECBAgAABAgT2u0B9MLx48eKYPHlydO7cOaZNm5YWNnr06KitrS2oyLKyspg5c2ZBbTUiQIAAAQIECBAgQIAAAQIECBAgQIAAAQIECBAgQIAAgeYTaHBi+PXXX48uXbrUz578XGgwnLxz2EWAAAECBAgQIECAAAECBAgQIECAAAECBAgQIECAAAECpSdQHwwPGDAgZs+e3aDC6urq0qtYRQQIECBAgAABAgQIECBAgAABAgQIECBAgAABAgQIECBQlECDE8P9+/dv0HnXn4saWWMCBAgQIECAAAECBAgQIECAAAECBAgQIECAAAECBAgQKAmBslxVDBkyJL73ve+VRKGKIECAAAECBAgQIECAAAECBAgQIECAAAECBAgQIECAAIGvJtDgxPDOQ9TU1MSqVavio48++moj60WAAAECBAgQIECAAAECBAgQIECAAAECBAgQIECAAAECJSGQ88RwUmGrVq1KolBFECBAgAABAgQIECBAgAABAgQIECBAgAABAgQIECBAgMBXE2g0GO7UqVMMHTo0Nm/eHHPmzPlqo+tFgAABAgQIECBAgAABAgQIECBAgAABAgQIECBAgAABAvtdoNFHSSeV3XzzzfG1r30txo8fH5MnT06/b9++fRx00EG7FV5WVhaPP/74fl+QAggQIECAAAECBAgQIECAAAECBAgQIECAAAECBAgQIECgoUDOYHjEiBFRW1ub9lizZk361dhVXl7OlgABAgQIECBAgAABAgQIECBAgAABAgQIECBAgAABAgRKUCBnMPzII4+UYMlKIkCAAAECBAgQIECAAAECBAgQIECAAAECBAgQIECAAIFiBHIGwwMGDCh4rHXr1hXcVkMCBAgQIECAAAECBAgQIECAAAECBAgQIECAAAECBAgQaD6BslxTDRw4MEaOHJm3mqFDh8agQYPqHzudt4MGBAgQIECAAAECBAgQIECAAAECBAgQIECAAAECBAgQINBsAjmD4W3btsXWrVvzFrNly5a0TV1dXd62GhAgQIAAAQIECBAgQIAAAQIECBAgQIAAAQIECBAgQIBA8wo0eJT0sGHDYudHQtfW1sbbb78duR4pnYTHmzdvTquurKxs3urNRoAAAQIECBAgQIAAAQIECBAgQIAAAQIECBAgQIAAAQJ5BRoEw9OnT4/zzz9/t07r16/POVBFRUXccccdeSfTgAABAgQIECBAgAABAgQIECBAgAABAgQIECBAgAABAgSaX6BBMNy7d+94880366uoqqqKnj17xqxZsxqtrLy8PNq0adP8lZuRAAECBAgQIECAAAECBAgQyIzAVVddlZladxRaXV2duZoVTIAAAQIECBAgQIAAgcYEGgTDSaP27dvXtz3xxBPTYHjnz5qLcvv27fHFF19EEjznu5LHWSftyspyvjI53zDuEyBAgAABAgQIECBAgAABAvtAIHnK2GPXP7YPRt7HQ/4pyxYO72NjwzebQBb/44zHHnss/feDLgIECBAgQIAAgaYR2C0Y3nnYxx9/vGlm+QqjjB07NrZu3ZrzH8CSR18nNa5duzYNhvv16xe33XZb9O3b9yvMqAsBAgQIECBAgAABAgQIECBAgACBA1MgCVljccbW9qeSXQQIECBAgAABAk0nUNAR29ra2pgyZUoMGzYsBg8eHN/73vfSCm688cZ49dVXm66a/z/SnXfeGQsXLsw57vjx4+O+++5LTzT/6Ec/iuS/ely2bFn81V/9VaxYsaLJazIgAQIECBAgQIAAAQIECBAgQIAAAQIECBAgQIAAAQIEsiqQ88Rwsqjnn38+fvCDHzRY35o1a9Kfly5dGi+++GKceuqp6cndvb02bNgQSeD70ksv5RwqeQ/ynDlzdps3Ca4vv/zy9NTw7Nmz97Yc/QkQIECAAAECBAgQIECAAAECBAgQIECAAAECBAgQIHBACOQ8MZwEvztC4W9961u7ha3XXHNNirBo0aKYOnXqXoEkAfPw4cPTUPiiiy7KOdbPf/7z9P4NN9zQoF3//v1j6NChkQTH77zzzl7VozMBAgQIECBAgAABAgQIECBAgAABAgQIECBAgAABAgQOFIGcwfCYMWPSdT733HNx//33R58+fRqse9SoUenjm5Nr2rRpe2Uyd+7caNeuXSTvDb777rtzjpUE0RUVFXHSSSft1i551HVyvfXWW3tVj84ECBAgQIAAAQIECBAgQIAAAQIECBAgQIAAAQIECBA4UAQaDYY3bdoUySOjjz766N0C4Z0XX15eHklAXFdXFx9//PFXdhk7dmzMmzcvPfGb69q+fXt8+OGHccghh0RZ2e7ld+/ePe0uGP7KW6EjAQIECBAgQIAAAQIECBAgQIAAAQIECBAgQIAAAQIHmECj7xhOguHk2vVxzXta/2WXXRazZs2Kbdu2fWWe4447rqC+W7ZsSUPob3zjG3ts37p16/TzpF2h164noQvtt2u7fO9G/qrj6keAAAECBAgQIECAAIFcAhs2bMgk0MqVKzNZt6KLF1i3bl3xnUqgR/K35fe0BDZCCY0KtITfUX+D/gAIECBAgACBliqQvIK3qa9Gg+G2bdumc82YMSP+/M//POe8Tz75ZHq/ffv2TV3fbuN98cUX6Wd7Oi288+dJeFzotXz58kKbakeAAAECBAgQIECAAIGSE6isrCy5mgopqFevXoU00+YAEOjcuXMmV5H8bfk9zeTWtZiiW8LvqL/BFvPrbKEECBAgQIDALgJNkV/ueji20UdJJ//HsmPHjvHmm2/mPH2bBLBz5syJJEhujn/QO+igg3L+YiSPmk6uxoJjv1UECBAgQIAAAQIECBAgQIAAAQIECBAgQIAAAQIECBBoaQKNBsMJxLhx41KPE044IV577bXYuHFjvU8SCM+fPz+OPfbY9LNrrrmmWezatGmTzvPee+/tcb4dj7PeceK5WYoyCQECBAgQIECAAAECBAgQIECAAAECBAgQIECAAAECBEpYoNFHSSc1jxo1Kt5444147rnnYvTo0fXLeP311+sD4eTDqqqquP7665tlmclJ4G7dusX777+/x/lqamrSz3cE1s1SlEkIECBAgAABAgQIECBAgAABAgQIECBAgAABAgQIECBQwgI5Twwndd9zzz0xe/bsOPzww3dbRhLQTpo0Kaqrq5t1iYMGDYqtW7fGO++8s9u8ycnm5Orbt2+z1mQyAgQIECBAgAABAgQIECBAgAABAgQIECBAgAABAgQIlKpAzhPDO4ru379/LFiwIP1x06ZNkbzHN3mkc6tWrfbLui644IJ44YUX4tFHH40777yzvoYPPvggfvnLX0bPnj0jqdlFgAABAgQIECBAgAABAgQIECBAgAABAgQIECBAgAABAhEFBcM7Q7Vv336/uw0ZMiROOeWUePbZZ+Pzzz+P8847Lz799NO47777ora2NiZMmLDfa1QAAQIECBAgQIAAAQIECBAgQIAAAQIECBAgQIAAAQIESkWgQTC8dOnSvarrm9/85l71L6bzAw88EBMnTkzff5x8JVfyaOv7778/zjzzzGKG0pYAAQIECBAgQIAAAQIECBAgQIAAAQIECBAgQIAAAQIHtEB9MLx48eK4/PLLv/Jiy8vLY9myZV+5/64dly9fnnOsTp06pe83vv3222PJkiVx8MEHR58+fZpsfgMRIECAAAECBAgQIECAAAECBAgQIECAAAECBAgQIEDgQBHY46OkO3bsGIceemhRazzooIOKat9UjSsrK6OqqqqphjMOAQIECBAgQIAAAQIECBAgQIAAAQIECBAgQIAAAQIEDjiBBsFwly5dYu3atbF+/fpIgt5LL700rrnmmujatesBt3ALIkCAAAECBAgQIECAAAECBAgQIECAAAECBAgQIECAQEsRKNux0AEDBsSiRYvitddeiyuvvDK++OKLmDFjRvzZn/1ZnHbaaTF9+vSoqalpKS7WSYAAAQIECBAgQIAAAQIECBAgQIAAAQIECBAgQIAAgQNGoD4Y3rGi7t27x4QJEyJ55/DChQvjoosuio0bN8Z9990XAwcOjCFDhsQzzzwTtbW1BwyChRAgQIAAAQIECBAgQIAAAQIECBAgQIAAAQIECBAgQOBAFtgtGN55sYcddljcfffd8dZbb8WCBQvinHPOiTVr1qTBcb9+/WLo0KExb968qKurO5CNrI0AAQIECBAgQIAAAQIECBAgQIAAAQIECBAgQIAAAQKZFsgZDO+8ssMPPzymTp0aS5cuTcPgU045JT7++OO44YYb4thjj43zzjsv0xCKJ0CAAAECBAgQIECAAAECBAgQIECAAAECBAgQIECAwIEqUHAwvDNAz54948knn4znn38+OnbsmN5auXLlgWpkXQQIECBAgAABAgQIECBAgAABAgQIECBAgAABAgQIEMi0QEWx1b/77rtx0003xYoVK+ofId22bds466yzih1KewIECBAgQIAAAQIECBAgQIAAAQIECBAgQIAAAQIECBBoBoGCguHkNHASBi9fvrw+DG7dunWceeaZcdttt0XymGkXAQIECBAgQIAAAQIECBAgQIAAAQIECBAgQIAAAQIECJSmQKPBcBIG33zzzfH73/++PgyuqKiIqqqquP322yN5nLSLAAECBAgQIECAAAECBAgQIECAAAECBAgQIECAAAECBEpfoEEwnITBt9xySyxdurQ+DC4vL4/+/fvHXXfdFb169Sr9FamQAAECBAgQIECAAAECBAgQIECAAAECBAgQIECAAAECBBoI1AfDixcvjssvv7z+5jHHHBP33ntvHHnkkcgIECBAgAABAgQIECBAgAABAgQIECBAgAABAgQIECBAIMMCe3yUdLdu3WLNmjXxne98p+CllZWVxauvvlpwew0JECBAgAABAgQIECBAgAABAgQIECBAgAABAgQIECBAoHkE9hgMJ6FwsVd07V2DAAAgAElEQVTyyGkXAQIECBAgQIAAAQIECBAgQIAAAQIECBAgQIAAAQIECJSeQH0wPGDAgJg3b17pVagiAgQIECBAgAABAgQIECBAgAABAgQIECBAgAABAgQIENgrgQYnhnv27LlXg+lMgAABAgQIECBAgAABAgQIECBAgAABAgQIECBAgAABAqUnUFZ6JamIAAECBAgQIECAAAECBAgQIECAAAECBAgQIECAAAECBJpSQDDclJrGIkCAAAECBAgQIECAAAECBAgQIECAAAECBAgQIECAQAkKCIZLcFOURIAAAQIECBAgQIAAAQIECBAgQIAAAQIECBAgQIAAgaYUEAw3paaxCBAgQIAAAQIECBAgQIAAAQIECBAgQIAAAQIECBAgUIICguES3BQlESBAgAABAgQIECBAgAABAgQIECBAgAABAgQIECBAoCkFBMNNqWksAgQIECBAgAABAgQIECBAgAABAgQIECBAgAABAgQIlKCAYLgEN0VJBAgQIECAAAECBAgQIECAAAECBAgQIECAAAECBAgQaEqBikIGq6uri88++yyS/811de/evZDhtCFAgAABAgQIECBAgAABAgQIECBAgAABAgQIECBAgACBZhTIGwxfd9118atf/SpvSeXl5bFs2bK87TQgQIAAAQIECBAgQIAAAQIECBAgQIAAAQIECBAgQIAAgeYVyBkM/8M//EN9KNyxY8do165dlJXt+enTjX3evMsxGwECBAgQIECAAAECBAgQIECAAAECBAgQIECAAAECBAjsKpAzGH722WfT9rNmzYqTTjqJHgECBAgQIECAAAECBAgQIECAAAECBAgQIECAAAECBAhkUGDPx3//tJB169alyzn66KOFwhncWCUTIECAAAECBAgQIECAAAECBAgQIECAAAECBAgQIEBgh0CjwXBFxZeHidu3b0+LAAECBAgQIECAAAECBAgQIECAAAECBAgQIECAAAECBDIs0GgwXFlZGR06dIjVq1dneHlKJ0CAAAECBAgQIECAAAECBAgQIECAAAECBAgQIECAAIFGg+GEZsKECbFq1aqYO3cuKQIECBAgQIAAAQIECBAgQIAAAQIECBAgQIAAAQIECBDIqMCXz4tu5Orfv3+MGjUqxo0bF//0T/8U3bp1i1atWu2xdVlZWcycOTOjDMomQIAAAQIECBAgQIAAAQIECBAgQIAAAQIECBAgQIDAgSuQMxgeMWJE1NbWpqtPTg4nX41d5eXlB66SlREgQIAAAQIECBAgQIAAAQIECBAgQIAAAQIECBAgQCDDAjmD4UceeSTDS1M6AQIECBAgQIAAAQIECBAgQIAAAQIECBAgQIAAAQIECCQCOYPhAQMGUCJAgAABAgQIECBAgAABAgQIECBAgAABAgQIECBAgACBjAuUZbx+5RMgQIAAAQIECBAgQIAAAQIECBAgQIAAAQIECBAgQIBAHoGcJ4Z39F23bl1MnDgxFi1aFJs2bYqysrLo0KFDHHnkkXHnnXfG4YcfDpoAAQIECBAgQIAAAQIECBAgQIAAAQIECBAgQIAAAQIESlQg74nhRx99NAYNGhQvvPBCfPLJJ1FbWxsbN26M1atXp0HxkCFDYtKkSSW6PGURIECAAAECBAgQIECAAAECBAgQIECAAAECBAgQIECAQM5g+M0334yf/vSnqdLw4cNj3rx58Z//+Z/pV/L9hRdemN57+OGH4+WXX6ZJgAABAgQIECBAgAABAgQIECBAgAABAgQIECBAgAABAiUokDMYvv7669OSn3jiiZgyZUr07Nkzunbtmn4l399zzz3x7LPPpm1uvfXWElyekggQIECAAAECBAgQIECAAAECBAgQIECAAAECBAgQIECg0WA4eZfwmjVr4qijjkofJd3Yddxxx8Wpp54aa9eujZqaGqIECBAgQIAAAQIECBAgQIAAAQIECBAgQIAAAQIECBAgUGICOYPhpNbTTjstb8l///d/n7bZsGFD3rYaECBAgAABAgQIECBAgAABAgQIECBAgAABAgQIECBAgEDzCjQaDLdu3Tqt5K233spb0S9+8Yu0Tdu2bfO21YAAAQIECBAgQIAAAQIECBAgQIAAAQIECBAgQIAAAQIEmleg0WC4U6dO0a5du1iyZEnU1dXlrKq6ujoqKirSdw+7CBAgQIAAAQIECBAgQIAAAQIECBAgQIAAAQIECBAgQKC0BBoNhpMyr7rqqrTaE044IZYuXbpb5StWrIiTTjopPv/887jyyitLa2WqIUCAAAECBAgQIECAAAECBAgQIECAAAECBAgQIECAAIFUoCKXw4033hhvvPFGLFq0KC699NK0aXKSOLlqamrqu/br1y9uueUWpAQIECBAgAABAgQIECBAgAABAgQIECBAgAABAgQIECBQggI5Twwn9T7++OPx4x//OLp06ZKWnwTCO0Lhjh07xg9+8IN4+umnS3BpSiJAgAABAgQIECBAgAABAgQIECBAgAABAgQIECBAgACBRCDnieEdRMlp4eRrw4YNUVtbm37cpk2b+tPDKAkQIECAAAECBAgQIECAAAECBAgQIECAAAECBAgQIECgdAUKCoZ3lF9ZWRnJl4sAAQIECBAgQIAAAQIECBAgQIAAAQIECBAgQIAAAQIEsiNQHwwvXrw4Jk+eHJ07d45p06alKxg9enT9CeF8SyorK4uZM2fma+Y+AQIECBAgQIAAAQIECBAgQIAAAQIECBAgQIAAAQIECDSzQIMTw6+//nr9u4STOpKfdzw6Ol9d5eXl+Zq4T4AAAQIECBAgQIAAAQIECBAgQIAAAQIECBAgQIAAAQL7QaA+GB4wYEDMnj27QQnV1dX7oSRTEiBAgAABAgQIECBAgAABAgQIECBAgAABAgQIECBAgEBTCjQ4Mdy/f/8GY+/6c66J161b15R1GYsAAQIECBAgQIAAAQIECBAgQIAAAQIECBAgQIAAAQIEmkigLNc4AwcOjJEjR+adaujQoTFo0KCCHzudd0ANCBAgQIAAAQIECBAgQIAAAQIECBAgQIAAAQIECBAgQKDJBHIGw9u2bYutW7fmnWzLli1pm7q6urxtNSBAgAABAgQIECBAgAABAgQIECBAgAABAgQIECBAgACB5hVo8CjpYcOGxc6PhK6trY233347kvcPN3Yl4fHmzZvT25WVlc1bvdkIECBAgAABAgQIECBAgAABAgQIECBAgAABAgQIECBAIK9Ag2B4+vTpcf755+/Waf369TkHqqioiDvuuCPvZBoQIECAAAECBAgQIECAAAECBAgQIECAAAECBAgQIECAQPMLNAiGe/fuHW+++WZ9FVVVVdGzZ8+YNWtWo5WVl5dHmzZtmr9yMxIgQIAAAQIECBAgQIAAAQIECBAgQIAAAQIECBAgQIBAQQINguGkR/v27es7nnjiiWkwvPNnBY2qEQECBAgQIECAAAECBAgQIECAAAECBAgQIECAAAECBAiUjMBuwfDOlT3++OMlU6hCCBAgQIAAAQIECBAgQIAAAQIECBAgQIAAAQIECBAgQOCrCdQHw4sXL47JkydH586dY9q0aeloo0ePjtra2oJGLisri5kzZxbUViMCBAgQIECAAAECBAgQIECAAAECBAgQIECAAAECBAgQaD6BBieGX3/99ejSpUv97MnPhQbDybuGXQQIECBAgAABAgQIECBAgAABAgQIECBAgAABAgQIECBQegL1wfCAAQNi9uzZDSqsrq4uvYpVRIAAAQIECBAgQIAAAQIECBAgQIAAAQIECBAgQIAAAQJFCTQ4Mdy/f/8GnXf9uaiRNSZAgAABAgQIECBAgAABAgQIECBAgAABAgQIECBAgACBkhAoK4kqFEGAAAECBAgQIECAAAECBAgQIECAAAECBAgQIECAAAEC+0zgKwfDTz31VIwcOTJmzZq1z4ozMAECBAgQIECAAAECBAgQIECAAAECBAgQIECAAAECBAjsvUDeYHj8+PFx7LHHxqpVq+pnGzZsWNxxxx2xZMmSuP322+Ob3/zm3ldiBAIECBAgQIAAAQIECBAgQIAAAQIECBAgQIAAAQIECBDYJwI5g+H7778/5syZE3V1dfHZZ5+lBfz7v/97/PGPf0y/T0Lho446KrZu3Rrf+c539kmBBiVAgAABAgQIECBAgAABAgQIECBAgAABAgQIECBAgACBvRPIGQw//vjj6ei/+c1vom/fvun3SVicXJMmTYpRo0bFf/zHf0SPHj3iv/7rv9IA2UWAAAECBAgQIECAAAECBAgQIECAAAECBAgQIECAAAECpSXQaDC8YcOG2LhxY/zFX/xFdOvWLa1627Zt8f7776ffn3322fUrSR43nVyrV68urdWphgABAgQIECBAgAABAgQIECBAgAABAgQIECBAgAABAgSi0WB48+bNKc8VV1xRz7TjEdJdunSJ9u3b13/+ta99DSUBAgQIECBAgAABAgQIECBAgAABAgQIECBAgAABAgQIlKhAo8Fw27Zt05Iffvjh+tJ/+MMfpt+ffvrpDZYzZcqU9Od27dqV6DKVRYAAAQIECBAgQIAAAQIECBAgQIAAAQIECBAgQIAAgZYrUNHY0isrK6Njx44xf/78qKmpiS1btsR///d/p83HjRtX323p0qWxcOHCNBTu3Llzy5W0cgIECBAgQIAAAQIECBAgQIAAAQIECBAgQIAAAQIECJSoQKMnhpN6J0yYkJY9cODA+lPCX//61+Owww5LPx8xYkRceuml6fe33HJLiS5RWQQIECBAgAABAgQIECBAgAABAgQIECBAgAABAgQIEGjZAjmD4Ysvvjjuuuuu6NSpU3oi+KyzzooXX3yxXix5D3F5eXkaII8aNaplS1o9AQIECBAgQIAAAQIECBAgQIAAAQIECBAgQIAAAQIESlSg0UdJ76g3CYeTrz1dDz30UPTo0aNEl6YsAgQIECBAgAABAgQIECBAgAABAgQIECBAgAABAgQIEEgEcp4YzkckFM4n5D4BAgQIECBAgAABAgQIECBAgAABAgQIECBAgAABAgT2v0D9ieHFixfH5MmTo3PnzjFt2rS0stGjR0dtbW1BVZaVlcXMmTMLaqsRAQIECBAgQIAAAQIECBAgQIAAAQIECBAgQIAAAQIECDSfQINHSb/++uvRpUuX+tmTnwsNhpN3DbsIECBAgAABAgQIECBAgAABAgQIECBAgAABAgQIECBAoPQE6oPhAQMGxOzZsxtUWF1dXXoVq4gAAQIECBAgQIAAAQIECBAgQIAAAQIECBAgQIAAAQIEihJocGK4f//+DTrv+nNRI2tMgAABAgQIECBAgAABAgQIECBAgAABAgQIECBAgAABAiUhUFYSVSiCAAECBAgQIECAAAECBAgQIECAAAECBAgQIECAAAECBPaZQIMTw7vOUlNTU9TEnTp1Kqq9xgQIECBAgAABAgQIECBAgAABAgQIECBAgAABAgQIECCw7wVyBsNnnHFG1NbWFlRFeXl5LFu2rKC2GhEgQIAAAQIECBAgQIAAAQIECBAgQIAAAQIECBAgQIBA8wnkDIa7dOkSbdu23a2aurq62Lp1a2zevDm9d+ihh4bTws23aWYiQIAAAQIECBAgQIAAAQIECBAgQIAAAQIECBAgQIBAMQI5g+EFCxbkHGvTpk0xbty4mD9/fsycObOYebUlQIAAAQIECBAgQIAAAQIECBAgQIAAAQIECBAgQIAAgWYSKNubedq3bx/Tp0+P5GTxyJEj92YofQkQIECAAAECBAgQIECAAAECBAgQIECAAAECBAgQIEBgHwnsVTC8o6aqqqpYu3ZtfPrpp/uozNzDbtu2LbZv375f5jYpAQIECBAgQIAAAQIECBAgQIAAAQIECBAgQIAAAQIESl2gSYLhHYvc8c7h5lh0bW1t3HPPPdGvX784/vjj068RI0bEa6+91hzTm4MAAQIECBAgQIAAAQIECBAgQIAAAQIECBAgQIAAAQKZEWiSYPjXv/51uuBOnTo128LHjBkTjzzySBxzzDExceLESH5etWpVjB49OvK9G7nZijQRAQIECBAgQIAAAQIECBAgQIAAAQIECBAgQIAAAQIESkCgIlcN1157bWzatKnRJlu3bo0VK1bExo0bo1u3blFZWdksS3rllVdi0aJFcfrpp8ejjz5aP+d5550XF154Ydx+++0xZMiQZqnFJAQIECBAgAABAgQIECBAgAABAgQIECBAgAABAgQIECh1gZzB8O9+97tIHtmc72rdunW88MIL+Zo12f0kFE6ukSNHNhjzG9/4RgwcODANjZO627Vr12RzGogAAQIECBAgQIAAAQIECBAgQIAAAQIECBAgQIAAAQJZFcgZDA8aNCjnieHzzz8/Tj755EgC2ea8DjvssHS6Dz74YLdpP/nkkygvL4+KipxLa85yzUWAAAECBAgQIECAAAECBAgQIECAAAECBAgQIECAAIH9KpAzPX3ooYf2a3GNTX7uuefGP//zP8fDDz8cVVVV0adPn7Tp1KlT00dbX3DBBdGqVauSrF1RBAgQIECAAAECBAgQIECAAAECBAgQIECAAAECBAgQaG6BnMFwTU3NXtfTqVOnvR5j1wG6d+8es2bNiltvvTV9p3Ayx7Zt29Kvq6++Or7//e83+ZwGJECAAAECBAgQIECAAAECBAgQIECAAAECBAgQIECAQFYFcgbDZ5xxRkHvGG5s8f369Yunn366yW3q6uriqaeeiiVLlkSPHj3iuOOOi61bt8avf/3rmDt3biR1J4/BLvTaceK40PaNtXvppZf2dgj9CRAgQIAAAQIECBAgULTAhg0biu5TCh1WrlxZCmWooRkE1q1b1wyzNP0Uyd+W39OmdzVi0wm0hN9Rf4NN9/tiJAIECBAgQCBbAsOHD2/ygnMGw717944//vGPsXbt2nTigw8+OCorK6OsrCy2bNkSq1atqi+oS5cuuxXXuXPnJi84GfCnP/1p/Mu//Etccskl8Y//+I9pPcn13nvvxRVXXJGeGn7++eejV69eBc2/fPnygtppRIAAAQIECBAgQIAAgVIUSP45LYtXof/MlsW1qbmhwL769wP72jn52/J7uq+Vjb83Ai3hd9Tf4N78huhLgAABAgQIZFmgKfLLXQ/H5gyGb7/99hgxYkQMHDgwHnzwwTQU3vlKTu7edtttMWfOnPjJT34SQ4cO3ee+27dvj5kzZ0bHjh3jjjvuqA+Fk4l79uyZPkZ6/PjxaZvkUdMuAgQIECBAgAABAgQIECBAgAABAgQIECBAgAABAgQItHSBL4/aNnKNHj06DjnkkDRk3dN/gV5eXp4GwsnjnG+66aZmsUwekfP555/HySefHK1atdptzjPPPDP97MMPP2yWekxCgAABAgQIECBAgAABAgQIECBAgAABAgQIECBAgACBUhdoNBiuqalJHyE9ceLEvGtITg1v3rw51qxZk7ft3jZo165dOsQf/vCHPQ71/vvvp5+3bt16b6fSnwABAgQIECBAgAABAgQIECBAgAABAgQIECBAgAABAgeEQKPBcHIqN7mSE7r5rqVLl6ZNvvjii3xN9/p+cko4OS2cvE943rx5u4336KOPpp8NHjx4r+cyAAECBAgQIECAAAECBAgQIECAAAECBAgQIECAAAECBA4EgUaD4a5du6brS97jm++aPn16JI+V7t69e76mTXI/qalDhw4xbty4uPfee2PBggVpSJw8+vqll16KU089NS6++OImmcsgBAgQIECAAAECBAgQIECAAAECBAgQIECAAAECBAgQyLpAzncMX3DBBbF+/fo47bTTYuXKlbF9+/b69Sbf/8///E+cdNJJ6Tt/r7vuumaz6N27d8yaNSuOO+64ePDBB2PMmDFxww03xKJFi+K73/1u/OxnP2u2WkxEgAABAgQIECBAgAABAgQIECBAgAABAgQIECBAgACBUheoyFXgpEmT4u23344VK1bE8OHD06bJSd3k2rhxY33Xc845J66//vpmXWufPn1i9uzZsW7duli2bFkk7x4+8cQTo6wsZ9bdrDWajAABAgQIECBAgAABAgQIECBAgAABAgQIECBAgAABAqUgkDMYTgqcO3duPPXUUzFlypRYu3Ztg0D4kEMOiR/96EcxbNiw/baWzp07R1VV1X6b38QECBAgQIAAAQIECBAgQIAAAQIECBAgQIAAAQIECBAodYG8wXCygL/+679Ov7Zt25Y+WrqioiI9OZy8V9hFgAABAgQIECBAgAABAgQIECBAgAABAgQIECBAgAABAqUtUPBzl7ds2RKtWrWKrl27RqdOndJQOHmMs4sAAQIECBAgQIAAAQIECBAgQIAAAQIECBAgQIAAAQIESlsgbzD87rvvxplnnhmXXHJJg5V89NFHMWjQoBg8eHB88MEHpb1K1REgQIAAAQIECBAgQIAAAQIECBAgQIAAAQIECBAgQKAFC+QMht95550499xz48MPP0wfIb3zVVNTkz5OevXq1XHWWWfFxx9/3IIZLZ0AAQIECBAgQIAAAQIECBAgQIAAAQIECBAgQIAAAQKlK5AzGB49enRa+YQJE+KVV15psIrevXvHG2+8EZMmTUo///a3v126q1QZAQIECBAgQIAAAQIECBAgQIAAAQIECBAgQIAAAQIEWrBAo8Fw8k7h5KTwUUcdFVdeeWWjRBdccEGcfPLJsWrVqti0aVMLprR0AgQIECBAgAABAgQIECBAgAABAgQIECBAgAABAgQIlKZAo8HwjkdHT5w4MW/lyYni5Prss8/yttWAAAECBAgQIECAAAECBAgQIECAAAECBAgQIECAAAECBJpXoNFguKKiIq1k+vTpeSt6+eWX0zZt2rTJ21YDAgQIECBAgAABAgQIECBAgAABAgQIECBAgAABAgQIEGhegUaD4c6dO0eHDh3itddei23btuWsasaMGZEEyV27dm3e6s1GgAABAgQIECBAgAABAgQIECBAgAABAgQIECBAgAABAnkFGg2Gk57XXHNNOsDxxx8fCxYsiA0bNtQPWFtbG4sXL46BAwfG5s2b4+qrr847mQYECBAgQIAAAQIECBAgQIAAAQIECBAgQIAAAQIECBAg0PwCXz4vupFr7NixsWTJkpg/f36MGTOm0XZVVVVx0003NX/1ZiRAgAABAgQIECBAgAABAgQIECBAgAABAgQIECBAgACBvAI5TwwnvZN3DD/55JNxxBFHpI+L3nGVl5ennz3xxBNRXV2ddyINCBAgQIAAAQIECBAgQIAAAQIECBAgQIAAAQIECBAgQGD/COQ8MbyjpFNOOSU9NZxcO9433KpVqwYVr1mzJrp167Z/VmFWAgQIECBAgAABAgQIECBAgAABAgQIECBAgAABAgQIEGhUIO+J4V17JoHwzqHwb3/72xgyZEicccYZmAkQIECAAAECBAgQIECAAAECBAgQIECAAAECBAgQIECgBAUKOjG8a901NTUxZcqUePrpp2Pr1q3p7eTR0i4CBAgQIECAAAECBAgQIECAAAECBAgQIECAAAECBAgQKD2BooLhFStWxN/+7d/Ge++912AlRx99dEydOrX0VqciAgQIECBAgAABAgQIECBAgAABAgQIECBAgAABAgQIEIi8wfCWLVvi4YcfjhkzZsTGjRvryQ4++OC44YYb4tJLL23waGmmBAgQIECAAAECBAgQIECAAAECBAgQIECAAAECBAgQIFBaAo0Gw6tWrYrrr78+fv/739dXnDwuuq6uLv05ebewiwABAgQIECBAgAABAgQIECBAgAABAgQIECBAgAABAgRKX6Bs5xK3b98es2bNilNPPTWGDBlSHwr36NEj/XzZsmVxxBFHlP6qVEiAAAECBAgQIECAAAECBAgQIECAAAECBAgQIECAAAEC9QL1J4YXL14cl19+ef2N5FHRV111VYwaNSoqKyuRESBAgAABAgQIECBAgAABAgQIECBAgAABAgQIECBAgEBGBXZ7lPQ555wTf/d3fxdHHnlkRpekbAIECBAgQIAAAQIECBAgQIAAAQIECBAgQIAAAQIECBDYWaDBo6STG7/85S/j3HPPjdNOOy2mTJkSGzZsIEaAAAECBAgQIECAAAECBAgQIECAAAECBAgQIECAAAECGRaoD4YHDBgQb731Vtx2223RpUuXWLNmTTzwwANx8sknx9ChQ+PVV1/N8DKVToAAAQIECBAgQIAAAQIECBAgQIAAAQIECBAgQIAAgZYr0ODEcLt27eKKK66IRYsWxcKFC+Pss89OZd5///24+uqro0+fPun3LgIECBAgQIAAAQIECBAgQIAAAQIECBAgQIAAAQIECBDIjsBuj5LeUfphhx0W06ZNi+XLl8cjjzwSRxxxRINV9evXL8aPHx8ff/xxdlarUgIECBAgQIAAAQIECBAgQIAAAQIECBAgQIAAAQIECLRAgUaD4Z0tBg8eHPPnz4/f/e536cnh5GRxbW1tzJkzJ04//fT0fcTV1dUtkM+SCRAgQIAAAQIECBAgQIAAAQIECBAgQIAAAQIECBAgUPoCBQXDO5bRuXPnuPnmm9N3Ec+bNy+OPvro9FbyPuJ77rmn9FerQgIECBAgQIAAAQIECBAgQIAAAQIECBAgQIAAAQIECLRAgaKC4Z19evbsGc8//3wsWbIkJk6cGF26dGmBfJZMgAABAgQIECBAgAABAgQIECBAgAABAgQIECBAgACB0hf4ysHwjqW1adMmLrvssvjNb35T+qtVIQECBAgQIECAAAECBAgQIECAAAECBAgQIECAAAECBFqgwF4Hwy3QzJIJECBAgAABAgQIECBAgAABAgQIECBAgAABAgQIECCQKQHBcKa2S7EECBAgQIAAAQIECBAgQIAAAQIECBAgQIAAAQIECBAoXkAwXLyZHgQIECBAgAABAgQIECBAgAABApNJzeYAACAASURBVAQIECBAgAABAgQIEMiUgGA4U9ulWAIECBAgQIAAAQIECBAgQIAAAQIECBAgQIAAAQIECBQvIBgu3kwPAgQIECBAgAABAgQIECBAgAABAgQIECBAgAABAgQIZEpAMJyp7VIsAQIECBAgQIAAAQIECBAgQIAAAQIECBAgQIAAAQIEihcQDBdvpgcBAgQIECBAgAABAgQIECBAgAABAgQIECBAgAABAgQyJSAYztR2KZYAAQIECBAgQIAAAQIECBAgQIAAAQIECBAgQIAAAQLFCwiGizfTgwABAgQIECBAgAABAgQIECBAgAABAgQIECBAgAABApkSEAxnarsUS4AAAQIECBAgQIAAAQIECBAgQIAAAQIECBAgQIAAgeIFBMPFm+lBgAABAgQIECBAgAABAgQIECBAgAABAgQIECBAgACBTAkIhjO1XYolQIAAAQIECBAgQIAAAQIECBAgQIAAAQIECBAgQIBA8QKC4eLN9CBAgAABAgQIECBAgAABAgQIECBAgAABAgQIECBAgECmBATDmdouxRIgQIAAAQIECBAgQIAAAQIECBAgQIAAAQIECBAgQKB4AcFw8WZ6ECBAgAABAgQIECBAgAABAgQIECBAgAABAgQIECBAIFMCguFMbZdiCRAgQIAAAQIECBAgQIAAAQIECBAgQIAAAQIECBAgULyAYLh4Mz0IECBAgAABAgQIECBAgAABAgQIECBAgAABAgQIECCQKQHBcKa2S7EECBAgQIAAAQIECBAgQIAAAQIECBAgQIAAAQIECBAoXkAwXLyZHgQIECBAgAABAgQIECBAgAABAgQIECBAgAABAgQIEMiUgGA4U9ulWAIECBAgQIAAAQIECBAgQIAAAQIECBAgQIAAAQIECBQvIBgu3kwPAgQIECBAgAABAgQIECBAgAABAgQIECBAgAABAgQIZEpAMJyp7VIsAQIECBAgQIAAAQIECBAgQIAAAQIECBAgQIAAAQIEihcQDBdvpgcBAgQIECBAgAABAgQIECBAgAABAgQIECBAgAABAgQyJSAYztR2KZYAAQIECBAgQIAAAQIECBAgQIAAAQIECBAgQIAAAQLFCwiGizfTgwABAgQIECBAgAABAgQIECBAgAABAgQIECBAgAABApkSEAxnarsUS4AAAQIECBAgQIAAAQIECBAgQIAAAQIECBAgQIAAgeIFBMPFm+lBgAABAgQIECBAgAABAgQIECBAgAABAgQIECBAgACBTAkIhjO1XYolQIAAAQIECBAgQIAAAQIECBAgQIAAAQIECBAgQIBA8QKC4eLN9CBAgAABAgQIECBAgAABAgQIECBAgAABAgQIECBAgECmBATDmdouxRIgQIAAAQIECBAgQIAAAQIECBAgQIAAAQIECBAgQKB4AcFw8WZ6ECBAgAABAgQIECBAgAABAgQIECBAgAABAgQIECBAIFMCguFMbZdiCRAgQIAAAQIECBAgQIAAAQIECBAgQIAAAQIECBAgULyAYLh4Mz0IECBAgAABAgQIECBAgAABAgQIECBAgAABAgQIECCQKQHBcKa2S7EECBAgQIAAAQIECBAgQIAAAQIECBAgQIAAAQIECBAoXkAwXLyZHgQIECBAgAABAgQIECBAgAABAgQIECBAgAABAgQIEMiUgGA4U9ulWAIECBAgQIAAAQIECBAgQIAAAQIECBAgQIAAAQIECBQvIBgu3kwPAgQIECBAgAABAgQIECBAgAABAgQIECBAgAABAgQIZEpAMJyp7VIsAQIECBAgQIAAAQIECBAgQIAAAQIECBAgQIAAAQIEihcQDBdvpgcBAgQIECBAgAABAgQIECBAgAABAgQIECBAgAABAgQyJSAYztR2KZYAAQIECBAgQIAAAQIECBAgQIAAAQIECBAgQIAAAQLFCwiGizfTgwABAgQIECBAgAABAgQIECBAgAABAgQIECBAgAABApkSEAxnarsUS4AAAQIECBAgQIAAAQIECBAgQIAAAQIECBAgQIAAgeIFBMPFm+lBgAABAgQIECBAgAABAgQIECBAgAABAgQIECBAgACBTAkIhjO1XYolQIAAAQIECBAgQIAAAQIECBAgQIAAAQIECBAgQIBA8QKC4eLN9CBAgAABAgQIECBAgAABAgQIECBAgAABAgQIECBAgECmBATDmdouxRIgQIAAAQIECBAgQIAAAQIECBAgQIAAAQIECBAgQKB4AcFw8WZ6ECBAgAABAgQIECBAgAABAgQIECBAgAABAgQIECBAIFMCguFMbZdiCRAgQIAAAQIECBAgQIAAAQIECBAgQIAAAQIECBAgULyAYLh4Mz0IECBAgAABAgQIECBAgAABAgQIECBAgAABAgQIECCQKQHBcKa2S7EECBAgQIAAAQIECBAgQIAAAQIECBAgQIAAAQIECBAoXkAwXLyZHgQIECBAgAABAgQIECBAgAABAgQIECBAgAABAgQIEMiUgGA4U9ulWAIECBAgQIAAAQIECBAgQIAAAQIECBAgQIAAAQIECBQvIBgu3kwPAgQIECBAgAABAgQIECBAgAABAgQIECBAgAABAgQIZEpAMJyp7VIsAQIECBAgQIAAAQIECBAgQIAAAQIECBAgQIAAAQIEihcQDBdvpgcBAgQIECBAgAABAgQIECBAgAABAgQIECBAgAABAgQyJSAYztR2KZYAAQIECBAgQIAAAQIECBAgQIAAAQIECBAgQIAAAQLFCwiGizfTgwABAgQIECBAgAABAgQIECBAgAABAgQIECBAgAABApkSEAxnarsUS4AAAQIECBAgQIAAAQIECBAgQIAAAQIECBAgQIAAgeIFDohgePv27VFXV1f86vUgQIAAAQIECBAgQIAAAQIECBAgQIAAAQIECBAgQIBACxDIdDA8b968+Mu//Mvo27dvHHvssVFVVRXTpk1rAdtmiQQIECBAgAABAgQIECBAgAABAgQIECBAgAABAgQIEChcILPB8BNPPBE33HBDrF+/Pr7//e/HhAkTomvXrnH//ffHrbfeWriAlgQIECBAgAABAgQIECBAgAABAgQIECBAgAABAgQIEDjABSqyuL6VK1fGXXfdFV//+tfjX//1X6NTp07pMi677LK45JJL4uc//3lcffXV0atXrywuT80ECBAgQIAAAQIECBAgQIAAAQIECBAgQIAAAQIECBBoUoFMnhieNWtW+k7hiRMn1ofCiUqbNm1izJgxcfbZZ8enn37apFAGI0CAAAECBAgQIECAAAECBAgQIECAAAECBAgQIECAQFYFMnli+JVXXokuXbrEKaecspv7+eefH8mXiwABAgQIECBAgAABAgQIECBAgAABAgQIECBAgAABAgS+FMhcMLx9+/b4wx/+EOecc066gLlz58bChQtj8+bNcdhhh8UVV1wRPXv2tL8ECBAgQIAAAQIECBAgQIAAAQIECBAgQIAAAQIECBAg8P8FMhcM73hEdNu2bePaa69NQ+EOHTpEEhjX1tam7xyeOnVqDB482CYTIECAAAECBAgQIECAAAECBAgQIECAAAECBAgQIECAwJ8EMhcM/9///V+6cb/4xS+ia9euMXv27Ojfv3/62Ysvvhjjxo2LG2+8MV566aXo3r17QZvcp0+fgtrla5TM6SJAgAABAgQIECBAgEBzC2zYsKG5p2yS+VauXNkk4xik9AXWrVtX+kXuocLkb8vvaSa3rsUU3RJ+R/0NtphfZwslQIAAAQIEdhEYPnx4k5tkLhguLy9PET7//PO4++6760Ph5LNvfetb8b//+7/xwAMPxDPPPBNjx44tCGz58uUFtdOIAAECBAgQIECAAAECpShQWVlZimXlralXr15522hwYAh07tw5kwtJ/rb8nmZy61pM0S3hd9TfYIv5dbZQAgQIECBAYBeBpsgvdz0cW5Y15WOOOSYtuXXr1lFVVbVb+QMGDEg/W7FiRdaWpl4CBAgQIECAAAECBAgQIECAAAECBAgQIECAAAECBAjsE4HMBcPt27eP5NTwjpPDu6pUVHx5CLqurm6fgBmUAAECBAgQIECAAAECBAgQIECAAAECBAgQIECAAAECWRPIXDBcVlYWJ510UtTW1saqVat2897x3qLDDz88a3uhXgIECBAgQIAAAQIECBAgQIAAAQIECBAgQIAAAQIECOwTgcwFw4nCxRdfnGLce++9DVC2b98eM2bMSD+78MIL9wmYQQkQIECAAAECBAgQIECAAAECBAgQIECAAAECBAgQIJA1gS+fu5yx65JLLom5c+fGc889Fxs3bowRI0ZEEgo/9thj8eabb8bIkSOjb9++GVuVcgkQIECAAAECBAgQIECAAAECBAgQIECAAAECBAgQILBvBDIZDCcUDz74YEyePDlmzpwZv/rVr1Kd1q1bx5gxY+Kmm27aN1pGJUCAAAECBAgQIECAAAECBAgQIECAAAECBAj8P/buBcyuqj4Y/goGAgh8XASx/VIuFcNNAoiAKJIgCMWKYrFBUUygiiBIi7dyCRBeuQlFfKBcPogRAcVXQBRKRRSiXIqKgChoCJRQykWFkGIqlwB5z39/PfPOTM7MnPuctc9v+cwTnNl7rf/6rbV3duZ/1toECBAgkKFAtonhSZMmpWOOOSZ9/vOfL1YJx7uHp06dml7zmtdkOAxCJkCAAAECBAgQIECAAAECBAgQIECAAAECBAgQIECAQOcEsk0MV0kiEbzDDjt0TkjNBAgQIECAAAECBAgQIECAAAECBAgQIECAAAECBAgQyFxgpczjFz4BAgQIECBAgAABAgQIECBAgAABAgQIECBAgAABAgQIjCEgMWyKECBAgAABAgQIECBAgAABAgQIECBAgAABAgQIECBAoOQCEsMlH2DdI0CAAAECBAgQIECAAAECBAgQIECAAAECBAgQIECAgMSwOUCAAAECBAgQIECAAAECBAgQIECAAAECBAgQIECAAIGSC0gMl3yAdY8AAQIECBAgQIAAAQIECBAgQIAAAQIECBAgQIAAAQISw+YAAQIECBAgQIAAAQIECBAgQIAAAQIECBAgQIAAAQIESi4gMVzyAdY9AgQIECBAgAABAgQIECBAgAABAgQIECBAgAABAgQISAybAwQIECBAgAABAgQIECBAgAABAgQIECBAgAABAgQIECi5gMRwyQdY9wgQIECAAAECBAgQIECAAAECBAgQIECAAAECBAgQICAxbA4QIECAAAECBAgQIECAAAECBAgQIECAAAECBAgQIECg5AISwyUfYN0jQIAAAQIECBAgQIAAAQIECBAgQIAAAQIECBAgQICAxLA5QIAAAQIECBAgQIAAAQIECBAgQIAAAQIECBAgQIAAgZILSAyXfIB1jwABAgQIECBAgAABAgQIECBAgAABAgQIECBAgAABAhLD5gABAgQIECBAgAABAgQIECBAgAABAgQIECBAgAABAgRKLiAxXPIB1j0CBAgQIECAAAECBAgQIECAAAECBAgQIECAAAECBAhIDJsDBAgQIECAAAECBAgQIECAAAECBAgQIECAAAECBAgQKLmAxHDJB1j3CBAgQIAAAQIECBAgQIAAAQIECBAgQIAAAQIECBAgIDFsDhAgQIAAAQIECBAgQIAAAQIECBAgQIAAAQIECBAgQKDkAhLDJR9g3SNAgAABAgQIECBAgAABAgQIECBAgAABAgQIECBAgIDEsDlAgAABAgQIECBAgAABAgQIECBAgAABAgQIECBAgACBkgtIDJd8gHWPAAECBAgQIECAAAECBAgQIECAAAECBAgQIECAAAECEsPmAAECBAgQIECAAAECBAgQIECAAAECBAgQIECAAAECBEouIDFc8gHWPQIECBAgQIAAAQIECBAgQIAAAQIECBAgQIAAAQIECEgMmwMECBAgQIAAAQIECBAgQIAAAQIECBAgQIAAAQIECBAouYDEcMkHWPcIECBAgAABAgQIECBAgAABAgQIECBAgAABAgQIECAgMWwOECBAgAABAgQIECBAgAABAgQIECBAgAABAgQIECBAoOQCEsMlH2DdI0CAAAECBAgQIECAAAECBAgQIECAAAECBAgQIECAgMSwOUCAAAECBAgQIECAAAECBAgQIECAAAECBAgQIECAAIGSC0gMl3yAdY8AAQIECBAgQIAAAQIECBAgQIAAAQIECBAgQIAAAQISw+YAAQIECBAgQIAAAQIECBAgQIAAAQIECBAgQIAAAQIESi4gMVzyAdY9AgQIECBAgAABAgQIECBAgAABAgQIECBAgAABAgQISAybAwQIECBAgAABAgQIECBAgAABAgQIECBAgAABAgQIECi5gMRwyQdY9wgQIECAAAECBAgQIECAAAECBAgQIECAAAECBAgQICAxbA4QIECAAAECBAgQIECAAAECBAgQIECAAAECBAgQIECg5AISwyUfYN0jQIAAAQIECBAgQIAAAQIECBAgQIAAAQIECBAgQICAxLA5QIAAAQIECBAgQIAAAQIECBAgQIAAAQIECBAgQIAAgZILSAyXfIB1jwABAgQIECBAgAABAgQIECBAgAABAgQIECBAgAABAhLD5gABAgQIECBAgAABAgQIECBAgAABAgQIECBAgAABAgRKLiAxXPIB1j0CBAgQIECAAAECBAgQIECAAAECBAgQIECAAAECBAhIDJsDBAgQIECAAAECBAgQIECAAAECBAgQIECAAAECBAgQKLmAxHDJB1j3CBAgQIAAAQIECBAgQIAAAQIECBAgQIAAAQIECBAgIDFsDhAgQIAAAQIECBAgQIAAAQIECBAgQIAAAQIECBAgQKDkAhLDJR9g3SNAgAABAgQIECBAgAABAgQIECBAgAABAgQIECBAgIDEsDlAgAABAgQIECBAgAABAgQIECBAgAABAgQIECBAgACBkgtIDJd8gHWPAAECBAgQIECAAAECBAgQIECAAAECBAgQIECAAAECEsPmAAECBAgQIECAAAECBAgQIECAAAECBAgQIECAAAECBEouIDFc8gHWPQIECBAgQIAAAQIECBAgQIAAAQIECBAgQIAAAQIECEgMmwMECBAgQIAAAQIECBAgQIAAAQIECBAgQIAAAQIECBAouYDEcMkHWPcIECBAgAABAgQIECBAgAABAgQIECBAgAABAgQIECAgMWwOECBAgAABAgQIECBAgAABAgQIECBAgAABAgQIECBAoOQCEsMlH2DdI0CAAAECBAgQIECAAAECBAgQIECAAAECBAgQIECAgMSwOUCAAAECBAgQIECAAAECBAgQIECAAAECBAgQIECAAIGSC0gMl3yAdY8AAQIECBAgQIAAAQIECBAgQIAAAQIECBAgQIAAAQISw+YAAQIECBAgQIAAAQIECBAgQIAAAQIECBAgQIAAAQIESi4gMVzyAdY9AgQIECBAgAABAgQIECBAgAABAgQIECBAgAABAgQISAybAwQIECBAgAABAgQIECBAgAABAgQIECBAgAABAgQIECi5gMRwyQdY9wgQIECAAAECBAgQIECAAAECBAgQIECAAAECBAgQICAxbA4QIECAAAECBAgQIECAAAECBAgQIECAAAECBAgQIECg5AISwyUfYN0jQIAAAQIECBAgQIAAAQIECBAgQIAAAQIECBAgQICAxLA5QIAAAQIECBAgQIAAAQIECBAgQIAAAQIECBAgQIAAgZILSAyXfIB1jwABAgQIECBAgAABAgQIECBAgAABAgQIECBAgAABAhLD5gABAgQIECBAgAABAgQIECBAgAABAgQIECBAgAABAgRKLiAxXPIB1j0CBAgQIECAAAECBAgQIECAAAECBAgQIECAAAECBAhIDJsDBAgQIECAAAECBAgQIECAAAECBAgQIECAAAECBAgQKLmAxHDJB1j3CBAgQIAAAQIECBAgQIAAAQIECBAgQIAAAQIECBAgIDFsDhAgQIAAAQIECBAgQIAAAQIECBAgQIAAAQIECBAgQKDkAhLDJR9g3SNAgAABAgQIECBAgAABAgQIECBAgAABAgQIECBAgIDEsDlAgAABAgQIECBAgAABAgQIECBAgAABAgQIECBAgACBkgtIDJd8gHWPAAECBAgQIECAAAECBAgQIECAAAECBAgQIECAAAECEsPmAAECBAgQIECAAAECBAgQIECAAAECBAgQIECAAAECBEouIDFc8gHWPQIECBAgQIAAAQIECBAgQIAAAQIECBAgQIAAAQIECEgMmwMECBAgQIAAAQIECBAgQIAAAQIECBAgQIAAAQIECBAouYDEcMkHWPcIECBAgAABAgQIECBAgAABAgQIECBAgAABAgQIECAgMWwOECBAgAABAgQIECBAgAABAgQIECBAgAABAgQIECBAoOQCEsMlH2DdI0CAAAECBAgQIECAAAECBAgQIECAAAECBAgQIECAgMSwOUCAAAECBAgQIECAAAECBAgQIECAAAECBAgQIECAAIGSC0gMl3yAdY8AAQIECBAgQIAAAQIECBAgQIAAAQIECBAgQIAAAQISw+YAAQIECBAgQIAAAQIECBAgQIAAAQIECBAgQIAAAQIESi4wseT90z0CBAgQIECAAAECBAgQIECAAAECBAgQIDCuArNmzUpf+8HXxjWGhht/IqXly5c3fJoTCBAgQKB3BSSGe3dsREaAAAECBAgQIECAAAECBAgQIECAAAECZRH4XmYd+f8yi1e4BAgQIDCmgK2kxyRyAAECBAgQIECAAAECBAgQIECAAAECBAgQIECAAAECBPIWkBjOe/xET4AAAQIECBAgQIAAAQIECBAgQIAAAQIECBAgQIAAgTEFJIbHJHIAAQIECBAgQIAAAQIECBAgQIAAAQIECBAgQIAAAQIE8haQGM57/ERPgAABAgQIECBAgAABAgQIECBAgAABAgQIECBAgACBMQUkhsckcgABAgQIECBAgAABAgQIECBAgAABAgQIECBAgAABAgTyFpAYznv8RE+AAAECBAgQIECAAAECBAgQIECAAAECBAgQIECAAIExBSSGxyRyAAECBAgQIECAAAECBAgQIECAAAECBAgQIECAAAECBPIWkBjOe/xET4AAAQIECBAgQIAAAQIECBAgQIAAAQIECBAgQIAAgTEFSpMYvvvuu9OUKVPSF77whTE77QACBAgQIECAAAECBAgQIECAAAECBAgQIECAAAECBAj0k0ApEsNLly5Nn/nMZ/pp3PSVAAECBAgQIECAAAECBAgQIECAAAECBAgQIECAAAECdQuUIjF80kknpSeeeKLuTjuQAAECBAgQIECAAAECBAgQIECAAAECBAgQIECAAAEC/SSQfWL4hhtuSNddd13ad999+2nc9JUAAQIECBAgQIAAAQIECBAgQIAAAQIECBAgQIAAAQJ1C2SdGP7d736XTjzxxLTXXnul/fbbr+5OO5AAAQIECBAgQIAAAQIECBAgQIAAAQIECBAgQIAAAQL9JJB1Yvizn/1sWnnlldPJJ5/cT2OmrwQIECBAgAABAgQIECBAgAABAgQIECBAgAABAgQIEGhIYGJDR/fQwXPnzk0/+9nP0iWXXJLWXnvtHopMKAQIECBAgAABAgQIECBAgAABAgQIECBAgAABAgQIEOgtgSwTwwsXLkxnn312+tCHPpR23XXXlkWnTJnSch1RwY033tiWelRCgAABAgQIECBAgACBRgSWLl3ayOE9c+yiRYt6JhaBdFZgyZIlnW2gQ7XHtWWedghXtW0R6Ic56hpsy1RRSQ8IeF7rgUEQAgECBDITiFfptrtklxhetmxZOuqoo9Kf//mfp2OOOaYtHgsWLGhLPSohQIAAAQIECBAgQIDAeAisscYa49Fsy21uvPHGLdehgjwEct3pK64t8zSPOdavUfbDHHUN9uvsLl+/Pa+Vb0z1iAABAp0WaEf+cvji2OwSw1/5ylfSww8/nI488sh05513Dpg/8MADxX8/9dRT6cc//nHaYIMN0hZbbNHpMVE/AQIECBAgQIAAAQIECBAgQIAAAQIECBAgQIAAAQIEel4gu8RwdfuYc889tyZuJIvj6z3veU+x3bRCgAABAgQIECBAgAABAgQIECBAgAABAgQIECBAgACBfhfILjF80EEHpT333HOFcYv3Dl988cXpLW95S5oxY0ax1bRCgAABAgQIECBAgAABAgQIECBAgAABAgQIECBAgAABAilllxjecccda47bHXfcUSSGJ0+enN73vvcZWwIECBAgQIAAAQIECBAgQIAAAQIECBAgQIAAAQIECBD4H4GVSBAgQIAAAQIECBAgQIAAAQIECBAgQIAAAQIECBAgQIBAuQUkhss9vnpHgAABAgQIECBAgAABAgQIECBAgAABAgQIECBAgACB/LaSHmnMdtlll7RgwQJDSoAAAQIECBAgQIAAAQIECBAgQIAAAQIECBAgQIAAAQLDBKwYNiUIECBAgAABAgQIECBAgAABAgQIECBAgAABAgQIECBQcgGJ4ZIPsO4RIECAAAECBAgQIECAAAECBAgQIECAAAECBAgQIEBAYtgcIECAAAECBAgQIECAAAECBAgQIECAAAECBAgQIECAQMkFJIZLPsC6R4AAAQIECBAgQIAAAQIECBAgQIAAAQIECBAgQIAAAYlhc4AAAQIECBAgQIAAAQIECBAgQIAAAQIECBAgQIAAAQIlF5AYLvkA6x4BAgQIECBAgAABAgQIECBAgAABAgQIECBAgAABAgQkhs0BAgQIECBAgAABAgQIECBAgAABAgQIECBAgAABAgQIlFxAYrjkA6x7BAgQIECAAAECBAgQIECAAAECBAgQIECAAAECBAgQkBg2BwgQIECAAAECBAgQIECAAAECBAgQIECAAAECBAgQIFBygYkl75/uESBAgEBFYJNdNkmLXlqUOLkJzwAAIABJREFUncXyu5ZnF7OACRAgQIAAAQIECBAgQIAAAQIECBAgQIBALwpIDPfiqIgpO4EJfz4hu5gj4OWPS7plOXDNBP1k5aSrmjlxHM85dBzb1jQBAgQIECBAgAABAgQIECBAgAABAgQIECiZgMRwyQZUd8ZJ4IlKu3eNU9vNNrtvsyc6jwABAgQIECBAgAABAgQIECBAgAABAgQIECBAIDcB7xjObcTES4AAAQIECBAgQIAAAQIECBAgQIAAAQIECBAgQIAAgQYFJIYbBHM4AQIECBAgQIAAAQIECBAgQIAAAQIECBAgQIAAAQIEchOQGM5txMRLgAABAgQIECBAgAABAgQIECBAgAABAgQIECBAgACBBgUkhhsEczgBAgQIECBAgAABAgQIECBAgAABAgQIECBAgAABAgRyE5AYzm3ExEuAAAECBAgQIECAAAECBAgQIECAAAECBAgQIECAAIEGBSSGGwRzOAECBAgQIECAAAECBAgQIECAAAECBAgQIECAAAECBHITkBjObcTES4AAAQIECBAgQIAAAQIECBAgQIAAAQIECBAgQIAAgQYFJIYbBHM4AQIECBAgQIAAAQIECBAgQIAAAQIECBAgQIAAAQIEchOQGM5txMRLgAABAgQIECBAgAABAgQIECBAgAABAgQIECBAgACBBgUkhhsEczgBAgQIECBAgAABAgQIECBAgAABAgQIECBAgAABAgRyE5AYzm3ExEuAAAECBAgQIECAAAECBAgQIECAAAECBAgQIECAAIEGBSSGGwRzOAECBAgQIECAAAECBAgQIECAAAECBAgQIECAAAECBHITkBjObcTES4AAAQIECBAgQIAAAQIECBAgQIAAAQIECBAgQIAAgQYFJIYbBHM4AQIECBAgQIAAAQIECBAgQIAAAQIECBAgQIAAAQIEchOQGM5txMRLgAABAgQIECBAgAABAgQIECBAgAABAgQIECBAgACBBgUkhhsEczgBAgQIECBAgAABAgQIECBAgAABAgQIECBAgAABAgRyE5AYzm3ExEuAAAECBAgQIECAAAECBAgQIECAAAECBAgQIECAAIEGBSSGGwRzOAECBAgQIECAAAECBAgQIECAAAECBAgQIECAAAECBHITkBjObcTES4AAAQIECBAgQIAAAQIECBAgQIAAAQIECBAgQIAAgQYFJIYbBHM4AQIECBAgQIAAAQIECBAgQIAAAQIECBAgQIAAAQIEchOQGM5txMRLgAABAgQIECBAgAABAgQIECBAgAABAgQIECBAgACBBgUkhhsEczgBAgQIECBAgAABAgQIECBAgAABAgQIECBAgAABAgRyE5AYzm3ExEuAAAECBAgQIECAAAECBAgQIECAAAECBAgQIECAAIEGBSSGGwRzOAECBAgQIECAAAECBAgQIECAAAECBAgQIECAAAECBHITkBjObcTES4AAAQIECBAgQIAAAQIECBAgQIAAAQIECBAgQIAAgQYFJIYbBHM4AQIECBAgQIAAAQIECBAgQIAAAQIECBAgQIAAAQIEchOQGM5txMRLgAABAgQIECBAgAABAgQIECBAgAABAgQIECBAgACBBgUkhhsEczgBAgQIECBAgAABAgQIECBAgAABAgQIECBAgAABAgRyE5AYzm3ExEuAAAECBAgQIECAAAECBAgQIECAAAECBAgQIECAAIEGBSSGGwRzOAECBAgQIECAAAECBAgQIECAAAECBAgQIECAAAECBHITkBjObcTES4AAAQIECBAgQIAAAQIECBAgQIAAAQIECBAgQIAAgQYFJIYbBHM4AQIECBAgQIAAAQIECBAgQIAAAQIECBAgQIAAAQIEchOQGM5txMRLgAABAgQIECBAgAABAgQIECBAgAABAgQIECBAgACBBgUkhhsEczgBAgQIECBAgAABAgQIECBAgAABAgQIECBAgAABAgRyE5AYzm3ExEuAAAECBAgQIECAAAECBAgQIECAAAECBAgQIECAAIEGBSSGGwRzOAECBAgQIECAAAECBAgQIECAAAECBAgQIECAAAECBHITkBjObcTES4AAAQIECBAgQIAAAQIECBAgQIAAAQIECBAgQIAAgQYFJIYbBHM4AQIECBAgQIAAAQIECBAgQIAAAQIECBAgQIAAAQIEchOQGM5txMRLgAABAgQIECBAgAABAgQIECBAgAABAgQIECBAgACBBgUmNni8wwkQIECAAAECHRGYNWtWR+rtZKXz5s3rZPXqJkCAAAECBAgQIECAAAECBAgQIECAQNsEJIbbRqkiAgQIECBAoFmB6dOnp/lnzW/29PE5b05K8yr/UwgQIECAAAECBAgQIECAAAECBAgQIJCDgK2kcxglMRIgQIAAAQIECBAgQIAAAQIECBAgQIAAAQIECBAgQKAFAYnhFvCcSoAAAQIECBAgQIAAAQIECBAgQIAAAQIECBAgQIAAgRwEJIZzGCUxEiBAgAABAgQIECBAgAABAgQIECBAgAABAgQIECBAoAUBieEW8JxKgAABAgQIECBAgAABAgQIECBAgAABAgQIECBAgACBHAQkhnMYJTESIECAAAECBAgQIECAAAECBAgQIECAAAECBAgQIECgBQGJ4RbwnEqAAAECBAgQIECAAAECBAgQIECAAAECBAgQIECAAIEcBCSGcxglMRIgQIAAAQIECBAgQIAAAQIECBAgQIAAAQIECBAgQKAFAYnhFvCcSoAAAQIECBAgQIAAAQIECBAgQIAAAQIECBAgQIAAgRwEJIZzGCUxEiBAgAABAgQIECBAgAABAgQIECBAgAABAgQIECBAoAUBieEW8JxKgAABAgQIECBAgAABAgQIECBAgAABAgQIECBAgACBHAQkhnMYJTESIECAAAECBAgQIECAAAECBAgQIECAAAECBAgQIECgBQGJ4RbwnEqAAAECBAgQIECAAAECBAgQIECAAAECBAgQIECAAIEcBCSGcxglMRIgQIAAAQIECBAgQIAAAQIECBAgQIAAAQIECBAgQKAFAYnhFvCcSoAAAQIECBAgQIAAAQIECBAgQIAAAQIECBAgQIAAgRwEJIZzGCUxEiBAgAABAgQIECBAgAABAgQIECBAgAABAgQIECBAoAUBieEW8JxKgAABAgQIECBAgAABAgQIECBAgAABAgQIECBAgACBHAQkhnMYJTESIECAAAECBAgQIECAAAECBAgQIECAAAECBAgQIECgBQGJ4RbwnEqAAAECBAgQIECAAAECBAgQIECAAAECBAgQIECAAIEcBCSGcxglMRIgQIAAAQIECBAgQIAAAQIECBAgQIAAAQIECBAgQKAFAYnhFvCcSoAAAQIECBAgQIAAAQIECBAgQIAAAQIECBAgQIAAgRwEJIZzGCUxEiBAgAABAgQIECBAgAABAgQIECBAgAABAgQIECBAoAUBieEW8JxKgAABAgQIECBAgAABAgQIECBAgAABAgQIECBAgACBHAQkhnMYJTESIECAAAECBAgQIECAAAECBAgQIECAAAECBAgQIECgBQGJ4RbwnEqAAAECBAgQIECAAAECBAgQIECAAAECBAgQIECAAIEcBCSGcxglMRIgQIAAAQIECBAgQIAAAQIECBAgQIAAAQIECBAgQKAFAYnhFvCcSoAAAQIECBAgQIAAAQIECBAgQIAAAQIECBAgQIAAgRwEJIZzGCUxEiBAgAABAgQIECBAgAABAgQIECBAgAABAgQIECBAoAUBieEW8JxKgAABAgQIECBAgAABAgQIECBAgAABAgQIECBAgACBHAQkhnMYJTESIECAAAECBAgQIECAAAECBAgQIECAAAECBAgQIECgBQGJ4RbwnEqAAAECBAgQIECAAAECBAgQIECAAAECBAgQIECAAIEcBCSGcxglMRIgQIAAAQIECBAgQIAAAQIECBAgQIAAAQIECBAgQKAFAYnhFvCcSoAAAQIECBAgQIAAAQIECBAgQIAAAQIECBAgQIAAgRwEJIZzGCUxEiBAgAABAgQIECBAgAABAgQIECBAgAABAgQIECBAoAUBieEW8JxKgAABAgQIECBAgAABAgQIECBAgAABAgQIECBAgACBHAQkhnMYJTESIECAAAECBAgQIECAAAECBAgQIECAAAECBAgQIECgBYFSJIZfeeWVFF8KAQIECBAgQIAAAQIECBAgQIAAAQIECBAgQIAAAQIECKwoMDFXlKeffjqdc8456brrrksvvPBC0Y3JkyenAw88MM2aNSvXbombAAECBAgQIECAAAECBAgQIECAAAECBAgQIECAAAECbRfIMjG8ePHitN9++6Xf//73adq0acXXM888k66//vp0+umnp4ULF6ZTTz217VgqJECAAAECBAgQIECAAAECBAgQIECAAAECBAgQIECAQI4CWSaGzz///CIpfNRRR6XDDz98wP3ggw9OM2bMSFdffXXx59SpU3McEzETIECAAAECBAgQIECAAAECBAgQIECAAAECBAgQIECgrQJZvmP4xhtvTKusskr65Cc/OQRj9dVXTzNnziy+d+utt7YVSmUECBAgQIAAAQIECBAgQIAAAQIECBAgQIAAAQIECBDIVSDLFcNz5swp3iu80kor5rUnTvz/u7Rs2bJcx0TcBAgQIECAAAECBAgQIECAAAECBAgQIECAAAECBAgQaKtAlonh3XfffUSEa6+9tvjZDjvs0FYolREgQIAAAQIECBAgQIAAAQIECBAgQIAAAQIECBAgQCBXgSwTwyNhx7uF77jjjrT55punXXfdNdcxETcBAgQIECBAgAABAgQIECBAgAABAgQIECBAoKsCm2yySVfba0djjzzySDuqUQeBvhEoTWL45ptvTieccEJaa6210nnnndfQAE6ZMqWh40c6ON59rBDISWDRokU5hSvWFgRefvnlFs4ev1PN0fGz73bL8YqIHIs5muOoiZlAOQWWLl2aZcfcR7MctqaCXrJkSVPnjfdJcW2Zp+M9CtofTaAf5qhr0DVQFgHPa2UZyfL24ytf+Upa9IG52XXwgx/8YDrzzDOzi1vABOoR2Guvveo5rKFjSpEYvuqqq9Jxxx2X1llnnXTxxRenyZMnN4SwYMGCho53MIGyCGy88cZl6Yp+jCFQff96blDmaG4j1ny8q666avMnj+OZ5ug44muaAIEhAmussUaWIu6jWQ5bU0GvvfbaTZ033ifFtWWejvcoaH80gX6Yo65B10BZBDyvlWUky9uP4nntufz61w9/F+Y3KiJul0A78pfDF8dmnxg+5ZRT0te//vW04YYbpnnz5qVNN920Xd7qIUCAAAECBAgQIECAAAECBAgQIECAAAECBAgQIECAQCkEsk0Mv/LKK+mII45IsYX0Nttsky666KK07rrrlmJQdIIAAQIECBAgQIAAAQIECBAgQIAAAQIECBAgQIAAAQLtFFipnZV1s67DDz+8SArvvvvu6fLLL5cU7ia+tggQIECAAAECBAgQIECAAAECBAgQIECAAAECBAgQyEogyxXDF1xwQZo/f36aNm1aiv9WCBAgQIAAAQIECBAgQIAAAQIECBAgQIAAAQIECBAgQGBkgewSw0uWLEnnn39+0aP470MPPbRm797+9rengw46yNgTIECAAAECBAgQIECAAAECBAgQIECAAAECBAgQIECg7wWySwzfdddd6aWXXioG7t577x1xANdff/2+H1wABAgQIECAAAECBAgQIECAAAECBAgQIECAAAECBAgQCIHsEsN77LFHWrBggdEjQIAAAQIECBAgQIAAAQIECBAgQIAAAQIECBAgQIAAgToFVqrzOIcRIECAAAECBAgQIECAAAECBAgQIECAAAECBAgQIECAQKYCEsOZDpywCRAgQIAAAQIECBAgQIAAAQIECBAgQIAAAQIECBAgUK+AxHC9Uo4jQIAAAQIECBAgQIAAAQIECBAgQIAAAQIECBAgQIBApgISw5kOnLAJECBAgAABAgQIECBAgAABAgQIECBAgAABAgQIECBQr4DEcL1SjiNAgAABAgQIECBAgAABAgQIECBAgAABAgQIECBAgECmAhLDmQ6csAkQIECAAAECBAgQIECAAAECBAgQIECAAAECBAgQIFCvgMRwvVKOI0CAAAECBAgQIECAAAECBAgQIECAAAECBAgQIECAQKYCEsOZDpywCRAgQIAAAQIECBAgQIAAAQIECBAgQIAAAQIECBAgUK+AxHC9Uo4jQIAAAQIECBAgQIAAAQIECBAgQIAAAQIECBAgQIBApgITM41b2AQIdFFgwoQJXWytfU0tX768fZWpiQABAgQIECBAgAABAgQIECBAgAABAgQIECCQsYDEcMaDJ3QC3RKYOXNm+tq6H+1Wc+1p59++3p561EKAAAECBAgQIECAAIE6BIoP1G61Vx1H9tAh99+YfKC2h8ZDKAQIECBAgAABAgQ6LCAx3GFg1RMgQIAAAQIECBAgQIAAAQJ9ILDWhint9fm8OlpJDCsECBAgQIAAAQIECPSPgMRw/4y1nhIgQIAAAQLjKDB9+vRxbL25pm+55ZbmTnQWAQIECBAgQIAAAQIECBAgQIAAAQI9JyAx3HNDIiACBAgQIECgjALz/zApu1VEs2bNSvPmzSvjcOgTAQIZCuT4AZtFixalRx55JENtIRMgQIAAAQIECBAgQIBAGQUkhss4qvpEgACBPhOYM2dOOumkk7Lrdby/W9Itu2ETMAECBAiMk8D8h55N6W/PHqfWm2t240WHNHeiswgQIECAAAECBAgQIECAQAcEJIY7gKpKAgQIEBgHgaN/NA6Nttjk4starMDpBAgQIECAAAECBAgQIECAAAECBAgQIECgPgGJ4fqcHEWAAAECBAgQIECAAAECBAgQIECAAAECBAiMIDDh/3lDdjYbr7uqV39kN2oCJkCgFQGJ4Vb02nhubIOaWznxxBNzC1m8BEYUmDBhQkpb7ZWV0Mb/vcCDa1YjJlgCBAgQIECAAAECBAgQIECAQIkF1np9dq/+SNd49UeJZ6SuESBQQ0BiuAemxaxZs9LX1v1oD0TSQAg3finJCzfg5dDeF/h/p6a01+d7P87BEXpwzWu8REuAQPYC06dPz64Pt9xyS3YxC5gAAQIECBAgQIAAAQIECBAgQKAzAhLDnXFVKwECBAgQIECgrwSKnRfe9rG8+vxvl6bly5fXFXN8kG/+9rPrOrZnDqp8kE8hQIAAAQIECBAoj0CxTe/kygfbMyrT1n8x+bBiRgMmVAIECBAovYDEcOmHWAcJECBAgAABAl0SeNtBXWqoTc1UEsMKAQIECBAgQIAAgWwEIimc225nd/+vbHgFSmAsgUWLX0hzPnPYWIf13M/nzZvXczEJiACB8ROQGB4/ey0TIECAAAECBAgQIECAAAECBAgQIECAQEWgWBGdYVn+X09mGLWQmxGY/pYt0qIPzG3m1PE7538fnaSFx49fywR6UUBiuBdHRUwECBAgQIAAAQIECBAgQIAAAQIECBDoJ4Hnnkrp6B/l1eNLDswrXtESIFBqgU022STFyvasSuXeX+9rvrLqVw8HKzHcw4MjNAIECBAgQIAAAQIECBAgQIBALwjk+IvGjbfZKT1y67W9wCcGAgQIECBAgEDHBTbeeOPKqvbZHW+nrQ3c+KW2VqeysQUkhsc2cgQBAgQIECBAgAABAgQIECBAoK8FcvxF4yK/aOzrOavzBAgQIECAAAECKwpIDJsVBAgQIECAAAECBAgQIECAAAECBAhkLTBhwoTs4p+274x0y3evzC5uARMgQCBXgRz/rghrWy3/3xmX4/voZ35g7zRvXu+87VtiONc7WGZxFxfrWq/PKuppb1wn3XLLLVnFLFgCBMorMH369Ow6N3/+fA+u2Y2agAkQIEBgvATiXWBzPnPYeDXfdLu99AuOpjvhRAIESiEwc+bM9LV1P5pVX+Zb1Z7VeAmWAIESCKy1YUp/d0VeHTn7XXnF2+loJ09Naa/Pd7qV9ta/+LL21tdibRLDLQI6vU6BHC/Wu/9XnZ1zGAECBDovMP/u3+b34FpJDCsECBDoFYEcP2CzaNGi9Mgjj/QKoTg6LDD9LVtU3gc2t8OttLn6/3106p3Pvbe5b6ojQIAAAQIECBAgQIBACQUkhks4qLpEgAABAgQIECBAoFGBsu/wErsYpKN/1CjL+B5/94Hj277WCRAgQIAAAQIECBAgQIAAgVIJSAyXajh1hgABAgQIECBAgECTAnZ4aRLOaQQIECBAgAABAgQIECBAgACBPARWyiNMURIgQIAAAQIECBAgQIAAAQIECBAgQIAAAQIECBAgQIBAswISw83KOY8AAQIECBAgQIAAAQIECBAgQIAAAQIECBAgQIAAAQKZCEgMZzJQwiRAgAABAgQIECBAgAABAgQIECBAgAABAgQIECBAgECzAhLDzco5jwABAgQIECBAgAABAgQIECBAgAABAgQIECBAgAABApkISAxnMlDCJECAAAECBAgQIECAAAECBAgQIECAAAECBAgQIECAQLMCEsPNyjmPAAECBAgQIECAAAECBAgQIECAAAECBAgQIECAAAECmQhIDGcyUMIkQIAAAQIECBAgQIAAAQIECBAgQIAAAQIECBAgQIBAswISw83KOY8AAQIECBAgQIAAAQIECBAgQIAAAQIECBAgQIAAAQKZCEgMZzJQwiRAgAABAgQIECBAgAABAgQIECBAgAABAgQIECBAgECzAhLDzco5jwABAgQIECBAgAABAgQIECBAgAABAgQIECBAgAABApkISAxnMlDCJECAAAECBAgQIECAAAECBAgQIECAAAECBAgQIECAQLMCEsPNyjmPAAECBAgQIECAAAECBAgQIECAAAECBAgQIECAAAECmQhIDGcyUMIkQIAAAQIECBAgQIAAAQIECBAgQIAAAQIECBAgQIBAswISw83KOY8AAQIECBAgQIAAAQIECBAgQIAAAQIECBAgQIAAAQKZCEgMZzJQwiRAgAABAgQIECBAgAABAgQIECBAgAABAgQIECBAgECzAhLDzco5jwABAgQIECBAgAABAgQIECBAgAABAgQIECBAgAABApkISAxnMlDCJECAAAECBAgQIECAAAECBAgQIECAAAECBAgQIECAQLMCEsPNyjmPAAECBAgQIECAAAECBAgQIECAAAECBAgQIECAAAECmQhIDGcyUMIkQIAAAQIECBAgQIAAAQIECBAgQIAAAQIECBAgQIBAswISw83KOY8AAQIECBAgQIAAAQIECBAgQIAAAQIECBAgQIAAAQKZCEgMZzJQwiRAgAABAgQIECBAgAABAgQIECBAgAABAgQIECBAgECzAhLDzco5jwABAgQIECBAgAABAgQIECBAgAABAgQIECBAgAABApkISAxnMlDCJECAAAECBAgQIECAAAECBAgQIECAAAECBAgQIECAQLMCEsPNyjmPAAECBAgQIECAAAECBAgQIECAAAECBAgQIECAAAECmQhIDGcyUMIkQIAAAQIECBAgQIAAAQIECBAgQIAAAQIECBAgQIBAswISw83KOY8AAQIECBAgQIAAAQIECBAgQIAAAQIECBAgQIAAAQKZCEgMZzJQwiRAgAABAgQIECBAgAABAgQIECBAgAABAgQIECBAgECzAhLDzco5jwABAgQIECBAgAABAgQIECBAgAABAgQIECBAgAABApkISAxnMlDCJECAAAECBAgQIECAAAECBAgQIECAAAECBAgQIECAQLMCEsPNyjmPAAECBAgQIECAAAECBAgQIECAAAECBAgQIECAAAECmQhIDGcyUMIkQIAAAQIECBAgQIAAAQIECBAgQIAAAQIECBAgQIBAswISw83KOY8AAQIECBAgQIAAAQIECBAgQIAAAQIECBAgQIAAAQKZCEgMZzJQwiRAgAABAgQIECBAgAABAgQIECBAgAABAgQIECBAgECzAhLDzco5jwABAgQIECBAgAABAgQIECBAgAABAgQIECBAgAABApkISAxnMlDCJECAAAECBAgQIECAAAECBAgQIECAAAECBAgQIECAQLMCEsPNyjmPAAECBAgQIECAAAECBAgQIECAAAECBAgQIECAAAECmQhIDGcyUMIkQIAAAQIECBAgQIAAAQIECBAgQIAAAQIECBAgQIBAswISw83KOY8AAQIECBAgQIAAAQIECBAgQIAAAQIECBAgQIAAAQKZCEgMZzJQwiRAgAABAgQIECBAgAABAgQIECBAgAABAgQIECBAgECzAhLDzco5jwABAgQIECBAgAABAgQIECBAgAABAgQIECBAgAABApkISAxnMlDCJECAAAECBAgQIECAAAECBAgQIECAAAECBAgQIECAQLMCEsPNyjmPAAECBAgQIECAAAECBAgQIECAAAECBAgQIECAAAECmQhIDGcyUMIkQIAAAQIECBAgQIAAAQIECBAgQIAAAQIECBAgQIBAswISw83KOY8AAQIECBAgQIAAAQIECBAgQIAAAQIECBAgQIAAAQKZCEgMZzJQwiRAgAABAgQIECBAgAABAgQIECBAgAABAgQIECBAgECzAhLDzco5jwABAgQIECBAgAABAgQIECBAgAABAgQIECBAgAABApkISAxnMlDCJECAAAECBAgQIECAAAECBAgQIECAAAECBAgQIECAQLMCEsPNyjmPAAECdQi86frD6jjKIQQIEGhewH2meTtnEiBQn8CbPvym+g50FAECBJoU8DzTJJzTCBCoW8B9pm4qBxIg0ISAe0wTaE4ZNwGJ4XGj1zABAgQIECBAgAABAgQIECBAgAABAgQIECBAgAABAgS6IyAx3B1nrRAgQIAAAQIECBAgQIAAAQIECBAgQIAAAQIECBAgQGDcBCSGx41ewwQIECBAgAABAgRILi4+AAAgAElEQVQIECBAgAABAgQIECBAgAABAgQIEOiOgMRwd5y1QoAAAQIECBAgQIAAAQIECBAgQIAAAQIECBAgQIAAgXETkBgeN3oNEyBAgAABAgQIECBAgAABAgQIECBAgAABAgQIECBAoDsCEsPdcdYKAQIECBAgQIAAAQIECBAgQIAAAQIECBAgQIAAAQIExk1AYnjc6DVMgAABAgQIECBAgAABAgQIECBAgAABAgQIECBAgACB7ghIDHfHWSsECBAgQIAAAQIECBAgQIAAAQIECBAgQIAAAQIECBAYNwGJ4XGj1zABAgQIECBAgAABAgQIECBAgAABAgQIECBAgAABAgS6IyAx3B3ncWtlk5uPH7e2u9Hw5H/7cjeaGdc2Nrxww3Ftv9ONv+n6wzrdhPo7LGCOdhi4w9Vv+Muvd7iF8a9+8hcnj38QImhaYL0H/6Xpc3M50fNaLiM1cpz9cC/Nf5T6e/zKPkff9OE3lXmKprKPX6kH7386t8lRm5S6m+tdvV6p+xed87xW+iHOvoP+Lsx+CEv/973fAec/R8ueiyn73/XnnXfewCQsRWJ42bJl6dVXX83/ytIDAgQIECBAgAABAgQIECBAgAABAgQIECBAgAABAgQIdEAg68TwBRdckHbeeee09dZbF18f/vCH029+85sOMKmSAAECBAgQIECAAAECBAgQIECAAAECBAgQIECAAAEC+Qpkmxg+9thj0znnnJM22mijdOKJJ6ZZs2alBx54IB1wwAFp4cKF+Y6IyAkQIECAAAECBAgQIECAAAECBAgQIECAAAECBAgQINBmgYltrq8r1d1zzz3p6quvLlYLX3rppQNt7rHHHunAAw9Ms2fPTldeeWVXYtEIAQIECBAgQIAAAQIECBAgQIAAAQIECBAgQIAAAQIEel0gyxXD3/72twvXI488cojvdtttl3bfffcUieOHHnqo1+3FR4AAAQIECBAgQIAAAQIECBAgQIAAAQIECBAgQIAAga4IZJkYvvPOO9PEiRPT9ttvvwLSrrvuWnzv3nvv7QqgRggQIECAAAECBAgQIECAAAECBAgQIECAAAECBAgQINDrAtklhl999dX01FNPpQ022CCttNKK4a+//vqFucRwr0898REgQIAAAQIECBAgQIAAAQIECBAgQIAAAQIECBAg0C2BCcsrpVuNtaOd559/Pm277bbpne98Z7r44otXqPK2225LhxxySNp3333TmWeeOWaTU6ZMGfMYBxAgQIAAAQIECBAgQIAAAQIECBAgQIAAAQIECBAgQCA3gXg17xFHHFGEPTG34Kt57FqrhaMv1e+/8sordXVtwYIFdR3X6YPmzJnT6SbaXv+JJ55Yd51l719AlL2P+lf3dO/agY1cg+Zo14aloYYaGcOyX4PmaENTp2sHl32OBmTZ+6h/Qy+Xst9L9a9rt8e6G2rkGvR3Yd2sXT2wkTEs+zVojnZ16tXdWNnnqOe1/nqWcZ+p+9Lv6oFlv8800j9ztKtTr+7GGhlDz2t1s3b1QGPYVe6U7YrhadOmpYsuumgFreqK4fe+973prLPO6q6m1ggQIECAAAECBAgQIECAAAECBAgQIECAAAECBAgQINCDAtm9Y3jSpEkF46OPPlqTc9myZcX3V1111R7kFhIBAgQIECBAgAABAgQIECBAgAABAgQIECBAgAABAgS6L5BdYji2in7d616XHn/88Zpazz33XPH9LbfcsvuaWiRAgAABAgQIECBAgAABAgQIECBAgAABAgQIECBAgEAPCmSXGA7DnXbaKb300kvpoYceWoE0tpKOssUWW/Qgt5AIECBAgAABAgQIECBAgAABAgQIECBAgAABAgQIECDQfYEsE8Px/uAoc+fOHSL25JNPpptuuilttNFGabvttuu+phYJECBAgAABAgQIECBAgAABAgQIECBAgAABAgQIECDQgwITezCmMUOaPn162nHHHdM111yTXn755bTPPvukxYsXp3POOSc9//zz6bjjjhuzDgcQIECAAAECBAgQIECAAAECBAgQIECAAAECBAgQIECgXwQmLK+UHDsb7xI++eST03XXXTcQfrx7ePbs2WnvvffOsUtiJkCAAAECBAgQIECAAAECBAgQIECAAAECBAgQIECAQEcEsk0MVzWWLl2a7rvvvrTeeuulKVOmdARJpQQIECBAgAABAgQIECBAgAABAgQIECBAgAABAgQIEMhZIPvEcM74YidAgAABAgQIECBAgAABAgQIECBAgAABAgQIECBAgEA3BFbqRiPaIECAAAECBAgQIECAAAECBAgQIECAAAECBAgQIECAAIHxE5AYHj97LRMgQIAAAQIECBAgQIAAAQIECBAgQIAAAQIECBAgQKArAhLDXWHWCAECBAgQIECAAAECBAgQIECAAAECBAgQIECAAAECBMZPoK8Tw8uWLUuvvvrq+OlrmQABAgQIECDQgEA8t7zyyit1neE5py4mBxEgMEigkXsMOAIECDQqEM8w9T7HRN2eZRoVdjwBAo3eZ4gRIECgUYFGn08aPb7ReBxPoBmBCcsrpZkTcz7nggsuSJdeeml69tln02te85q07bbbptmzZ6ctttgi526JnQCBHhG47bbb0ty5c0eM5sILL0yTJk3qkWiFQYBATgKHHnpoeumll9K8efNGDNtzTk4jKlYCvSUw1j3GM05vjZdoCOQg8PTTT6dzzjknXXfddemFF14oQp48eXI68MAD06xZs2p2wbNMDiMrRgK9I9DofcbzTO+MnUgI5CKwZMmSdNZZZw08z0ycODG9853vTJ/73OfSpptu6nkml4EU54DAxH6zOPbYY9PVV19dJIM//elPp8cffzxdccUV6YADDkhXXXVV2myzzfqNRH8JEGizwPe///10xx13pNe+9rU1a27kU/JtDk11BAhkLHDaaael+fPnp1122WXEXnjOyXiAhU5gnAXqucd4xhnnQdI8gcwEFi9enPbbb7/0+9//Pk2bNq34euaZZ9L111+fTj/99LRw4cJ06qmnDumVZ5nMBlm4BMZZoJn7jOeZcR40zRPITGDp0qXpb//2b9Ojjz6a9t577+J55sEHH0zf/OY30/7775++9a1vrZBT8jyT2SD3Ybh9lRi+5557iqTwzjvvXKwYrpY99tij+LRqrBq+8sor+3Aa6DIBAu0UeOyxx1J8cuyuu+5KK63U1zv2t5NVXQT6ViD+ERL/qLjxxhtHNfCc07dTRMcJtCRQ7z0mGvGM0xK1kwn0ncD5559fJIWPOuqodPjhhw/0/+CDD04zZswofj8Tf06dOrX4mWeZvpsiOkygZYFG7zOeZ1omVwGBvhP46le/WiSF41kmnmmqZddddy12P4mVxBdddNHA9z3P9N0UybLDfZWx+Pa3v10M0pFHHjlksLbbbru0++67F/8Ieeihh7IcSEETINA7AnfffXeaMmWKpHDvDIlICGQrEJ9m32uvvYqk8Pvf//5R++E5J9thFjiBcRNo5B4TQXrGGbeh0jCBLAXi+WWVVVZJn/zkJ4fEv/rqq6eZM2cW37v11lsHfuZZJsthFjSBcRVo9D7jeWZch0vjBLIU+PnPf168jvTjH//4kPhjN7fVVlst3XnnnUO+73kmy2Huu6D7KjEcF2ms4tt+++1XGOj4hEeUe++9t+8mgQ4TINA+gVhJE+//jMSwQoAAgVYFYqvF+IdGvGvvjDPOGLU6zzmtajufQP8JNHKP8YzTf/NDjwm0KjBnzpzi+aXWLkrxu5koy5YtG2jGs0yr4s4n0H8Cjd5nPM/03xzRYwKtClx22WXpl7/8ZYoPtg0u8QwTX2usscaQ73ueaVXc+d0Q6JvE8KuvvpqeeuqptMEGG9T8R8n6669feEsMd2PaaYNAeQXuv//+onMbbrhhOuaYY9Jb3/rWYmu0j3zkI+mGG24ob8f1jACBjggcdthh6Qc/+EGxs8loxXNOR/hVSqD0AvXeYwLCM07pp4MOEmi7QDy/7LPPPjXrvfbaa4vv77DDDsWfnmXazq9CAn0h0Mh9xvNMX0wJnSTQEYGVV155SL1/+tOf0vHHH59efvnldNBBBw38zPNMR/hV2gGBvnnH8IsvvpheeeWV9MY3vrEmY2xvFCWOUwgQINCswK9//evi1HjPzUYbbZRiW5Hnnnsu/fSnP02x9Uj8UvVzn/tcs9U7jwCBPhPYaqut6uqx55y6mBxEgMAwgXrvMXGaZxzThwCBdgnEu4XvuOOOtPnmm6fq7m2eZdqlqx4CBEKg1n3G84y5QYBAqwKxcvi8884rto+OXFO8c/jQQw8dqNbzTKvCzu+WQN8khpcvX16Y1trCaPD344JWCBAg0KzAE088UZx69NFHD3kwWLhwYfrYxz6WLrnkkjR9+vSBT8Y3247zCBAgMFjAc475QIBApwU843RaWP0E+kPg5ptvTieccEJaa621il+sVotnmf4Yf70k0A2Bke4z0bbnmW6MgDYIlFdgyZIladKkSWnnnXdOt99+e7riiiuKhYjvfve7i057ninv2JetZ32zlfSECRNGHbtY5h9lpMRx2QZefwgQ6IzA2WefXayoGfxpsWhps802S0ceeWTR6De+8Y3ONK5WAgT6VsBzTt8OvY4T6JqAZ5yuUWuIQGkFrrrqqhRb2K+55prpq1/9apo8efJAXz3LlHbYdYxAVwVGu89EIJ5nujocGiNQOoHddtut+GDbxRdfnL73ve8VieD4fe+CBQuKvnqeKd2Ql7ZDfZMYjk9yRHn00UdrDma8KDzKqquuWtrB1jECBLojMPy9E9VW3/GOdxT/uWjRou4EohUCBPpGwHNO3wy1jhIYVwHPOOPKr3ECWQuccsop6bjjjksbbrhh8UHZN7/5zUP641km6+EVPIGeEBjrPlMN0vNMTwyXIAhkLxArhQ8//PCiH7FyOIrnmeyHtW860DdbScdK4Ne97nXp8ccfrzm48Q7QKFtuuWXfDL6OEiDQGYHYgaDW7gPVd5n7AEpn3NVKoJ8FPOf08+jrO4HuCXjG6Z61lgiURSBe13XEEUek2Np1m222SRdddFFad911V+ieZ5myjLh+EOi+QL33mWpknme6P0ZaJJCzQNwz/vCHP6TXv/71K3SjuvvJ4sWLi595nsl5pPsr9r5ZMRzDutNOO6WXXnopPfTQQyuM8m233VZ8b4sttuivGaC3BAi0TSB2Hthqq63S9ttvX7POX/ziF8X3N95447a1qSICBAhUBTznmAsECHRKwDNOp2TVS6D8ArGSJpLCu+++e7r88strJoU9y5R/HughgU4K1Huf8TzTyVFQN4FyCsR9Y+utt0777bdfzQ7+8Y9/LL4fr8nwPFPOOVDWXvVVYvi9731vMY5z584dMp5PPvlkuummm9JGG22Utttuu7KOtX4RINBhgdiOaOrUqen5559P3/nOd4a0Ft+74IILiu/NmDGjw5GongCBfhTwnNOPo67PBLoj4BmnO85aIVA2gfj3z/z589O0adOKfwtVt1ccqZ+eZco2A/SHQOcFGrnPeJ7p/HhogUDZBOK+ER/Cf+aZZ9J3v/vdId178cUXi51QogxOHHueKdssKGd/+mYr6Ri+6dOnpx133DFdc8016eWXX0777LNPimX+55xzTpHIiffdKAQIEGhFYPbs2emAAw5Ixx9/fHrssceKd2ctXbo0XXLJJenBBx9MM2fOLJLHCgECBNot4Dmn3aLqI0BgsIBnHPOBAIFGBJYsWZLOP//84pT470MPPbTm6W9/+9vTQQcdVPzMs0wjwo4lQKCZ+4znGfOGAIFGBY499thikc/g3/XGa0mrv+v9wAc+UOScqsXzTKPCjh8PgQnLK2U8Gh6vNuOiPfnkk9N11103EEK8ezgeDPbee+/xCku7BAiUSOBXv/pVOuGEE9IDDzww0Kt11lmn+GXIrFmzStRTXSFAoNsCU6ZMSbvsskuaN29ezaY953R7RLRHoFwCY91jPOOUa7z1hkAnBX74wx+mT33qU2M28cEPfjB98YtfHDjOs8yYZA4gQOB/BJq9z3ieMYUIEGhU4De/+U2KBPHg3/XG9tGHHHJIOuyww1aozvNMo8KO77ZA3yWGq8Cxgu++++5L6623XopfgCgECBBot0DsSPDb3/42rb/++mmzzTZrd/XqI0CAwIgCnnNMDgIEOingGaeTuuomQCAEPMuYBwQIdFrA80ynhdVPoHwCTzzxRHr44YdTLDSMnNJKK43+plbPM+WbA2XpUd8mhssygPpBgAABAgQIECBAgAABAgQIECBAgAABAgQIECBAgACBsQRG/0jDWGf7OQECBAgQIECAAAECBAgQIECAAAECBAgQIECAAAECBAj0vIDEcM8PkQAJECBAgAABAgQIECBAgAABAgQIECBAgAABAgQIECDQmoDEcGt+ziZAgAABAgQIECBAgAABAgQIECBAgAABAgQIECBAgEDPC0gM9/wQCZAAAQIECBAgQIAAAQIECBAgQIAAAQIECBAgQIAAAQKtCUgMt+bnbAIECBAgQIAAAQIECBAgQIAAAQIECBAgQIAAAQIECPS8gMRwzw+RAAkQIECAAAECBAgQIECAAAECBAgQIECAAAECBAgQINCagMRwa37OJkCAAAECBAgQIECAAAECBAgQIECAAAECBAgQIECAQM8LSAz3/BAJkAABAgQIECBAgAABAgQIECBAgAABAgQIECBAgAABAq0JSAy35udsAgQIECBAgAABAgQIECBAgAABAgQIECBAgAABAgQI9LyAxHDPD5EACRAgQIAAAQIECBAgQIAAAQIECBAgQIAAAQIECBAg0JqAxHBrfs4mQIAAAQIECBAgQIAAAQIECBAgQIAAAQIECBAgQIBAzwtIDPf8EAmQAAECBAgQIECAAAECBAgQIECAAAECBAgQIECAAAECrQlMbO10ZxMgQIAAAQIECBDob4Hf/e536dZbbx0RYdKkSem1r31tetvb3pZWW221Icf94Q9/SD/+8Y9HBYzz11prrfSOd7wjveY1rxly7JNPPpluv/324nv77LNPWn311Ues67HHHks//elP05/92Z+lXXbZpZSD9u///u/p7rvvTptuumnafvvte7qPxxxzTNp2223TjBkzeiLOnOyaAVuwYEG66aabUvTzhRdeSKuuumqaPHlyeve735222mqrIVXecsst6ZlnnkmbbbZZmjp16pjN/elPf0o33HBDcdz+++8/6vGLFi1Kd911VxZzdLSOvPrqq2mller7nHm3+lwrpm61PeYkyfiAdhiOVsfwcWtHe+3mjr9X4t4x+O+WdsY53OCOO+5Il156aTrllFPS6173unZ3R30ECBAgQIAAAQJ9LiAx3OcTQPcJECBAgAABAgRaE3j44YfTcccdN2YlEydOTIcddlg64ogjBo599NFH6zo3TlhzzTXTF7/4xbT33nsPnP/ggw8OnB+/uD711FNHjONXv/pVceyee+5Z2sTwnXfemebMmZMOPPDAnk4MX3DBBel73/teOvLII8ecN906IBe7Rj1efPHFYt5fd911NU+98MIL07ve9a70pS99Ka2xxhrFMffdd186//zzi8T9t771rTGbjLpPOOGE9Ja3vGXMxHAkhSOeXp+jo3X6nnvuSWeeeWb6xje+MaZNHNCNPo8UUzfargsh44PaYThSHbXGrR3ttZv7+uuvT1dcccWQ67ZdcdYy2HnnndPJJ5+cZs+eneLvC4UAAQIECBAgQIBAOwUkhtupqS4CBAgQIECAAIG+FYjEbyQlB5dXXnkl/eY3v0mPPPJIisTbueeeW6z6jQTx4BLnRqKlVnn88ceLJGIkgY866qh01VVXpTe/+c0rHHr11Venv/qrv0q77rpr345BDh2PlduRdDzooIOK1dtKZwUiYRuJ2/XWWy99/OMfL1YBx2rhWDUcq4jnzp2bfvSjHxXX5GWXXVYE88EPfrAYo3vvvTfFhzc22mijUYP8zne+U/z8b/7mb8bszMorr5zWWWedUVf3j1nJOB4Qq6MPOOCAog/1lk73uZmY6o3dcSm1Y/xq1THSuLWjvW6MWzviHMkgVuMfffTRxYeHbr755rT77rt3o0vaIECAAAECBAgQ6BMBieE+GWjdJECAAAECBAgQ6KxA/CJ3tG1kzzrrrHTxxRenWKH4d3/3d8Uv26slzo2toEcqBx98cProRz+afvGLXxSrhyJpVasce+yx6V//9V8HVj52tsdqb0bgy1/+coptQw855JBmTndOAwKxzfu1116b4oMX3/zmN1dI8Mb27PFhirj2fvazn6Xbbrut2LI9EvaxYi8+zPEv//Iv6fDDDx+x1Ugcx4q/2C5+3333HTO6973vfSm++qn0Y5/LNL7tGL9G6mjk2PF07nScsc39X/7lX6bTTz89TZs2re6t28fTRNsECBAgQIAAAQJ5CNT3UqA8+iJKAgQIECBAgAABAj0r8A//8A/FauFYqRjvD2ykxHkzZ84sTolk1fAS7yB805velH7/+98X7yTsVIl3Kt5///1FYrNTJepeuHBh8T7HWu3E9x966KG6YojzI94nnnii7nDjvc+xRejSpUvrOicSg3FOPSVij0RjJCPreW9ko97V2GMVWqulUbtq2+FR7/xoxK6Z/sTYR9lxxx1HXPUbSeC//uu/Lo774Q9/ONBM9UMekVgerVR//oEPfGDIhz2aiTfOefrpp4v5F3+2o4znHGo0/kZjbbT+6vGNttPoPWG0uBq9TuLDDTEfli1bNmZ3Y4eKmPOxK0E3S7vnbD2xN3uva3Ts64llpGPa4RKr8+M++d3vfreVUJxLgAABAgQIECBAYIiAxLAJQYAAAQIECBAgQKALApHcjS1so9TzS/5GQooVx7EiOdq45ppr0q233trI6TWPje1xt99++3TLLbcU71mNLar32muvFAmw2Mo63ncc728dXM4444zinPizVontMOPngxOXg9uJd5busssuRaKuui12NVl3ww03FDHE99/znveknXbaKVW38K3V1kUXXZS22267It7p06en3XbbLcV22yOVaDuOixWj8f7XeF9snPvTn/50yClhUXWJrb1jVVecU88K4Fi1GmXwe6KrlTfjXT03VpGHTTX26HesZvvxj3/c1Dyo1y4SHyeddFKaOnXqQNvhEfPj+OOPT88991zb7JrpSHVV/q9//eshc254XbEi+JJLLim2966WWEW81lprFUmZeD/3SCWutyj1bCMdx1XHefg1EnMzro+3v/3txfyLP+NrpN0BasXT6TkU13zMsSjPPvtscR3Us3V9rT63EuvgvjcSU637WLzHdfh9rFp/vfeEseZmo9dJ1Be7S4TtO9/5zmI+bL311sX96Je//OUKzcX9NBy22Wab4pg99tijuMfEKvhjjjlmhXtuo/fpdszZ4XWMNm4jtRcdb+Re1645NtL4tupSz9yt7iRS7/u8x5qLfk6AAAECBAgQIEAgBGwlbR4QIECAAAECBAgQ6ILA4sWL03//938XLa2//voNtxhJjSiRsKxVpkyZkj75yU+mf/7nf06xpXSsTI3EVrMlVp9FvF/96leLBEO0G4mKWPH8/e9/v3gfayQkTj311IEmIsES54yUaInjqwbVk6rtRCIktsqOxNMb3vCGFCu7fv7znxfvVf7Upz6VvvKVrxQ/iwRv9Wf/+I//mDbffPO0xRZbDOlmvJP5j3/8Y3F8JHsjsXf99dcXLkuWLFkhiRtJzG9/+9vFdsCR4IvE5t13310YRrLwn/7pnwZWlQ6Pd7XVVisS/ZtsssmY1JHcjm2NI6bhpRnvqCPem/uTn/ykGOuIPbYeja2Nb7rppvSJT3wiReJrxowZY8ZWPaBeu0j6xrt4YzX2tttuWySfYhX0b3/726Lt8HzmmWeKRM5IY92IXd0dGHRgJFY32GCDYiV9JNcOPfTQtOeeexYfoBhcYtXw8Pc9xzHvf//709e//vVitV6t93rHhwaeeuqptOWWW64wB0eKtzrOg6+RSArH3Ay/iDPqe+CBB4p3I8e8j2vmc5/73JgEnZ5DcZ1F8jriWmWVVQrLSZMm1R3X4D43G+vwxuqNKa69K664oriPxT0k7mM33nhj8b3nn38+nXbaaUOqbuSeMBpAM9fJpz/96SK2uKbjGot73O233168azbuR5Ek3GqrrYpmY3V+vGogrvl4f3asMI0PCsXfF3Fv+Iu/+IsV7rmN3qfbMWeH1zHauNVqr5l7XbvmWKeu5XrmbtwTYvzvu+++ut53PubF6AACBAgQIECAAAECIbBcIUCAAAECBAgQIECgaYHKL+yXV7ZxXl5Z0TViHZXEzvLDDjusOO5d73rXwHGVxGfxvUoiaHnUM/yrsvJ3eSVRt/xDH/pQcVzlF8nLK6sfB86fP39+8f1KArT4XuUX4csrq22L71WSpkPiqSQ5i+9Xkqx19bWS2CuOj6/KdrlDzqn2OeJ++eWXB342Z86c4vj4s1aprPItfh4e1TK4nUrCachpH/nIRwZiuOqqq4b87DOf+Uzxsy996UsD368keQaOv/TSS4ccH9bhFzFXkpkDP6skYIpzKu9wXF5J8g05p5IcLsa1siJ2eSW5WPxscBtXXnll8b0wqGxtOqprJdFXtLPffvvVPK4Z70rSfmBOVeOrVh5zJ/obXw8//PCYY96oXSVhWbR95JFHrlB3JTk8MA4vvfRSzfFpxG7M4Ec5IMZwhx12GIgnxr+SXFt+5plnLg+juGZGKtV+vO1tb6t53Oc///mi3rCrt1THefA1UlmJX9TzH//xH0OqefDBBwfm7Ghx1rqW6r1mG51Dce1GrHEt11tq9bmZ+T5Se6PFNLidSkJ1SBWVbfkH7quD72ON3hNGc2j0Oqm8I76IqbJSeOCeU63/3HPPLX5W+fDAQJPV8at8iGF5Jdk98P3oT+Vd9pCQEJ8AAA/RSURBVAPzfvA9t9H7dDvmbK06Rhq3Wsc2Ok8Dop1zrJZZO1zquZ7i7/IY92hPIUCAAAECBAgQINAOAVtJ+3wAAQIECBAgQIAAgTYIxOqkL3zhC0O+YpXfEUccUWx7/KMf/ahoJVZwDi+VX+KnWbNmrfAV2xN/9rOfLVbSxorGefPmDawUqxVyrBQ7++yzB7aUbnYr4cF1V7clHvy92O45VtdG3LGysR0ltkGtvuu1Wl/1/8eKqeFb9cbKxSjxDs7hJeoavC1w/LySHCy2WY2YB783NlY+R/n7v//79PrXv35IVdH3WG0bKwqHv2s2YqquxI3VpWO9MzjeixwlVvWNVhrxrm5NPXv27BVWoVe3lY55WT2unnGq1y7mY2zpHatwh5dYvV5drV7r/c6N2tUT90jHhGesFv3oRz9axBTjH+/pjhXqcX1Vtz4fvu111Bf9iNW7sfJ5+HvBY07EKvRYAR4ri1spsaK5Vom5EjsAXHjhhcUq0HrLeM+heuOM4xqJtZF6hx8bq9orH7AZ8u24L2+44YYprpHBWzQ3e0+oFV+j10l1e/xYNTx8Z4nKh4uKFc+xCr76Hu/qVuaxZfTg1dtxT6okM1shG/Xcds/ZsQJt5V7XrTkWfeiEy84771zwxA4aCgECBAgQIECAAIF2CNT/r8t2tKYOAgQIECBAgAABAiUViORCJA8Hf8W2vLGtbmXVZPH+x9iWNpKqw0v8Ej+SbPEV74asrCouEk5RIqERCeFILEciY6wSyaR4Z2qUWu95Hev84T9/4xvfWPOU6lamsWVzO0qthOmaa65ZVF1ZLbVCE7GVbZRqgmTwAfGOzVol3tcZ5f777x84N5LuUWKb7NjqevhXdQvh4e/2jORmI6WaQI/tk0cr9XovXbq02Fo0HEZ6z2t1rsVW4PWWeu3233//4kMI1XlQHYtIgMdWw7FVb5TKSuoVmm7Urt7YRzouEmxxLURipbJSufiwRWWFeHGNRYI3tkuPdzLX+pBBbOUbJbaTHlxim/FIMu+7775p9dVXbynE2JI5Snxw4YQTTkjxXu3qe8hj2/F63uM7OIDxnkONYNQbayN11jp2pA9kVO8t1fka95Nm7wm12m30Oql+ACHe5z68xN8TsY10XHfxQYGYI5VV5cUHgeKDL8NLJKU7da21e86ONr6t3uu6NceiD51wiQ9hRan14ZVWrwvnEyBAgAABAgQI9KeAdwz357jrNQECBAgQIECAQJsFIskU7wMdXOKX9yuvvHKxymu05FH8Yj9+2T+4REKtshVouvfee9NFF11UJIjrTUBFYjjeURlJg1NOOSWdccYZTfe2moAdXkE1cd10xcNOXHXVVUesqpHVklHJ5MmTa9ZV9Yt3FEeJJHAk9KNUtgsetSuPPfbYkJ9Xf1lfb///67/+qzi0VpJ7cB31esc7J6PEKtiRfKpJoeGxjxZzvXZRR7yvOd4lHEnzeI9zzNmq52htNGJX2e554IMOg+uMOmLlb6MlVg/GV7x/NWKND29UtpUu3pV80kknDXknctQdq4HjGor3asf7tON6jlJdqTl8JXuj8cTxsdNAzMm41uPdsPEV94S3vvWtaZ999ikSxtV266l/vOdQPTFWj6k31kbqrHXsSO0Mv3ZauSeMFGO910kkeuNDRHFvXWONNcbscnU1ftzXRroHbLTRRsV7v9td2j1nR4uv1Xtdt+ZYJ67lqLN67cfcUAgQIECAAAECBAi0Q0BiuB2K6iBAgAABAgQIEOh7gfjF/EirLZvBiVWOc+fOLVYkRgKs8k7dFZJWI9Vb3VI6VkHGCuZILin/V2D4qt1Iwh1wwAGjEq299totEVbeA1ScP1KSoqXKRzi52mY7667a3XPPPekTn/hEsYot/CIJHR+AiO2XY6VyJF6fffbZlpuOFZy1EiL1JEpvvvnmVHmHZzH/I8bhJb5XeedzihWFsbIztl6P5NzguiPpFtdgJIJjS+q4piLRHqtKI+lWa6Vmo51ed911i2TwXXfdVXygI5LhjzzySHHdx1escq68x7juD4Y02v5ox3diDrUzvk7V1a57Qreuk5EcJkyY0BGiXpuzvTJPO+lSa3eMjgyuSgkQIECAAAECBEovIDFc+iHWQQIECBAgQIAAgVwF4r21p512WpGAiyTX5Zdfnj7ykY/U1Z3qltLnnntusY1udXvpuk7u0EHdWvG0ePHimj2I1YBR3vCGNxR/Vt/JGStH4x2d9SQbm6WpvnP317/+dZGEbLVsvfXWRRWjbS+6YMGC4piRVgHXiqFeu/CKtuO9rccdd9wKdu0a69hGOcyaKSeeeGLxzs9YXVx9J3WtemK78EjYR8zDE8NxfKwKjsRwvFM4EsPVbaWr20w3E1utcyLJXE00P/300+kHP/hB+vKXv1y8xztWZn/sYx9rV1NFPZ2aQ20NssuVtfue0Mh1EvefWC0cW5TXmodBEavz42ex6j22io4S97VIGtZaNRzbMDdaGrl2uzFnc5yn7XSp7sIw2q4ajY6x4wkQIECAAAECBPpbwDuG+3v89Z4AAQIECBAgQKDHBXbbbbdiK9kosd10rfegjtSFSAbH1sWRHDvvvPM63tNY5RylVmIhthmO1ZvdKNX3dA5v6yc/+UnxralTpxZ/RiJmyy23LP47kn61ytVXX52OOOKIIinfSqm2E++0bUeJRHN8cCCsR3qHcHWr5cHvAR6r7XrsImkZK1pjVWW8E3d4Qj2Sy+0a6+p27NHG8K+x+hLXTpTLLrts1EPjvcjhGKuhayVfIskTyfXbb7+92D475kp1tfFYMYz182j76KOPTscee+yQQ2NsP/zhD6eDDz64+P7ChQvHqqrhn3dqDjUcSA+d0M57QjPXSSR8o8S76WuVuBcdeOCB6T//8z+L6yHeXR+Jw5ibw0skjGttt97qfbrbczaXedoplz/+8Y/F0FY/XNRDl4tQCBAgQIAAAQL/p717B41qCQM4PrmNYCeCDwSJdkIKwcIQUghaBFQURJLGwjQWgookYJNGxUJsIkQR34FYpRMkTVCJYBGI4AMkoGAgkM42AcF7/wMj6+Zxz9mdzSbsf2ALzdk5c35nzgnkm+8bBTapgIHhTXrjHLYCCiiggAIKKKBA6wiwn+P27dtjsI19UIu2VFKaIBZBika3ffv2xVMQqEzZuemcN27caPTp//Q/OTkZqgOcjImsT4J/ZH2mlrI+CboTvK5s/Jv9ZwnSUCK0nka5YlrOAB8BIhq21ZnDZBa+ePEi/vzcuXOFh17ELu0RTEBqfn7+r77JXKyco2WyDwsPsuCBBFXJwGQuEFBLe7JWfp2s6pRNT/bzanu1Mk+43ocPH8ag+JEjR2Jgvt7GM/PmzZvAAoSZmZll3bHvMC3tF13v+aq/X3YOpUUALHDYKKVtc48p1zuhlucknfvevXvLnunx8fG4yIeFHpQxp6UKEuwjX/0OuHnzZsw+rm71vqdzzdky963sPM39nBTprxaXIgbT09Px9Ow5blNAAQUUUEABBRRQIIeApaRzKNqHAgoooIACCiiggAINFGB/WzIK2WeYktITExOhp6en0BkrS0oX+kIdB5GhSQD7x48fsVwyYySYxr6pBDTImqUsbqPbrl274h63ZFySUffx48e4TytjIYhaGdDjmNevXweyidmLtre3N+6T+/3795glTLDl6NGjde/TTDBn27Zt4evXr6uWiS3rcuHChfDu3bu43+3Jkyfj2Pfu3RsIJrJnLUHZixcvhgMHDhTuuqhdd3d3PDfljRkH931hYSGed25uLuzZsycGjRcXFwufO/eB+/fvj4H9gYGBGNznQ4C1vb09nurbt29/AvUEXa5cubLqEMjaHx4eDs+ePYvHMG9yNBZtXL58Ody6dSucP38+lq0ma3RpaSm8fPkyZnySrZyqBuQ4Z2UfZecQgSwCnixSYYEFYyOI2cyWe0y53gksQin7nGDKXtYsFuCeEyjmWSIjOC1sYXuB1Dg+/U44ffp0zCZmEQvHshgmlUivvD/1vqdzzdky963sPG3GfKzFpYhB+p2ZYz/zZrh4TgUUUEABBRRQQIGNJ2BgeOPdE0ekgAIKKKCAAgoooMAygRMnTsSsQrIfr1+/Hrq6ugorkRFJcHZ2drbwd2o5kEDI48ePYxCbP2aPjIzEbihnTTlffrYegWECgQRLx8bGwujoaBwD+3EODQ2tuNfsgwcPYnCLoB8ZoakRACOwSrZpjkbgmTG9ffs2HDt2rO4uCUQ8ffo03L17NwaxCVymRkbhpUuXAvOmTCtqR8CVvYUJSlFOmsZ4yKSlbDmLF8jCfv/+/Zr7+5YZWy3HYk4mH3ORBQAE5vmkRiC8r68vBrdXyxbmWMrvElDjevkOAb9cjeB6W1tbYB4yP/gkTwL+165dC1u3bs11ur/6qWUOsXczH94nfChvv3PnzoaMr2inuceU651Qy3Ny//79+Aw9efIkPkOpsbCGLGAWrlQ2nns+jx49Crdv344/YqEG/0f2fnXWfo73dK45u9J9W+me1zJPi86dnMfV4rLW3KVqxZcvX2KWeFrQknO89qWAAgoooIACCijQmgJtv/9rrXnpXrUCCiiggAIKKKCAAgo0SoCyvWRkklHYrD9ok+1LSeUdO3YsC6asdt2UFia7maw7Mm3XChaWtWMPyuPHj8dPZcCnbD8rHU9ZXwII7IFL1nAqNVtr30XtON/nz5+j0+HDh2NweKM2jCjlzf2lsWCh2QHNaisy1cm03rJlSzh06NC6epaZQxxLNnja93kj3PNGjSnHO6GW54Tr+fTpU6xaQCn63bt3r8lMRQQWxFA+/eDBg/GZ7OzsDD9//gwfPnxYcXFBjvd0vXO27H0rM0+bOS/LuKxm8Pz581hNgMVgVISwKaCAAgoooIACCiiQQ8DAcA5F+1BAAQUUUEABBRRQQAEFCgikkqhTU1N171tc4HQeooACLSzwf4HhFqbZFJdOxQPKtlPtIOcipU1x8Q5SAQUUUEABBRRQoGEC/zSsZztWQAEFFFBAAQUUUEABBRT4S2BwcDD8+vUrln62KaCAAgoosJIAWw5QdYMtAQwKO0cUUEABBRRQQAEFcgoYGM6paV8KKKCAAgoooIACCiigwBoClITt7++P+4dSXtamgAIKKKBAtQDbDVBO/syZM+IooIACCiiggAIKKJBVwMBwVk47U0ABBRRQQAEFFFBAAQXWFrh69Wro6OgI7B9pU0ABBRolcOrUqXD27Nl13au6UdfSSv2+evUqlpC+c+dOK12216qAAgoooIACCiiwTgLuMbxO0J5GAQUUUEABBRRQQAEFFFBAAQUUUEABBRRQQAEFFFBAAQUUaJaAGcPNkve8CiiggAIKKKCAAgoooIACCiiggAIKKKCAAgoooIACCiigwDoJ/AuOdSZzYUkVoQAAAABJRU5ErkJggg==;strokeWidth=2;imageBorder=default;" parent="1" vertex="1">
          <mxGeometry x="660" y="150" width="192.6" height="104" as="geometry" />
        </mxCell>
        <mxCell id="f6CLLwjRCBaYlmEwOCbh-14" value="" style="shape=image;verticalLabelPosition=bottom;labelBackgroundColor=default;verticalAlign=top;aspect=fixed;imageAspect=0;image=data:image/jpeg,/9j/4AAQSkZJRgABAQEBLAEsAAD/4QBWRXhpZgAATU0AKgAAAAgABAEaAAUAAAABAAAAPgEbAAUAAAABAAAARgEoAAMAAAABAAIAAAITAAMAAAABAAEAAAAAAAAAAAEsAAAAAQAAASwAAAAB/+0ALFBob3Rvc2hvcCAzLjAAOEJJTQQEAAAAAAAPHAFaAAMbJUccAQAAAgAEAP/hDIFodHRwOi8vbnMuYWRvYmUuY29tL3hhcC8xLjAvADw/eHBhY2tldCBiZWdpbj0n77u/JyBpZD0nVzVNME1wQ2VoaUh6cmVTek5UY3prYzlkJz8+Cjx4OnhtcG1ldGEgeG1sbnM6eD0nYWRvYmU6bnM6bWV0YS8nIHg6eG1wdGs9J0ltYWdlOjpFeGlmVG9vbCAxMC4xMCc+CjxyZGY6UkRGIHhtbG5zOnJkZj0naHR0cDovL3d3dy53My5vcmcvMTk5OS8wMi8yMi1yZGYtc3ludGF4LW5zIyc+CgogPHJkZjpEZXNjcmlwdGlvbiByZGY6YWJvdXQ9JycKICB4bWxuczp0aWZmPSdodHRwOi8vbnMuYWRvYmUuY29tL3RpZmYvMS4wLyc+CiAgPHRpZmY6UmVzb2x1dGlvblVuaXQ+MjwvdGlmZjpSZXNvbHV0aW9uVW5pdD4KICA8dGlmZjpYUmVzb2x1dGlvbj4zMDAvMTwvdGlmZjpYUmVzb2x1dGlvbj4KICA8dGlmZjpZUmVzb2x1dGlvbj4zMDAvMTwvdGlmZjpZUmVzb2x1dGlvbj4KIDwvcmRmOkRlc2NyaXB0aW9uPgoKIDxyZGY6RGVzY3JpcHRpb24gcmRmOmFib3V0PScnCiAgeG1sbnM6eG1wTU09J2h0dHA6Ly9ucy5hZG9iZS5jb20veGFwLzEuMC9tbS8nPgogIDx4bXBNTTpEb2N1bWVudElEPmFkb2JlOmRvY2lkOnN0b2NrOjhiOWM3MTliLTI3NjQtNGY1Mi05Njg1LThlMDQ4N2YxZDk5NzwveG1wTU06RG9jdW1lbnRJRD4KICA8eG1wTU06SW5zdGFuY2VJRD54bXAuaWlkOmZiNjYyODhmLWRhMDYtNDdjZS04MDViLTMzZGY1MTA0ZTM2ZDwveG1wTU06SW5zdGFuY2VJRD4KIDwvcmRmOkRlc2NyaXB0aW9uPgo8L3JkZjpSREY+CjwveDp4bXBtZXRhPgogICAgICAgICAgICAgICAgICAgICAgICAgICAgICAgICAgICAgICAgICAgICAgICAgICAgICAgICAgICAgICAgICAgICAgICAgICAgICAgICAgICAgICAgICAgICAgICAgICAgCiAgICAgICAgICAgICAgICAgICAgICAgICAgICAgICAgICAgICAgICAgICAgICAgICAgICAgICAgICAgICAgICAgICAgICAgICAgICAgICAgICAgICAgICAgICAgICAgICAgICAKICAgICAgICAgICAgICAgICAgICAgICAgICAgICAgICAgICAgICAgICAgICAgICAgICAgICAgICAgICAgICAgICAgICAgICAgICAgICAgICAgICAgICAgICAgICAgICAgICAgIAogICAgICAgICAgICAgICAgICAgICAgICAgICAgICAgICAgICAgICAgICAgICAgICAgICAgICAgICAgICAgICAgICAgICAgICAgICAgICAgICAgICAgICAgICAgICAgICAgICAgCiAgICAgICAgICAgICAgICAgICAgICAgICAgICAgICAgICAgICAgICAgICAgICAgICAgICAgICAgICAgICAgICAgICAgICAgICAgICAgICAgICAgICAgICAgICAgICAgICAgICAKICAgICAgICAgICAgICAgICAgICAgICAgICAgICAgICAgICAgICAgICAgICAgICAgICAgICAgICAgICAgICAgICAgICAgICAgICAgICAgICAgICAgICAgICAgICAgICAgICAgIAogICAgICAgICAgICAgICAgICAgICAgICAgICAgICAgICAgICAgICAgICAgICAgICAgICAgICAgICAgICAgICAgICAgICAgICAgICAgICAgICAgICAgICAgICAgICAgICAgICAgCiAgICAgICAgICAgICAgICAgICAgICAgICAgICAgICAgICAgICAgICAgICAgICAgICAgICAgICAgICAgICAgICAgICAgICAgICAgICAgICAgICAgICAgICAgICAgICAgICAgICAKICAgICAgICAgICAgICAgICAgICAgICAgICAgICAgICAgICAgICAgICAgICAgICAgICAgICAgICAgICAgICAgICAgICAgICAgICAgICAgICAgICAgICAgICAgICAgICAgICAgIAogICAgICAgICAgICAgICAgICAgICAgICAgICAgICAgICAgICAgICAgICAgICAgICAgICAgICAgICAgICAgICAgICAgICAgICAgICAgICAgICAgICAgICAgICAgICAgICAgICAgCiAgICAgICAgICAgICAgICAgICAgICAgICAgICAgICAgICAgICAgICAgICAgICAgICAgICAgICAgICAgICAgICAgICAgICAgICAgICAgICAgICAgICAgICAgICAgICAgICAgICAKICAgICAgICAgICAgICAgICAgICAgICAgICAgICAgICAgICAgICAgICAgICAgICAgICAgICAgICAgICAgICAgICAgICAgICAgICAgICAgICAgICAgICAgICAgICAgICAgICAgIAogICAgICAgICAgICAgICAgICAgICAgICAgICAgICAgICAgICAgICAgICAgICAgICAgICAgICAgICAgICAgICAgICAgICAgICAgICAgICAgICAgICAgICAgICAgICAgICAgICAgCiAgICAgICAgICAgICAgICAgICAgICAgICAgICAgICAgICAgICAgICAgICAgICAgICAgICAgICAgICAgICAgICAgICAgICAgICAgICAgICAgICAgICAgICAgICAgICAgICAgICAKICAgICAgICAgICAgICAgICAgICAgICAgICAgICAgICAgICAgICAgICAgICAgICAgICAgICAgICAgICAgICAgICAgICAgICAgICAgICAgICAgICAgICAgICAgICAgICAgICAgIAogICAgICAgICAgICAgICAgICAgICAgICAgICAgICAgICAgICAgICAgICAgICAgICAgICAgICAgICAgICAgICAgICAgICAgICAgICAgICAgICAgICAgICAgICAgICAgICAgICAgCiAgICAgICAgICAgICAgICAgICAgICAgICAgICAgICAgICAgICAgICAgICAgICAgICAgICAgICAgICAgICAgICAgICAgICAgICAgICAgICAgICAgICAgICAgICAgICAgICAgICAKICAgICAgICAgICAgICAgICAgICAgICAgICAgICAgICAgICAgICAgICAgICAgICAgICAgICAgICAgICAgICAgICAgICAgICAgICAgICAgICAgICAgICAgICAgICAgICAgICAgIAogICAgICAgICAgICAgICAgICAgICAgICAgICAgICAgICAgICAgICAgICAgICAgICAgICAgICAgICAgICAgICAgICAgICAgICAgICAgICAgICAgICAgICAgICAgICAgICAgICAgCiAgICAgICAgICAgICAgICAgICAgICAgICAgICAgICAgICAgICAgICAgICAgICAgICAgICAgICAgICAgICAgICAgICAgICAgICAgICAgICAgICAgICAgICAgICAgICAgICAgICAKICAgICAgICAgICAgICAgICAgICAgICAgICAgICAgICAgICAgICAgICAgICAgICAgICAgICAgICAgICAgICAgICAgICAgICAgICAgICAgICAgICAgICAgICAgICAgICAgICAgIAogICAgICAgICAgICAgICAgICAgICAgICAgICAgICAgICAgICAgICAgICAgICAgICAgICAgICAgICAgICAgICAgICAgICAgICAgICAgICAgICAgICAgICAgICAgICAgICAgICAgCiAgICAgICAgICAgICAgICAgICAgICAgICAgICAgICAgICAgICAgICAgICAgICAgICAgICAgICAgICAgICAgICAgICAgICAgICAgICAgICAgICAgICAgICAgICAgICAgICAgICAKICAgICAgICAgICAgICAgICAgICAgICAgICAgICAgICAgICAgICAgICAgICAgICAgICAgICAgICAgICAgICAgICAgICAgICAgICAgICAgICAgICAgICAgICAgICAgICAgICAgIAo8P3hwYWNrZXQgZW5kPSd3Jz8+/9sAQwAFAwQEBAMFBAQEBQUFBgcMCAcHBwcPCwsJDBEPEhIRDxERExYcFxMUGhURERghGBodHR8fHxMXIiQiHiQcHh8e/9sAQwEFBQUHBgcOCAgOHhQRFB4eHh4eHh4eHh4eHh4eHh4eHh4eHh4eHh4eHh4eHh4eHh4eHh4eHh4eHh4eHh4eHh4e/8AAEQgBaAHgAwERAAIRAQMRAf/EAB0AAQABBQEBAQAAAAAAAAAAAAAEAgMFBgcBCAn/xABHEAABAwIEAwQHBQYFAwQCAwABAAIDBBEFEiExBkFhEyJRcQcUMoGRofAjQrHB0RUzUmJy8QhDgqLhJFOyFiXC0jRzg5Ly/8QAGgEBAAMBAQEAAAAAAAAAAAAAAAECAwQFBv/EADQRAAIBAgMFCAIDAQACAwEAAAABAgPwESExBBJBUYFhcZGhscHR4QUiEzLxIxRCM0NScv/aAAwDAQACEQMRAD8A+y0AQBAEAQBAEAQBAEAQBAEAQBAEAQBAEAQBAEAQBAEAQBAEAQBAEAQBAEAQBAEAQBAEAQBAEAQBAEAQBAEAQBAEAQBAEAQBAEAQBAEAQBAEAQBAEAQBAEAQBAEAQBAEAQBAEAQBAEAQBAEAQBAEAQBAEAQBAEAQBAEAQBAEAQBAEAQBAEAQBAEAQBAEAQBAEAQBAEAQBAEAQBAEAQBAEAQBAEAQBAEAQBAEAQBAEAQBAEAQBAEAQBAEAQBAEAQBAEAQBAEAQBAEAQBAEAQBAEAQBAEAQBAEAQBAEAQBAEAQBAEAQBAEAQBAEAQEeOtpX1slE2eM1EYBfHfvAHY2V3TmoKeGT4lFUi5buOZIVC4QBAEAQBAEAQBAEAQBAEAQBAEAQBAEAQBAEAQBAEAQBAEAQBAEAQBAEAQBAEAQBAEAQBAEAQBAEAQBAEAQBAEAQBAEAQBAEBaq5mU9NJUSkNZG0ucegUpOTwRDaSxZxmsr6ioxWXERI6Kd8hka4GxZfax5WC+zpUI06SpapLDv5+fU+XqVZTqOpo7w8uht3DfG5blp8ZGmzaho16Zh5cwvJ2v8T/7UPD4fsz0dn/I/+tXx+fk3mCaKeFs0MjJI3i7XNNwQvDlFxeElgz14yUlii4qkhAEAQBAEAQBAEAQBAEAQBAEAQBAEAQBAEAQBAEAQBAEAQBAEAQBAEAQBAEAQBAEAQBAEAQBAEAQBAEAQBAEAQBAEAQBAan6SsR9XwhtCx1n1TrO6MGp/Jen+Ko79bfekfXgef+Rq7lLdWr9OJzbceepty+gvp7vqeDd9B5iw3Nvidkv4F/NozGGYzX4JJHHSSCwGaaJwu1znam4G1hbULhqbLT2pOU12J9iy83zOuG0T2fBR731z8lyOg8O8TUGMARh3YVVtYXnX/Sea8Hatgq7Pm848/nkexs+2QrZaPkZxcJ1hAEAQBAEAQBAEAQBAEAQBAEAQBAEAQBAEAQBAEAQBAEAQBAEAQBAEAQBAEAQBAEAQBAEAQBAEAQBAEAQBAEAQBAEAKA5LxriH7Sx+d7Tmhi+yj8LN3PvK+r/G0XRoLm8/HQ+d26r/ACVXyWXyYU9dfd8fyGi712XyOPvvn8cy7Ssa6cGUXjZd7+oGp+JsFnVk4w/XV5LrkvLMvTinLPTV9M355Ft7nSPdI83LiS7qdz+QV4xUEox4f4vkrJuTxfG3ep4CW2NyCDcWOt+nv8FOF32cyLv6Ny4e4xqKSnjZipfURucQ2UC7wBuT/EL6eK8Tavxkak3/AA5NcOGei7Mj1aG3ypxX8uf1r3m90VXTVtO2opZmTRO2c03Xh1Kcqct2awZ60KkZrei8UX1QuEAQBAEAQBAEAQBAEAQBAEAQBAEAQBAEAQBAEAQBAEAQBAEAQBAEAQBAEAQBAEAQBAEAQBAEAQBAEAQBAEAQBAYvinERheCT1O77ZIxe13HQLo2Wh/PVjT5mG0Vf4aTmcpNO2W76UukO5id7enMW9oX5jXovrP5HHKeXbw+sueR85u72cc+zj959SNsbbn8forbW74dDO769S8PsqM83TO+LWn3bu/BY5zq//wA+r+F0zNP6w7/RfL6lnpqT+P0Vrd9Ohnd9eoaC5wazvOJAHU7D5o8MM7tdCVi9Lt9S7V27cRsILYgGNtztz97rlZUU93eerz8fhdC9TBSwXDLw+X1L2FYlW4ZUdtQzljju3dr/ADHPn1SvQp144VF9X4E0qs6Txg/u/E6Lw1xXSYo0RVAFLU3AsXdx5O2U+Omx1Xze1/jp0HjHNefX5Pc2bbYVlg8mbGF552hAEAQBAEAQBAEAQBAEAQBAEAQBAEAQBAEAQBAEAQBAEAQBAEAQBAEAQBAEAQBAEAQBAEAQBAEAQBAEAQBAEBz30m4h2tfDh0btIR2jx/OdvgPxXv8A4ehhGVV8cunE8b8nVxkqa4Z/Bp4uCA3Q7i2/Q/iva7zyu671JLJG1TxHO0mV5AZK0XcTsMw+9579VjKP8S3lotVw5vDl6Gqe+8Hrz9Mefqe4hE5koLLPgADI3tN2uA0HvJubEXUUJYx/bKTzfX4WWKJrLB5aaLp8vgyJ5WPIfl+ZW/fd9hjd/ZepO6Xz79k3u/1HRv5n3LKt+2EOfpq/g0p5Yy5eui+SyBpoTbYH5D8zqte+70yM7v1zFrjodPr3Jd9Rd9C9P3YIoebvtH38TsPc0fNZQznKXLJdNfF+hrPKKj18dPBGf4d4urMOywVearpRoLu77B0J30toVxbV+Mp1v2hlLyd80dWz7fOnlLNed9jOhYViVFidOJ6OdsjeY2LT4Ecivna1CpRluzWB7VKtCqsYsmLI1CAIAgCAIAgCAIAgCAIAgCAIAgCAIAgCAIAgCAIAgCAIAgCAIAgCAIAgCAIAgCAIAgCAIAgCAIAgCAIC1VzR01NLUSmzI2lzj0ClRcmktSG0lizjVdUyVtdNVSHvzPLyPC+3wC+zpUlRpqC4W/F9D5WpUdWbnzteC6ke19tj8voLXS749Cmul34l+l7rZJxqWizP6naD4C5WNXNqHPXuWb8XlyNKeWM1073kvBdSiCZ8NzE4WcLFpF2uGwBGx576q84qX9r+OmRSMnH+t32l3JDU/uXCGQ7Rud3T/S47eTviq4yp/wBs159V7ovhGf8AXJ3o/ZnlQ10MLIHNLHk53gjVpOjQb9LnXxUU2pzc9VovVvxyJmnGKjo9fZeWZHNrjl18PoLa769TK76dCuCMSztY7utPtHwbufkFSpPcg2rfDz6l4R3pYO1/nQ8mkMsz5HaFxvbw6fCwUwjuRUVwv1InLek5PjfoUm+pN78/r4K135vIqS6GrqcNaKmlmdFO92jm7lrd9OYLjsfBc9SnGvLdksUvV/C5G8JypR3ovN+i+Wbzw5xnTVWWnxPLTz7CQfu3n/4nz0XibV+LnT/almuXH76Hq7P+QjP9amT8vo21pDgCDcHYryT0j1AEAQBAEAQBAEAQBAEAQBAEAQBAEAQBAEAQBAEAQBAEAQBAEAQBAEAQBAEAQBAEAQBAEAQBAEAQBAap6ScQ7DC2UDHd+pd3rcmN1P5L0/xVHfrb70j68Dz/AMjV3aW4tZenE5zuPPfS4+rL6XS749DwNbvRdQbHU7fX4BFlpdvoTrrdrqXqgFkMUJ0Ns7/6ncvc23xWNPOTl0Xcvl8jWeUVHq+9/C5lk677H659Ftd9TLW74cyuCPtpmsccoce8fAbn4AKlSe5FyXC14stCO/JK7w5l91WJnn1hmeO/d1s6MHYNd0HI3CpGjuLCLz9e9d/FZl5Vd9/tp6d3Tg8i3LT9wywu7WIauIFnMH8zdxy11HVWjUzwlk/XufH1KuGWK09O/ll0PI+5TSPOhkPZi3hu4/gFEv2qKK4Z+y92TH9YN88vd/HItbDUeYt7z+QW1368zO79OQAcSGtFzew8+XzUYrV3a6krG759C5VFva5GatiAY0+X6m5WdFPd3nq8/H4XUvUeEsFosvD76FnTxsNhr9crrW7vEzu7wNg4c4jrsJhIcTPShwaIXu9nmcpO1hbTbVedtew09omkspZvHy64vqd2zbVOjFt5rlfZ0OhYJjNDi8Oell74Hfido9nmPz2Xz+0bLU2d4TWXPgz2aO0QrLGL6cTIrnNwgCAIAgCAIAgCAIAgCAIAgCAIAgCAIAgCAIAgCAIAgCAIAgCAIAgCAIAgCAIAgCAIAgCAIAgB2QHLOK8XdW45U+zNSsPZtjcLtIbuRzBJ5hfT7Bs38dGL0k88e/T5wZ89tm0OdVrVLLDu1/1GLMEc3epnOc7nE49/xNjs/wB2vRde+4ZS8eHXl6HNuKX9fDj29/qWqaMPnAl0aLukPQau/TVWqT3YYx14dcl85EU470sJdemb+MymR7pJXSv0LiSffqR8NFaEVCKiuF+uZWUnJtvjfpzKep08fz/RW7rvUjvu9ORdi+zppJDo5/2Y6c3fkPesZ/tNRXDP2XnmaL9YN88vd/Ba2vcWPPl5/kFtd3iZ9931R7G98UgfG4te3m02PX47KGlJYPjf3zJTcc7vhyJlUYJXCB+WGSIWLgO4XbuuB7OulxppsuajvJb8c0/HDRd+WeDN6ri3uvJrwx1fdnliiLPDJC8NkbY2u3W4d1B2IvzBXRGcZrK7XMxlFxed2+R7S9xzph/lNu3+o6N+dz7lSt+yUOfpq/LItS/V73L10XnmWhtoT0P17ytu+7yRnhyu8/g8NvIfl/ZLvqLvoXakZBHCfuNu4dTqfyCypfs3NcdO5ZL3ZpUySjy9837LkUwTTU8zZoJXRys9lzDYg/39yvKMZrdksU79OpWMpReK1v36G9cN8ZtfH2WL2Zls0VDRYG+2Yctr3Gi8Ha/xe7LGjx4d3K8T2Nm2/Ff9eHG/8NzikZLG2SN7XscLtc03BHReO008GemmmsUVKCQgCAIAgCAIAgCAIAgCAIAgCAIAgCAIAgCAIAgCAIAgCAIAgCAIAgCAIAgCAIAgCAIAgCAxXFeIfs3A6icG0hbkj/qOg/VdGyUf560YXgYbTW/hpOZyXbXe3Xf+58F9fd9OZ8vd9eQ8OfPz+j4KbvoLvqTmztNITVhz3SnIJW2z5W6m+2YXtvrpuuRwf8n6ZYZ4cMXp3Zcsuw6VNfx/vxyx44LXvz55kaandHH2jS2SIm3aM28bHmDtoVvGopPd0d+PPFGMouKx1V+HLBlo6X6b/XmtNet+nUrpd8ehdqu45sA2hbldbx3d89PcsaP7Yz//AF6aL55mlX9Wocv9fxyLJ0931+K2u+hnd9eRepABL2rhdsTS/wA7bD3uI2WVbFx3Vq8vH4XM0pZS3nos/D5fItEm5cTc73Pj/fwWiS0V2uZni+N2+RchndGzsyGyRHXI7bzHMHc3CrKClno+d+jLRk1lqrvFEiSBr6ZjaQuLnntDEfbts238Qtc6a67LCM3vt1OGWPDm+7guXabOOMEocc8OPJd/F8yCdunl9cl1XfXoc9306lyna10zS8dxt3u8hqR+AWdWTjB7uui65L3fIvTSlLPTX3fxzKHOL3ue7VxJJ13O/wCPgrxiordV34FXJyeL43fEp9+vI3+f4q135BXfiXZe7DFGNCftHdL7f7R81lD9pyk+GXhr5+mppLKKXXx08v8ACbgnEGIYNJ/0788O7oH+wfLwOwuFntGxUtoX7a8+P2aUNpqUf66cr9jo/DvEeH41HaFxiqAO9C/ceR2I8l83tWxVNmf7Zrme5Q2qFZZa8jMrjOkIAgCAIAgCAIAgCAIAgCAIAgCAgYnjFBhzT6xO3tALiJurz7uXvUN4A1+o4yJ0pqG3WR/5BRvAjN4uxFzjaGmFjtkd+qjeBMpuLJr/AG9Gxw8WOI/FN4GZoMcoKshvaGJ5+7Jp89lbeQMmpAQBAEAQBAEAQBAEAQBAEAQBAEAQBAEAQHPvSViBlxCKgjPdpxnf/WdvgPxXvfiKOEXUfHLpxPF/KVcZKmuGfwaltYDzGnuH0F7Out32nld18rQa0ucGsF3EgNHidh5o2lm74u9CUsclfLv9S7Vlvbdmw3ZGMjettz73arKjju7z1efj8I0qtb2C0WXh8sohlkheXxPINrGxvmHgRsdeRCvKKksJK/8AOKKRk4vFO/8AeZLpRTSydrlbC+EZiP8ALcRt1Zc26eSwrOcY7qz3su3PXvwXU3pbrlvPLDPs+sX0Is0ckUhbM0h41159R5nmNFvCUZL9dL9uDMJKUXhLW/fii3taw13H15+Ctrd8OZF315eBdP2dI0D2pXZv9LdG/O59yy/vUePD1eb8Eaf1gu30Wnn1LVtbDfpz+tVr3mfdd+JVCztZWxtNs5tfw6+4XUTnuRcnwvzfQtCO+1Fcb9Op7M/tJnPaMrSe6ByGw+ACrTi4QUXrx9X59CZyU5NrS8PLqXO3ZOB60DmP+a0d7/UPvcvAqP43D+nhw+vQnfUv7+N6+p7LC6CkdJcPbK7KHt1BA1Phre2h10VFNVKijphn45LyxzWRZxcIN645eGb8+DzI2u2pP4/RXRd9DG768z2GPtZWxg91x1PgOZ+AKrOe5Fy5X69C0I77Ued+nUTvEsj5DoCbjoPD4WSnBwio3ePQmct+TfO/TqRpCb6b3+f9/wAFqsOl+3TMhXdsPkMMEIje5sjndqHNNiOTSCNdgTp4rNLfnJy0WXu/Ze5t/WKS7/Ze7Nv4Z4+kgy02NAzRbCoaLvaP5gN+Wo16Ly9r/DqWMqOT5cOnLufid+z7e1lU05nQ6Oqp6ynZUUs0c0Lxdr2OuCvnpwlTk4yWDPVjJSWMXkXlUsEAQBAEAQBAEAQBAEAQBAaRxHxOasz4fhheyNrnRTVGxJ2IZ/8Ab4KrYNYa0RttYNHn+u5VAVNJPsscfkgLrBIP8r/cgLrXAe217epFx8kBIjGbK5rrtvy1BQGYwvFKqjs0OMkX8Djt5HkpTwBtNBWwVkWeF2o9pp3arp4gkqQEAQBAEAQBAEAQBAEAQBAEAQBAEBTIS2Nzg0uIBIaNz0QHHMTfUS4lUS1THMne8ue14sWk7eVgvsaEYQpRjF4r15+LPla0pSqNyWDv25Eby57fl8lt3mS7C9Sd3POP8tvcH850aPdqfcsa2eEHx17lm/jka0ssZrh66L55lkDTS5HL8vorZ9t2uRl3Xb5jlv5fl+qd93oO671zLz/s6RrQNZDnN+TRo0fG5+CxX7VHjwy6vN+CwXM1f601hxz6LTzz5CGocxgicGyxD7jrjL1ad289jborSgpPeWTvx6lYzaWGqvw71kVilE7gKNxeXH927R7eQNvvAb3HwVXV/jWNTx4fXc8iyp77wp+HHl171mWqhwfOez9gWay3gNB+ZVqUXGH7a6vrm/jkRUalL9dNF0yXzzLWluh6fXJaZq749DPW74dS9D3YpZToSMjfN2/waPmsp5yjDr4fLNYZRcunj8Ism1tefL66LbO75met3wGt9rn8T/dRkM7vnzJD5XwTdlE64Y0RuBFw+29xz7x5rGEVUjvS4593Luy5G05OEt1cMu/n58zwshn/AHVoZNsjj3T/AEuO3PR3xVt6UP7Zrz6rj3rwK4Rlpk/L67mUBjoWTOkaWP8A3dnCxF9Tv0HzUSanKKWa18NPP0JScVJvLh4/RHebAnn5/XRbq78TO7vqRiHSytiae89waPw/UqzkoR3nos/f4WXgaRi5PBFqsmbJUPc32Nmj+UCw+Q6bqKMXCKT1166vzfdloXm1J4rS/YjF5JB1uTf3/wByOui0ywu+fZ3EYXf+mVwbG6/A+ykoJ8rpnF743DM17R3QCPc43Gq4q+z09pk1UWmXc9X7LkdFOrKilu8c/b5fM6bwpxphuNhkEhFJWn/Ke7uvP8jufluvn9r/ABtXZ8ZLOPP5Vo9ShtcKuTyZtC846wgCAIAgCAIAgCAIAgNU47xqemEWD0N21FW12eYH9zGPaIHjqAPMKG8Aak2JkMTIYWBrWizWjkFmD1setzqfFAXWsQF1jUBdbYboCxVVFJTMdM97oyBclguT7uaAYFi1LitBFWQZ2xyEgZ25SCPukfdd0KAy9PUSUsgmjfkLdSeVuqkG2YXXx10NxZsjfab4dfJXTxBMUgIAgCAIAgCAIAgCAIAgCAIAgCAIDHYzg1BisWWqhu8DuyN0e3yP5Fb0NpqUHjB/BhW2enWWE0aDj/C1fhuaWMetUo1L2N1aP5m+XML39l/I06uUspXo/k8XaNgqUs1mr4d3Iw83dgiiHtO+0dz1do0e4fiuuGc3LgsvDXxZzTxUVHnn46eCLOh2tbx/Ba6a3fYZd132nsbDLK1jNHPOUE8r/wDGqiclCLb4X69S0YuTSV2uhXUPD5yWaNFgzo0aN/VUpRcYYS149+r+OZapJSlitOHovnkW+elweXT6Gq077vTMp3XeuRepu42SZuhaLM6OdttzAuVlVzag+vcs34vI0p5JyXTvengs8irtY5xapacx/wA1o73+ofe056Hqp3JQ/p4cOnLzQ3lP+3jevky3PA6Noku10RNhI03b5dDbkdVaE03u8eV9vFFZRwWPDnfZwYqBkbHCdC0Xf/U7U/KwVaX7NzXTuWXrmWqZJRfXvf1zLRvre+m4+vdutbv1yM+8uUvdkMp1EQze/YD4lZVs47q/9svnyNKeT3nwz+PMtHY69Lla3fQzu+vQ8Nvdb5f2U3fXqLvp0Jck2WOKmqG9o1rbnWzmk6nKeWlhY3C5oQ3pSqRyx88Ms+uL4M3nLdShLh5Y5+nQiVsRETpYH9rG32iBYs/qHLXntot4Tz3ZZY+fc+OXUrucVn7W+hj435GSzXIyMysPV2g+AzHwV6ubUHxeL6ZvzwXM0prBOV55emL5EB79Nh1FuX9reIWud8/9x5PIhK7/AMKW5pZBG3V73BgNuZNhf3k/BVlNRTk9L9vXQsotvAqrZmPqHlhtE3uNufugWG/QE+9Z0k4xWOuvV5vzwXsWng32FkPJP81/E7/jufktMVd9/YVwN64X49rMLipqbFO0rqd4vnveWNt7NsfvaAmx11XjbT+MjXlKVP8AVrwb492qWWR30trdNJSzR0/CcTocVo21dBUsnidzadQfAjcHoV4NajOjLdmsGelTqRqLGLxJiyLhAEAQBAEAQBAW6qZlPTyTvvkjaXOt4AXQHLaStlxmqqcela5jaqQtgY7UthaSGjzJuTbos2wSMh3I1O6gAMQFbWIC41iA9MaAtvpWv9oXQEeshbhkgxJrL0r2hlcwC4DRo2W3i3Y/y/0qQZIXiIa45oz7Lr3t0J/AqASqWeSmnbNEbOb8+hUoG30FVHV0zZo+ehHgfBXTxBfUgIAgCAIAgCAIAgCAIAgCAIAgCAIAdUBr3EHCtFiRfPD/ANNUnUuaLtcf5m/mF37L+QqUMIvOPL4Zw7TsMK2Mlk71NCxjCq7C5slZC5oJs2Qasd5Hy5Fe/s+0066/R9OPh38UeLW2epRf7rr993BkaDuRyzbG2RvLV2/wbdXqftJQ69F8srD9YuXTq/hdC1a22nu+uS1u+pl3Xa5HhtqOXh9dE7bvEa3fDkXp+7DHDzIzv83fo23xWUM5Sn0Xcvlms8oqPXq/hdSybdLfX5LVLC749DLW74dzL9C97J75iGkEyjcOaNSCDv4arKuluZa8O95Lu55GtF/v692r+MypwiqpC8FsMzjcsc7uOO5seXIWNx1URUqawWa8/DjzxWZLam8dH5fXXIjysfE8skble3cEWt9FbRkpLFaO/TqZtOLwet+/Qrd9nStHOQ5v9I0HzuVmv2qPHh6vN+WCLv8AWCXP0WS8yzpoBp7/AK6rXEzu7wK4Gh8zQ72R3nf0jU/LRUqycYtrXh36LzL04qUljp7avyKJHlznyO3JJI+f6K0IqKUVd5shycnvO7yMfPUSRStdFI5kjfZcDYjlf8ei23YtYNZX9a5l4Yp4q7z7Dyqmp5qeKKXLSzPHbOe1tmHNoMwGrTlF7tuNdQuaO9GcpLNLLtyzeDeueWDzy1Op4OKTyet9OKMVVsmp3gSsykjMyxuHDe7SNCL21HvC1U1JZX3+evRlN1rUUTzGJahp1iZZh/md3Wn/AMnLOq97CL469yzfss/EvBYYvl/nyRjILC17W8tP7AeI1Wjbu+fUrgVQh0srIWGznENHQk2+FyT4aclEpqKcnwu+OYUW3gXqqZklTI9v7sd1mn3ALD/aPmlJOMUnr76vzfloTNpt8iXg2K1+FVYqaCpfBNezi3Z3Rw5i99D4bqKtKnWjuzWKvT655oiE5QeMXgzu3COIVOK8O0eI1cLIZZ2ZsrL2tc2Ou1xrZfI7VSjRrShF4pHuUZucFKS1Mquc1CAIAgCAIBcIDnXpo40PD0WHYJR0slTXYq52XKbNiY2wzOPVzmi3PVVk8CUsS1R0raalgpWathjazzsLKhBdcxAeBiAuNagLjWICsR9EBUWdEBXlBYWkAgixBFwQgMRQj1CqGDTNc6B7XOo3nUZBvET4t5eLfJATmEtd2TiSRq0nmP1CAyWCVpo6sBx+yfo/p4FSngDbVoAgCAIAgCAIAgCAIAgCAIAgCAIAgCAIC3PDFPE6KaNskbhZzXC4KmMnF4p5kSipLBmocQcHXiz4S4NDSXdg925O+V3kLWK9bZfyeEv+2emfd2Hl7R+Pxj/yy1y7zSqmnmp5nQzxPiez2mOFiPd+a9yE4zW9F4q/fgzx5wcXuyWDv24o8gjEszWv9j2nnoNSfySpJwi2teHoiacd+ST04+rvU8le6WV0jt3EuP4/hZTCKhFRXC/XoRKW+3J8b9O5lJPM3P4/Wyt3XepHfd6Zl1vcpnOPtSOy+4an4mwWT/aokuGfV5LyxZov1g2+OXhm/Ms7C3x+vPxWut3w5Gd316F+CVxywPZ2zL5WAmxbf+E/d5nw6LOcUsZ6c/vn6mkG8o63w5ehXUwtkkc+kcZGMFg21ntA0Fxz5m4v7lnSm4R/6ZN+Gef1gy9SO8/0zS8csvvFETl0P1yXTd9TC76Fbe7TvcRq85R5DVx/ALKWdRJcM/Ze7NFlBt8cvd+yI1Q7KzqdR5/38PBbxSd3w5lFrd6mId/1FSyFrrdo4Nv4Dmfc0Eq1Sf8AHFyfC/XBcjopw3mkQa2qE08kw0Y4ktF9m8tvBoA011WUF/HFR4r1/wBZq3vPG7wKIa2WFvYlrZonHM6F4u0u8RbUG59ppvpss5pPPS/jg8sy0W1ld9xKngZLRwx0DnOfJed0DzeTL7LctrB4ADjpZ2uyxVRqbc+GWPDm+7guRo4pxSj3+3X1MSZDfNbnppz3/wDqNLHot8bvr2GeF3/pKoHGNstQ06xsysI/jd3QfcM592ypUeOEXx17ln8ItFYYu71LIeNLbb2Hx/T9Ftjwd3/jM8CbhdNJiGIU9BDYyVEjYm2H8Rtfy9o+CVKqpwc3wzvy7RGDlJRR9JUkEdNSxU0QtHEwMYPAAWC+KlJybb1Z76SSwRdUEhAEB4XAC5KAw8fFPD87Q6jxakrG5spdTSCVrSDYgltwLeaPLULMiekHjPBuCsCOJ4rKXOeclNTx2MlQ+18rQempJ0A1KrKSisWWjFyeCPnji7j7irimhkxOo4mosEwVhJnZBM+OClZyD5QAZpD/AANPuGyz/aWuRpjCGSWLNd9GGL4Fj3F9DDg1Hi+JwOqRmxWrj7OIFhvZjN9dgXG+6KCRSVRyyZ32orK9mIuhhw9k8XZtcXduGOuSbixFvnzUlCv18t/f4fXQ+J7LtB8WEoCpmJYc429dgafB7sh+DrFAT425hmb3h4jUIC/GxAXAxAeOagPLICJilIKyl7POYpWuD4ZQNY3jZw/McwSOaAjUdS6tpnGRghq6d+SZnJjwOX8pBuDzBQEgOL2Nc3S+9x8QgNr4cq/WKLsnm8kXd8xyP5K8WDKKwCAIAgCAIAgCAIAgCAIAgCAIAgCAIAgCAg4thVDikHZVcDX29l40c3yPJbUdoqUJb0HgZVaFOssJrE0jG+FqzDYppabNVwusLtb32N3Nxz5ahe1Q/IQrSip/q14Y6LuPIrbDOlGTjnj44avvNYO2ttd+v1ovW7jzced32ixvpqdvM/38Uu+nIXfXmXamwkETdohk+G/+4rKj+y33/wC2fx5dTSr+r3f/AM5fPn0LR6W6arW7vEzu+vQuU92B8o0LG2b0cdB8rlZVf2wg+Ovcs37I0p5Yy5ad7yXuy2wuaQ5hc0jUEHUdfgtXnrd9pmstLvsLxkinJ9YGV/8A3WDc/wAwG/mLHzWe7KH9PD4fDrijTeUv7ePyuPesxXQvhMbHAOYBYOabtc7c2Pjc+eirQmp4yXHyWi8s+RatFwwT4eur88uZhMSm0LQd9N+f1ddscljd6aZFYK79zFtky09RUbXaIWeb99/BgPxXNWljKMevh8vlkdcFgm+nj9GMlk1v1vb52/8AEeKhu769hKRTA189QyBh78jwwG/Mm1//ACOtj1WUpqK3uV/GmRdRxeB7XVLJqqSRmkRdaMfytFm+/K3odVWnjGKT1vHz6FpZsuitZVEMxBr3Su09YYAZL+DgdJBcjfvC26rhu/105cPr0Jxx1v59S7WwPpsOgyubLBM4ydszVh+6wG+xyhxs6x1SnU3pt8Vw8354LITjhFEJshLj430F+f63IHjot07vr2GTRv3oTw713il1a4ZoqGIvB3Gd3db77Bx8dV5/5Stu0lDi/wDfXodOx08Z73I7cvnj1AgLFdWUlDTmoraqCmhaQDJNIGNBJsNTogON+nP02YZw1grqfhjFaWoxN0uR8rI+2bE2xvlJ7jn7eIG5B2RRlPKIUoxzloc49GmM8bccYbUvxnHcSj4dmee3Y6oJlrSRYx59MrLHUMyjlbwOP8awbxYc1PNLBG7YtjWEcMYK2JjKaio4IyIoImhjGtA5AaAAblZ6g5BiGNYjx7jhxXHK58eH08BLM/s0lG3WwHi6wceZJaOQVF+zxNZfpHd4vUw+MS4dW0UHFHFtLOcCgeYuH+HYvaqXfxvHNx3cToB030MjYfQhxRxFxJ6SaOlxSgw+iw2njMsFPShuSEubYMaQdbNGp8fDZGD6P7P7fPztZVBfLUALGyNyyNa8eDhcfNAW24ThzjmFJHG7+KK8Z/2kICt2FvLHMgxPEae4sCJQ+3lnBQFUdPi0EbWNrqeqyi154SxzvMtNr+5SDx0+Ix/vcNbIPGCoafk7KoBaOKRMbeppK2mPPtKdxA97bhAUftvByD/7nStsLkOkDSPigNSqeIcLxKvbVUMJrBOfV4QXFjZchF3O8e89oF9tT0Ugn4bFUUFVPNS4lS4hTNcW1MVO60cT22zBoc4kmxvdumljvoBuOA1Ygr4pA4GKSzSRsQdj+CLUG4rQBAEAQBAEAQBAEAQBAEAQBAEAQBAEAQBAEAQGCx7hmhxPNKwerVJ17Rg0cf5hz/FduzbdUo5arl8cjj2jYqdbPR8/k0avwavweoL6qK8UYzMlbqxx+6L8tTexXtx2untMd2DzeWHHt8uJ5Etmns8t6ayXHh2eZithfXT6/Fdut3wOTO759Dy3IaFTjzu+0d13noXJO7BHGNC77Qjz0Hy/FZRznKT4ZeGb8WaSyiorjn46eRaNvDRa53f0Z5O74dSunA7UOeLtYC89bf8ANgsqre7hHV5Lr9Ys0pr9sXwz8PvBcy26qkgD3gh2fRzXC4eeo56rT+OMsFy8vjLoRGUk+/zt9TB4k+lqLmKZlO/bs5XgNdys1552v3XW81eUp0/7Z+vVeGa8DpjGL0yvn7M1zHsSNKI6PsnMkjb2kwkBaWufrYg6izA0a6arnh+7c13Lp99TWT3Uo3n9GvVGJVbi49plcNw0W18DflmI3003UtK7+yMWXKGuqI4Kmq9ZeOziEcZJ2fJdjTr4ND3amyxqYNqPPPwz9cFzNI4pNkb9qTt0Ja4Aahw1y72+AaNbjXdWaxu/khMnYfXipnZTPBbJI4R5htcm2vhqXHXw0KpJqKcru8CyzeBmJMRBqZaimktA7uAHVrowLNBB0Iyt2Pjoqxh+qUtff/eRZvPFHsklHM0lkkVHUc4pH2jcfBrnezqT3X6aaOU77hrmvP7714EbqfYdx9COFmi4OFbIwtlr5XS2cCCGDusGvQX968Pb638lXLRHobNDdh3m9riOgwvGHElBw1hnrVZmklkdkp6ePWSd/wDC0fidgobB88+l7FsS4q9VgxSeHPFI6ojo49Yoso2F/afYnvHrYAKuLYOT0vC7eJeK/t6d8lEwiKBr5Tqb6kgbj38lMazi3BFp0Vuqbep3LtKPBMHioqRjYaamjDGNaLAAKupU4n6TMfjxjFYcAnbM6Wrb2z2tdZscLHD2vG5B0581EnuxxRpTjvSzMjHRGfDcPwQHI7Fqjtao+FPHrbyLv/FSlgsCkpbzxNRxjGaDE/SB65iDS+jgiEGF0pBLWxDYhg9ouIvr08FbgQdE9EscjPSJhmJuggo2VEnZdk1oDnXBNzbS4UA+kWs5qoKi3RAGjVASIxogJDAgKi1AW3BAWyLHTRAYTjTDv2pwvidI2Jkk0tLI2O7QTmtpbqgOCYFU+pYfE+IlgoZnFwuQGRvLSHm3IPaL+AcpBuHDsVI/Gp6umxRhpyH1FHRSAuqaeqlvma0Xs5guXBx0sb3QHSsFz/sqmEjszmtLc1rXsSAfkoB0HDJ/WaCGbm5uvmNCtECSpAQBAEAQBAEAQBAEAQBAEAQBAEAQBAEAQBAEBTLHHLG6ORjXscLFrhcFSm1miGk1gzUMe4MjeDNhRETxr2Lj3f8ASeX4L1tm/KSj+tbNc+P2eXtH41POlk+XD6NMmoqiCr9UqYXwPvq1wtYcz105heyq8HT/AJIvG/ngeV/DJT/jksL+OKLUzxLK5+wJva+w5fAK9OLhFR4q/N9Cs5b8m+d+ncyjr49fror3fmVxu+naV+xSk85HfEN/5PyWX9qnd6v69TT+sO/2+zA4/Xtpoy0HM87D5a/Pey7KcMc7vTTwKrK78zTHyGvr2Nnf3HHvk/dZa7t9u4Nj4qlabhFta+/+vh4HRTjvPC7wIlTjBqXP/aEPrEJcXBubLJCDrlY6xIAGUZXBzTfkuP8AiUFhB4P171x4vFYM3395/td+BBqaJxidPQS+tQxe2Q3LJDyu9lyWi5JzNJabclT+ThJYe98nmX3eKu/As1ThDQUtM05TIDVOtuA/us25BjSdLjvbKqeM3Lll4Zvz/wBJeSSu8CAJDo4DUageHPl1yjTTTZWbu+pBLw6UQCeYPs+OEthP8z+4D7gXu0uFSbxai+Ptn8ItFYYsssxJ1MLxPIGW+W2mW1/doGjmNVeb53fiViWaR9ZjuN0eE05MlTVzMpo3Aa952W46avOlx5LnqVlHF8rvibRg3kfb+E0UGG4XS4fTNywUsLIYx4NaAB+C+dlJybbPTSwWBp/pZ9J/D/o8o4BXiWuxOrv6phtMW9tKBu43NmsHNx05C50RLLF6ErFvBanBMe9JFVjGK4jxDUUUpc1hbRRSygiBp+6AB89zqsk99tRzwNZUt3DeyxNOwXEsVqYqyux+uGSecviY8AdnoAQ3ny+tVNKTepFaEYv9TL8OcU4Nh2JsDopGwBpaJQ3RpPO255q83joZJGb4qxEzSxU8TgWuHaON/u8vxWaRJzGKamxPi2ufFRsY+lkFK+e93S25dANdOpKiecoo1hlCT6Gb4krfUGY3WgOPqODx08YabEOlOtuveKsZGoU8eG4fjM2JzyRvM7W+r2Nw2ECzAB+KA2ngniHNxphdSwFsDKhrru5bjTw5aJgD64jAN7bXuFUFZagPGt1QFxnLkPFARKXHMOmx2owSOZ3rlOxrnNeLNcXagNPMgbgbIDJvmgbI2J80bZHGzWl4Dj5DdAHBAW3BAW32AJJAAFySbWQHMKbgaix/ieo4mgmnw2gfJaCKBo/6kah73B1wGPN+7bUa81IMxg+B0+C4z+yaSOCLtacztqGh2YtD7OaGk5QdQbjTogNlhjDKcQs7oYMg52tsoBtHCkl6SWI/cfceRCvEGZVgEAQBAEAQBAEAQBAEAQBAEAQBAEAQBAEAQBAEAQEXEsPpMQgMNVC2RtiAdi2/geS0p1Z0pb0WZ1KcaiwkjRMe4QrKPNNQk1cG5bb7Ro8ufu16L3dm/Jwn+tTJ+X16HjbR+OnDOGa8/v1NYIObKAS7a3O/9/Feplh2X7cjzs7vnzLOM1LaZhAIdkGRo5Ej/m5TZYOaxfHPx+uReq914LhlfXmaDi9SZZHPc7Un2vAbfhfou+bwWV28FwZEFd/4YzN2VBVT+yZbQNsdg7vSeXdAHMd5efVe9NRXf4ZLzxfPI64LCLfT58jCzPdfNbUa22tz92paPDRUlyu9e0uimgEz8Qp46aZ8UrnhscjHFrmA6ZgRqLDO64uPELGpJKLcrvJZ5mkVmkiRiVfQYtVSyVLBRue7MyaNhLHM2b2kY27jR32eOoWEYypxSWd8H38GaNqTxu+4x9ZSVVK9naNae170UrHZ45T4tcNHd48tRl1CtGSd38EOLQrpGQ4dS0zHAOmzVDjzse4zbwa1zuR1Vd7CTfLL3fmTu4pIwFRVPJzNGpN2+e+lupYNLHTYrGdU0jA6F/hwbhUfpAZi+L1kNPSYdG6Rkkps10zwWRi+17B7r6a2vuFwbTVwhhz/ANOmlDGWPI+nOJuNsFwfhGox+OqiqWNZaCJru9LKdGstuDffTQAnkvPxyOrDPM+QuK6/FsWxCfHMcfST4rXSF0skbLBjG6NY25JytGg8vElZZyWEjVOEJNxIND2lbB6sHxxjfMW3Lz4AbaK9NbieBSpN1HiyfQ4ZD682lm7KolezMHSuvlA3Ab4KzWCKHtTguH01IyamhLXx1DWglxJcC7Kb3+KgGTqZHVGOVY+7EGRg/EpEN5Gq8Mz0tdW1dTS0baVgqpWEC13uaSC89SbrN/8AydPc2SwpdfYk8UGmfT8RtrZRHTmWj7Q+LbDT37K5iaC6J1fWetVLoHFji6NsYOVjOTDte1r36lSDPcLYg6CN8wibUTA2BdlyxN37rdr768ljTm5Y4m9amoYYH2VwlWtr8AoKsPzdrTtJPUCxVzAzFggPCLICBi1RLBTPfC27g3QoD5yZjWM1PFFfh9VEaOrqapw9amkJYzMbNc0DUd3TTXRWB3DgrgKgwypgxrEamrxLFcrZQ+qd+5eW6kN11FyLklQDdiFAKXBAYLGScTrP2HC4iPKH1z2naM7R+bufTzQGUbG2NjWMaGtaLNaNgByQGDxwCDiDA6vYOllpXH/9keYf7mBSDJBtpHjyPy/4UAzPCzstVKz+Jl/gf+VaINiVwEAQBAEAQBAEAQBAEAQBAEAQBAEAQBAEAQBAEAQBAEBh8a4eoMSd25YIakatlYNzyzDmumjtdSlFwT/V8L0OerstOo97DNcTjvpAwLGcHkdLUwl1IO7HUR6s95+6dzqvrtg26hXjhF58Vx++C5ngV9kqUXi9Od6ehzusdcm9wLXI5gf/AOR1Gq66jbu+L455FIq77CLjB7NsFKf8mPPIP5399+3gMrbhefH9nKfPLosl7vM6nklHl75/Bh5c1xY9/lbmfEW/mJ1b4bKsrvu5lke0Z7Olqqpmnc7GIj+OTu5hbciMPNwAddlz1M2o3l99DWGSbu8DFucHEWAIJuANb89PE2DBpY67I7u0ES8NqKoTihge18dVII3wyNzxyuJy5iOZBLjmFnC26yqNJbz4XfA0gm3gR8dfS4rVTTYdIWl7skdNI8XcxoytDHHR3cb7LsrtdLrl3pQjg7tm2CbyNbmEoe6F7XCbNaRrgQQ6+xB19p2zte7oVTXQtjgdG4Kw6CkwCmkM0Rmq2GrlgObOY8+SG9xYCzC7e/e15LztqmnU3VwOqlFqG9zMziL31vCbHzXknlqpJWvzd4AFrfhYEW6rmLmoUWEx49jRpZKlzKeCBznFh73dGnxdupBHwnFH0ktVGRTstM6LM6HPlLTaw5WIspxBJ4cxGPEZcTdI6D1iKcRXyWAYAM3lfw6KAT6qOre+B8kLYqRtVYAuu57hcgnwA163QFFES/FsRHhI1xPuUohmEwE4c3EK6DDoHwsgrJI5Q7nLoXuGpNiSsn/8vT3N/wD6evsW+J4G1Tsao3AH1rD4Zm+cbrfkFoYnOmVNZHE31KFsshmY17CL9wnvEdQFII1TTYnHFQ0cdW18znvaWska1pka7M3MdADlPPwWtPdSZSbeJ9g+gHGm1fCgoDUxTyUuVwMZJAa4at1GtjbosGXOpMJKgFeVQCzUQte2xAKkEKmwulZP2hgjzZgblvNAZuI6X26EICooCDjFb6lSh0bO1qJXCOni/jedvcNz0CAowmhFFSZHP7WeRxknlO73nc/ogJTggMBxsBHggrLA+pVUFT5Bsjb/AO0lAZR7bTuHQfiUBkeHdMSHVhVog2VXAQBAEAQBAEAQBAEAQBAEAQBAEAQBAEAQBAEAQBAEAQBAUyxsljdHIxr2OFnNcLgjwITTQHMuMvRLhtfMK3A3NopA8PfSn9zJrchvNhNraadF69D8vVhHdqZ8nxXz1OCrsEJPGOXZw+jhfFWG4thOKS0+NUU1LVucZC140eSbktI0cL5RdpuvapVKdSC/ieKWV8uOuR584zjL91mYCYXu0G99L+J2v1PtHkVEud3p2Eo9xG0dDS0x0zAzy89X6NGu5EbdjY95c6/s5dPD7NXold4GMkeQHOPtE2sfHe2u+paLHXTdQ7v4JFJeKGrqmu/dRdlGT/3JPs278w3tHWNvNc1R4tK+fwbQWGZipIwRbL3eYPhoQ03/AJQ0WPjoVDjiEzJ4XHJiFXT4fVMdUSSvbTxS3tLGXHKO8dwCXHK/kNCFTcUE5XfcW3t54GemrmycUxxUYcKYSiGFjW37gbkYAPINXht7zbZ3rJYE3iGURQYbE0j7CF73gG+V2ZxseuoUEmD4CqmsnxSpmBv6tkjda9i51ijBBwOjn9bxKplq+0hmqJJI2hnsAODTY7ddkBnoKOloo5W01PHHlbJ7LdbscDe/kgMlK7tKGqbv2dUXj32P5lAYrD83/qOrgbbNPEHNv0OvyupQMbXUzcNxqtkpo3ubUyieU5ibSEBugtYCzQTrusZySqo6YQbovDmRsSly1tDUyjK1sslDPfk2Qaf7h81qcxzfFKdrKutpG1BY4vfE61w6J2uvxUglYHXYa2dgzGZzs0hmfGA3tIxldpuDYX8lOYOp+g3jjDqLjr1WOZxpamJokcRZtjsR+CSg0sWQmnofWFIAW2ve3NZEkghAUOGuykHgbYoC60oA97Y2OfI4Na0FznE2AA3JQGFwR0uJ1k2MVNPJDG1xioWSb9lpeS3IuPyAUgzBKgFBd4oCBj1MMQwOvotzPTSRjzLTb52QFnAqsV+D0NbfWekiefMtufmgM7w8137RuTfuuO2w0Vo6g2RXAQBAEAQBAEAQBAEAQBAEAQBAEAQBAEAQBAEAQBAEAQBAEAQGOx/BMKx6gdQ4tRRVcDtcrxq0+LTuD1CvTqzpS3oPBlZwjNYSWJwzjr0KYhRzescOTvr6FzgJIJCO3iboCQdpAG38Ha817NH8omv+iwfk/g8+psTT/XQ49jMjpMQqZJonREvIfG9pDo28mEHUWa0Cx8V2xjuxSV2+Rzt4tsxkocTYnvN36H8hmJ0Omm6oy6L1W0R4fS0wOUyA1D76Wa7uRjp3GudzHeWCWMm+l9TRvBELIAb2AsLkbW526D2RzC03SuJnOD4sktZiZ2oqciI/zvuxpHu7R2hI0XHt092lhzNtnjjPHkYjD6+qgx6mlpmSxuglD+1BAJIF7NuD8SF4c2oR3j0qUN+W6bJj7sLrGtklM0E1Ox5Jy6O8T3fwsqRqpvA0ns8orE1bFa1+HtghoKZxirmMbJUPdlIjLhcBo59SVqYG1so2U75aWNoa3tJGAD+eMOHzCAkQsM8jHWs2SSO5OgAmjy/+QQF2kie6llab9pLSZw2334bslaeo0PkgI+HYbTYhxbQQz10tGKqAiJ8bQS9xHsXOxOqA23HuD6TDaCL1KJ7wwkvbK/M487gfiB5qrjFvEspySwxyOd8QYeKsVNGDl9aj7p/hkbq0/EBWKnMeLInSMdjrWZHzMbHVt5snjNjfzH4KUDE0lXWaNoYoomTBxdPk1bJpvfQggW01QGxcMx4xRYlCMMq6elizlzbMBc3OLOaCRew5a7Eq06kVHGQhTlKSjE+yvRJxGzHeGIC6RpqqNogqW/eBGmqxyaxRLTTwZvNri6EFJCA8spAQGIxEnE6/9lsJ9Wis+tcOfNsXv3PSw5oDK6AWAsBsAgKXlAWJHEIDG10dbO0spZzTvO0gFy0+NkBd4dwtuE4RBh7Z5JxA3IJJLXOt+XUlAbJw6z/qJX8g0D4n/hWiDOK4CAIAgCAIAgCAIAgCAIAgCAIAgCAIAgCAIAgCAIAgCAIAgCAIAgNP4/8AR1w5xjEX11OaevAsytp7NlG2juTxoNHX9y6KO01KOUXlyMqlGM9dT51469FfEvC9WzPH67h7nBjK6nacrL6Xe3eM6uJ3avWpbZTqLk+V6+pxToSgzSsQeyeumlj0iJtEBpaMDK3b+Ru4012W8IOMc9ff/TKUsWQ3h2nI7i3j0t1O48NlLV37+JCZn6TtqThqGmZSSWrXPqXTCxbkDSxgPgbB5/1XXhfkKu9WUOSPS2ak1T3zDxxWqYnDfOFwVljTZ10HhUj3m41WBU80TakzueyoizNyty2v57/JY06WP7Ym9WvhjFLsNSxijM3DMBA+0pJHwO6WOn5LpRxm20DX1uH0OI0bQ+Wpp2vjB1tUwAuyHo9uYeYQFVX+zKWIsq6psVLIx0bBe8jqaVnaRkDfNFJp5IDFz8WGKo9apsIlnZHKypqJS8NyvMfZyua2xuHDUg+CYA17G+IoMalZSUdDJRer3dTuc/7S41tYbHS+/JaOk4rEoppvA6lgWJ0PpBw2ghnpKX1qjIjr5Jy8VFiBaSF7DoQQ42I1v0XBUp1ng0z0KVWhHFSWpB4zwCHD8Opnx1hkrYXi8rxZsljoXW2cRv4rqWOGZxywxeBzD0hYXS0WIzVTSH4RiYDaksP7mXk/66KSDl+Ow4jhNe5ksslTHFbL3tA07EdD4qQTKDE6qXI1oc11muGV+UHnqRqgOveiDjQcKYxDUSRztp5XNZMDOCwMv3iQW3JF977eNlDQPrqgqYammjmgkbJDI3NG4G9+ioCQUBS7RAY/GK19JTtZTsElXO7s6dh2LvE/yjc/8qQV4VRtoKNsAcZJCS6WQ7yPOrnHzKAlFAUOF0BbLL7oD0NDQXEbICpjSGgc+aAz2BRZKQyHd7r+4K8QZBWAQBAEAQBAEAQBAEAQBAEAQBAEAQBAEAQBAEAQBAEAQBAEAQBAEAQGO4jhgnweeKoqKqnYW3z0spZLdves0jc6bbHYghSiGfAU3H2G12M1ZxbC34bTzTvdBNC1rnMYSLCaJgaCbW78Yad+65epS2qcMpZrzvvOKdGMs1kbBBRurTSGkmiqIa2QMgqYXh8UhJtcO8QSSQbOFtQvQjWhKO8nkrvgczhJPBmZ4CxWDiKHFo4pWyNpao07AG5bRZcselzbut/FfOVs5YviepDJYGLbE6NwDhZ0brHzBWTWKwNE8HiW8cZxRVUMjBVyClgJEVPAzLaO5Ort3nXyWtClGMFniRXm5TbwwKOAm/tCCfDHOJfNE7KCd5Gfq23wKrUWEisXiiHU1uMYXRyUVJXz01MZe0cxlgWu1FwbXB8lQsSqZuG1mEwuqqqSqhErTJlsHyEe0GjUl1tNT7lIM47hrH+JqgQYRhkmA4CDma2udkfIbAXLR3yPBp95UA3jBvRxw9Q4PJDO+pqcRnjcx1RH9lkJ5taLk26m3Rebtm2Vqct3getsGw0q0d9voc2ppq3gbjAumbnbEezqWNOksR+8OvMdQuyhWVaG8jh2mg6FRxZsnHNRJiWSppBUS07nfZdld2ZgtdzWaa6++x10WxzmrUmI4W6GqwzE6CZ0M92iSZmV4bYbtvod0BpfFGBTYS+KgxQyx0rxmw6vcy5jB2Y8Hdvn8igNJkGJ4Pi4pcUaQybWGpaPsz4WI0y/MKwM9hOJzz/Z+rdp3gHAP1sOYsFAPoP0A+k6LDZo+FuIsVp3iWbJA3IWmC/s5nHTU6AanrsqtA+jwbtBve+x8VUFueaKKB80r2xxxtLnuds0DclAYrBY5KyodjNSwsdK3LTRu3ii5f6nbn3BSDLBACgKSEAsgKSMzrcm/igK4oDPNHGBdxdp06qQbRExscbY27NFgtAVIAgCAIAgCAIAgCAIAgCAIAgCAIAgCAIAgCAIAgCAIAgCAIAgCAIAgOY/4pMRGF+g7iGqZBFLUmJkNMXsDuzkkeGB7b7OaHEg7gq8P7FZaH57zdi6ppg4NAdZptsDbf5roMGZ7hfEK3DsDdNR4zLhsYldFWZO8JGOBjsW7X7+jrXbuCFWRaJvXoWxAUfFUOHvklNNX05pou1sCJYibDTmbP8AisqixjiXi8HgbvxZQeo43I7LaKpHasPK+zh8dfesUaGPhxOWPHKegkjyxvjbG5znN7sh1Yd9AQQDfnZZUayhUcccmdNWk50lLDNehMxTh2fCMYkrqd8EGIxFsopWOzOdIDpmA9m4zDrddFSSlockVgRuOqKCppIeIMPaTRVzc1uccn3mHwN7/NZlixh2MjhfFqGswylpzh72slcyGIdrPEdHd43dnuDzABYRstVBSjlqV3sHmdEwSmdTzDiJ+K0cOHVIkklDqy7BHoY5u+bx3BsWu5g9Fw0f5U2qh27T/A0nSKsa49wKgx2Hh+hqqesxytovWsNppmubTVtxdjWTew4u1sAbE6XvotalGFVJSMaVedHFwepwriz0lY9j+IOGLRU0cbXZHwMphGWZSRlOlxbXTlqumGzQgsIownXnN4yZmuEeJJMKpJKVzi7Cq4ZXSNjzyU+veLPde4vzuOubWBZPE6DhvCENTQVGPMlbX01dAY4aamiE4cDqCTe/d1Ft/FQDn9S2eoqqjC8QjcImMcZoqi7my795l9uXO+9+SkGsTYDWw0z/ANk9hidCdZMOqSC5n9JOtlGIMDVQYHYQTuxXh2Ue0GtJa7pfmFIPKOj4PpJzUVXFktQ2xvGymJcffqmYPpj0JelilqaWDDa44hPh4AiirayEtc2wJ7zzo4crDXmqtA7FimGPxSSmkZWXw6+eaBoBE9tW97wB5c1GgMqALaWUA8IsgKeakAoCm5cNNvH9EB6BYWGyAzWEUhiZ20g77hoPAK8UDIKwCAIAgCAIAgCAIAgCAIAgCAIAgCAIAgCAIAgCAIAgCAIAgCAIAgCAIDnf+JDA5+IfQ1j9DStJnZEyoZYXP2b2vOnPugq0Hgyslij4PhwgzYY2pfRBs9BKY6qNjhc5DqTc63Gui6MTEylPFTR8W1NHiEUElFi0DXwEtaGPytALdNNh79PFVSSWCLNtvFmamFNV1lK/CYqmeoo5hLG6ksGNeDcFzz3dD1uoJwOyY22n4j4Mp6yV8FHWZm5Q6QFscx0dHfmD+hXNJbrwNVmaK6WCl4skqMRlhxdsbg2R0ALGmwDcoBALcoFrW3Fuq8//AMaUsXoep/5sIpJrEmcT4GcAqqSpwBlOYqpgMMVK0yVVS02LjK7N3G+DiLk+OoXds9V14YTykjg2qjClU/5vGLJeB1tJHTTx18Z/YeIf/mxgEuoJtAJT4a2zDkdVLWBkYTG6Gv4YmqsFqagw0lWO0o6+NuYRk6h7Tr3HaB4Go0I1GtoywIaxObtxLFKfE56SqhNUZLw1VPKe1bM07tP8QOhBHQjkV0OKaMlJpnUsM4d4L4W9FuGV/GeC8R4zgzMR9Ypo302f9jXOveaWvERNjrcOIBsDvzNYPA1WZGPDDPSJ6UDU1OBVFJheJMM9JjGCONXQ1rBoHSPIBilNrOBG+haDqdI1HFYFXBN4m/YjwRQ8PYYzDcKw+mqsNnaZJY6lkpdmZoXduO5G7w08zyXNVrS30sDppUIyg3vJYGnQTR8IcU0rOGscp8Rp56mPNRz+y15cACT7IfrYPFt9dFpg2Y4oV0VBPxTUPx2qkoIZaiQuDGmXsnh2l7X228EBg+ImiXGHHC4aCKDO1olbFle4DTOGk9w21t4gKQWKaaqkqG0gc3E3k3ET4QHOu6wBcdCbkaC6slFZsjM3yk9GuIxtFTIcFjl3NPTUg0//AJHjU/6QoeHAEyfBpmROgqY5Q8Duh42PTl7xsqNTkt2Gr0LwcIyTnpxNtwPEsb4ZpqT1ST1qkDWB8L5LtAIuW3t7Qu0D2djuvcX4jfppReEl54avtWOOaPOlt37uTWT99PLA3/CeLsCxNrW+sNpqg6dlOchvpsTpzXlV9krbO8Jo66daFRfqzOOYbXDjY7E6rmNC2Wu/i+SA8DQdzmsfFAW62rpaKIS1lRHAwmwL3WufAeJ8lpTpzqPCCxZWUlFYtnnB2OYBi9VLHTVI9aY42hkbkc4DTM3+IeWy6q2wVqEVKayvUzp7RTqPBPM29c5sEAQBAEAQBAEAQBAEAQBAEAQBAEAQBAEAQBAEAQBAEAQBAEAQBAEAQBAWa+A1VHNTiQx9qwszhocRcWvYgg+8EID4d9Ivo/xD0aca1dfLC6fhXEah0HbSty633s7U5eZPtC5FwLreMsTJrAu8LYLw3U45TYbxfhlJJhbZr4T2VVkbMC0HVt8xy/esRcEEaLHaHVVNulqbbPGk6iVTQk+k/DH+j2tdLg9G2qw2sYZ4qPt7OpnXFxrc5Dfu36gErl/H16lSOFRdTr/IUaVOX/J4mscFek2posTe/F6enq8Eqm9lU0zI7NAv7TXPsXOHhbppou2rSjUWD4HBTqyhodf4r4Vo+K8Oi4s4PmhqnzMzPZGbNqgNNL+zINrG19jqsWsMmXNBo5ZI21FLeSBz/s6iIgscDqCDsWnU+B1VcM0ycWk0b1w1SUYwl0fDtDTUrJmgV1MHiSSTSxLQ7u7ciLnrZY19pcHmjp2fZVVWKfyWH4U+lw6TD5IJuIOGcxPYRty1+GO5mNp9to5s38PBZU9rTynkbVthazp5+pi8ApKjg+rPEWDUtBxRgTzlfPHGO1htyNxmheOYcLeS7N7I89rB5nVsG454UxnC5poqxgLYnGejqWgShtu8Cw6PFvC4TAHH/SP6QaWvrKaLhjHsTweiiaYZqQUkEtDPGdHB0BAJNjb2h0srqnJld5EThnF+H8L/AGlhPA9DW0FJiEIZJUVeMN9UpXH2ntpJJAW639l7jy2UNNak44kUejDEm9k3EH4piclUc1K7D6NwjqGXsSAczue5sPNVW0vf3N01WzJ03NyM3i+FYxS19LFX4BjNSyCHsmtqahgkijbyda5t5m+yipHebweRNOcYJYrM8x3D6Sq7F7GepMZZz2xNGZ2xLcx5HyUU4Rh29RWqupwSLvAlI3FeIKvEhH2dNTyCONoHdc8/k1tz5lel+Npb1bfekc/jzODa57tPdWssvnyN+bW1LXOMcrgCdAdQvppfjtnlFKcFiul9fE8hbXVTxjLW79COc9RO0Pe57nG13G9h9fgt40qWzRbhFLC79TNznWkt544noqJGTyTRnLm0IIuC3kCDoRturxpLcUZcPX517e8hze82ioQ01bIGNDaeR9g5jj3HDmAT7PPR2mmhWdVunFuS3kvH771nzReCUngsr8uuXaeR4li+HzPZT19ZRhrieyDyAL7Cx+tN1xy/F7NVinh1XG/9Rutsqwbu7zJ8HF3EhkjjOIRFovnL6ZrjYC51010K5a34Wgo4xbNqe31G8GiLUcW8RzRlrsTdHf8A7MbGH4gdCtofhdljri+t3xM3t1V6ZGJE801WamomknkjaZC+R5cdNtSfHL08l2OlCnT3ILBPLx+se3vMVOUpb0njgQ2udG9r43uY9rrtc0kEHxB5Hb/lbvB63d4GayOjcFekyppo/VuIc1RAywFUxt5W3/iH3ra6jXTYrwts/Fxbxo5N8OF+XaejQ2xpYT05nWMOrqPEaOOroamOogkF2yRuuCvCnCVOW7NYM9GMlJYokKpYIAgCAIAgCAIAgCAIAgCAIAgCAIAgCAIAgCAIAgCAIAgCAIAgCAIAgIGPYLhOPYe7D8Zw6mr6RxuYaiMPbexF7HnYnXqieAOZcY+g/husw2OPA6SKB1NI2WClnJdC1zdW5CdWEHY6hXU+ZVxOZM/9V8FtGFcV4JLitNUTOZJUx0kceWM7GS7ssnO5b8Auevssav7ReDOvZ9rlRW61irvM0bG+COBuJsaFZwu/FYZnOIqKWlgc3PbfKHtzN33GnVWoyq04/wDV/JSvGjUl/wAU/Y2PhuHEvR/BOMFwGpo45X98VLszKl45uu7MSBz0OoV41YVckZzozpLF+pu2B0dJ6UuFqfiGs4NxXD6iWeamjqaZzXP+yIbmzaZmE3AzNPsnbQlKODKJ4nLq7EcJwzFhFhfGFBMM+SKSTuPLg7LlOQm2viAOeypuOWMXEvjuYSTO18P8GcaVmEmsxukpYKmNo7GSnntUOHUEZT5E69FxVdjazh4HoUduxyqeJrNRhtLV4VU8WU9a7D6mGdtOMSo3OgNU4i4a5tiJNOVnJskJvOLy5DbZ09Gs+Zp0mIUGJT5cTp8Gkkub1MsTqV2hsSSwBvvsvQ/jkeZvIxVVgNPLHJV4Zw7DLSNe5nrZD5Ii4bgWbbS/Mq6UuLIeHA2f0I8EYnVekbCMUqeGL4bTSPfJUPpgIR3HAWLtzcja6s2ktSqxxPrMNAAAFtLLI0Oeemqmpn4bRuje+nrZJbNlitcsANwQRqNQuzYdj/8AKqbreCWZzbVtH8EN441ifDk9SJIsPlpKWPLaFjy4Bum19fmV3bV+GmpOVHNcuP2c1H8hFrCpqZXh7CBgOEMw8gh8LSZHEWL3vOrvhf4L0dh2WNCmop4uTxeHZnh6duZy7TWdWbeGGC9bZJO2unjqvWV3fajhu76nsWnaSfwt+Z0/MrKpnux5vyWfsvHQ0hli7zLB2Wt3eHcVKou62SQ7tYQPN2n4Zv0WVTNxj2+mfx8l4cXedv4EdTaJsM7BNEBoL2cwfyu5c9NR4hTKnnjF4P171x4cnyYUssHpel4dh6acCmnqKd/bRhmU92z2AnXM3wsDqLjXksZVMZxjLLPHsy+2sng+80UcnJXefYY5x01Ou+/14Le7voZAdykkcN3vDB7tf/p181jLOaXJY+3z9Giyi7vgRXEbA6W+vr5K7u77GVPZTlo4x/3Hl58hoP8A5/8ACxWc32ZeOfx9mmkbvmS+HeIsW4erTU4ZVGPMftI3d6OT+pvPz0PUrPaNnp144TXzfkXp1ZU3jFna+DfSDhOOuio6pzaDEnsaexe7uvJANmO5nUaGxXzm0bBUpYyjnHn8nq0tpjPJ5M3JcJ0BAEAQBAEAQBAEAQBAEAQBAEAQBAEAQBAEAQBAEAQBAEAQBAEAQBAEAQHjmtc0tc0EHkRogKYoYor9lExl98rQPwQFuro6Sra1lVTQztY4PaJGBwDhsRfmgImPYRHiuB1GEtq6vDo52ZDLRObHIwHfKSCBfUbc0TBx3CP8MPAdDjMNbLX4zW08UokFLPKzJJY3DXkNBLdLEaXC0/kZTcR3NrWtYGNADQLAAaALMuWKShoqOAwUtJBBEXl+SOMNbmJvew5qFFR0JlJyeLI1TgWC1IIqMIoJQbXz07Dsbjl46qcSCdFFFDE2KKNkcbRYNaLADyCArsEAQHJPStXetcSilabtpYgy38x7x/8AivpfwtLdpSnzfp9s8X8lUxmo8jUl7V3fU8+7voSGzllNHDK0SxkkhpJBaNu6dxz6dFhub1VyWTWC98+fDXPtNlLCCi81ay8yh9OJGl9K90oAuWWs9o56DcdRceIC0VTdynl6fXDJ9GV3cc4/d93VEd2lO0f9xxOngNP/ALIs6j7PfP0S+RpBdt/JZeRz/H66rW78u3vKnsndpWNP33Fx8hoP/l+qyWdRtcMvHP4+DR5Q77+Sw7md9dfP6v181p3Xfh2IoVOe6GKDs3ua/MZMzSQQdh77NPxWKSnKWOmnv7rsyNMXFLx9vkOkgqtJrQTHaVje44+LmjY7at94KhqUf65rl8P2fRjJ63fZ4FnEIZKdlPC9oALC9rmm7XZje4I0Itl/QKlKSk5S7fT7x+S000krvQgSEWJO2/jp9X/Vau7vqVPa7uziL/tNaw6/etc/PN181jSzjjzteWH0aTyeHIjsjMsrIRu9wZ8Tb9P0Uzkopyd3bIisXgW6uUS1Eso9lzrjy5fL8NwqQi4xSu7zLSeLxN94C9JuKYS4UWMGTEaCNhOcm80QHIE+3y0OuuhK8zbPx8J/tTyfkddDaZRylmjs+AY3hmO0Da3CqyOphOhLd2nwcDq09CvDq0p0pbs1gz0ITjNYxZkVmXCAIAgCAIAgCAIAgCAIAgCAIAgCAIAgCAIAgCAIAgCAIAgCAIAgCAIAgCAIAgCAIAgCAICmV7Yo3SPNmtBcT4AIDgWJ1b6/E6mtfqZpXSb+J0+VgvuNlo/w0Yw5L/fU+Zr1P5KkpcyMemp5Le7vAzKqiwlLRszu7+H0VnRxcd7nn42uaNKmuHLLwtlrMWkOBIcDcEHUH9fmtcMcrvxRTS7+SVUywzSmOqu17AGmZguSRvmb97W+osfNc1GMox3oaPPD0wfDLDmjao03hLxvXj2kSqgkhAebPjce7I03a4+fj0Nit4zUstHyvhpzXcUcWs7vzLdV3ZuzvpG0M38N/nmVaOcd7nn8eWHyWnk8OVv3IzrnQak7fX1utHhxu7ZVFVYQKhzWnSMBg15DT8uo15LGlnBN8c/HP37+8vPXDl7X3EYMMkjY27uIbr10H5fqrSlurefC/n3RCWLwu7xLjq17Zpg0Nkge/WKQXaRsNORtbUWKxjT/AFWOq4+vnjzRo55vkewU0NXUxmlLr5sz6d579hqcp+/sfB3QqlWcqcHvePzy4c13FoRUpLC78TFyOe57nO9sk3HW+o+N9PktEklgtLv3KPN4im7rpJdLRxkg9T3R/wCQ+G4WdXPBc39v0/0vDmQ3Gw/5+uv6lTd30IKm9yjmcN3ubEPd3j+DeXPZZSzkl19vd/JdZIrwXGcSwOvbX4VWSU0zRq5puHN8HA6OHn8Qq1acai3ZrEmE3B4xZ2/gf0p4biYp6LHjHh1fK3uvvaCQ3IGp9gm17Hx0JXg7RsEoNunml4npU9pUsFLJnRwQRcbLgOkIAgCAIAgCAIAgCAIAgCAIAgCAIAgCAIAgCAIAgCAIAgCAIAgCAIAgCAIAgCAIAgCAIDGcUwVlVgFZTUDWuqJYixoLsu++vlda0HBVYuppjmZ1VJwajqcRq6WppJ3U9VBJDK095j22I+vFfb06kKkd6LxV/fafNyhKD3WsHd8i3D+9DzqGDMfdt87KK2LhhxeXjb7SaeUseWfhaLRvYn6+v1WqV39Mrd20VQW7ZpOze8fIa/l81nVb3Hhq8ury9+x5cS9NfssbvwLLidSTqTc6/XVaJJZK7y+CuPMu0Mz4qi7Xdy15GkXa4DWxB0O3zWVeKlDDjw73ll48OWaNKTal6lLmQVJLonNhmJ1je7uuP8rjsd9He4onKC5rmtfD3XVDKXY7vPxLEbHw1dpWOa6G73NcLEWGlx5gfFRVkpQ/V65eNv3RMFhLPh7EQ38Te/jz+rddea0yu/ruKim0e6Rv+Wxxb5nQfNw+Gyxq5pR54fL9H8l4ZZkVxGUeHny/sflsr3d9St3fQ9jOWCeU/wAIYPedfk13x5LGecorr4feH2aR0bu9T01TZx2de1z3bCdv71vnf2x56+BUbm7/AE8OH106otvY/wBru2W6qmfBh7pWPbLDLKGtmjvbQbG+rXXcNDY6c1kp71TB6pX6PTyLbuEcTGvJ5D3fl+P6LVu7vtKIVRy09PEDu0yH3mw+TW9NeSxWcpO7z/00eiREeTy1N9PPl+f6lS7u+4g9xG3rT42kFsdoR/pAb+Iv79lnD+uPPPxv7Ly1wOgehjjLiGHiLD+HGy+u0FS/KIpiSYGgElzHbgAA6ajyXBt2z03B1NH6nTs9WSko8D6FGy8M9AIAgCAIAgCAIAgCAIAgCAIAgCAIAgCAIAgCAIAgCAIAgCAIAgCAIAgCAIAgCAIAgCAIDH43g2HYxT9jXU7ZLey8aPZ5HcLahtFShLepvAyq0YVVhJHNuJeCMQwuOWegzV1Of4W/aMG+oG/Lb4L6DZvylOvKKqfq14cunHXI8utsUqabhnf+GnnTlt05r2ru2jz7u8Q3uwSP3vZg/E/ID4rOX7TiuvsvN9qyLxyi30vwLLtLfX1/ytSp6w5YJX+NmD8T8gPisp/tNLr7LzflqaRyi30vwI7jYWvsPr621Wl3ePaUJMVUW0TmVDO2iuI2Aus5g3OV2tho3Q3bquacMai3cnr7Zrq+TNoywjnd5dhHmpQ6MyUknbxtF3DLZ8Y/mbrptqLt8lf+TDKeT8n19ng+8ru8Y3fgRnG1G43/AHrwPcB+rh8FV51O71f0n48Syyj337kV53J253+vPf3FXu76Fbu+p7MclJE3m97pD/4j3913gdeawWc2+nv8dncaPKKu+JEfvv0H18P0V27u+0qi6+olpXQiF+QiEZxuHB3eIIOhFnDQ3GnJYKKli3z9Mvn7NW2sMCh7KatNoclJUu0Ebj9i89HH2NeTrt8CFDbjrmvP79exhJPsd3yI2KtfFiE0UjHRmMhgDtCABlB+ABvz8VWk8YJ3zv0Jms8CPR29bje4d2O8hH9ILrfL57FRV/q1fImGpDeb3zG5O58frTp5Kbu/EHSv8OeHetcZ1eIvactFSmx/nkNh8mv/AFK838lPCmo8/Y6tljjLE+g14h6AQBAEAQBAEAQBAEAQBAEAQBAEAQBAEAQBAEAQBAEAQBAEAQBAEAQBAEAQBAEAQBAEAQBAEBrfE/B2F40HTBvqlWR++jb7X9Q2d+K79k/I1dmy1jy+ORy19khVz0ZzDibh7E8DyMqoc0FyROy5jcTtryNgNCvotj2yltMm4vPlxvFvQ8qvQnRST0537mDdz+vrkvQu76HMJtIYo+mc+/b5AfFYwznJ9PDXzfloaSyil1vwI7zqfG/1+S0u/P4KntR3YoYxvbP73aj5BvVZQzlKT7vD7b5ruLyySV3oRxI+ORr43uY5pu1zXWI6gjz5e8K0s1g7vw7SFloSqqWnqHRxVI7CZrATNG3ulx1OZo/q9puumoK5qcZRxcc1jp3Za9OOXJmsmngnd9ngY+sp5afKXNDmvuY3sILH/wBJGh5/mFqpKWSvvvuZVpot13dqTGDcRNEY65RY/MHxGuwWdPOOPPPx+sPktLXAisj7aZkN/bcG36HT9D4eBCTlupyEVi8CirlEtRLLyc+4HgOXyPy0KrBbsUrvH/CzeLxKKPu1IkI/dB0nvAuB8QPA67FZ1c44c8r6Wi0NcSmKsIhbT1LBU04vlaSQ6PxLHbt5aajxako54rJ3rfcwnwZWaQepVVVRvNRGGBpGW0kYJuczRfSzT3hduv3VjKf7JSyv77+8uo5NoxDzpvpve/z+HXyK0u76FTvn+HDDfVuEqzEXts+sqyBp92MZf/LOvD/JTxqKPJHobLHCGJ1JeedQQBAEAQBAEAQBAEAQBAEAQBAEAQBAEAQBAEAQBAEAQBAEAQBAEAQBAEAQBAEAQBAEAQBAEAQFE0ccsbo5WNexws5rhcEdQpTaeKIaxyZoXFPo7gqM1RgcjaaXf1d5PZn+k7t/DyXt7J+ZlH9a+a58fs8+tsCedPK/I5vjNHVUOIyU9XTyU8jdGse23dGgI8RoNQvc2apCpSUovHn3vN+r18TzqsXCeDWBADTI9sbNC4hrffp+YW0pbqcnwv5+SkVi8EeVTxJUSPbo06N0+7sPda3RUpxcYJO3x9+3vLSeMngWYmCWZkZ0DyAeg5/In4KKk9yLlyEVvPAtVMnayyym4zuueg9/nz8NCohHciorhd+hMni8bu8S5h1RJDUWuHRXzzRvGZrsovqDz030OuhWNeKlHt0XXK+HNF6bwZbfDDWEupn9nUOdrBI72nfyONrm42dZ2uhKYuCz059navdYrsJw3tNSLC18UsznNcx8LHaOBBa490XG4Pe6HTmq1GpJLn6a+xMVhj2EFxsBb3fjb8fzCs7u+8g9b3KKd+l3lsY8vaPu7rfEa8llLOaXX29y6yiyI8jXW4/L+x/QqXd33EFx8klPBTGN7mSmR0wc0kOB9ka6G/dd4HXmscpSfh7/AB9GmiR4+elrBeqDaebUieNncf452DY23cwf1NO6hpx0u+3owmnqfUno8wv9jcE4Rhxy54qVpfl2zu7zre8lfO7RP+SrKR6tKO7BIzyxLhAEAQBAEAQBAEAQBAEAQBAEAQBAEAQBAEAQBAEAQBAEAQBAEAQBAEAQBAEAQBAEAQBAEAQBAEAQEHGcJw/F6U02IUzJ4+V92nxB3B8lrRr1KEt6m8GUqU41FhJHMeJPR7X4bK+swlz66na1xEdvtmmxA/qtflroveo/lYVkoVcnlnww493pmebU2KVN70M/U588FpLSMpBsQQQQf11HVe1jjnd+KPP7D2DQSy7ZWEDo52nxsXfBZVM2o9vpn7LsNIcXeZEcdBpbc7fh89vgrO7vvKnsZy088niBGPebn5N8tdljPOSXX49fs0jkm7vIiP2t0trt/bbxHkru7t95UlisDsOEdax08b35WuzWkja0cnG9xdw0ddumhC5XD/pjHLD1f+cMzZS/XMiVVIRE6oppBUwN1c5rbOj6Pbu3nrq3wKup54PJ3o/8ZG7liiLVHLT08d9SDKT/AFGwPwa347qizk30vx+iXkkiHIbC+umw+un0VLBViPdqjEP8loiH+kWP+4H47LKD/XHnnfT/AEvLXAv8LYd+1+J8Mwy121VVGx3PuZrn/bfx23CpWnuU3LkTTW9JI+vW7aL5k9c9QBAEAQBAEAQBAEAQBAEAQBAEAQBAEAQBAEAQBAEAQBAEAQBAEAQBAEAQBAEAQBAEAQBAEAQBAEAQBACgNc4s4OwjiBjpJozT1drCoiADv9Q2cPNduy7fV2bKLxXK9DnrbNCrm9TkfFvCeLcO07vWIu3pXSXNTECWZQLAO/h9p2+nVe9s2209pnlk8NHeei7TzauzzpRz0NWedyfM/XxXfd30OcVHdpYWc3EyG/nYfJvz3WMc5t9Pd+v0XeUUiI82J1trqfr3fqrMgqrDl7GI3GSMX6F3ePv7w+HNYwzxd5ZexpLgiNFLPFMySne+OYGzHMNiD4C3X8dlMkms9Lv3IWKeRKrpKOrq5GSEUsrTkZMxv2brd27mj2dhqzTxauempRjjreN4+JrJpu78CG2kkgroG1Edoz9oHNIcx7G94lpGjhodrjxASc8YvC3f+iMcGsTHSOc8uc4952rjf5+V/d1Ctpkru8SDf/8AD7h3rvpAFW5t2UNM+bUbOdZjffZzvhuVwfkJ7tLDmdOzRxnifRy8M9AIAgCAIAgCAIAgCAIAgCAIAgCAIAgCAIAgCAIAgCAIAgCAIAgCAIAgCAIAgCAIAgCAIAgCAIAgCAIAgCAIDx7GvYWPaHNcLEEXBCA53xj6MqKvD6rAnMoanV3Yuv2Lz0tqw+WnRets35WcP1q5rz++pxVdjjLOGTOT8S4ZX4RiZpK6klp3sAbEHN0cAALtI0I05eOoXs7PVhVhvRePPrflqcFWEoSwaMXFH200UI0D3Bot4HQ/I8vDULSct2Llyu/UrFYtItVUvbTyzAWa8lw0+7+lj1GmwVYx3Y4ciW8XiU0Zy1TZDtE0yn/SLj3XA8RruFSr/XDnl4loa4kJx0Nz5m/uv+H6qbu+gJVBVy01LV3DZIHWa6GQEsc5x5jQh1g/UWd1KwqRUpK9LXYXi8Ey06lhrD/7e93bE/8A40ju+TzyO0z+Xdf0cm84/wBr77a7icMdLvxOyf4asMMOC4rikjMr56kQNBFiBGLkdO88+Gy8n8lPGSiduyxwTZ1xeadQQBAEAQBAEAQBAEAQBAEAQBAEAQBAEAQBAEAQBAEAQBAEAQBAEAQBAEAQBAEAQBAEAQBAEAQBAEAQBAEAQBAEBDxfCsPxeidR4lSRVMDvuvF7HxB3B6hXp1Z0pb0Hgys4RmsJI5LxZ6LaygfNXcPvfWw5HWpnkds0kWFjs+wJ3sdBqV7FH8mqiUauXbw+jhnsjji4HLJ43xSPjljdHIx1nse0hzT4EGxB33sfAlesnisVd2ji0Z4wllJO/wC85zYh53zHw17rfA681lLOSXX29+4uskyG47Abcvz26Hl7wrO7vvIKpjkoIW85HukI6Du/iH7XHQLLWTu+HyX0iQnkWINi22vMW/TbxHgQpd3fUH1V6K6Kai9H+Dx1L3vnkpxNIXkl1396xJ10BA9y+c2qSlVk0epSWEFibOsDQIAgCAIAgCAIAgCAIAgCAIAgCAIAgCAIAgCAIAgCAIAgCAIAgCAIAgCAIAgCAIAgCAIAgCAIAgCAIAgCAIAgCAIAgNc4w4MwTieK9bT9lVBtmVUNmyN6E7OHQ3C6KG1VKH9XlyMqlGNTU4lx1wHjnDVO13ZGtoGFzjVQs0bewGdupbo0eLdeS9nZ9sp1pPg+V/6cFWhKC5o0eQgAk+za/mP7HqOoXYzErxIlk4iP+TG1h15gXP8AuLv1WUNMed/HwXlrgUYRRPxPGKPDYwS6qqI4f/7ODb/A9NtyonPci5ciYxxeB9iwRsihZFG3KxjQ1o8ANAvmMcT1itAEAQBAEAQBAEAQBAEAQBAEAQBAEAQBAEAQBAEAQBAEAQBAEAQBAEAQBAEAQBAEAQBAEAQBAEAQBAEAQBAEAQBAEAQBAeEAggi90BzrjT0UYNi83ruE5cMq84e+NrfsJddbtHsk66t+BXdR2+pBbss15nNU2aMnisjhvFWBY1gOJPgxmikp5pHlzH7skJN7scNDr4WOuoXr0qsKkf0ZxThKL/Yz/oJw0Yh6R6KUszRUUclSfAEDK35vHhtqFz7dPdpPtNdnjjNH0yvCPRCAIAgCAIAgCAIAgCAIAgCAIAgCAIAgCAIAgCAIAgCAIAgCAIAgCAIAgCAIAgCAIAgCAIAgCAIAgCAIAgCAIAgCAIAgCAIAgImLYbQYrQyUOJUcNXTSCzo5WBzT/wA9VaMpQeMXgyGlJYM1vgngHC+EsZxGvw2aZ0dYxjGRSnMYQ0kkB25BuN9RbcrattM60UpcDOnSUG2jb1zmoQBAEAQBAEAQBAEAQBAEAQBAEAQBAEAQBAEAQBAEAQBAEAQBAEAQBAEAQBAEAQBAEAQBAEAQBAEAQBAEAQBAEAQBAEAQBAEAQBAEAQBAEAQBAEB//9k=;strokeWidth=2;" parent="1" vertex="1">
          <mxGeometry x="670" y="159.99" width="66.67" height="50.01" as="geometry" />
        </mxCell>
        <mxCell id="f6CLLwjRCBaYlmEwOCbh-24" value="" style="shape=image;verticalLabelPosition=bottom;labelBackgroundColor=default;verticalAlign=top;aspect=fixed;imageAspect=0;image=data:image/png,iVBORw0KGgoAAAANSUhEUgAAA94AAAJfCAYAAACJ9g7iAAAAAXNSR0IArs4c6QAAAARnQU1BAACxjwv8YQUAAAAJcEhZcwAAEnQAABJ0Ad5mH3gAAABhaVRYdFNuaXBNZXRhZGF0YQAAAAAAeyJjbGlwUG9pbnRzIjpbeyJ4IjowLCJ5IjowfSx7IngiOjk5MCwieSI6MH0seyJ4Ijo5OTAsInkiOjYwOH0seyJ4IjowLCJ5Ijo2MDh9XX1Oxj0tAACMH0lEQVR4Xu3dC7QV1Z3g/30NCGIS0YgChpcdFDtOzKAiMbJEmJ6YzALlH6aDZMao4+pR89AkHZ//iTirIxKbbu1Jj9gLo8l0C50YNbgm0ZU/iiNDAxlp7dgjYpqniAoihogg6P2fX91dh33OrTr1OLuqdlV9P2vVunVO3VOnTj323r+9d+3qef/993uPOOIIBQAAAAAA7OvpbdDzAAAAAADAMpq6AQAAAADIEIE3AAAAAAAZIvAGAAAAACBDBN4AAAAAAGSIwBsAAAAAgAwReAMAAAAAkKHYgffSpUtVT09Pc/rhD3+olyi1du1aNWjQoOaylStX6iWdl4mo5QAAAAAAlFmswHvnzp3q+uuvVxs3blTy2O81a9aoW265RW3atMlbNm3aNLV8+XJv2ZIlS9TMmTMjl/nr7bQcAAAAAICyixV4SyA8ePBgNWLECO/1uHHj1MCBA715CZoleJ48ebL3WgJnWb59+/aOy0TUcgAAAAAAyi5W4D1p0iT1yU9+Up166qnqzTffVBdeeKGaN2+eFySvX79ejR8/Xg0YMMD73yFDhqjRo0erDRs2dFwmopYDAAAAAFB2se/xfuSRR9TEiRPV8ccfr0466SR16aWX6iUAAAAAACBMT6/cXB1B7sWW1u3HH39cnXfeed5Aa9dcc4169tln1Y9+9CO1d+9etXDhQv3fSs2aNUvNmDFDbd26NXTZFVdc4bWad1oe5sEHH1RbtmzRr/pIq/mhQ4f0KwAAAABAmDFjxqi5c+fqV8harMBbAuR169aphx9+uNkt3A+QpXu4BML+sn379qkpU6aou+++W73yyiuhy/wAvtPyJObPn69uuukm/QoAAAAAADfE6mo+YcIE9fzzzzdblKUF/Fe/+pU65ZRT1PTp09WTTz6pVq9e7S1btmyZ2rVrlzrrrLM6LhNRywEAAAAAKLtYgfecOXO8+7uPOuoo71nbJ5xwgvqrv/orr1V62LBhavHixV5LtSyTLugrVqzwRkHvtExELQcAAAAAoOxidTUvA7qaAwAAAABcFHtUcwAAAAAAkByBNwAAAAAAGSLwBgAAAAAgQwTeAAAAAABkiMAbAAAAAIAMEXgDAAAAAJAhAm8AAAAAADJE4A0AAAAAQIYIvAEAAAAAyBCBNwAAAAAAGSLwBgAAAAAgQwTeAAAAAABkiMAbAAAAAIAMEXgDAAAAAJAhAm8AAAAAADJE4A0AKKV58+apnp4eb/pv/+2/6Xfd4fr2oRXHCwCQJQJvAECLnTt3qk996lPNIOS4445TK1eu1EtbzZo1q/k/a9as0e9mb9++feqxxx7Tr5T61a9+pQ4dOqRfFc/l7Vu7dq0aNGhQ8/i2T5/97GfVokWLnNqfcbWfu+1T2G9z/XwCAJQfgTcAoMWmTZvUSy+9pF8p9dZbb6kvf/nLav/+/fqd/uR/Dh48qF9lb8iQIerzn/+8fqXUH/3RH6kBAwboV9mTQO3MM8/0grmgSoeit6+TjRs3qvfee0+/6m/VqlXq6quvVieccIL6H//jf+h3uxO1v2xpP3fbmb9N/tfX6Xjlte0AgGoj8AYARNq6dat68MEH9Ss3/Nmf/Znq7e31pq9//ev63fyFVTq4sn1pye+69NJL1Q9/+EP9jh15V9IEkW249tprW1q14xwvF7YdAFBOBN4AgFBz585VRx99tDd/2223dWz1Rvkce+yxXgu4H3BKK/Add9yhjjzySP0fSv3pn/5pS+twWbT/thdeeEFNnDhRL1Xq+eefpzs5ACA3BN4AgFDDhw/3ut0KafX+P//n/3jzcfzzP/+z14p42mmnNe+xlemss85STzzxRDPoka68/r3iMgUNbLV06dLmfckzZ870PttpMCxZ53/6T/+p473M3/72t/V/x99WIdsqlRHr1q3T7yg1ZcoU7/+lK7IfpEYN1rV58+bAbbzwwgvV+vXr9X8dJvvA/x+55162WVqk/ffku7u9N3vs2LHqhhtuUD/60Y/0O32tvD/4wQ/0qz5Z7C+RZL1JffKTn1Tf+c539Kv+go5X0m2fOnVqcx2y/Bvf+EZX2wwAqA4CbwBAqJdfftkLVvwW0O9///uxAgkJEk8//XT1X/7Lf+kXRD777LNecCkBnpD7a8844wxvXvz5n/95v5b1v//7v2/elzx+/Ph+90tLEOuTAbbkHl7pIt3pXmb5bfJbkmxrFAlSt2/frl8dZm6fkO889dRTA7dRAkwJPG+++Wb9Tn9y77W03pr3YMt3y/3Lcbe1kzlz5qiLL75Yvzq8r0RW+8vmeoNIYHznnXfqV0rdeuutavDgwfpVq/bjFSRo259++mnvtZDlEsDbOB4AgPIj8AYAdDRp0iT1hS98wZt/7LHH1OrVq735bt1///3NFkNZvx/c7927V+3YscObF9J6La3tPmmF7ORP/uRP1DvvvOPN33fffV43Y3ltdjMWQQF8GHNbO5HuzSeddJJ+FUxGFf/KV77SsVJAzJ8/P3Q0+b/5m78J/XzcbY3ypS99Sc8l75Ztc3+Zkvw2CXxPPvnkZgu0BMZ+y/VNN93k9Rbohr/tcn6aAT0AAEEIvAEAkSRQSdrqLd3U77nnHvXqq68277OVEaH99ZgthhIUySTk/aeeesqbF3Jvrkxi9OjRXrfjMGaQLv8r96gLaVU3uxk/88wzauHChfpVsm195JFH+gXysj75zO7du9W4ceP0u8EkoPaDZgneli9f3vxOWbf/naLTvpZuzfJb5XM//vGP9but22pLe2VIVvsryXq78Q//8A9q27Zt+lW4ONsuy/2R1M37yuX9K664wruVAAAAAm8AQKSkrd7SVVkCtauuukqNGDFCv9saYIsNGzZ4fyUwnjFjhjcvHn300WbA+Ytf/KIZqM6ePTu0e3AS/veKpNvajfbWe+lWP23aNP1Ked27zfurw1qaJej+5S9/qUaNGuW9/uIXv9gSHNrY1jBZ7a88j8OKFSu8R4TZ6Bkg94DLbQNCKgYk2H7yySe9c1p6XNx+++3eMgBAvRF4AwBiSdrqLffJLliwQH32s59tdvdtH6jKZHY3ly7W0iIpgaoE+r6obuYS7EhLt5AA138EWvv9vaeccoqe65N0W9Nqbx294IILvHmTdI82W72DfOQjH2npJm/+7izI95nBcFb7y+Z6zdZnf5KeAWbrefugcWn4vSn89UpQP336dG9wNblPP07vEABA9RF4AwBiSdLq7Q8eduONN6pVq1bpdzszWzYlKJLu5magGtXN3GdWEMio4RK8yXr94O1b3/qWOu+887x5kWZb60AGtPPJ4Hd+oJ/V/srjOPzH//gfvfPD99BDD1l5RJ601sv5df755+t3+s5hua2AwdUAAILAGwAQmxnUyv2vQfzBpvzu4Y8//nizxbH9fllTUHdz+ax8RsTtZu7fQy0tnhMmTNDvKq9rsazPvLc77bba4FcutJNWWn97iiJBsOx/n3SBl8A7q/1V5HGwRR5XJq3dsr3S3dxna7A7AEC5EXgDAGKTVm+/xVACiqDnTUvgYXanNrt1/+xnP2sOlBakvbu5eX9sVDdzISOGyz3h4o//+I/Vb37zm2YAJ88g/9znPuct83WzrSb/vmMJIDsZNmxY87no4k//9E+9+4F9EuzKiOc+W/e0x+V39Ta3wewSn9X+srXeKLJ/pWLGZ7bkx9W+7fL4OumN4T9nXCqQ5DFifmWBVLDYHuwOAFA+BN4AgES++tWvevfdSkARFHib5H/MRzrJI5w6tea2dzf31x+3m7np3nvvVQMHDmx+t9xzK/cOL1q0KPC+26TbavK7tMt+CXsEmM98TJd8p9wP7H+nVC743ykB6Ne+9jVvPivtv1lG6Zau3ubvlgHggkZqz2p/dbNeU/t6ZDL3r7j++usTB95B2y4jnMtzxv3zzbwvXY5jkkemAQCqicAbAJCItNpKS22YqOWdtHc398Vt+TXvQ28ngZjcO3z11Vd7rc5yb2/abQ3bzjjkfuBbb71VvwomwdqyZcsiH02WJdkG6fJtdpvOan91c86kIb9NBloz7/UP082xFmEVFwCAeiHwBgCEGj9+vJ5rJS2F5n237a168+bN8wIb8x5r+R/ppm4+czqI36Luk89FdTMfO3asnuvrPhxF7sX1RzxPu63yOQmq/K7xQgK0oJZ5c/uEfPa5557zBuMyPy/f+/Wvf917jFicoDBMpxZWaQU2v9Mk3y/d8eXZ4m+88Ua/rvkiq/2Vdr0mCXD9R3sFkfv85TnhMsq9DLQWJuh4hW27VBr87d/+bcvAasLfj2bFBQCgvnp65ca3CpB7tvz7DgEA9SSDgl1yySXevHRPl/uG/ZZyCbak27I5urk50BoAAEBWaPEGAFSG+Qgs6c5tdk+XUafNLsPyGgAAIA8E3gCASpIRrLdt26ZftY5oLV2Y/ZG6AQAAskbgDQCoDLnlyL8P97HHHvO6mweNaM2AVwAAIE8E3gCAypBRzeW+7jvuuKNlkC4hA2vJwGVbt25lwCsAAJArBlcDAAAAACBDtHgDAAAAAJAhAm8AAAAAADJE4A0AAAAAQIYIvAEAAAAAyBCBNwAAAAAAGSLwBgAAAAAgQwTeAAAAAABkiMAbAAAAAIAMEXgDAAAAAJAhAm8AAAAAADJE4A0AAAAAQIYIvAEAAAAAyBCBNwAAAAAAGSLwBgAAAAAgQwTeAAAAAABkiMAbAACktvvxx9XzF1ygXnvgAf0OAABoR+ANAABSe/nqq9WeFSu8vx/s36/fBQAAJgJvAADQNQm633vtNf0KAACYCLzhDLorAgAAAKgiAm8446XLL292VwQAAACAqiDwhjP8LorcIwgA9tGrCACA4hB4AwBQA/QqAgCgOATeAADUAL2KAAAoDoE3AABdoAs3AACIQuANAEAX6MJ92KE9e/QcAAAwJQq8582bp3p6erxpzJgxar/urrZ27Vo1aNCg5rKVK1d674tOy0TUcgAAXEYX7sMIvAEACBY78Jage926dergwYOqt7dXbdmyRQ0ePFjt3LlTTZs2TS1fvtx7f8mSJWrmzJlq06ZNHZeJqOUAgHKh2zUAV5E+AShSrMBbAuSf/vSn6ic/+YkaMGCAfrePBM0SPE+ePNl7LYHzuHHj1Pbt2zsuE1HLAQDlQrfreAgAgPyRPiEvpPEIEivwlhbo3/72t+qoo45qdgn/9re/7S1bv369Gj9+fDMgHzJkiBo9erTasGFDx2UiajkAoFzodh1PkgCAAhxgB+kT8kIlD4LECrw3btyojj76aO+vdAl/44031L333sv92AAApJAkAKAABwDlQiUPgvQ0AulePR9KBkD7D//hP6h/+qd/8u7rFrNmzVIzZsxQW7duVXv37lULFy703hdxll1xxRXefeOdlod58MEHvXvMTdIKH+OnwGHn3nyznlNq1e236znUydANG9TH/9f/Um9MnOhNKJ86Xsdhv7nT+ZzkM7b2aVbH5sw771SD3nrLm3/hyivV704+2ZsHXFPH9AnFKMu5JoNlz507V79C1mIH3hdddJFatWqVdw/2vn371JQpU9RXv/pVr3u4BMIPP/yw12XcX3b33XerV155JXTZeeedp5YuXdpxeRLz589XN910k36FMnq6p0fPKXU+lSi19A8jRni1xEcMHqw+2yjIy190Jt2Qty1YoE78ylfU8Msu0+8Wp47XcdhvNs/nKe++q9/tE+cz/jVgY59Kq8szRx2lX9k9Nmsa5YL9mzd782c89ZQaOnWqNw+4hnKGm9rzMdfytTQ41xAkVlfz008/XY0cOVI91chQxQsvvKBeffVVdcEFF6jp06erJ598Uq1evdpbtmzZMrVr1y511llndVwmopYDqBeza5Y/j87ohuwu83yOK6trIK/riceJAUhK8i8/H5O0j3ytP8b6qIZYgbe0at9zzz3q6sYFIF26L7zwwmbr97Bhw9TixYu9lmpZds0116gVjYtFuqR3WiailgMAOksT3AFZIfAGkJZf4Ui+1h+VEdUQK/AWkyZNUgcOHPDuo969e7cXdPvmzJnjvZ90mYhaXgfUYgF2cU0hK+3nlt/Fup38HwAANlAZUQ2xA29kx6zF4oICusc1VYw67Ou4rQ6dlrd3+6aSCACA6iPwdoBZi9VeIAOQHNdUMeqwr81zK632z1JJBADVRcUqfATeANAB3dbrK+rY2zwvwiqJCMaBbJCmw4Y4ZYSoHlKoDwJvAOiAAU3qK+qWBVm25bbb9Cv7JBAvqhcBFU6oOtJ02CDnUXs+0Z5uU4EKH4E3AHRgo2sxysk89kUEwG/+/OfqxUsu0a/yxTgJqDpb57XLlVRUoOXHzCdIMxGGwBsAUGuuFk633nGH+t3q1fpVvtJWOhRRQQEUwU83pHLM1V5RZeyxFfakiKxRSYE8EHgDAGot78JplVtDdtx7LwVX1IKfbvjPrnfxuqYFNj6Xe/n451gQKgzKhcAbgJNs1Xp3yrAAkXfhtIhWYVvXU1QhT76H7umoA3p3VIuZD7h2bDuVY8rYq6HOCLwBVBqBN8qiDAX5OIU8FwuuKC9a9IBwZoUB3Efg7RguHABlVdS9ed2QQr2pyAJ+GdJ/CnnIm8tdgAEgCQJvx9BKANj1L9/8Ji0lCCWFehNd9gC3mJU9tHwDKDMC74K1t7YAsOv3zz1HIIVQQZWdQa1qSVraJF13vRI16wAmz7yNrsj1IaP8k57Hw21W+aNMjygE3gVrb20BYF/coKkKBXiCkM7S7p8kgbSk6650ifV/7+s/+pF+p0+Slv2w3+7vw6ACvvQ0yWsf0BW5XjjG8ZQ18Ja0Iw+d8oK0t03lme51g3JCcQi8C+Z6qwjggjiZhI2MpL0AX8br0/wN6C/t/nnriSe88yuOqPMmzwKx/3uDrou4BUT5P//6Msk+lN8S9Huyvn7M693/nrJeswAOk15qeTDzgrhpexRJgyRN+udZs/Q7bmov6yA/BN4FkoJDHmwEJECR4gRLaQMqU3sBvowZkvkb0F/a/bP1jju886sbflosz7pOK2k6bisQ9a8vk+zDvArJ7Wxc70Aa0t3dVqCGaFmVXc28oNu03SSt3rbTRVvpuJDz1/ztNteNaATeBdp00016LlsUUFBmEqyYmUSYOP+DbPgBZXt3ZrTy0+KwStc43RuTpONh35NGWOGsqOuN6z17/nVNpX0ruQZtBmroTPZ3ma7zLLbV5jqJBYpF4F2gvFoKKKCgzCRYwWGdCsNhwVHW/ICymwJ6HQr5No5PknQ8jwLWvvXr9RyqRhoHqlBpbzttKaqXR11JmkcFUH/+eZ0U52+xCLxRCtS8148fpBQVTNqQxXlr9mBpD8KKqlyzcYzomeOuTi3x7770kp5zB/mFHX4BveyV9jbTljLtizLnne3yHs2+DAPT+ed1EmW/lquAwLsgYRe13Bsi9xKilZlxliFBRPckg5ACdFFsnGfmeWsrEPALU7J/2gtWZc1U5Tibv8sFaY9V3Qo2ef7eOAG1VBJQiQOTzbSlTMFs1dIi+T15VaaVoZyZ5lws0/lbVQTeBQm7qKWGecttt+lX8JkZpwtdG8MKgFm2tGS5bldJAbooNjJe87zNIxAoIlO1VUHhmrTHKuwYyLVbVp2OcZ7dFuMG1OZ1h2oqKj9M+5gp2EFlWneCzt8yVDJUCYF3QTqd6HnW6pWRC/enmAVAs3CXZUtL2HeWVZyCUxGBZJaqGAjYrKDIW6dCtO1jJddunuT6srVf33n+eT3XX6fvsB2kEFDnx/UAM8u8thOClGJx7XcWFTsEnb+c0/ki8C5I1IleleCqW35wZnLhnkKzACjz/nZmWTBs/86yK6rgFJfc9lG2CjAy0HBBaYlrbKZtcn3lkYfkkRaV4dhVXVQlad6yzGvDyHmY19No0vKvFRpv6imqPEUZoXgE3gWJOvmrElx1yw/OTC6Oohu0nQgnhYMiCk5JlPG2jzwzVb+At/3uu/U7bsvrGu2mwPvKXXfpue7ZzD+Kbv0kfc1f+/njciVpJ5JO2SLnoeuj+PvXihwrgqz0XCuXxE3Po7bb9Z4sdUDgXRASxHiCEhsXupq3s1nIrQMpHMC+nX//93oue34Bz2awmKW8rtFuKmviFvZcrazKSpJjR1psR9A5VsbzLiqvSdI6XIZzy99GOVY86i+9TrfXFMHWtXfw9df1HIpC4F0QAu/0KFiVk9kFjmOYDZutO1GyPIZ0k+ws7+unTPlV3SolslKVMkrUtVLWlvw43n/7bT2HpCQP2vXoo5Xrtk/sUTwC74LEOflfvOQSCqA1ZgaqVWB2gUN8nc6DqHTE1rnjb0PS8zHt93OOuIXCWv3U6ZjHqawpY2VxVSu48ygbyTkhZXC/zFKVCr2gc6Kq54mrCLwLEqcm8nerV1fqgk+q7i0XZqBahX3hJ+51P65JdaqwiCoc2wpg/W3wtyNuoTzO9wfdc5bXOZJlwQ1uIL1JJ2y/VakyOIkynkdl2uYkwZ8McBeWJ9rk7z/5W5XgNOh3lPHcLjMC74yF1czFLbhW6YJPquy/u9vCif/763AOBO0rWtn6mOdBUrYyVPP8k3UmSb9cVrbB83xRA+RIvmNT2gF5iki32re16mlnVsL2W5Uqg6uuDOe+X0ZOcj754/xwDiZHelg8Au+MhbVWFRVU1LW2OkthiX/WtbFVErSvyh5451EokEeeFSGPY0NalZ7kOy4oomDc3puMCjz75LjmVYB3JVBgNOhs+GVk5IP0sHgE3hnzM432AkheJ3/79+TRPaduwgoGWRY6iyjQZqlqv0eEnRc2g8miRvjPI/3y06oqDnCTNVeClSK0n5sUNNM5sGWLniuW3HKHdMoQ0NY5rUI9EXjnyOx2nqQw0E3BIeizfpCTxwAV3ahiMGYLmVVyeZ3rUddVnIov16/NvB5bJmmAOcAN+hBMxse+KjdXHh9KeQRFosdFdRB4Z0gKzyaz23mRgbcvrBu8K1wNLtuPK8ohr3Pdv67C7h+WAlzUNR12bUow7oJXFy3Sc9nzC7wUfA8jmAzXnj6zr9JxJf+N8zzlPNIGKrtRdmFlV4L6fBF4Z0gKzyY/4Y5T8Lal0/eY24P42o/rW088oefQjTwqNFwpoEV1nwy7NiUYrxoCI9jUfv29+fOfO917xFWulAvipHkEDkC09rIrikHgnaFOBXAXAm8TwXd87cd16x136Dl0o06ZApU1hxF4J0d6HZ+MEZBXb5cqiapAzKvnV5z0IWpbbSCdQreKTrfzuE4QjcC7BLq5WOJmFlyQKFqdzkHpqk1BDmmV5Vpx6RynsiKZfevX67lg8kQFV/ZpHi3epNfZOGLwYD2XzktXXqnn3Ec5G4LAuwS6ydzCMou8ut1JrXjabn50Hwv3+o9+RPfJEpNrmkwYVUewUk5xyhwupWGkpeV15PDhei6d1+67T88B5UDgXXFhBZ+8ut2FDRKFZNorISTgZr+WW10Ki1QOAeVStrTp4Ouv67ns5PEddUSlSTo289XeAwf0HPJA4F1x77/9tp5rlVcXMT9RTfp90pqb1yOLyiyv41gEFzMDm5ldXXp0UDlkH0EAslS2ngp5BG9VzmuLIucZ+zUdm/kqlR/5IvAugW4K6GXt6ietuXkN3gI3tN/r5WJmULfMzr9VpBtSsKLV2y4ZMKwM+1RuieHYlw+BN/LAcYvvwJYteq4PFRblReBdcUVmoO2Bc57P/oVbqlKJYjOzK0OrpX+rSLc6VVgwlkNyUmAtQ08CObaynRQSyyXuNelKgJ5HGkI6ZV9VAu+yNnChGATeFVdkgtD+eCgZBZXWj3qK86iwuhXOy1DosLWNBF72lWWfynbSslUuccsNrlSoZn1+ye/8/XPP6VewpSqVGXmUs6vSeAEC71Lo5l7XuAlCFhlX+zqlAFaGVhrYl+b8cjWjsVV5RDACwEVxyw1bbrtNzxUr60ooqTgushGjiiR/37ZggX5VXnmdF5QXqoPAuwS6ueDiJgp5tZ6UpZUGxXM1o5HKIxuZLV0XAbio/X7SMFnn53VpUbelTK2iUpkR9az4MqhChQyVSvki8K64ogJdggr4qlbZIr/HRkZFDTbQSgIHGcyPW5KK5UpBPM4tSjgsqkehS9dWVfI/Am8kReBdce0jRQN5q2KAaaNiid4fQCsJtGQwPwZkK5YrBfE8846td9yh56rLv7ZgD0ErkiLwLoEyXtgkRnZR8+8WWqvtIa3I1tCpU/Wc+/zrSoJurrHi1LHHmiv3q2eNCi27yL+QFIF3CZThwva7CG666Sbv7/a779ZLYEOZC0JVzOjJbO1hX2brtCVL9Fz2zu/t1XMoszpek3UKSLmVwx7yLyRF4A3P71av1nPp+F0EpbuW/CVhh6+KLVe0xqEsjhw+3Olbjriv2z0EE9VGd3N7uFaQFIE3PNLNqpsaXwIR1EncUX8BF4y64QY95x7pJRV07ykDdALZoLu5PVUIvCm/54vAuwTyuCgkIebiA+KhlhtlMnbePD3nnt8/95z3tz0Y+JdvfpNWcABOe//tt/VceVERky8C7xLgokCZVbHlikoqoNXwyy7z/trq1i4BubSCU8kFwFWkT0iKwBtArdhoRSPwBlqdev/93t+PX3ed9zeOqEKrVDr/5vOf168AwC0E3kiKwBtArdgYWKZMgbfrPWa4X75ajv3c5/RctDiF1m4H/gSArBB4IykC7xJgkBmUmWvnr41AtEy3f9A6D1dRaAVQZqRhSIrAG3DQG0uX6jkAqCYKrQDKrAppGI17+SLwBhwkI/oCQJUReAMIYmuQxqyRhiEpAm/AQVXqHnzw9df1HACTPxJ4lRw5fLiei0ahFUCQMbfequfcRhqGpAi8AWSKx+GhaLsff1zPuWXUDTfouepI0lJFoRVpDRg6VM+lV5ZW1bqRCsnRN96ozu/t1e8A1UHgDQAoTB7B10uXX67n3GIjeCgzAm+kdcKcOWrw2LH6VTplaVWtEwm2/UcTAlVE4A0gU4yqjU7yCL5cPAelVSdJt2wx8qqr9FzxjrvwQj2X3vtvv63ngGQGnniinktPWlWTohXWvk49D+iVgKoh8AaQqW66mte9RRDVdPaLL6Zq1XGphe4P/vIv9Vx6tHgD8G+5CRrzooq346DeCLwBOOuka6/Vc8nUtZY8y99NJYg9aY9T0hbyLNk41wi8AYydNy+0i7ksA6qEwBtApropXKfNdOtaS57l705bCQKEsRV4H/WJT+g5IBzdlgEULXHgPa9REO7p6VErV67U7yi1du1aNWjQIO/9JMtE1HIA5VZEq1Zda8n9loNuBx0KIuvOYr0or6BAJknPCFtpw1m/+Q1BFSJV8fF9AMolUeAtQfK9996rJkyYoN9RaufOnWratGlq+fLlqrdR4FuyZImaOXOm2rRpU8dlUZ8FABx2xlNP6Tm46rNvvVWrkZL932oO+lZE4C1Bt0vd8OEmGwOyAUA3EgXe8+fPVw888IAaMmSIfkd5QbMEz5MnT/ZeS+A8btw4tX379o7LRNRyAOVXRIu3a2gpDrd/82Y9V34SdNapt4X/rN3x99yj30nG5jP+GYOgXjje9WTjaQpAkWIH3kuXLlXvv/+++sxnPqPf6bN+/Xo1fvx4NWDAAO+1BOWjR49WGzZs6LhMRC0HUH4E3kqd+JWv6Ln0XC9omttHt9/OyrZ/suqia3M/EIjVC8e7nhjl3D6XHlNZB7EC73379qn77rtP3X333c0gGYAbbLYaFcVP+IdOner9raJugwzXC5r+4GsSpFW5u7WNINTsFl2GIDxotGHXtpuu5ohStgov9JdX77GsxkpxUdoeS0inp1duro4gA6rt3btXLVy40AvCp0yZ4gXh5513Xssy36xZs9SMGTPU1q1bQ5ddccUVHT8ry8M8+OCDasuWLfpVHxmYLcZPydW5N9+s57q36vbb9VwyZ955pxr01lv6VWfPfuc76sCxx+pXyST5rWG/xcY68pDHdib5jm6OWx7i/Bb/NwzYv19N+q//Vb/bt//aPx/n/An6nCnOOqIkWce26dPVBwMGqDFPPKHf6ZNkHbKP5HruxF+fed3buq5l3Z3Sk/bf0v4bwn5rkjQqbB1RzG2RfRH3+9rJZ2V/Bh0f4W9f2HLxxsSJ6rezZ+tXSp309NP9zoswsv72YxIk6H8mf/e76ohDh7x5U9x1mK/bf0O79t8fdg4mOfadyPZ94qGH1Anr1ul3gq1upC1yHaKz9uPXSdj5Y0On7ZDzb9Ty5c3zJ855LJ+R88TXfl7HWUf7Z9pluT+i5JGW2hJnv/vM/w3KB9P+lqjjaO7PsDSs0zra2cqLo4Ttj7B1bP+7v1Nz587Vr5C1WIG3BMOPPvqofnXYt771LXX22Wd7gfDDDz/stYabgfkrr7wSukyCdum+3ml5EnL/+U033aRfueHpnh491z2pfUtjzbhxse+hPGfTptQ1fEl+a9hvsbGOPOSxnUm+o5vjloc4v+UzO3Y0W6zM/5f91/75OOeP/M8zRx0V2hsgzjqiJFmH1Cj7rfrmNZlkHbKP5LOdejj46zO/w9Z1LevulJ60/5b23xD2W5OkUWHriNL+O7becYfalCK/+PCnP63O/Md/bFnfkAkT1L71672WcL9lOOj4iU7bH7RNss7XHnhAv+r7fPtvCRL0P2G/Oe464nyvr/33h52DSY59GLmu5PraPG+e2nLbbfrdYK6nla5oP36dRJ0L3ei0HXKtyfFOkpbKZ166/HL9Kv553f4/nbYry/0RJY+01JY4+91n/q9cw/I7TWl/S9RxNPdnWNoRtA7p8RWUFtnKi6OE7Y+wdRR9LtRNrK7mjzzyiNeaLNM777yjJk6cqJ555hmvpXr69OnqySefVKtXr/b+d9myZWrXrl3qrLPO6rhMRC0HUH0SXHTqJpq2e2DQiMtF6baLo7+PXOrCXeZum/6gYEn53f3N3y6jzcu6grpjJyHb1L6ObtdpkvV3I8nxzvPc8O/5LPP5CKA66vo4U8STaFTzIMOGDVOLFy/2Wqqlu/c111yjVqxYoQY3MsFOy6I+i2r4qB6xHggTNfBY2mCz2xGXXSG15H4AJr9JXrvA1rVdxsH3/HMyqtKoSpJUZBUxABL3eANwBRWBCJM48JaRx5999tmWruBz5sxptojv3r3beySYr9MyEbUc5TZu/nw9B6TTbUtd1bjSVdZWoGMG3mUprPiVOjZbpPPQzf5NUpElLT55n6eMcl0vVLTANptpiEu90+CWrlu8AQDZcTUYzSLQ8Qsrct+0i+IeC1ePmcuFwW7PJwLveilLJR26Zx7rrI679F7yn8xxwpw53t9u+BWVjCmBdgTeObJxMQNIrsyFNFdbdgaeeKKes8cvrPyrX/5Sv1Os9m7VcY+FqwGuv39d5Bd606IFFFEIgsrJT0+zvLVHei9JTx1JH09bssR7zyw3VOGxrXADgXdOzIu5k6rV2tetMCSjHiOZPApDaQIhVwMUV9Th2k57r7IEuK7ci18WfqE3Kb9wXObKtbJgH6MIfoVh3rf2mHnce6+9pueqgWu5OATeOYs62but9XdNXS7u4y++2MsY5FFDcI9k3N3q5lEgVVSHrr1lTL/Me+areoz842K2gHFtZs+FJ0QALpM0qQz8SuWybG+VEHjnLKrlLW2tP4r1yUce0XNAPUjAU+WKtSy7NSaRdB/XIfCW4xKnBey4Cy/Uc7Dh6DPO0HMA2hXRKp+WH2uUbYDQKiDwzlnclreqFGgZ8AZJVTmYqxIJfqpaax5WIEkSiKdJ+4JabWmZ6C9s37a//wd/+Ze0hAMAnEHgnZHdjz+u59Ip4jmoWUgbeA+dOlXPoW6qGGjYroAqqnLCHGBGflPdas17Bg3Sc9FsHXNaJvoL27ftt2pRiVddVKgAKCMC74y8dPnlei4dKWxVRZrCj3TJl8Im6qeKgYbtwLuoirkR//k/e3+z7oZte3/F4Vf0ZFXhQ4t19qqUb7rIhVsvupHF9nNdoxPznKvaAG1Ih8A7I1xgh7n6aB0gillp5FLrmV85kfe1lVelSBGBt1/Zl9Vvq1uLNQXO6il7D4Istr+s5Rsej5UP85xLu89JP6uFwBuZszGiNKrL5cKcX6jKuoU3LQmEy14YLpMiKgTKykaBMwznPIpknn9lPRcJ5srDRvppDrpJ+lksAu8aKkPXKBKGenA1oPUV9fzQJBh8Kz8E3m5wOc1A9bleIQu0MwNvztliEXjXiGQSZbl3loSh+j6zY0ftut9moYr3xAOAq8pQIeuy/Zs36znKeqgfAu8CFNWaa2YStCijSLQUwAVmOkiaCJQH12s1cBxRNwTeBTC7KUmtaREJT9CAILbvwxt51VV6rtro4ptc+2N/qsLszgX30WW0eqhMqb601yu3igAoGoF3Adq7KRVxj6a/DSabg22cs2mTGn/PPfpVddHdLJ2qFoAIvO3JI2hK2mU062cHuxL8m3mBi9dqp/1EZUq1dZPnEnhXAxVqKDMCbwdwjyYAtCrqWeVFcqVAafZ+yjtYibMPegYN0nP9cf8tUG1BPTaBsiDwhpOo0USV0NKSnF8hWWakY8lRqAbsqlo6JJVrQFkReOfghDlz9BzioosgqoTAu5541FtyQbdBwQ1UJJVTHXsPAa4i8M7BaUuW6Ln6IIO2j8I7UKykFYLcRpQNKrKKQYV4OfnpUNZjVACIRuAN6xjUJhtSeKdCAygO158bCLyRFtcwgCIReMM6WneyQ5cx5GX/5s16jpYuANXA7R8AikTgXXPU/paLdBmTR7WVHedduXC8AFQBt38AKBKBd819dPJkPQfkg1sRUCZmpQMVEAAAIC0Cb6Bkynx/Iy0NKBv/8VZ5VBhx73I8DBIFACgjAm+gZCic92fej0yh3A1VaR32H2+VR4UR1zYAANVF4A0ADYf27NFz5Q8azQDO/F158luKAZSXS2nhyKuu0nMAUE4E3gDQYAaotrsU5114dSHwlpZiAOXmyijg0utk/D336FcAUE4E3gCQAT/YZjA5wC6up/wwCjjglqFTp+o5lBGBN1ACPHO0fCQ4oMAK2FeV8QPKhgoPoFgyhg1linIj8AYcR/AGAChaHSs8Pti/X8+VC5VTgJsIvIESIlMFACBb7732mp4r1xMzXLk3H0ArAm+ghOjyB6CuqHjMjhlolv3xdnV+zCT35tcH6WG5EHgDAOAIClGdMVhhtsyu1TxXHnBPex7BozvLhcAbXatzrTIA2EQX0XBnPPUULXgAaq294pFHd5YLgTcAAI6gi2i4NBW75mfMSmIAAPJG4A0AAAAAQIYIvAEAAAAAyBCBN1BC5qA3h/bs0XMAUA0MMgcAqBoCb6CECLwBVBkj9bqJChGgeFyH5UXgDQAAnCIj9cogc2YBk8Jm8fxR97NmPk+cx8cBrXj6RXkReMNpFLQAoL78lm+e3+0GGXU/D+bzxCkHAK14+kV5EXjDaXQ3BID68lu+KWACAMqOwBtOk0IXUCfms4Zp4QMAAKgGAm8AcBRdLAEAAKqBwBsAAAAAgAwReAMAAAAAkCECbwAAAAAAMkTgDQAAAFSYOWaI+bg2APkh8AYAAAAqzHxKxnuvvabn4DoqSaqFwBtOMBMWRnIGgHKjdQ0AumdWkgweO1bPoawIvOEEM2Hh2cUAUG60rgEA0IrAu+ZolQCA6jCD3AFDh+o5AEASZuvy/s2b9RzQHQLvmqNVAgCqw6xAJfAG4JpDe/boudbGH6AOCLwBAAAAZM4MvKt+ayG9StGOwBvOo0YUAAAAZeJKr1J6GbiDwBvOG3PrrXoOAAAAQFx16mXgOgJvOG/0jTeq83t79SvAXQxsBQAAgCAE3gBgCQNbAQAAIAiBNwAAAAAAGSLwBgAATeYza7kfEAAAOwi8AQD9MAoqBMceAAA7CLwBAP0wCioAAIA9sQPvpUuXqp6eHm867rjj1KZNm/QSpdauXasGDRrUXL5y5Uq9pPMyEbUcAAAAAIAyixV479y5Uy1btkwdPHhQ9fb2qm984xvq2muvVYcOHfKWTZs2TS1fvtxbtmTJEjVz5kwvMO+0zF9vp+UAAAAAAJRdrMB72LBh6sEHH1QDBgzwXn/hC19Q69ev9wJvCZoleJ48ebK3TALncePGqe3bt3dcJqKWAwAAAABQdqnu8d64caOaMGGCF4hLAD5+/PhmUD5kyBA1evRotWHDho7LRNRyAAAAAADKLnHgvW/fPnXnnXeq66+/vhkwAwAAAACAYIkD7y9/+ctq6tSp6rzzztPvAAAAAACAMD29MqpZTLNmzVInn3yyWrhwoX6nb7Rzuf/74Ycf9lrApUV8ypQp6u6771avvPJK6DIJ3Dt9tlNgL5/ZsmWLftVHRkRP8FMyd+7NN+s5pVbdfrueS8bGOs6880416K23vPmgdXzioYfUCevWefO/nT1bvTFxojefhKxfvkccOPZY9ex3vuPNm6J+i4115CVqO/I49qcvXqw+unGjN//ClVeq3zWuS1flsT/yOgejric5JnJshBwTOTbtotYRZzui2Dg/4vyWKHGOfdT/5HH+lEnUb4lz3GysI0qcvCXqWrDBxrVQJ3HSnzyupzjbYSMtjfotruyPOKL2hyvXQl55S5SodcRJw2ysI0rWafqYMWPU3Llz9StkTgLvOC6++OLeGTNm9B48eFC/0+eNN97oPfroo3ufeeYZ7/WSJUt6R48e3fvuu+92XCailidx++236zk3rGjsWn9Ky8Y6Vo8d23Ed6y+7rLl8x/3363eTeXfTpuY65PuC+MtlCmJjHXmJ2o6o5XFEreO5qVOby9966in9rpuifkscUevI6xyMup7kWPjL5RgFiVpHnO2IYuP8iPNboviflylM1P9ELY/DxjpcEfVb4hw3G+uIEidviboWbLBxLdSJK3mxjfQ4r3whah15idofrlwLeeUtUaLWEScNs7GOKK6k6bAjVldzedb2L37xC/XYY4+pgQMHtjxzW0Y8X7x4sddSLe9dc801asWKFWrw4MEdl4mo5QAAAAAAlF2swHvSpEnqwIEDUo3SMvndwefMmdN8b/fu3d4jwXydlomo5QAQ5b3XXtNzSg0YOlTP1Ze5Dw7t2aPnAAAAUJRUjxMDAJd8sH+/nksfeJsB6hEl73VD4A304VpAN/Zv3qznlDpy+HA9BwDpEHgDQINZKKeABVQDgXd92e4JVfYKWQDFI/AGAABApdjoCQUANhF4o2vcXwsAQPnRtRoAskPgja5RqwwAQLXQtRoA7CLwBgAAAAAgQwTeAAAAAABkiMAbABxSpceaAQAAoA+BN1BCPCKnunisGQAAQPUQeAMlROCNMO+995467vvfV+O3b/emD/7tv1Wvvvpq4mnfKac01zHs7/4u8H+iJv/zMgUtlynqf6KWx5lsrMOVKeq3xDlucdfxh2+8oU574gl9ZgEAgG4QeANARUjQ/eabb6pBgwapj33sY+r4449nYko1yfkj55GcT3JeAXkyn5YCAFVB4A0AFfH222+ro48+Wg0ePFj19PTod4Hk5PyR80jOJzmvgDy999prek6pwWPH6jkAKDcCbwCoiIMHD3qtlIAtcj7JeQUAALpD4A0AFUJLN2zifAIAwA4CbwAA0NH777/fMgEAgGQIvAEAQEfvvPNOcxIE30C5mPfK79+8Wc8ByBOBN5zACKZA9tYtulRdeqkxLVqnl6TTt75Fqru1tNuhlt1yqfI2bd0idektyxrv9PG+L8Y29/udl96ilvkr6bD+dp3XE836/pHtbdmew1Prbun7jc3lLb+xbVnMc2Dbtm3eJPzgGwAAxEfgXXNHDB6s54oNfhnBFMhSX7B1l7pO/fjHP25O1418JTTojGPiVbKeq9RE/dolo2YvaP7OBbOVeuiGZEGzr5v1JN4/ERUBjRU2t6U5XXeubKS6qPklcqxvUGvOObzdP/7eTDXCWPbQKP88WKBmb7srVvD94osven/94BsAkL1De/boOaUGDB2q51BWBN41N/DEE/Vca/ALoEJ2/Fqt2TZKzT4cnXkmzvQDsmobMfNravaobWrNr7upZrC3HnsagfTPVqlzv3j4OO5Y9gMvsP7ezIAj650H56rrrvLPgxFq5tdmq1Gr1sZqlfeDbwBAPgi8q4XAGwCqbsTH1Si1Tb0aES/uWHbL4S7Igd2z16lF3rK+7tPSlfqWtubf8HU0tHSVDms5bgSD3/ux8mJDaeFtttbaYm/9rb+1MbW1HLfuH38f9v1t3wdet/S7Vim17SF1Q8C6Aq37uXpItbZ2/3rNNnXupNYKlqYdrzbOgjb63Hgl8FgclrSl+8jhw/UclboAAAgCbwCovInqotmj1Kq7+gfKPgkib1hzjlrQ7MI8Sj10Q+v9ydt+tlaNXCDLg7tPd1zHjmXqlru2qdne52XZOd5n8jTq43ZCeFmP91sfGqWu839rzG7bq+76gVJf6/vMdeduUw/9oK9rudctXXcb9/Zfs1U63Lq1q9Soc84+XHGgezaMVI193awQMCo4RoxsBNlBoitlkuoxnifPGB4AABB4A0AtjJj5PfXjvpuUvYCsNQBfp37+kFKzv2a0/k68SM0etUqtNePIcy5SQT2Y+8RZxyjVjH0nzuywLrvWLbpBPbTtXBXWEBzX4fXo37rArICI12171OyvNX/3xIsa/7/tVS/wTmzHMvWzVeeqL/bbiY1g/mcS2/cF932HXFd+jDhbndM4HncZlQPrFt2lVul5AACQHQJvAKiLETPV9yQgu+5ctU0CcD8AW7e2EXw1ArYb/FZSmSTI7Fvs69hiHLUOP+hrvB+nF3W3vN+nt+OubdKKnG4QuMD1eL/VqETwxei23X8fRnfzDrLj12vUtnMnBfymUS2VH333pa9SP/MqWqSb/XXq3FV3NX/T2kmN143PjOxwaAHAFvNRZuYtKUAdEHgDQN3Ivc0LpHX2Z8Z91uca3aYPTzF6PBs6raPv3mr53m13SdBn8TFbAczRyLu5j9vWeuyKuJe7o4nqKv/3NKarRrzSCP0DKhEAIGPmk3WAOiDwBoA6Mgdc8+79Tdfy2hR3HV6r+wKjFbaEwn7rjpyCWD06eb+42+tVEHy/dlhvhfCWcwAAYBOBNwBUnQxs1ta/e8eyn6lVSgdvjWD4izLQV8tgajvUskUdnindLmod6xb162Jua7Cz3IX91h/Ijd8XdRfExrjn2wuWR40MaH0foc4+RwbRO7xd3uPFWkY+NzSOyQ3eJhN2AwCQNQJvAKg6ad027uuVqW9E7sP3Pcuo2ted23cPdt//3KDWjDRGzI6h4zpGjNRdzPX75yxI2I3dLfJbF8ze1vpbG78p8PnZcenB6Lx1drgRfser21pHMzfIIHrmdnnHudlF3nyUWWO6SzXOge/lNsgdAAB1RuANAJaYzyt2a9CY1vt6+6b+g415j7Qy/udwEGk8+9og/98eaIauwx/Yrf39BLx1x4jWg7Yrjaj1eCPFd/hNrZ8P2IfePjEDX30fvKyvw+9Mtl1tI6/76++3DABQRYf27NFz3FdfNAJvALDEfF4xmVuW1qlFfqtt25THiOkAgGobNGaMnmsdiT0JswLerJjPmxl4M5J8sQi8AQAlE9SC3zeVufs6AKA6egYN0nOtFfOoLwJvAAAAAAAyROANAAAAAECGCLwBAAAAAMgQgTcAAAAAABki8AYAAAAAIEME3gAAAAAAZIjAGwAqbt2iS9WlIQ+47rTMJP93y7Id+lVB1i3q/+zuftu+Qy27xVh+y7LGO1rU59uXd9wvbd/T/r9Jv6t9eVPf9wQt8o6d/1nzd4rY6wcAAHkg8AaAips46VylVq1V/cOudWrtKqXOnVSih1+fe13rs7tbHtwtQeoNas05Cw4v/95MNUIv9YR+vvHZtSPVguay69S5q+4KqWzo+56HRvnrWqBmb7urf2DbcVsbIpb3BdaN79mm3zDsWHaLumvVueo6/dnrRj2kbkj6/QAAIDcE3gBQdRMnqXPVKrW2PfJet7bx7rmqLHH3jlcCIlDDjmU/8ILh781sCbWbOn9+hJp5lRmkT1QXzR6ltq35dWtLstjxa7VmWyPobQayjc9+bbYaZVRuRG5rxHJpse4LrK9rHKF2O9Sv12xrxNVXNbayz8SLkn1/XRwxeLCeU+qD/fv1HAAA+SPwBoDKm6j6Gr1bI+91fc3dfcHbjmXqFrNbcnvX5Rbr1KJLb1EtjcHe5xe1tKpLq+zhrs7G/3v/2/b5rulg1GItwoiPj9JzbXa8qvqFtSM+rhphunrF1m+aeJX68Y8PB9ZIZ+CJJ+o5pd577TU9BwBA/gi8AaAG+nc336GkUdQPVHf8+lV1zgK/W/ICNVsFdF1OQILuG9acc7jr9nWj1EM3tAbmqay663Awb26f1wo9So1UZgVCQHAf9vkAXsXEqI+3dlUXI0Y2guwg29Sr5vdFfVeCbWk1Qs384rmNjx/en+t+/pDa5lei+FKvHwAA2EbgDQB14HU3N1pkdXdpv4F4xMyr1OEe2n2Bndr2SodW707WqUYcqGZ/zei6PfEiNXuU7u4+Yqb63o+/Z3xfPCNmfk9XDMjUdw92a0C5TT30M6W+pv9nwWzVEuxHf/6w5j3UQfdFjzhbndP4LXcZn1236C7VCNObor4rybYEmnhV4/dtU3fpwPoudV3LPdxdrx8AAFhF4A0AtSDdzbepNb/uC6V3/HpNvxbSlq7hd5lhZELeveONIPgGvS5vCh4krD/pxm5+LqyVfKK66rr2VvxRLcH+iJlf84L9nwX2aQ/6fB8Z1OyGh0ap60K7eo9QM7+ng1m9nWsnNV43vn9kYGVC+Hf1iVrerm+k8xte/WIzuF4w8mcJ9xWAKObtCQOGDtVzAJAOgTcA1IR0N+8bLKz9fui+YLe1a3gjUOvK4RG3zSl6YO1GkNjymQ73OYd2+Y6p3+f7Alqv9Tjy/urW7bxqxCtqW2NtHw9rxY/a1iS/Zd3P1UMtg7s1Pt6xkqGh230FlIw5mJ45yF4S5joIvAF0i8AbAOpCuptvW6N+va61m7naIUFjI5AzHr2VeFRsc8AxL8izONBYmJbvlO7fbfdYa6PCouG2QdLWLdKPCIuuHegnqAdBi6AB2UxRy7uV9foBx5it1UcOH67nAKA4BN7omo1aZQB99m/erOeyKCz2dTd/6K6AgbgaYdnh+7+XqR907Bc+Qo1sBLkP/dzvuLxOLTK7po+Yqb4o39MymNoOtWyRHik91ajmxueFrKPxnaNmX6R/xwh19jmjWgYc8x4vpmari7x/iPh84/XPVo1Ss/v+ub9O27xukbpB7mlvfjZqW6OWR9CPhzPvMfd+67ZR6pyzpZKhy/UDAADrCLzRNWqVUbSqVv5k8Vu80c0bWh671QiUv+YNRKbvq/6BUl/r2NW8/R7ntWrSgtktXZknXvVjdd25jeBQ3wMt93ivGXl2s0U9lW0PqRv89TUi3VHX/bjlmd0yoJg54Jh3n7bRih/1eW9wtpb70vum/mOSNQLbW4z/uUup69oHi4v6rsht6US6ubfeY+4F/guMbehq/agrnnUOANkh8AZQejYqfw7t2aPnKt5zw3s+dP97rVtGwZZgVf7PCFolkG4N3Mx7nK9SE72Rylvvi5bPNNfZmJqfTzWquQT7resL6hHeOpq3uT0Rn/e2qXV5y/+1bHP7utrvB4/a1ni/pU/ffu6/vP1eeHN/Jlk/cJiZlg4eO1bPAQBsIPAGgAYz8KbnBgAAAGwi8AYAAAAAIEME3gBQIb29vXoO6B7nEwAAdhB4AyVkdoU278lDvQ0cOFAdOHBAvwK6J+eTnFcAAKA7BN5ACfUMGqTnGIUWhx1zzDHqnXfeUfsb5wQtleiGnD9yHsn5JOcVAADoDoE3AFTEkUceqT72sY95rZRvvvmm2rVrFxNTqknOHzmP5Hz667/+a32GAQCAtHp6K9IsMn/+fHXTTTfpV8V7uqdHzyl1fspdbGMda8aNU/s3b/bmg9axed48teW227z5MbfeqsY2Xif12gMPqJcuv9ybH37ZZerU++/35k1Rv2XPihXq+Qsu8OaHTp2qznjqKW/eZGN/2BC1HXkcexvHLS957A8b52CcdURdT3mtI4p5fnz8u99Vw779bbVt2zb14osveu/JfJS9v/61emPJEm/+I2efrU645BJvPol/+da39JxSf/AXf6HnWkX9T5x1RLGxDldE/ZY4xy3NOkaN6ntK+2mnnebNH3300epDH/qQ916QOGlU1LVgQ5nSShfYSEtt2PXoo+qfZ83y5o+/+GL1yUce8eZNNtLSPPKWvORR3rPBRh5nY59HrSPO/rKxjih5ncfIBy3eNWc+r7iXe0OBSpOgSUjgFDWNPO44dULjf2Ua0Qiygv4navI/L1PQcpmi/idqeZzJxjpcmaJ+S5zjlmYdwj9/gKyZj3ccMHSongOAciPwrjlXBunya2nF4LFj9RwAW8zgKc40fsQINabx/zL9QaPgG/Q/UZP/eZmClssU9T9Ry+NMNtbhyhT1W+Ict7TrEP55BAAAkiHwBoCKk27Bwm/RjDNJq+ewxmdkGp6yxdv/vExBy2WK+p+o5XEmG+twZYr6LXGOWzfrEP75BAAA4iPwBoAK+5C+90uCpSTTkEGD1FGNz3nTgAGB/xM1NT/f4fuj/idqeZzJxjpcmaJ+S5zj1u06RKf7uwEAdpg9Qs1eqignAm8AqDgJkhJPRxzhZRAySfAe+D8Rk/95bx0By2WK+p+o5XEmG+twZYr8LTGOm411AADyZT5KFuUk+SoAAIA1DNwJAEArAm8AAGCVKwN3AgDgCgJvAAAAAAAyVGjgvXbtWjVo0CDV09PjTStXrtRLAAAAAFSJ+Yx285YUwAWb581TO374Q/0q3Pv79qlnzzxTPd2IX/3p7RhxbGGB986dO9W0adPU8uXLVW9vr1qyZImaOXOm2rRpk/4PAAAAAFVhBt4DTzxRzwHl9OlnnlHnN+LYf71mjfrnf//v1bsRcWxhgbcE3BJ4T5482XstQfe4cePU9u3bvdcAAAAAALjs6NNPV4NGjlR7nnpKvxOssMB7/fr1avz48WrAgAHe6yFDhqjRo0erDRs2eK8BAAAAACiDIaecoueCMbgaAAAAAKAwux9/XK0ZN67lvuksJ/mu1x54QH97d95ctkwd3LVLfeSss/Q7wXp65QbrAsybN0/t3btXLVy4UL+j1KxZs9SMGTPUFVdcod8J9uCDD6otW7boV31kcLaCfkqgc2++Wc8pter22/VcMjbWceadd6pBb73lzQet44R169QnHnrIm39j4kT129mzvfkk4qwj6rfYWEdeorYjj2M/avlybxLbpk/3JlflsT/yOgdtXE95XJM2zg8b2xHn2Ef9Tx7nT5nYOI9trCOKjWvBhjKllS6wcf7YYOP8yetacCV9idofrlwLNrbDxj6PWkec7bSxjig2tqPTefzhD39Yff3rX9eviiWB8P7Nm/WrfMgAf1PefVe/6htcbdDo0WpERCwqg6s9N2WK+n1j34oBxx6rJj77rDqq8Rs6KazFe8KECerll19Whw4d8l7va/yArVu3qlMimujF3Llz1U033dQyuRR0A0DZfcjIiHoHDtRzAACgKn7/+9/rueKN+M//Wc/lZ/hll+m5dPzB1T67e3dk0C0KC7ynT5+unnzySbV69Wrv9bJly9SuXbvUWRFN9ADgKr+1QRz8yEf0XDkN2L9fzyn13oc/rOcAAADsG33jjV4Qm+c0/p579Lfno7DAe9iwYWrx4sVqypQpXjfxa665Rq1YsUIN5pl+ACrgAz1wJAAAAFDo4Gpz5szxuojLtHv3bu9xYgAAAACA7nHrWHxj582LvL9bfGjIEHXms8+qY847T78TT6VGNT/mmGOcmUxBy+NMpqDlcaYjjjh8iIOWH3XUUXqpUkceeWTg/0RNcdZhClpuYx15TaY0y+NMpqDlgwYN0kuVNx/0P/4k50DQ+3lNpqDlcSZT0PK8zsGo6ynOccnjmkxyfoRNNtZhCloukynN8jiTyXy/6GsjzWQKWp7XtRA12biebEw2zuM6TTbOHxuTjfMnr2vBFLQ8r8lG/pTHZGM7TEHL40ymoOVh22nmGyb/PXOy8VvjrMMUtPzo3sPjYPV87GP9liNHvRVx++236zk3rGjsWn9Ky8Y6Vo8d23EdO+6/v7l8/WWX6XeTibMOf7lMQWysIy9R2xG1PI6odWy69dbmcpl3WdRviSNqHXmdg1HXU5zjksc1aeP8sLEO//MyhYn6n6jlcdhYhyuifkte10IUG9eTDTbO4zqxcf7YYOP8yetaiFpHXmzkT3mwsR3+52VKK2odcbYzah1b5s9vLt9444363WRsbEecdaDVgTfe6P1fRx/dsm/96R9Gj+59/9139X8mc7h6DAAAlJr5KJYjhw/XcwCAvJlp8HuvvabnUAZHDhumpvz+94EDsk3essV7DFkaBN4AAFRQj9FFMYlDe/bouUYhgQFPAQCwgsAbAAA0mYH3wBNP1HPlZLY4HXz9dT0HAJ2RdiALBN4AAKCSzBb7D4xn0wNAJ6QdyAKBNwAAAAAAGSLwBgAAAAAgQwTeAAAAAABkqBKB97x589TNN9+sfvjDH+p3iiPb0tPTo36hX/vWrl3rPfhelsm0cuVKvaSP/7m8fsPSpUu97xtx+eVqRuP1jr63PS5tq/9dMn2p8fq9vrc9ru1TId85tfH3N30vPS5t5759+9SZZ57Z3BaZvv3tb+ul7u1T//tkn5rHv3071778sl7SJ8/t9K8lmcbddpu3rTL95B//0Vvevq3Pt90r1r6tWY4obW6r+Z2ifTv/z9atekmfovapi+lT2Hd02rao7RZZbHundT7QmIKWPb99u/qjxl85j+WczmNbw9ZnngvHHXec2rRpk14Sb5/++aOPer+jPU9OK2w7/fdlGjNmjNpvXOcuHnvhLze35x83bmwe+wkPPBC4rXLeZL1P333vPfUnjb/+dsjy9rxqypYt3nKZ8jj2otM+9a8nmcxzoIjjH7S+x154obm/5Lr2t8f/nyK2864VKwLXF5VX+edo2LG3vZ0ibJ1PNibZDlnWnkbFuZ6y2Fa4q9SBtx9EjB49Wv3hH/6hfrcY5rZcfPHF+t0+O3fuVNOmTVPLly+XJ9urJUuWqJkzZ3oXZ6fPZUW2Z9myZergwYNqx/33qy823vtvjen9Dz5waltlWzZs2OBtp2zL+MZ7i/sWObdPhWQG9957rxqtXwsXt1M888wz3vbItHDhQu8917ZVMqN169Z5x39F4/XfN6YjG1PQdl56991ecCbFnP/nscdy3c45c+Y09+WmW29VjzbeO6ExfWbcuMBt/dM33mhua9A+zWpEadmW66+/Xm1sFARkW9asWaNuueUW7/gGbeeVjcnfzhl/8ze57VO5jr75zW82t/Objfe89KkxFX2OdvqOTtvWaZnIYts7HTdZJkGNnKdBv2Puj36k/qIxL9fdX33xi5luq78tYfvUz6tkv33jG99Q1157rTp06FDsfXrSxz6mzvPe6U7UsTfzqokTJ3rXlr8s72MfZ51+fjVhwgT9Tt+2zv7+95vHfuH55wduq5w3We9Tn1z76y+7zNt37XnVDxrpo2zndxtTlsdeyHnaKW+RoHtDY/LPgS1btqjBgwfnfvw7XU8zTj/d218ySV71RiMvGjVqlLrgggsK286RxxzTb32yLVF5lX+Ohh17W9spOh37FxvTDxrTksYk2/rf//t/b0mj4lxPNrcV7it14D1kyBD17LPPqiuuuEK/U5xO2yIJmSQUkydP9l7LhTeuUSjfvn17Ib9h2LBh6sEHH1QDBgzwXp/TmKRt61Aj0XBpW9u3c1pjeqUxSQHctX0q5s+frx544AFltlG6uJ1hXNpWybB++tOfqp/85CfN4+8L2s7Rxx+vdjXmZd8/PGNGoftUAu9PNKaRH/1o4LaObPwef1vz3KeS2UtBcMSIEd5rObYDBw705oO2c9Sxxza387E/+ZPctvMXv/iFOvvss70CoZjYmH7bmN5oTEWfo52+o9O2dVomstj2TsdNlv1NY/qC96qVbKtUGvlV2f/m1FMz3VZ/W4LW154HfOELX1Dr16/3CrVx9+klU6Z4r7vV6Xe3b+eXvvQl9fLLLyfaTpvHPs46/fxK/tcn23reaac1j/30xjUYtK1B500aaX+7v09PH9T3nPpzG1NWx96vCJXz9NF//+8Dt1X+QwKreY0pTn5V1PXU7q//+q/Vpz/9aS+tLWo7//hf/2vvtSlOXuWfo2HH3tZ2CtnWsHLFmsYkVVdSGSWmT5+unnvuObVt27bY15PNbYX7uMc7B1JQGD9+fDNBlotNarikhtwF0qolrbQDenqc3VapGVza+Cu11x9qTK5tp3SLev/999VnPvMZ/U4fV/fnlEaBpL1blEvbKtv029/+Vh111FHedko3rf/etyhwO6VlY5v3qli79Xl6SWP60BFHBG7r8MZ8Eds6adIk9clPflKd2gik3nzzTXXhhRd6vQqkIBC0ndISUcR2Sgvc888/7wUtQgo9QxuTVAK4ej2JTtvm8na3k20d17ieJJ0VRzUKvK5sq7SAyfkh+9HVfSp51Z133um1YLm6nZ3yq3Enntg89oMb21z0tn69MUkX3aC86kONvEFIGpHVdsbpgSRlKAml/m1jkvxKJr9bvKvnqeRVf/7nf+61LLt2nsbJq5rnaGMqcn9K2flfGpM0CImjjz7aq4iT4NrF6wnFI/CuObmPygwUXOPf5yOJ2acbr23VtNskBa377rtP3X333c1My1WSmUoNq3SJkkm6bk6dOrXlfkQXSAFbjrnf1UxakZc1JvPeeRf978b2SgttsTe+hHvkkUe8brDHH3+8Oumkk9Sll16ql7hDuu7LNvqVLhc23qOYAj+g9QMF15h5laSprrZilSW/OurII70WUWlJlq7mafKq/Zs36zmljhw+XM/ZJ4G3BIB+d2Ppwi3d+IPu53WF5FVmC7drypBXCemJKbdB+pUucv3LLXJAGALvmrumkTlIQPuv+l46x7x/VjrEtQ+w5oLvf//76lOf+pRXG1s2X/3qV719u2OHFB3ccfLJJ3sZrt/VTFo8z2pMLrRqh5EC7d+sWtXsleEa6b7/4Q9/2GuJkWM+d+5cdcIJJzRbkVwihS7/uvfvmT/eW4K6+vKXv+wFXuedZ+uuXbvMvOojH/lIvwHWXFHW/KrbvKpHd0vPguRSxzSmj3mv+m49+KM/+iNnWzblrJS8yu+V4Zoy5VXizxqTVBDJtvr3zUtlARCEwDsH0jXOv99LSAF969at6pRTTvFeF2XWrFlqTCODuEa/Fmm2Na9aZRl6orcxvdmYXNqn0i32L/7iL5q1nZLVSvc46Rrt6rEP4tq27t27t1nIkoKC3OMrgrZz+5tvqr47govzwgsvqN8fOKD+jX4tgrb1tcZ8Edsq9/OZLRwSKJx//vnqqaeeCtzOV99+u/B9KqTtQDqUSqHW5eup07a5vN3tZFs3Na4nv+vkuwcPFr6tkldJZZw/uJZweZ+aQaJr29meX0nrnNx6JEGOd+xff7157Pc3ttnF89Tfp+839rGQ/KHo7dzXmKRsIvxjLFw8TyV8lbxKAlqfS9sZJ69qnqONyaVzVO7rlmtLGg3Kcj0hXwTeOZDBFp588km1evVq77WM0rpr1y511lnShlcMKcjIPV7/7x//sX6nT7fbarNWWbrumY8PMQvgLu1Ts3XunXfeUZKkykisUqHh2rGXfWo+ssIcXMWlbT399NPVyJEjvYxWSEFB7vGVYViCtnP373+vTvVeFUcGK5KBqGTkdV/Qtr79wQeFbKsUAsx7p6VV4Ve/+pVXCAjcp42CV9H7VLbx+42/X2lMsl9du55MnbbN5e1uJ9v6D5s2qf+rX/9/L71U6Lb6edWCBQv0O31c2qfteZVZ+Hbt2LfnV9KdV55yIZUasq0rX3yxeeyXb9tW2LY+umZNy2PAgvKqFxrBo1jVmIrcp9J3QHrk9D1Asq8S9tVXX/VGC3ft+Iu/a0ySV8kAZj6XtjNOXuWfo0Ufe5Ns55VXXqluvfVWb9+6dD3BIY3Et7QamUZvI9OQKs+WqZGJ6P/IT9i2NAIwb/mSJUua7x177LG9Gzdu9N7v9BtWNP76U1qrx47tt441a9b0Hnnkkf2+8+8+/3lvedJt/enllze/Y9Ott3r/285fbm6Hacf99zeXr7/sMu+99u/7SGNaov9HpNmnNvjb6W+HSb67EXh7x72b7ez0HUL2s788bJ8HeeONN3qPPvro5nfNmDGj9+DBg3ppNvs06reEMc/TqGO/5vvf95Y93pj+8GMfay7zpzj7NOgcbBd0PQnZ1uHDh/f+r2uvbS73j0v7tj788Y97y2Vb015PUcLOj4svvrjlu+677z69pP92+r9FtvP0ESNaPieTrWPf/j/t6dP1bcuzuJ7iiroOwrZNdFqW5PqK+i3+se903GSZpFNBy8RfffGLzfeOGTw41bbGvZ46bUtYXuV/l619Gken9bUvy+rYxxV3nf7/me//9aWXNv//mEGDCtunL/zVX/U2wsLme53yKskf0m6nf47KFCTO9STL72lMA/V7RR3/qOtJfots53GNSdL3dnltp2xHVBoUN6/K8tj7aZhsa1i5wjzuMpnbKe656qrmso820rI02+qfgzLJfBB/uUxB4qwD+eiuFOKQ22+/Xc+5IeoiiMPGOsICBV+cwlEUG4lCnO2IWkdeorYjankcUesoUyIa9VviiFqHjfMnbqDQaR1xjouNdUTZfs89zXVsaGT8adjYDv/zMoWJ+p+o5XHYWIcron5LnONmYx1RbFxPNtjI4+rExvljQ17psb88y3XkJY+8xQYb2+F/Xqa0otaRV7kiSpz95S+XKYiNfQ476GoOABVzhNGF8AMHB3gCAACoGwLvmqOADgAAUG3m4LcHX39dzwHIE4F3zZkJ8Xuvvabn4Doy0FY2RtY/tGePnmutkAIAoOxoaAGKR+ANJ+T1SLKqIAMNl3ZkfTPwHnjiiXoOAAAA6B6BN5xj85FkAAAAAFA0Am8AAAAAADJE4A0AAABncPsZ0Kf3wAE913qbIcqJwBsAAABO4vYz1Jk58DGVUOVH4A0AAAAAQIYIvAEAAAAAyBCBNwAAsMrsEml2lQQAoK4IvAEAgFXmIEAf7N+v5wAAqC8CbwAAAAAAMkTgDQAAACBzB7Zs0XOM0o36IfAGAAAAkCueS426IfAGAAAAACBDBN4AAAAAAGSoMoH36YsXq9ceeEC/AgAAAADADZUJvD+6caN6+eqr9SsAQDcYAAcAAMCeSnU151mhAGAfA+AAAAB0h3u8AQAAAADIEIE3AFhids8ePHasngMAAEDdEXgDAAAAAJAhAm8AAFBJA4YO1XNKHdqzR88BAJA/Am8AAFBJBN4AAFcQeAMAAABABb3/9tt6rhH48ZSSQhF4AwAAAEAFmb19jhw+XM+hCATeAAAAAABkiMAbABxiPpKMmmkAAIBqIPAGAEdxLxaKcPD11/Vc6+BkAID4zMrz9157Tc+hzgi8AQBA0wf79+s5Am8ASMusPDfTVdQXgTcAABVh3qoweOxYPQcAAIpG4A0AAAAAQIYIvAEAAAAAyBCBNwAAANCm98ABPYe6YWA0ZIHAGwAAAGhjBlyMmVAvDIyGLBB4AwAAoFLef/ttPcfo/ADcQOANAACASjm0Z4+eI/AG4AYCb3SNWmUAAAAACEfgXXM27mGhVhkAAAAAwhF41xyjNgIAAFQb5T2geATeAAAAQIUxSjdQvEoG3rsff1w9f8EF6rUHHtDvwHUHX39dz7XWygIAgHyYeTG3jgGAXZUMvF+++mq1Z8UK7y+1euVgHiezVhYAAOTDzIsJvAHArliB99KlS1VPT483HXfccWrTpk16SZ+1a9eqQYMGNf9n5cqVekn6ZTZIBsJ9LAAAAACAIkUG3jt37lTLli1TBw8eVL29veob3/iGuvbaa9WhQ4eay6dNm6aWL1/uLV+yZImaOXOmF5ynXQags8Fjx+o5pfZv3qzngD6cHwAAAG6JDLyHDRumHnzwQTVgwADv9Re+8AW1fv36ZuAtgbME0JMnT/ZeS/A8btw4tX379tTLAAAAAACoisT3eG/cuFFNmDChGYhLED5+/Pjm6yFDhqjRo0erDRs2pF5mE609AAAAAMrGvGWWcRfKL1HgvW/fPnXnnXeq66+/vhkwAwAAAADsYsDDaunplRusDfPmzVO33XabNz9jxgz18MMPN4PsWbNmqZNPPlktXLjQey3k//fu3dvynvyffHbr1q2pll1xxRX6nWDS9X3Lli36VZ9zb77Z+7vq9tvVmXfeqQa99Zb3+oUrr1S/a2xz3vztEbJNadhYh7kvgtYhy+R/xIFjj1XPfuc73nwSn3joIXXCunXe/G9nz1ZvTJzozZuifouNdeQlajvyOPYf3bhRnb54sTcv57ec567KY3+M+5//U4343//bm9/07/6d2vHZz3rzpiTr2PK5z6nt55/vzZuirqc457GNdUSxcX7Y2I44xz7qf/I4f8ok6rfklR5HiXMORl0LNpQprXSBjfPHhjFPPKFOevppbz7L9DiP6ykvUfvDlWvBRvpiY59HrSPO/rKxjijyeVmPkM/Letp1cx6PGTNGzZ07V79C5iTwjuPiiy/u/da3vqVfHbZkyZLeRrDce/DgQe/1O++80ztx4sTeZ555JvWyNFY0fopMYvXYsc3XOx95xHsvjjd/+cve56ZO7d1x//36nfT87/e3KQ0b6zD3RZB3N21qLpf/TWP9ZZc11xG27/zlMgWxsY68RG1H1PI4otbx1lNPNZfLOeuyqN8SR9Q68joHo66nvNYRxcb5YWM7/M/LFCbqf6KWx2FjHa6I+i15XQtR4pyDUdeCDWVKK11g4/yxIc522EhL/eVZriMvUfvDlWvBRvrif16mtKLWEWd/2VhHFPmcvw5ZXxB/uUxBbOxz2BGrq7m0RL///vtqwYIF+p3Dpk+frp588km1evVq77WMgL5r1y511llnpV5m06E9e/RctJcuv5znfwMA0KUjBg/Wc61dJQEAqKvIwFuetf2LX/xCPfbYY2rgwIH9nrkto54vXrxYTZkyxXv/mmuuUSsawevgRqabdllR/AEMeP43AADpHTl8uJ5rHRwIAIC6igy8J02apA4cOCB9F1qm8847T/+HUnPmzGm+v3v3bu+xYL60y2yhph0AAAAAUKTEjxMrm7Q17S9ecol67YEH9CsAAAAA3TBvATVvSQHqoPKBd1q/W73au9cbAAAAQPfMwNu8JQWoAwLvDuimDgAAAADoVuUD74Ovv67nAAAAAADIX+UDb1qtASA57sMDAACwh67mAIB+uA8PAADAnsoH3r9/7jn1/AUXeBOjlAMAAAAA8laLwHvPihXeJKOUm6043dj9+OME8wAAAACASLXqai73e9sKvF+6/PJmMM995AAAuGfw2LF6Tqn9mzfrOQAA8le7e7zfe+01Pdcdfz0SdNtaJ4ByoxIOAAAAQSoXeEsX8E6BsK0WbwBoZ6Y9ZksbAAAA6q1ygbd0Ae/U6kTrNACX8RgvAACA6qlc4B0VWEuh9nerV6vffP7zDIwGwDlm4M1jvAAAAKqhdvd4S6H2xUsu8bqky8BoAAAAAABkqXaB9zvPP98c2ZSBkAAAAAAAWatd4C3P9QYAAAAAIC+1C7x5jicAAACAOmDQVnfULvAGAAAAgDpg0FZ3EHhbwL3iAAAAAIAwBN4W8GxwAAAAAEAYAm8AANBkjoVCt0QAAOwg8AYAAIEYiAcA0jHTT25LhSDwBgAAAACLzB5D3JYKQeBdc9TGAQAA9MdtFwBsIvCuOWrjAKA6qEAF+ti+FrjtAkC3CLwBAKgIswJ18Nixeg6oH66FVgOGDtVzrc91BpAfAm8E2vJnf6b+97HHqpeuvFK/E44WFgAAAHcReAPFq33gTdAYbMutt3oJ82v33affCWejVtlch5k5AAAAAEDZ1T7w5r7mYL0ffKDn8mFWgBB4AwCAou1bv17PAUD36GpugTnqJQAAAMqPxpn6oms+slD7wHv344+r5y+4wJsAAACAOvPLxq898IB+p34IvJGF2gfe//LNb6o9K1Z4EwAAAFBnL11+uVcufvnqq/U7AGxgcLUYg6tR8wfhnwcAAFSReevckcOH6znUjd/FngGIAbu4xzuCBFovXnIJNX9o1gADAFB1RwwerOdQZVVtXKLRDC4i8I4ggZZ/bwc1f/Xm0iAr5mPbGNwPAACkIY1KfuNSle5lNrvLl7n8bpbx0j6yF+4g8E6oDrVnVDAAAIA6q1tZSH5vlQJvs7s8o9PDFQTeCYV1Oa9SlxYSKAAAUGeUhQDYRuCdQnst6LYFC7gPHIAzuBUBAKopy4Ye8gsgWwTeFuxbv577wAEAAJCprO9d5pnVQHYIvAEAgFXmo6josoukzHNmwNCheg7C3zdZ3LssQTeBN5AdAm/AUNS9+jz2AkiP68c95qOo6AmGpMxzhsA7PwTd2ZF9G5VPkZdVH4E3YDC7cPn8hDBLQd8LIJ5OXS/l+gUAoEgSeEeV86ryCDSEI/AGDGYXLp+fEGYp6HsRn439Ztb0m611cJ95/bS3FMj1CwA4TNLMoFbVPAZXM7/DvCUlSy615Hcqr5h5mT+PaiHwBho6tWqT+LnPPEbmiN5JmBlzXoUB2Pcv3/xmS8GG6xft6M6ZnTj7tiz7v8ojfEsa6UKral6V3C4F3qi3ygbeJ8yZo+eQVB0fJ5FHq3ZcRWcQFEpRZrQUIIrZnRN2mft216OPBuYl5v8UHfjVWVBa+f7bb+s5AFmobOB92pIleg5JSNAlLUZZshHY2Q4Oiyyotxc85PF0RUpbKCVgr5YiugOiulxKF/z0nqDPPnPfSh4SlJeY/1Nk3ov+pOKf1mEgO3Q1R4tNN92kfv/cc/pVNmy0NpjrKFMmERScthc8iu5xkLZQauO4wk3c845uFZUu8Fiz4qTNSxBfFvuWwNsNXDfVROBdEnm1JGYddAsbmbG5DjOTcL3VNU4Xu6JbvNOikAXXcC66o6hjEfVYM3rpoMxsVyaV+VbDsve6k+03vf6jH3m/x/YxRrEIvEsiKlhDnziBbZHM4DQsMX33pZf0HIBuUGBBFPLWfFDBEU/eweOLl1xSmXSy7L3uZPtNW++4w/s9pE3VUpvA+4ynnko92rErOgVrdWbW0MYJbPMUlYnKcsn4THUc3K7O2s+ROtxbnXfhEp3V/XiQt2avzAFRnoKCxyyvz9+tXt0S2JW5m7lZ/isj0qB6qE3gPWDoUD2HuimyUGlmorIN7WS5ZHymPLr7wx2daumrem91p9+M/HE87KhrBUbc3122gKiIQCgoeMzz+owKvMtyjrefawS1cAWBN0ovKqPoJtOSTCZMnNZIMxOVbTDJsqDMoAyFk7oWMLMQVNCqujr+ZpdxPOKJSvfMvCbOvqxKOlrVipuirwf/3HDh+vTPVemhl+QcL0p72cr1tK1TWRPVwj3eKL2wwNtPaIMyrbgFHilQhOm2NdL1jKCTpAXMLLhYaDX3BSOBA+4JS6/idLE1072g9MfMa9oL/kGqErC6EBhWURHnhtzqFHQt+OeqvyzuOV6U7XffrefKoVNZE9VC4I3YzIKGi0FPu06ZQtwCj8sZS5HMglZR+8jFQqu5L3j2tX1x0x3/ONRlvIQypMeuCEuv4gTeZrpnI/0x11c0/xwK2z8oRhHnRtC1ULbz4pW77tJzdmWV1nLd1QeBd8mEXZx5FLzMgoY879uVoCdp4Vr2lUsFHqTDMayfuMFO3c4JFyuhqq5q6Y9/Dr27YYN+Jx+k37Ahr/OItBbdqnTgbXb1zLPbZ5YJwJs//3lggJ1HYmAWNPwBwMqYacq+ikP2c5YYvbxazAodZIPKlmDsl3LIo4I8Lf8c6v3gA+9vXuR7Xd4vriuyHOHSccsr7yWtRbcqHXiPufVW7+/wyy7LtdunGbDZfoSZ/1w/CbDNC7/OicH7b7+t56LJsYmbQMt+BuKSCh0y42h5FZDgLr/A7tK5EKerebdoLQtm7pc6p6F5nIM2/cs3v8lxAxKqdOA9+sYb1fm9verU++/X7+Sj/fFQWZBELqzQUqZaY78Atm/9ev1OcmGZVVBNsM1guuzPhYddBJTx2C6gSRqCcvCPvR9ouVRYl9unbOadQemB/x5BSitzv6RNR220vrZ/Pu9A2JXAO+4x8M/jbo5bmcn5YgO9H+uFe7xLzs9sTFnUpmeVMPgFsCIT7aISvbLVbtso2LjIRuVPWmS43ZM0JEwdC4PdyvJa8I+Hi8dFfnNQ3pk23SO4zpeNVnP/876y5dG2tI8Ibut69a+lIq5/G3lt+/lgsyEH9UHgnbGsu7j7mY2pTBm+jQS4rMFLGTJ1s7BpFmxM8lzPvINxycBtcaHyB+l1Om4EP8nV+VoIOl/89EH+onsSeGXBP2flGHZz/uaRZrheid2+/2ztE/9aKmu6XKaKGNfPsToj8M5Y1oO61bWAFMdbTzwRK5OXwBHBzCDbLNiY5NaKoJaiLNksBHMNVZMUPLYtWKBfAemQPvRnlmuSBlESeHVSh/3tB6DdtM6XEdfSYVkfd/Mcg1sIvCvKdk2XyzV9Ydv2xtKlkZm8yOOefFckrQWNmznkXXggA0cnMuiPVKgVcfsAwhXRO6adKz2kypyGmT35bP+OOgSi/j6T31qlvKzIVtay9Xw0j3sW5WvzHBPmd+T5lCf0lyjwnjdvnurp6VErV67U7/RZu3atGjRokLesfXnaZVUxYOhQPZcv2zVdZQy8s9btsT34+ut6Lj91rWkP0825QzeudPIoIMnjDl1Os+qqiN4xripz+mvmfVxn8fmBadnEzefM8kX7Z8p6S6DJZiWJWUmRxzVkfkeeT3lCf7EDbwmS7733XjVhwgT9Tp+dO3eqadOmqeXLl6ve3l61ZMkSNXPmTLVp06bUy6qkqMBb5JWx17VVqdtjm9fxMRP4qta0p9VNhkc3LhStjBU/RQecSa55STvTkludqsrM+2ze9lN1fmAaJk1+lEdAu+W22/RcZ2b5Is+8Ua5T6eUUxSwLpWEz7TIfxRZn25OgbOe22IH3/Pnz1QONk3XIkCH6nT4SOEsAPXnyZO+1BM/jxo1T27dvT70M8bhycRW9HVWoSc0S9/pkp+ggIq1uCyBpyDko3/n6j36k30G35Jou6zlYlL1r1ui5aN0Ela/cdVcuLVlFMFvMpHeJTZKfS/pke71p9B44oOfsiCorZX2+5NkQ5KdLfl7TPlK6TXKdxjlfzLJQ0demv3/kr+1znTzBbbEC76VLl6r3339ffeYzn9HvHLZ+/Xo1fvx4NWDAAO+1BOajR49WGzZsSL2sSrK8l+LNn/9cz2VLEk6CNvvyShzNWmi0KrrSqKjvL6IyRu7vle8sYyutq+SazvocGjx2rJ6rhiSF3G72rRybJIX7vCrCgirdklZe2yzXtH+3DIgoaUU3gZH/G7vtjdd+/Ivswejr5hwpYvv9vEYqorIS5zqVShT//5Jem4BNkYH3vn371H333afuvvvuZpCM+AaeeKKes2/rHXfouWzlPUiRC5lbHrIuMBcpy0KkrNuWoisjivp+swCSF9vnu5wHry5apF8B8WQ1mKYEe92Q4CRuy127oGA6jFnplvb6HzRmjJ6zT8oa3QZFfjde22lOFmWTpNvoaiNI2DFzpZxjYztc+S1R6AXqtn6Btz+AmkzS/fv2229Xn/rUp7xu4KinvGsG6xJ4V5lfsMuCrNsGKazavrcK+ZHzgOOHpLLKzySgbZemABz3flpTkmDaDx7k/9IGEq6Pihy0D1wdUCpp5UfaypKsla0FOc32urrv23E7l9t6emVksw5mzZqlHn30Uf3qsG9961tq4cKFXjf0Bx98UD388MNei7i0kE+ZMsVrIX/llVdSLTvvvPP0twSTz23ZskW/6nPuzTfruT6rbr9dzx125p13qkFvvaVf5WPb9OnelEb7b0rjg8a+PeLQIW8+aJ8IG9/je+HKK9XvTj5ZvzosyXc8+53vqAPHHqtfHdZpHf5vs/lbomw//3y15XOf068Oi7sNsp8+unGjfhUu6LjJeSzns5B9JfssTNj2xN3P3exb+az5ubBzMErUd5v7Ms45KNtx9vz5auDevfqdVmHrCEpDwvZP2P411yHfc/rixd68kHWZy8PWESXq/Ig6JkM3bFAT/vZvm2lH2u2IOm7tgrYl6TqiBH1HmQSdZ/6xFmmuhU77OO2xF0mOXZbHJe12xP2cuc9N7fvfXF/7cTMl3Rft6+10vMz/3TtqlHr9nHPU2+PGBW5L2Plzwrp16hMPPaRfdee3s2dHritJehwmbL8EHWN//8t2yW/1xVlH2LEb0AjaJv3X/6pfHWb+NjmHzPwgDrOMae6PsO0I+r02yO9o33bZhqjvS5u+JP0db0yc2HIs27c3aH+156Oynzudq0HrkDx08ne/q191L8l57Pu/l13WMT8fM2aMmjt3rn6FrEUG3qag4FhGJ5fW8Mcff9x7TwLxG264Qb300ktqb6NQm2bZ4BS1qU/39Oi5PucH/Kw1je/LuwvGqfffr4Y3Tvo02n9TN6S29zM7duhXrWx+z9kvvqiGtI18L5J8xzmbNgXeV9hpHf7xtvlbooy59VY1dt48/eqwuNvw4U9/Ola3wqBzWc5jOZ+F7CvZZ2HCtidoP0sr8G8+/3n9qs/QqVPVsC99KVULtmy7+f1BvyWOqH0q2+i3hJ/x1FPe63bt29FpnWHrCEpDws69sPPYXId8j9l1XtZlLg9bR5So8yPqmPzDiBEtrWFptyPquLUL2pak64gS9B1lEnSe+cda2L4W0h57keTYZXlc0m5Hks8FOW3JEnXCnDn6Vev6JK/89Wmn6Vetku4Lc71Rx6v9N0nrtWyLeQ75ws6fXY8+qv551iz9qjtSRgrqLWBKkh6HCdsvQcd4yrvvevtFtsvsvh9nHWHHzkyTTeZvk+s26a1UZjnE3B9h2xH0e20IKs/INkR9X9r0JenvkHK4eSzbtzdof7Xno7KvO52reezzJOexT8r/NvJz2BF7VPMww4YNU4sXL/YCcumefs0116gVjcRDgue0y2BfXl3DXO+C5pKiu2bJvfvt9wQGZSpl6NKb5r5IhCvLvWyAyzp1TXXlGpNtTDoeR9VvByvq2JStu7apbHlwmu2NW8njGvJztyQKvGXk8WeffbZfV/A5c+Z4z+KWaffu3S33g6ddBruo3aoXf7CdzQEt8j4ZZEhasc3MJCyBdv3epjIXWExyzLLOJMmEgXyU5Z7QpPeVu3q/tC1BldJ5SJOPHXz9dT3nHpfymm4HPwRs6brFG525kkExYFm9+IPtRBWopGDod0tF/toL5nIssi6slyUYQDrm8aUHUrHk0VhFBHBZq/p5FVQpnRX5nm7OEZfTc5e2jQpnuILAO2OuZFCdAm8KZ+l0u9+yyNT9lu4kmczbTz+t55A31woD/vmD8jLPqaq3TLpO0vg4I42XTR160Nk+ZmFpvTw+rYrnCIBgBN410akAJgNGlJ0EC3m3LLhYqPVbupPIssW7iq09VeMH23Ks0pw/tpiDUCG+qtxmUVUSUCWtYAtLN81rNQ2b3W3rUGEvQbEtnQLrNOeIT44p+Wz2JJ3dce+9+lVxwq47GtDKg8A7Y6508f7QMcfouf5G33ijnisvCRak1rju0mTeWXan45h0Jl1Ri+YH23Ks0hb+bJDRjZEcgXf1mC2gQRVjndLVTum5fN4WWxXPeXTnTqvI9DAu2UbzfEE2JJ114XwIu+5G3XCDnoPrCLwz5krgXYcuh3XKeMzaTVu/O4tMhcJAZzZbVMJIgcFsJWs/Jv5xL/pYUWMfD/up+uRa9K/LoIqxtNdq0jSeQVmT67ZXQhrm+YJ6Cnq0LdxE4F0TDK6WnzwKxmZFiq0Mt+jAq8xsduG0TQJvv+DuSq090rNRiZpFxV1V+AGTKy2x3QbbyFd7rwQ/EI/KI+Q4V633isu9GYCiEHhnzJXWCQLv/JS1d4GM5Ooq11v5bHbhzIoU3KtWsINSbz3xhJ6LL4uKu6rwK6hsBrpB1x3XYjW1V5T4gfgrf/EX3uswpM/uodyMLBB4Z2j4ZZc5E4TRZcy+qiXK//LNb+o599geAFBaIGyRFrKyBC+ynXl0b0d+tt5xh56DDRIA/ebzn7c6/kKawNt2a6HNigTE5+cNvQcPen9RHgTeyAKBdwfdtLJJ0O3SYEEkIPZVaZ9KNziXg0fbAwBKC4QtfpfCuIosAEthP+rZ7qgXuoP2J71/8rxHNw9lqRxEOhxfoBwIvDsourXaZvfaooNE17sK110Zukq7KmkgXeS1IIUzCmjVlvR85HxAGrSg29VtBZg5+B4Ad9U28A4KRKWV2qUAsQrP1/aV9b7nuiDDzk8et32EpWPcQ1h9Sa9lF1q8q14xK7fxJG1BT3utyuf8Ab1eXbRIv2vfSddeq+fggt8/95xzlSFUzgD9EXhr5/f2el3D/WB35FVXeX+LVIXna9eRzd4FJ8yZo+c68wtacF8elVBh3/HuSy/pOaDPgS1b9Fxxql4xK0FR0ltS/AA6jJ/mtwf0O//+79WLl1zi3U4jAb8fwNsOgmyVT+IMDljWMWqqdrtCUnEqAat0yx4QR20D77AadslMJAgff889+h0gGZsZyWlLlui5zvyRU+G+IoMMBlaDMNOoXY8+queKU/UWb5Em8O10C5Cf5rcH9G8sXdoSbPtPq3C1V1PRT9PI8txLUtkix+z9t9/Wr+ojbXmpDmkGqqm2gfeHP/1pPZeMdEePg0ShVRVbNLKuhY97rgm6ikdz5Zr80DHH6Ln8+QXypGiVqBbzeGaZdsS95qre4h1EWqY7kaC507Hxl0UF9NLajnBZnntJKlskbU6bPtdRlW7FDDJu/nw9h6qhxTuhE7/yFT3X2cATT9RzEFREJCNBvUuj4leBK90Vk2yH7esmbSGcwNsdZQpS4xaO65g/dOpGLmxViOxds0bPIQhpW3aiKpe64fdOHTp1qn6nWupYGVkXlQy8j7/4Yj0XLk5GH1RAdqXwjmrjPLPPlYws7nbIOBNkvmhXpiA17n3AnOfZocW7MwLv7ERVLtnA8UPZVDLw/uQjj+i5cLRIA/mKO1BcVlypzIgbZDDOBOqCHlHZ8Uet53ntwVyp9Dn4+ut6rnt1CkYJvFE2te1qjnzVqQWX1ptgcQeKy0qS45JlIMD5AbSiIrw/m4EYwrlS6ZNm8L0wdQpGq5qfUhlZXbUNvG0mTEkGwUJ1hJ1DJJjFCsuIkxTus8zMCbz749aKess6zSxjmlz0aN91MWjMGD1XHXUKvHsGDdJz6cW5PTVvacoJlD3LgcA7ofYT23/+N+ony8ytThmnbWGZD8Gdu6iMyJdr+zvr7SnjCMjcm50PV4IVafG2Nap5ncoPNvL1OLenloGLFQjor7aBd5qMXu5Rjfs5ap5aEUgmw/6yj+AunTx69HBs8pVn/hTnu7LeHhnkre4V5NzjHcyVtEdGsbcVeNcpPa1CWTvub4jKi0fdcIOeg8sqE3h/MGCAnotnyIQJei5ce/Bz7Oc+p+ei1SHhk0Qgbm1jkc8uBgTBXTp5BCx5HRt6PeRPRuePwrWZrecvuEC99cQT+hVMrlRySw+HfevX61fdSROMfvjTn9Zz5VKFtCOoR07QMYzKi8t6DOumMoH39vPP9/7abJ2pa6ujf/FGXcR0sUeZEHS5i8G1quvoM87Qc+Gq0Grlsj0rVnDPeAhXynnS2m3r2e1pgtGytpaWrZwelNb5zyQ3URlZXZUJvLdNn574fuuyZfby++I+F7UbJ117rfddH7voIv0OkqjiYC1VkWdmRjARH5Ui8VXxvMrjuqQgiyBVPC/SDDhW1v1QtsCbwZhR23u8hV/DV6YLIUl3927ZTIgp9CTD/spGXkGLpCkcw/jYV/FVcV/lcV1SEYYgVTwv6lSRWbb0kN5dqHXgPXbePEYl7yBOhhR3MJAyZ25xxgOwzcYjMlAcBjlJJq/CEwG+e6ikQlo2nn1Nb5tyq2qFWtrfVdX9USW1DrxtqtvJ7vcSsDUKp6ukYubsF1/Ur4B4yPySySvw4rj0ceV2mDwrvjn21WPrmFbt3LBdmVDX8Y6yEPfYpM0T/YHaqFByV60Cb7N2NE5C2/4/nT7TPiph1RJyU5rCUpX3B9CO8z2aX5hL8phGIC3OMYSp2rmRJv/ptA9koF2X87Q65Ldxb4n1B2obf889+h24plaBtwwaJuJ2bWu/F6PTZ9oHPSOTb9Vpf1Qt0bTxe+qQkVQZ13+04y++2CsgnLZkiX4HVURahqzQEhssTf4TdZ1+/Lrr9Jx7/G077sILvb9J5N0ynPacTdrYRRnEXbUKvP2aIO7pTi/OM1mT+ujkyXquGmwkeCSaAKqAtAxZqVvgHfdasl3ZJfs5z4F9kxo3f75Xtv9Xv/ylfsddSc7Zbo4j6a67uMe7ZPLIaMIu2Ky6r3AvCuKwUZio+pgEth31iU/oOfsoGCBPnG8ouzh5YBaDFUq5s6rltLzThU7HsH1ZN09eIr1zF4F3yeQRePsXv82ENo/tti1NYofs+OModDPKvCuBt41KhDxMevllPWdfESP3lzEdgh1h1xzpfHnV7XqOE0yd+JWv6LlgYddBWfKkJOL8Jlu/O25v0E7H0C/j+Ovq9slL5HduIvBGLsqYAHBLgluqNGhI+2CMCGezQEhBpE8VC9lpnLNpU790/pOPPKLn4Lq6Xc9xrtuofRKU90S1kpc1vYiTz9o4h6SRyka5xHYZh8eauonAG04wE3YKheUrUBDQHBanVaJ9MEYXZTGegylujxoqKVrZ6EJoYx1lZCNwAVwWdf5K3iMVTqaoRob2gYbLIk4+m/f13p72ZtnjRn6/jEgPtxB4d9BN4YTgMRmzi03ZC4VpEvL2IKRshT//iQF1E5RpVqHgLtehKz0LylBJkaciuuhXBS1A1VK3CiRbt/9RPj3Mxr5Ikue3f1/WPSuDto3jXywC7w66OTnr2qIQJirDkMJ1VboRpwm85FnGZZZnQm6r8JHGB/v367k+QffTVeHaL2sLB9CJ3DOZBRcLsmf+4z/querKuxKqm+Oc11gCcbaxTuXTqP1hI68rW2U78UmxCLxROFcSgaFTp+q5/H3soov0XDnVJSGP07JPphZPkRUogE0y4OMZTz2lX7mBLqZ2ddMbr5sBskxRAV7UvdppSVrtYuVSHHnkx0n3TdkCddhF4I3CudB10lbGGJcU0vwutMdffLHzzzIva6Zrm4v3jGWhqpUHnMfJdbvP6tAaREE6+DzJupU3ybHq9jx2oTfeh445Rs8Fy7IMU9Y8IWq7bVQAJ903fgV+Hr0gSJvcQ+CdgAuFtjSJRNKL2/8O2y1SFHoPk8Rw3Pz5XsAfNIqu7X3frawH2qqSKnTTzuJabT+ni0gP6EKfjI0xN1wr+JnnXdA5mOa8LOJc7iSvW5fM391+/3weldlJ9ntZA0d0x7VrU3T7mLAkCLzdQ+CdgJ9wu3ghh/nMjh25tuR22jd+xpzXvU4uK1NiKIXvo884Q79ClCoU8PJI49Lupzrcu5q1OOmPVAhWYcyNdv5Anja75eZ1zce9Lk9bskTPZcscFDWr++dxmNzSUIQy52lRjRg2fluZ9w/yR+DdQVjhxMxsXGazYBGH1LJ3+r48a/my1ul3FpkI275PXbrEu1b4dj2Tq0INs8v7mBr87sXZh1Xdz/5AnrbzoTyuGdcerdc+KGrejRKu9QzLWlHpcpkam9pFpWM2fhtPmkASBN4dhF2wYSNwmxewrYSqm/XknUkf+7nP6Tk3THn3XT1nX6cMsMyZVBm4tH+D0gjXKwaKlEUaCRRNrvlO53PSlsqgSn2pSPfLHq6mMWl7tZEWtOq0P8KW0ZMwWNR98TYqGF2upKQ84h4Cb4uy6MJWltb1bmSVMGSZmWeR0Jrbm3bbs9qXdWtZiCurwLvoQlRW51EWaWTdZJmuIV1a16nFK6iSXs7/sOMY9P/CbKHPc3CmJNL2auP56ofJQKud0sagfSXngY0eHGHnpMuBZZSofCaPwLvINJvWePcQeFuURRe2sNZ1F6VNXMpYkMwiELURlBS1LwmiDrORkdvuBhtE0pUwWZxHsl+ySCNFGdOQtLjWinPOpk16rlXSa17O/w/279evksvqOspDUN4pAXvYvu2kihXCUWmZX7lhSpP+BX0mrJekf36n+Z6wdWalfRujtjnNb0rKLNsBBN4V1m2CkvTzLhUI/R4CQb/BRu+BpL81ToLrYmEq7jmQR+ZVBlHjHLgiahuzOJ7dVEiY2xO0bXFbzOi5gW6EXTc2KtvyUNTgXKYTv/KVjpV+VZM0P0iTRqV5WkPQbQF+GSRMGXom+EGuX87rtD+7aeQwRR2zMleUwT4C7xLqVCiWZ0KLpAlKUMHWRoJUBEng/B4CQUG2ZB5BmUuSwlPUfUOmPBPcTudGGt2cAx/+9Kf1nH22f6ctro1zECZo//nXiq3CiE1RvUGCWoEAm+TcczXdiUOu76BHV7oiTcBZhuNhbmOc7c3rNyW5LcDfpjTpbN55iR/k+mXAsHJdnuWyIpW1HF9lBN4l1KnW8Q/+8i9TJShRBduySvIYrCSBd6d9FFaASJoBp+HSc4r9+xCzEFRbj/iCzj+/QsrFwkh7i0FehdOqyjONTxNQFc08vySNibou5De6/jslbygib2+/Vm3uJ1u/p5tu/+3an6Fu/v44ve1cysNFt2XCotPqoHKd7XJDEddVXOSV7iHw7sDVjDSLYIOuMMmkOTdsV27UOUFNUltfBvLYtizJvjK5XFCIw7+WkE6ctKMs3aezYFbs2UhjXLnekh5TG3lMGa5Vm4/hlK70JvPYf+yii/RcOBeuO/O4pzn/j7vwQu9vnIqGrLVfe1mUGwhukQSBNwpXxgJemm22Xbnx8euu03Od2bivL01FQ1UL7mYmS4Ybn819JddS0Po4HunPz/YAqarXbxydKvaC9mlUYJ3mvMzqXE5yXG1UGMi1miUb+6m9F2E3536325Pmu203EvlpQdrA2e89Jd29szqP48rj+4v+jSgXAu8EXCmIuFJ7bkvc/RqWuHWqrbaVIbV/twvHIOh+4vbtkpFiixoR35XrxTbbPReKUMR22/7OoMKhX4DOcnwBl8k5ae6XJPvc1R5ermkP0kSagnfUZ7K6RoO2v8z839NNq7WkF346IteQzdukkh7HTv+fV57qNxLYKDtkdR4nkeV+c70cQLruHgLvBFwJJFytXct6u9pbZHy2uw0FMb/b5YQ26Bjksa2unpNZ6NRzIe2+znv/+d9nfm/ZjmFQ4dBvqQwbRMrlAlK35HyUyWahuS6SnPv+OdbttROWn2XNPz9clGY/2rrtSK4Xfz2yTlvpYdL1dPr/qlZmZy3L594XdR2nlcU+QDIE3ugoSaaRdaFWCgxB22MzYwvjF1biZvBpviMreWxLkQFNFfZ13vvP306/0OB6rb0tLp0rtlX5t2XNvw6SdK0NunaSHIO8A+D2oM3cVlfOHZda49MGVO0tjEn3bRlaKMuW1tiqnKkC9kHxCLzRkZ8RulJLFpQZJgkY8gow8thvQRm0jQzRxQJZJ2kLSHXmj5zrF/7JjMsjLP2qQ8VJVvzrIEkvgaBrx2bgaLt1s319QRUHpiMGDdJz+ZEASW6PcoEcXxvijFLebZ6b97Ufleea51qVWunbR6wH0iDw7oCCjHs1hUlbCdqPYV6/o6j9FnTOJq1BDyqQuRyAJykglaEiAejExjnMfX/Z8NP9dnH3t1lRm3XAElRxYDru85/Xc3aVIU/JW1QlSJS896V/7oSVxaoaePu3I5QJab17CLw7cDljMLctbL4sskyYy7g/ihZUIEtTGHCRX8BJO1qrTUVet0Uczzy/k+s+uSwLaByPeFyp4BbHnH++nrPLPxeS9Aor6vyJ+73m/7V/xkz3wq6xqEoQuKFKlQgoDoF3SZmZVre1pUVzKTErKoO3KagQYPt3lXU/+QUcFwaeKvK6LeL49eTYdbWM6aALgtIOG1y7ZanKbO1jm8+2DhK3V1jS0fltiltR2yktL2teiT4cP9hG4F1SZqZFbak9ZS8gSqYfVAiwee+hiLO+MnVxKuK+wqyv204FhroWJmix6CyryiAzv6IgG0+ac1XSMRvpyfEXX1zYI/naz4+4laRZnFdxK2o7peV5nO8up2tl7+oct/LFVaS37iHwRlfMi9rFCzxphlTUvdlpBBWM5RgEFQLkd42bP1+/6p6sD/25VAAyg6h2NoOqMqly4G0j/c2jEpfW73hsn6txr3kJ3sMex5eHtGmTq2laHttV1nStDGlAUOWL6+VeU13zepcReKMrWbWQJBWW+FHQPszPQDpJmxGSuPdx6XzLI4iCO7q9BvMqQJapctOmogvorgcIqI6451pZ0wBXyr0oJwLvCGRWnblSuKcVpU+352un49hp3Vwn3ctzHxZRWMi7UoJzsrP2/UMBMltZ5VHmceScb+XC/rB5XZXh+AYFo1U7L6nURjcIvCMQ0GXDdmGhrq0opqxrX6t2Ldg+B7uV571kRfzevANv/3xFMPZPvpLmUXHT8rK1vuWZDriQZ9nKZ9qPr2v5lwg7vylHF8uV8wN9CLwjENBlI8/CQl0SnazP0apdC64VWIPuJbPJxYJalvzztWpsHTvZP3BX3KcAlK31LU7gbfMcL2LfhKW13eQz7b+hTBUulKOLRcWHWwi8UYg8CwtVTnTqEEBlpW7dxcrWMmZLWCG4rOp07FBPZc+zu01rP9i/X8+FcyX/ogziPio+3BI78J7XOHA9PT3eNGbMGLXfSBjWrl2rBg0a1Fy+cuVKvST9MsCWKic6LhdQyJDdUreKBl9dKhzSXG9Vq5RAuDI91qnseXa3ae1J117r/R0yYYL31+UKiKRlENIZ1F2swFuC7nXr1qmDBw+q3kZismXLFjVYXzw7d+5U06ZNU8uXL/eWLVmyRM2cOVNt2rQp9TIA8RRZQOmUgZYxyEkbhKT9HPJRhwqHtNdbXXtBlAHHo778NOvsF190Pu1KWgah2zPqLjLwlgD5pz/9qfrJT36iBgwYoN89TAJnCaAnT57svZbgedy4cWr79u2plwHIjq3gsD0DNdebd0HBRvDrByEyuFmSQi/BSzxlanErm7TXW117QZRBnpV4ZtfmPL8X9UO3Z9RdZOAtLdC//e1v1VFHHdXsEv7tb39bL1Vq/fr1avz48c2gfMiQIWr06NFqw4YNqZcByI4fMHerPQMtsiY7bdBs8oOQpIObEbwAKDO/a3PZKw+pNADgusjAe+PGjeroo4/2/kqX8DfeeEPde++93I8NlJQEzFkosiY7bdAMAHWXdeWhjR5JcdiqVM4SlQNAvfU0gumW563I/dy33XabNz9jxgx1YyNBvuyyy9Q//dM/Ne/rnjVrlrfsiiuu8P5/7969auHChd4y4S/funVrqmWy3k4efPBB7z5zk7TEt/0UVNi5N9+s55Radfvtei4ZG+soK/O3m2zvhzrvY7Qe/xeuvFL97uST9SukNeitt9SZd96pX/Xh2nLL5O9+Vx1x6JA3H3VswtLIj27cqE5fvFi/SneMze349U03qYMf+Yg3n7eTnn5ajXniCfXGxInqt7Nn63fta782XLwuRi1f7k0mrl8USQbMnjt3rn6FrPULvNvJyOMXXXSRWrVqlXcP9r59+9SUKVPUV7/6VS9AXrp0qRcIP/zww163cX/53XffrV555ZVUy8477zz97fHNnz9f3dTIWFAPT/f06Dnl1dSnYWMdZWX+dpPt/VDnfYzW43/GU0+poVOn6ldIa//mzWpNIy82cW25Zesdd6hNjfKI3PoS1QsnLI3cs2KFev6CC/SrdMfY3w7pQl6HW2Harw2XrwvyRqCeIruan3766WrkyJHqqUahSbzwwgvq1VdfVRfoDGH69OnqySefVKtXr/ZeL1u2TO3atUudddZZqZcBAKqFgedQF67c+sL4E+6iyzlQT5GBtwx6dk8j87j66qu97twXXnhhs/VbDBs2TC1evNhrrZbl11xzjVqxYoXXLT3tMgDZItNH3jjn7GivwChiMEMA3TEHBAVQH5GBt5g0aZI6cOCAdw/17t27m0G3b86cOd6yoOVplwHIDs/SBMqpvQKD1sxq4vF7yZVpnzEgKFBPsQJvoIrq3ALHszQBAACA/BB4o7bo6gUAAAAgDwTeqC26egHZMnuVcI83EB/XCwBUD4E3SolCCeA+v1eJjCXAqOZAfFwvAFA9BN4oJbqJ20MlBrLC44wAAAD6EHijlOgmbg8jnANAMaj4BID6IPAGao4RzgGgGJ16bxGUA0C1EHgDAFAiBGTV0an3Fr2RAKBaCLwBACgRArJ6oDcSAFQLgTcAACVCQAYEozcIAJcReAMAAKD06A0CwGUE3gAAACg9eoMAcBmBNwAAAAAAGSLwBgAAAAAgQwTeAAAAAABkiMAbAAAAAIAMEXgDyAyPdgEAAAAIvAFkaMytt3p/R151lfcXAAAAqCMCbwCZGX3jjd6jXcbfc49+BwAAAKgfAm8AAAAAADJE4A0AAAAAQIYIvAEAAAAAyBCBNwAAAAAAGSLwBgAAAAAgQwTeAAAAAABkiMAbAAAAAIAMEXgDAAAAAJAhAm8AAAAAADJE4A0AAAAAQIYIvAEAAAAAyBCBNwAAAAAAGSLwBgAAAAAgQwTeAAAAAABkiMAbAAAAAIAMEXgDAAAAAJAhAm8AAAAAADJE4A0AAAAAQIYIvAEAAAAAyBCBNwAAAAAAGSLwBgAAAAAgQwTeAAAAAABkiMAbAAAAAIAMEXgDAAAAAJAhAm8AAAAAADJE4A0AAAAAQIYIvAEAAAAAyBCBNwAAAAAAGSLwBgAAAAAgQwTeAAAAAABkiMAbAAAAAIAMEXgDAAAAAJAhAm8AAAAAADJE4A0AAAAAQIYIvAEAAAAAyBCBNwAAAAAAGSLwBgAAAAAgQwTeAAAAAABkiMAbAAAAAIAMEXgDAAAAAJAhAm8AAAAAADJE4A0AAAAAQIYIvAEAAAAAyBCBNwAAAAAAGYoVeC9dulT19PQ0px/+8Id6SZ+1a9eqQYMGNZevXLlSL0m/DAAAAACAKogMvHfu3Kmuv/56tXHjRtXb26vWrFmjbrnlFrVp06bm8mnTpqnly5d7y5csWaJmzpzpLU+7DAAAAACAqogMvCUQHjx4sBoxYoT3ety4cWrgwIHevJDAWQLoyZMne68leJb/2b59e+plAAAAAABURWTgPWnSJPXJT35SnXrqqerNN99UF154oZo3b54XJIv169er8ePHqwEDBnivhwwZokaPHq02bNiQehkAAAAAAFUR6x7vRx55RE2cOFEdf/zx6qSTTlKXXnqpXgIAAAAAADrp6ZUbrA3Smn3bbbd58zNmzFCLFi1Sp5xyinr88cfVeeed5w20ds0116hnn33Wa/WW/9+7d69auHCh9xkxa9Ys77Nbt25NteyKK67Q7wR78MEH1ZYtW/SrPkcccYT64IMP9CsAAAAAQJgxY8aouXPn6lfIWr/Au50E1uvWrVMPP/xws1u4GSBLIC6BsL983759asqUKeruu+9Wr7zySqplEuADAAAAAFAFkV3NJ0yYoJ5//nl16NAh77WMRv6rX/3KawUX06dPV08++aRavXq193rZsmVq165d6qyzzkq9DAAAAACAqohs8RbSwv3oo4/qV0rdd999Ld3BpdX7kksu8eaPPfbYZjd0kXYZAAAAAABVECvwBgAAAAAA6cQa1RwAAAAAAKRD4A0AAAAAQIYIvAEAAAAAyBCBNwAAAAAAGSLwBgAAAAAgQwTeAAAAAABkiMAbAAAAAIDMKPX/A3WjBCGz1Vn+AAAAAElFTkSuQmCC;strokeWidth=2;imageBorder=default;" parent="1" vertex="1">
          <mxGeometry x="669.46" y="390" width="173.69" height="106.5" as="geometry" />
        </mxCell>
        <mxCell id="f6CLLwjRCBaYlmEwOCbh-25" value="" style="rounded=0;whiteSpace=wrap;html=1;strokeWidth=2;fillColor=#FFF2FC;" parent="1" vertex="1">
          <mxGeometry x="90" y="450" width="370" height="120" as="geometry" />
        </mxCell>
        <mxCell id="f6CLLwjRCBaYlmEwOCbh-26" value="" style="rounded=0;whiteSpace=wrap;html=1;strokeWidth=2;fillColor=#F0FFED;" parent="1" vertex="1">
          <mxGeometry x="350" y="480" width="100" height="60" as="geometry" />
        </mxCell>
        <mxCell id="f6CLLwjRCBaYlmEwOCbh-27" value="" style="rounded=0;whiteSpace=wrap;html=1;strokeWidth=2;fillColor=#F0FFED;" parent="1" vertex="1">
          <mxGeometry x="225" y="480" width="100" height="60" as="geometry" />
        </mxCell>
        <mxCell id="f6CLLwjRCBaYlmEwOCbh-28" value="" style="rounded=0;whiteSpace=wrap;html=1;strokeWidth=2;fillColor=#F0FFED;" parent="1" vertex="1">
          <mxGeometry x="100" y="480" width="100" height="60" as="geometry" />
        </mxCell>
        <mxCell id="f6CLLwjRCBaYlmEwOCbh-29" value="" style="endArrow=classic;html=1;rounded=1;exitX=1;exitY=0.5;exitDx=0;exitDy=0;curved=0;strokeWidth=2;" parent="1" source="f6CLLwjRCBaYlmEwOCbh-7" edge="1">
          <mxGeometry width="50" height="50" relative="1" as="geometry">
            <mxPoint x="640" y="350" as="sourcePoint" />
            <mxPoint x="560" y="220" as="targetPoint" />
            <Array as="points">
              <mxPoint x="560" y="140" />
            </Array>
          </mxGeometry>
        </mxCell>
        <mxCell id="f6CLLwjRCBaYlmEwOCbh-30" value="" style="endArrow=classic;html=1;rounded=0;exitX=0.5;exitY=1;exitDx=0;exitDy=0;entryX=0.5;entryY=0;entryDx=0;entryDy=0;strokeWidth=2;" parent="1" source="f6CLLwjRCBaYlmEwOCbh-11" target="f6CLLwjRCBaYlmEwOCbh-12" edge="1">
          <mxGeometry width="50" height="50" relative="1" as="geometry">
            <mxPoint x="660" y="330" as="sourcePoint" />
            <mxPoint x="710" y="280" as="targetPoint" />
          </mxGeometry>
        </mxCell>
        <mxCell id="f6CLLwjRCBaYlmEwOCbh-31" value="" style="endArrow=classic;html=1;rounded=1;exitX=0.5;exitY=1;exitDx=0;exitDy=0;entryX=1;entryY=0.5;entryDx=0;entryDy=0;curved=0;strokeWidth=2;" parent="1" source="f6CLLwjRCBaYlmEwOCbh-12" target="f6CLLwjRCBaYlmEwOCbh-26" edge="1">
          <mxGeometry width="50" height="50" relative="1" as="geometry">
            <mxPoint x="660" y="420" as="sourcePoint" />
            <mxPoint x="710" y="370" as="targetPoint" />
            <Array as="points">
              <mxPoint x="560" y="510" />
            </Array>
          </mxGeometry>
        </mxCell>
        <mxCell id="f6CLLwjRCBaYlmEwOCbh-32" value="" style="endArrow=classic;html=1;rounded=0;exitX=0;exitY=0.5;exitDx=0;exitDy=0;entryX=1;entryY=0.5;entryDx=0;entryDy=0;strokeWidth=2;" parent="1" source="f6CLLwjRCBaYlmEwOCbh-26" target="f6CLLwjRCBaYlmEwOCbh-27" edge="1">
          <mxGeometry width="50" height="50" relative="1" as="geometry">
            <mxPoint x="280" y="420" as="sourcePoint" />
            <mxPoint x="330" y="370" as="targetPoint" />
          </mxGeometry>
        </mxCell>
        <mxCell id="f6CLLwjRCBaYlmEwOCbh-36" value="" style="endArrow=classic;html=1;rounded=0;entryX=1;entryY=0.5;entryDx=0;entryDy=0;exitX=0;exitY=0.5;exitDx=0;exitDy=0;strokeWidth=2;" parent="1" source="f6CLLwjRCBaYlmEwOCbh-27" target="f6CLLwjRCBaYlmEwOCbh-28" edge="1">
          <mxGeometry width="50" height="50" relative="1" as="geometry">
            <mxPoint x="290" y="470" as="sourcePoint" />
            <mxPoint x="340" y="420" as="targetPoint" />
          </mxGeometry>
        </mxCell>
        <mxCell id="f6CLLwjRCBaYlmEwOCbh-37" value="" style="endArrow=none;html=1;rounded=0;exitX=0.021;exitY=0.955;exitDx=0;exitDy=0;exitPerimeter=0;entryX=0;entryY=1;entryDx=0;entryDy=0;dashed=1;strokeWidth=2;" parent="1" source="f6CLLwjRCBaYlmEwOCbh-12" target="f6CLLwjRCBaYlmEwOCbh-24" edge="1">
          <mxGeometry width="50" height="50" relative="1" as="geometry">
            <mxPoint x="520" y="340" as="sourcePoint" />
            <mxPoint x="570" y="290" as="targetPoint" />
          </mxGeometry>
        </mxCell>
        <mxCell id="f6CLLwjRCBaYlmEwOCbh-38" value="" style="endArrow=none;html=1;rounded=0;entryX=0.976;entryY=0.039;entryDx=0;entryDy=0;exitX=1;exitY=0;exitDx=0;exitDy=0;dashed=1;entryPerimeter=0;strokeWidth=2;" parent="1" source="f6CLLwjRCBaYlmEwOCbh-24" target="f6CLLwjRCBaYlmEwOCbh-12" edge="1">
          <mxGeometry width="50" height="50" relative="1" as="geometry">
            <mxPoint x="850" y="350" as="sourcePoint" />
            <mxPoint x="610" y="400" as="targetPoint" />
          </mxGeometry>
        </mxCell>
        <mxCell id="f6CLLwjRCBaYlmEwOCbh-39" value="" style="endArrow=none;html=1;rounded=0;exitX=0.029;exitY=0.031;exitDx=0;exitDy=0;exitPerimeter=0;entryX=0;entryY=0;entryDx=0;entryDy=0;dashed=1;strokeWidth=2;" parent="1" source="f6CLLwjRCBaYlmEwOCbh-11" target="f6CLLwjRCBaYlmEwOCbh-13" edge="1">
          <mxGeometry width="50" height="50" relative="1" as="geometry">
            <mxPoint x="650" y="250" as="sourcePoint" />
            <mxPoint x="700" y="200" as="targetPoint" />
          </mxGeometry>
        </mxCell>
        <mxCell id="f6CLLwjRCBaYlmEwOCbh-40" value="" style="endArrow=none;html=1;rounded=0;exitX=0.983;exitY=0.94;exitDx=0;exitDy=0;exitPerimeter=0;entryX=1;entryY=1;entryDx=0;entryDy=0;dashed=1;strokeWidth=2;" parent="1" source="f6CLLwjRCBaYlmEwOCbh-11" target="f6CLLwjRCBaYlmEwOCbh-13" edge="1">
          <mxGeometry width="50" height="50" relative="1" as="geometry">
            <mxPoint x="650" y="180" as="sourcePoint" />
            <mxPoint x="700" y="130" as="targetPoint" />
          </mxGeometry>
        </mxCell>
        <mxCell id="f6CLLwjRCBaYlmEwOCbh-41" value="&lt;font style=&quot;font-size: 14px;&quot; face=&quot;Times New Roman&quot;&gt;&lt;b&gt;RF CHAIN&lt;/b&gt;&lt;/font&gt;" style="text;html=1;align=center;verticalAlign=middle;whiteSpace=wrap;rounded=0;" parent="1" vertex="1">
          <mxGeometry x="182.5" y="125" width="75" height="30" as="geometry" />
        </mxCell>
        <mxCell id="f6CLLwjRCBaYlmEwOCbh-42" value="&lt;font style=&quot;font-size: 14px;&quot; face=&quot;Times New Roman&quot;&gt;&lt;b&gt;ADC&lt;/b&gt;&lt;/font&gt;" style="text;html=1;align=center;verticalAlign=middle;whiteSpace=wrap;rounded=0;" parent="1" vertex="1">
          <mxGeometry x="337.5" y="125" width="75" height="30" as="geometry" />
        </mxCell>
        <mxCell id="f6CLLwjRCBaYlmEwOCbh-43" value="&lt;font style=&quot;font-size: 14px;&quot; face=&quot;Times New Roman&quot;&gt;&lt;b&gt;ACQUISITION&lt;/b&gt;&lt;/font&gt;" style="text;html=1;align=center;verticalAlign=middle;whiteSpace=wrap;rounded=0;" parent="1" vertex="1">
          <mxGeometry x="516.25" y="245" width="87.5" height="30" as="geometry" />
        </mxCell>
        <mxCell id="f6CLLwjRCBaYlmEwOCbh-44" value="&lt;font style=&quot;font-size: 14px;&quot; face=&quot;Times New Roman&quot;&gt;&lt;b&gt;TRACKING&lt;/b&gt;&lt;/font&gt;" style="text;html=1;align=center;verticalAlign=middle;whiteSpace=wrap;rounded=0;" parent="1" vertex="1">
          <mxGeometry x="522.5" y="365" width="75" height="30" as="geometry" />
        </mxCell>
        <mxCell id="f6CLLwjRCBaYlmEwOCbh-45" value="&lt;div&gt;&lt;font style=&quot;font-size: 14px;&quot; face=&quot;Times New Roman&quot;&gt;&lt;b&gt;PSEUDO&lt;/b&gt;&lt;/font&gt;&lt;/div&gt;&lt;div&gt;&lt;font style=&quot;font-size: 14px;&quot; face=&quot;Times New Roman&quot;&gt;&lt;b&gt;RANGE&lt;/b&gt;&lt;/font&gt;&lt;font size=&quot;3&quot; face=&quot;GNW64CmqHzVflnjqrPSB&quot;&gt;&lt;b&gt;&lt;br&gt;&lt;/b&gt;&lt;/font&gt;&lt;/div&gt;" style="text;html=1;align=center;verticalAlign=middle;whiteSpace=wrap;rounded=0;" parent="1" vertex="1">
          <mxGeometry x="362.5" y="496.5" width="75" height="30" as="geometry" />
        </mxCell>
        <mxCell id="f6CLLwjRCBaYlmEwOCbh-46" value="&lt;div&gt;&lt;font style=&quot;font-size: 14px;&quot; face=&quot;Times New Roman&quot;&gt;&lt;b&gt;SATELLITE&lt;/b&gt;&lt;/font&gt;&lt;/div&gt;&lt;div&gt;&lt;b&gt;&lt;font style=&quot;font-size: 14px;&quot; face=&quot;Times New Roman&quot;&gt;POSITION&lt;/font&gt;&lt;font style=&quot;font-size: 14px;&quot; face=&quot;D7FkhASsm9DOdiM5XjWl&quot;&gt;&lt;br&gt;&lt;/font&gt;&lt;/b&gt;&lt;/div&gt;" style="text;html=1;align=center;verticalAlign=middle;whiteSpace=wrap;rounded=0;" parent="1" vertex="1">
          <mxGeometry x="237.5" y="495" width="75" height="30" as="geometry" />
        </mxCell>
        <mxCell id="f6CLLwjRCBaYlmEwOCbh-47" value="&lt;div&gt;&lt;font style=&quot;font-size: 14px;&quot; face=&quot;Times New Roman&quot;&gt;&lt;b&gt;USER&lt;/b&gt;&lt;/font&gt;&lt;/div&gt;&lt;div&gt;&lt;b&gt;&lt;font style=&quot;font-size: 14px;&quot; face=&quot;Times New Roman&quot;&gt;POSITION&lt;/font&gt;&lt;font style=&quot;font-size: 14px;&quot; face=&quot;D7FkhASsm9DOdiM5XjWl&quot;&gt;&lt;br&gt;&lt;/font&gt;&lt;/b&gt;&lt;/div&gt;" style="text;html=1;align=center;verticalAlign=middle;whiteSpace=wrap;rounded=0;" parent="1" vertex="1">
          <mxGeometry x="112.5" y="495" width="75" height="30" as="geometry" />
        </mxCell>
        <mxCell id="jrvFbXfNLcxa4pNPMtaE-2" value="&lt;font style=&quot;font-size: 14px;&quot; face=&quot;Times New Roman&quot;&gt;&lt;b&gt;DSP&lt;/b&gt;&lt;/font&gt;" style="text;html=1;align=center;verticalAlign=middle;whiteSpace=wrap;rounded=0;" vertex="1" parent="1">
          <mxGeometry x="590" y="302" width="60" height="30" as="geometry" />
        </mxCell>
      </root>
    </mxGraphModel>
  </diagram>
</mxfile>
